<?xml version="1.0" encoding="UTF-8"?>
<svg width="280px" height="40px" viewBox="0 0 280 40" version="1.1" xmlns="http://www.w3.org/2000/svg" xmlns:xlink="http://www.w3.org/1999/xlink">
    <!-- Generator: Sketch 48.2 (47327) - http://www.bohemiancoding.com/sketch -->
    <title>Group 3</title>
    <desc>Created with Sketch.</desc>
    <defs>
        <radialGradient cx="50.0231933%" cy="49.9663866%" fx="50.0231933%" fy="49.9663866%" r="50.0231933%" gradientTransform="translate(0.500232,0.499664),scale(0.991667,1.000000),translate(-0.500232,-0.499664)" id="radialGradient-1">
            <stop stop-color="#FFE93C" offset="0%"></stop>
            <stop stop-color="#FEE234" offset="5.775308%"></stop>
            <stop stop-color="#FBD321" offset="22.07%"></stop>
            <stop stop-color="#FACE1A" offset="33.48%"></stop>
            <stop stop-color="#FACC18" offset="71.57%"></stop>
            <stop stop-color="#FAC512" offset="85.52%"></stop>
            <stop stop-color="#F9B908" offset="95.48%"></stop>
            <stop stop-color="#F9B100" offset="100%"></stop>
        </radialGradient>
        <radialGradient cx="50.0336975%" cy="49.9827731%" fx="50.0336975%" fy="49.9827731%" r="50.0231933%" id="radialGradient-2">
            <stop stop-color="#FFE93C" offset="0%"></stop>
            <stop stop-color="#FEE234" offset="5.775308%"></stop>
            <stop stop-color="#FBD321" offset="22.07%"></stop>
            <stop stop-color="#FACE1A" offset="33.48%"></stop>
            <stop stop-color="#FACC18" offset="71.57%"></stop>
            <stop stop-color="#FAC512" offset="85.52%"></stop>
            <stop stop-color="#F9B908" offset="95.48%"></stop>
            <stop stop-color="#F9B100" offset="100%"></stop>
        </radialGradient>
        <radialGradient cx="49.9736975%" cy="50.0403361%" fx="49.9736975%" fy="50.0403361%" r="50.0231933%" gradientTransform="translate(0.499737,0.500403),scale(0.991736,1.000000),translate(-0.499737,-0.500403)" id="radialGradient-3">
            <stop stop-color="#FFE93C" offset="0%"></stop>
            <stop stop-color="#FEE234" offset="5.775308%"></stop>
            <stop stop-color="#FBD321" offset="22.07%"></stop>
            <stop stop-color="#FACE1A" offset="33.48%"></stop>
            <stop stop-color="#FACC18" offset="71.57%"></stop>
            <stop stop-color="#FAC512" offset="85.52%"></stop>
            <stop stop-color="#F9B908" offset="95.48%"></stop>
            <stop stop-color="#F9B100" offset="100%"></stop>
        </radialGradient>
        <radialGradient cx="49.9756757%" cy="50.0009291%" fx="49.9756757%" fy="50.0009291%" r="49.9756757%" id="radialGradient-4">
            <stop stop-color="#FFE93C" offset="0%"></stop>
            <stop stop-color="#FEE234" offset="5.775308%"></stop>
            <stop stop-color="#FBD321" offset="22.07%"></stop>
            <stop stop-color="#FACE1A" offset="33.48%"></stop>
            <stop stop-color="#FACC18" offset="71.57%"></stop>
            <stop stop-color="#FAC512" offset="85.52%"></stop>
            <stop stop-color="#F9B908" offset="95.48%"></stop>
            <stop stop-color="#F9B100" offset="100%"></stop>
        </radialGradient>
    </defs>
    <g id="320_interrogation1" stroke="none" stroke-width="1" fill="none" fill-rule="evenodd" transform="translate(-20.000000, -344.000000)">
        <g id="Group-3" transform="translate(20.000000, 344.000000)" fill-rule="nonzero">
            <g id="1-01">
                <ellipse id="Oval" fill="url(#radialGradient-1)" cx="20" cy="20" rx="20" ry="19.8333333"></ellipse>
                <g id="Group" transform="translate(6.050420, 0.000000)">
                    <ellipse id="Oval" fill="#FFFFFF" cx="14.0504202" cy="19.5333333" rx="6.25210084" ry="6.2"></ellipse>
                    <path d="M13.9495798,27.7 C9.37815126,27.7 5.64705882,24 5.64705882,19.4666667 C5.64705882,14.9333333 9.37815126,11.2333333 13.9495798,11.2333333 C18.5210084,11.2333333 22.2521008,14.9333333 22.2521008,19.4666667 C22.2521008,24 18.5210084,27.7 13.9495798,27.7 Z M13.9495798,13.9333333 C10.8571429,13.9333333 8.3697479,16.4333333 8.3697479,19.4666667 C8.3697479,22.5 10.8571429,25 13.9495798,25 C17.0420168,25 19.5294118,22.5 19.5294118,19.4666667 C19.5294118,16.4333333 17.0420168,13.9333333 13.9495798,13.9333333 Z" id="Shape" fill="#000000"></path>
                    <path d="M25.9495798,7.63333333 C22.7226891,4.46666667 18.487395,2.7 13.9495798,2.7 C9.41176471,2.7 5.17647059,4.43333333 1.98319328,7.63333333 L0.0672268908,5.73333333 C3.76470588,2.03333333 8.70588235,0 13.9495798,0 C19.2268908,0 24.1680672,2.03333333 27.8655462,5.73333333 L25.9495798,7.63333333 Z" id="Shape" fill="#000000"></path>
                    <path d="M21.9159664,11.6 C19.7983193,9.5 16.9747899,8.33333333 13.9495798,8.33333333 C10.9579832,8.33333333 8.13445378,9.5 5.98319328,11.6 L4.06722689,9.7 C6.68907563,7.06666667 10.2184874,5.63333333 13.9495798,5.63333333 C17.6806723,5.63333333 21.210084,7.06666667 23.8319328,9.7 L21.9159664,11.6 Z" id="Shape" fill="#000000"></path>
                    <path d="M15.5630252,16 L13.9831933,17.5666667 L12.3697479,16 C11.5294118,16.3666667 10.8571429,17.0666667 10.4537815,17.9 L12.0336134,19.4666667 L10.4537815,21.0333333 C10.8235294,21.8666667 11.5294118,22.5333333 12.3697479,22.9333333 L13.9495798,21.3666667 L15.5294118,22.9333333 C16.3697479,22.5666667 17.0420168,21.8666667 17.4453782,21.0333333 L15.8655462,19.4666667 L17.4453782,17.9 C17.0756303,17.0666667 16.4033613,16.3666667 15.5630252,16 Z" id="Shape" fill="#000000"></path>
                </g>
                <path d="M27.9663866,35.5333333 C25.8487395,33.4333333 23.0252101,32.2666667 20,32.2666667 C17.0084034,32.2666667 14.1848739,33.4333333 12.0336134,35.5333333 L10.1176471,33.6333333 C12.7731092,31 16.2689076,29.5333333 20,29.5333333 C23.7310924,29.5333333 27.2605042,30.9666667 29.8823529,33.6 L27.9663866,35.5333333 Z" id="Shape" fill="#000000"></path>
            </g>
            <g id="2-01" transform="translate(60.000000, 0.000000)">
                <ellipse id="Oval" fill="url(#radialGradient-1)" cx="20" cy="20" rx="20" ry="19.8333333"></ellipse>
                <ellipse id="Oval" fill="#FFFFFF" cx="20.1008403" cy="19.5333333" rx="6.25210084" ry="6.2"></ellipse>
                <path d="M20,27.7 C15.4285714,27.7 11.697479,24 11.697479,19.4666667 C11.697479,14.9333333 15.4285714,11.2333333 20,11.2333333 C24.5714286,11.2333333 28.302521,14.9333333 28.302521,19.4666667 C28.302521,24 24.5714286,27.7 20,27.7 Z M20,13.9333333 C16.907563,13.9333333 14.4201681,16.4333333 14.4201681,19.4666667 C14.4201681,22.5 16.907563,25 20,25 C23.092437,25 25.5798319,22.5 25.5798319,19.4666667 C25.5798319,16.4333333 23.092437,13.9333333 20,13.9333333 Z" id="Shape" fill="#000000"></path>
                <path d="M32,7.63333333 C28.7731092,4.46666667 24.5378151,2.7 20,2.7 C15.4621849,2.7 11.2268908,4.43333333 8.03361345,7.63333333 L6.11764706,5.73333333 C9.81512605,2.03333333 14.7563025,0 20,0 C25.2773109,0 30.2184874,2.03333333 33.9159664,5.73333333 L32,7.63333333 Z" id="Shape" fill="#000000"></path>
                <path d="M27.9663866,11.6 C25.8487395,9.5 23.0252101,8.33333333 20,8.33333333 C17.0084034,8.33333333 14.1848739,9.5 12.0336134,11.6 L10.1176471,9.7 C12.7394958,7.06666667 16.2689076,5.63333333 20,5.63333333 C23.7310924,5.63333333 27.2605042,7.06666667 29.8823529,9.7 L27.9663866,11.6 Z" id="Shape" fill="#000000"></path>
                <path d="M20,31.5333333 C17.9159664,31.5333333 15.9327731,32 14.1176471,32.8333333 L15.6302521,35.1 C17.0084034,34.5333333 18.487395,34.2333333 20,34.2333333 C21.512605,34.2333333 22.9915966,34.5333333 24.3697479,35.1 L25.8823529,32.8333333 C24.0672269,32 22.0840336,31.5333333 20,31.5333333 Z" id="Shape" fill="#000000"></path>
                <path d="M20.302521,17.0333333 C20.3697479,17.2 20.4033613,17.3666667 20.4369748,17.5333333 C20.5042017,18.4 19.8319328,19.1333333 18.9915966,19.2 C18.487395,19.2333333 18.0168067,19.0333333 17.6806723,18.6666667 C17.5798319,18.9333333 17.5462185,19.2 17.5462185,19.4666667 C17.5462185,20.8333333 18.6554622,21.9 20,21.9 C21.3781513,21.9 22.4537815,20.8 22.4537815,19.4666667 C22.4537815,18.2 21.512605,17.1666667 20.302521,17.0333333 Z" id="Shape" fill="#000000"></path>
            </g>
            <g id="3-01" transform="translate(120.000000, 0.000000)">
                <circle id="Oval" fill="url(#radialGradient-2)" cx="20.1" cy="20.1666667" r="19.8333333"></circle>
                <circle id="Oval" fill="#FFFFFF" cx="20.2" cy="19.7" r="6.2"></circle>
                <g id="Group" transform="translate(6.333333, 0.000000)" fill="#000000">
                    <path d="M13.7666667,27.8666667 C9.23333333,27.8666667 5.53333333,24.1666667 5.53333333,19.6333333 C5.53333333,15.1 9.23333333,11.4 13.7666667,11.4 C18.3,11.4 22,15.1 22,19.6333333 C22,24.1666667 18.3,27.8666667 13.7666667,27.8666667 Z M13.7666667,14.1 C10.7,14.1 8.23333333,16.6 8.23333333,19.6333333 C8.23333333,22.6666667 10.7333333,25.1666667 13.7666667,25.1666667 C16.8,25.1666667 19.3,22.6666667 19.3,19.6333333 C19.3,16.6 16.8333333,14.1 13.7666667,14.1 Z" id="Shape"></path>
                    <path d="M25.6666667,7.8 C22.5,4.63333333 18.2666667,2.86666667 13.7666667,2.86666667 C9.26666667,2.86666667 5.06666667,4.6 1.9,7.8 L0,5.9 C3.66666667,2.2 8.56666667,0.166666667 13.7666667,0.166666667 C19,0.166666667 23.9,2.2 27.5666667,5.9 L25.6666667,7.8 Z" id="Shape"></path>
                    <path d="M21.6666667,11.8 C19.5666667,9.7 16.7666667,8.53333333 13.7666667,8.53333333 C10.8,8.53333333 8,9.7 5.86666667,11.8 L3.96666667,9.9 C6.56666667,7.26666667 10.0666667,5.83333333 13.7666667,5.83333333 C17.4666667,5.83333333 20.9666667,7.26666667 23.5666667,9.9 L21.6666667,11.8 Z" id="Shape"></path>
                    <path d="M14.0666667,17.2 C14.1333333,17.3666667 14.1666667,17.5333333 14.2,17.7 C14.2666667,18.5666667 13.6,19.3 12.7666667,19.3666667 C12.2666667,19.4 11.8,19.2 11.4666667,18.8333333 C11.3666667,19.1 11.3333333,19.3666667 11.3333333,19.6333333 C11.3333333,21 12.4333333,22.0666667 13.7666667,22.0666667 C15.1333333,22.0666667 16.2,20.9666667 16.2,19.6333333 C16.2333333,18.4 15.2666667,17.3666667 14.0666667,17.2 Z" id="Shape"></path>
                </g>
                <rect id="Rectangle-path" fill="#000000" x="14" y="30.5333333" width="12.2" height="2.66666667"></rect>
            </g>
            <g id="4-01" transform="translate(180.000000, 0.000000)">
                <ellipse id="Oval" fill="url(#radialGradient-3)" cx="19.9333333" cy="20.0661157" rx="19.8333333" ry="19.6694215"></ellipse>
                <ellipse id="Oval" fill="#FFFFFF" cx="20" cy="19.6033058" rx="6.2" ry="6.14876033"></ellipse>
                <path d="M19.9,27.7355372 C15.3666667,27.7355372 11.6666667,24.0661157 11.6666667,19.5702479 C11.6666667,15.0743802 15.3666667,11.4049587 19.9,11.4049587 C24.4333333,11.4049587 28.1333333,15.0743802 28.1333333,19.5702479 C28.1333333,24.0661157 24.4666667,27.7355372 19.9,27.7355372 Z M19.9,14.0826446 C16.8333333,14.0826446 14.3666667,16.5619835 14.3666667,19.5702479 C14.3666667,22.5785124 16.8666667,25.0578512 19.9,25.0578512 C22.9333333,25.0578512 25.4333333,22.5785124 25.4333333,19.5702479 C25.4333333,16.5619835 22.9666667,14.0826446 19.9,14.0826446 Z" id="Shape" fill="#000000"></path>
                <path d="M31.8,7.83471074 C28.6333333,4.69421488 24.4,2.94214876 19.9,2.94214876 C15.4,2.94214876 11.2,4.66115702 8.03333333,7.83471074 L6.13333333,5.95041322 C9.8,2.28099174 14.7,0.26446281 19.9,0.26446281 C25.1333333,0.26446281 30.0333333,2.28099174 33.7,5.95041322 L31.8,7.83471074 Z" id="Shape" fill="#000000"></path>
                <path d="M27.8,11.768595 C25.7,9.68595041 22.9,8.52892562 19.9,8.52892562 C16.9333333,8.52892562 14.1333333,9.68595041 12,11.768595 L10.1,9.88429752 C12.7,7.27272727 16.2,5.85123967 19.9,5.85123967 C23.6,5.85123967 27.1,7.27272727 29.7,9.88429752 L27.8,11.768595 Z" id="Shape" fill="#000000"></path>
                <path d="M20.2333333,17.1570248 C20.3,17.322314 20.3333333,17.4876033 20.3666667,17.6528926 C20.4333333,18.5123967 19.7666667,19.2396694 18.9333333,19.3057851 C18.4333333,19.338843 17.9666667,19.1404959 17.6333333,18.7768595 C17.5333333,19.0413223 17.5,19.3057851 17.5,19.5702479 C17.5,20.9256198 18.6,21.9834711 19.9333333,21.9834711 C21.2666667,21.9834711 22.3666667,20.892562 22.3666667,19.5702479 C22.3666667,18.3140496 21.4333333,17.2892562 20.2333333,17.1570248 Z" id="Shape" fill="#000000"></path>
                <path d="M12.0333333,28.4297521 C14.1333333,30.5123967 16.9333333,31.6694215 19.9333333,31.6694215 C22.9,31.6694215 25.7,30.5123967 27.8333333,28.4297521 L29.7333333,30.3140496 C27.1,32.9586777 23.6333333,34.3801653 19.9333333,34.3801653 C16.2333333,34.3801653 12.7333333,32.9586777 10.1333333,30.3471074 L12.0333333,28.4297521 Z" id="Shape" fill="#000000"></path>
            </g>
            <g id="5-01" transform="translate(240.000000, 0.000000)">
                <circle id="Oval" fill="url(#radialGradient-4)" cx="19.8991597" cy="20.0336134" r="19.8991597"></circle>
                <circle id="Oval" fill="#FFFFFF" cx="19.9663866" cy="19.5630252" r="6.21848739"></circle>
                <g id="Group" transform="translate(6.050420, 0.000000)" fill="#000000">
                    <path d="M13.8151261,27.7647059 C9.27731092,27.7647059 5.54621849,24.0672269 5.54621849,19.4957983 C5.54621849,14.9243697 9.24369748,11.2268908 13.8151261,11.2268908 C18.3865546,11.2268908 22.0840336,14.9243697 22.0840336,19.4957983 C22.0840336,24.0672269 18.3865546,27.7647059 13.8151261,27.7647059 Z M13.8151261,13.9831933 C10.7563025,13.9831933 8.26890756,16.4705882 8.26890756,19.5294118 C8.26890756,22.5882353 10.7563025,25.0756303 13.8151261,25.0756303 C16.8739496,25.0756303 19.3613445,22.5882353 19.3613445,19.5294118 C19.3613445,16.4705882 16.907563,13.9831933 13.8151261,13.9831933 Z" id="Shape"></path>
                    <path d="M25.7478992,7.66386555 C22.5546218,4.47058824 18.3529412,2.72268908 13.8487395,2.72268908 C9.34453782,2.72268908 5.1092437,4.47058824 1.94957983,7.66386555 L0,5.74789916 C3.69747899,2.05042017 8.60504202,0 13.8151261,0 C19.0588235,0 23.9663866,2.05042017 27.6638655,5.74789916 L25.7478992,7.66386555 Z" id="Shape"></path>
                    <path d="M21.7478992,11.6302521 C19.6302521,9.51260504 16.8403361,8.33613445 13.8487395,8.33613445 C10.8571429,8.33613445 8.06722689,9.51260504 5.94957983,11.6302521 L4.03361345,9.71428571 C6.65546218,7.09243697 10.1512605,5.64705882 13.8487395,5.64705882 C17.5798319,5.64705882 21.0420168,7.09243697 23.697479,9.74789916 L21.7478992,11.6302521 Z" id="Shape"></path>
                    <path d="M14.1512605,17.0420168 C14.2184874,17.210084 14.2521008,17.3781513 14.2857143,17.5462185 C14.3529412,18.4201681 13.6806723,19.1596639 12.8403361,19.2268908 C12.3361345,19.2605042 11.8655462,19.0588235 11.5294118,18.6890756 C11.4285714,18.9579832 11.394958,19.2268908 11.394958,19.4957983 C11.394958,20.8739496 12.5042017,21.9495798 13.8487395,21.9495798 C15.2268908,21.9495798 16.302521,20.8403361 16.302521,19.4957983 C16.302521,18.2521008 15.3613445,17.210084 14.1512605,17.0420168 Z" id="Shape"></path>
                </g>
                <path d="M19.8991597,35.697479 C22.5210084,35.697479 24.6386555,33.5798319 24.6386555,30.9579832 L15.1260504,30.9579832 C15.1260504,33.5798319 17.2773109,35.697479 19.8991597,35.697479 Z" id="Shape" fill="#000000"></path>
            </g>
        </g>
    </g>
</svg>