<?xml version="1.0" encoding="UTF-8"?>
<svg width="83px" height="98px" viewBox="0 0 83 98" version="1.1" xmlns="http://www.w3.org/2000/svg">
  <!-- Generator: Sketch 48.2 (47327) - http://www.bohemiancoding.com/sketch -->
  <title>5-illustartion</title>
  <desc>Created with Sketch.</desc>
  <defs>
    <linearGradient x1="27.2189405%" y1="18.246848%" x2="75.8992743%" y2="86.7597033%" id="linearGradient-1">
      <stop stop-color="#000000" stop-opacity="0" offset="0%"></stop>
      <stop stop-color="#000000" stop-opacity="0.3" offset="99.64%"></stop>
    </linearGradient>
    <linearGradient x1="97.9446328%" y1="-6.33585151%" x2="-6.24449153%" y2="103.954884%" id="linearGradient-2">
      <stop stop-color="#2D2F4D" offset="0%"></stop>
      <stop stop-color="#343757" offset="15.81%"></stop>
      <stop stop-color="#53588F" offset="30.1%"></stop>
      <stop stop-color="#2F304F" offset="43.11%"></stop>
      <stop stop-color="#212238" offset="99.81%"></stop>
    </linearGradient>
    <linearGradient x1="97.4486928%" y1="0.871478368%" x2="2.41830065%" y2="99.7040834%" id="linearGradient-3">
      <stop stop-color="#FFE47D" offset="0%"></stop>
      <stop stop-color="#FF8500" offset="99.81%"></stop>
    </linearGradient>
    <linearGradient x1="93.6104781%" y1="17.519553%" x2="55.7477751%" y2="43.8857549%" id="linearGradient-4">
      <stop stop-color="#61E7FF" offset="0%"></stop>
      <stop stop-color="#54CEF4" offset="13.25%"></stop>
      <stop stop-color="#2C83D4" offset="55.11%"></stop>
      <stop stop-color="#1454C0" offset="85.07%"></stop>
      <stop stop-color="#0A42B8" offset="100%"></stop>
    </linearGradient>
    <linearGradient x1="2.65425803%" y1="84.6102706%" x2="90.8972033%" y2="1.46498827%" id="linearGradient-5">
      <stop stop-color="#61E7FF" offset="0%"></stop>
      <stop stop-color="#54CEF4" offset="13.25%"></stop>
      <stop stop-color="#2C83D4" offset="55.11%"></stop>
      <stop stop-color="#1454C0" offset="85.07%"></stop>
      <stop stop-color="#0A42B8" offset="100%"></stop>
    </linearGradient>
    <linearGradient x1="13.736%" y1="96.8302992%" x2="82.8223333%" y2="-3.62590404%" id="linearGradient-6">
      <stop stop-color="#61E7FF" offset="0%"></stop>
      <stop stop-color="#54CEF4" offset="13.25%"></stop>
      <stop stop-color="#2C83D4" offset="55.11%"></stop>
      <stop stop-color="#1454C0" offset="85.07%"></stop>
      <stop stop-color="#0A42B8" offset="100%"></stop>
    </linearGradient>
    <linearGradient x1="115.150649%" y1="-0.480630631%" x2="16.1536797%" y2="73.5788288%" id="linearGradient-7">
      <stop stop-color="#61E7FF" offset="0%"></stop>
      <stop stop-color="#54CEF4" offset="13.25%"></stop>
      <stop stop-color="#2C83D4" offset="55.11%"></stop>
      <stop stop-color="#1454C0" offset="85.07%"></stop>
      <stop stop-color="#0A42B8" offset="100%"></stop>
    </linearGradient>
    <linearGradient x1="128.186135%" y1="-51.976%" x2="-5.85988154%" y2="108.474%" id="linearGradient-8">
      <stop stop-color="#61E7FF" offset="0%"></stop>
      <stop stop-color="#54CEF4" offset="13.25%"></stop>
      <stop stop-color="#2C83D4" offset="55.11%"></stop>
      <stop stop-color="#1454C0" offset="85.07%"></stop>
      <stop stop-color="#0A42B8" offset="100%"></stop>
    </linearGradient>
  </defs>
  <g id="320_landing-page-copy" stroke="none" stroke-width="1" fill="none" fill-rule="evenodd"
     transform="translate(-33.000000, -1125.000000)">
    <g id="Group-2" transform="translate(20.000000, 834.000000)">
      <g id="5-illustartion" transform="translate(0.000000, 280.000000)">
        <g id="Group-6">
          <g fill-rule="nonzero">
            <g id="Unlim-01" transform="translate(6.857143, 11.142857)">
              <polygon id="Shape" fill="url(#linearGradient-1)"
                       points="66.7602484 78.9689441 28.4869565 56.6832298 0 73.8335404 37.7888199 95.8770186"></polygon>
              <path
                d="M68.1652174,3.77888199 L64.5801242,1.64720497 C64.1925466,1.35652174 63.6111801,1.25962733 63.1267081,1.55031056 L34.8335404,18.1192547 C34.2521739,18.4583851 33.8645963,19.0881988 33.8645963,19.7664596 L33.8645963,92.6310559 C33.8645963,93.5031056 34.4459627,94.1813665 35.1242236,94.4236025 L38.5639752,96.5068323 L39.484472,93.5515528 L39.1453416,92.8732919 L64.0956522,78.242236 C64.6770186,77.9031056 65.0645963,77.2732919 65.0645963,76.5950311 L65.0645963,7.55776398 L65.6944099,7.60621118 L68.1652174,3.77888199 Z"
                id="Shape" fill="url(#linearGradient-2)"></path>
              <path
                d="M67.9229814,80.6161491 L40.5503106,96.6521739 C39.2906832,97.4273292 37.6434783,96.4583851 37.6434783,95.0049689 L37.6434783,22.0919255 C37.6434783,21.4136646 37.9826087,20.7838509 38.6124224,20.4447205 L66.9540373,3.82732919 C67.826087,3.34285714 68.8919255,3.9242236 68.8919255,4.94161491 L68.8919255,78.9689441 C68.8434783,79.5987578 68.5043478,80.2285714 67.9229814,80.6161491 Z"
                id="Shape" fill="#000000"></path>
              <path
                d="M66.5180124,5.23229814 L61.2857143,8.28447205 L61.2857143,11.1428571 C61.2857143,11.3850932 61.1403727,11.6273292 60.9465839,11.7726708 L47.042236,19.9602484 C46.6546584,20.2024845 46.1217391,19.9118012 46.1217391,19.4273292 L46.1217391,17.1987578 L39.3391304,21.1714286 C38.757764,21.510559 38.4186335,22.0919255 38.4186335,22.7701863 L38.4186335,94.084472 C38.4186335,95.2956522 39.7267081,96.0708075 40.7925466,95.4409938 L67.1478261,79.9863354 C67.7291925,79.647205 68.068323,79.0658385 68.068323,78.3875776 L68.068323,6.15279503 C68.068323,5.32919255 67.1962733,4.8447205 66.5180124,5.23229814 Z"
                id="Shape" fill="url(#linearGradient-3)"></path>
              <path
                d="M78.1937888,47.0906832 C78,48.931677 76.6434783,50.4335404 75.1416149,50.4335404 C73.6397516,50.4335404 72.573913,48.931677 72.7192547,47.0906832 C72.9130435,45.2496894 74.2695652,43.7478261 75.7714286,43.7478261 C77.2732919,43.7478261 78.3875776,45.2496894 78.1937888,47.0906832 Z"
                id="Shape" fill="#FFFFFF" opacity="0.7"></path>
              <path
                d="M75.3838509,2.71304348 C75.2385093,4.21490683 74.1242236,5.42608696 72.9130435,5.47453416 C71.7018634,5.52298137 70.7813665,4.26335404 70.9267081,2.76149068 C71.0720497,1.25962733 72.1863354,0 73.4459627,0 C74.7055901,0 75.5291925,1.21118012 75.3838509,2.71304348 Z"
                id="Shape" fill="#FFFFFF" opacity="0.7"></path>
              <path
                d="M26.3552795,53.8248447 C26.2583851,54.9391304 25.4347826,55.8596273 24.5142857,55.8596273 C23.5937888,55.8596273 22.9639752,54.9391304 23.0608696,53.8248447 C23.157764,52.710559 23.9813665,51.7900621 24.9018634,51.7900621 C25.8223602,51.7900621 26.5006211,52.6621118 26.3552795,53.8248447 Z"
                id="Shape" fill="#FFFFFF" opacity="0.7"></path>
              <path
                d="M83.0869565,38.1279503 C83.0385093,38.515528 82.7478261,38.8062112 82.4571429,38.8546584 C82.1180124,38.8546584 81.9242236,38.5639752 81.9726708,38.1763975 C82.021118,37.7888199 82.3118012,37.4981366 82.6024845,37.4496894 C82.9416149,37.4012422 83.1354037,37.7403727 83.0869565,38.1279503 Z"
                id="Shape" fill="#FFFFFF" opacity="0.7"></path>
              <path
                d="M27.7602484,60.1229814 C27.7118012,60.510559 27.421118,60.8012422 27.1304348,60.8496894 C26.8397516,60.8981366 26.5975155,60.5590062 26.6459627,60.1714286 C26.6944099,59.7838509 26.9850932,59.4931677 27.2757764,59.4447205 C27.5664596,59.3962733 27.8086957,59.7354037 27.7602484,60.1229814 Z"
                id="Shape" fill="#FFFFFF" opacity="0.7"></path>
              <path
                d="M37.6434783,7.89689441 C37.5465839,8.67204969 37.0136646,9.30186335 36.3838509,9.30186335 C35.7540373,9.30186335 35.3180124,8.67204969 35.3664596,7.89689441 C35.463354,7.12173913 35.9962733,6.49192547 36.626087,6.49192547 C37.2559006,6.49192547 37.6919255,7.12173913 37.6434783,7.89689441 Z"
                id="Shape" fill="#FFFFFF" opacity="0.7"></path>
              <path
                d="M76.5950311,35.8509317 C76.5465839,36.5291925 76.0136646,37.110559 75.4322981,37.110559 C74.8509317,37.110559 74.463354,36.5291925 74.5118012,35.8509317 C74.5602484,35.1726708 75.0931677,34.5913043 75.6745342,34.5913043 C76.2559006,34.5913043 76.6434783,35.1726708 76.5950311,35.8509317 Z"
                id="Shape" fill="#FFFFFF" opacity="0.7"></path>
              <path
                d="M62.0124224,78.7751553 C61.9639752,78.7751553 61.915528,78.7751553 61.8186335,78.8236025 L48.0111801,87.1565217 C47.8658385,87.2534161 47.7689441,87.3987578 47.7204969,87.5925466 C47.6720497,87.8347826 47.7689441,88.0770186 48.0111801,88.0770186 C48.0596273,88.0770186 48.1565217,88.0285714 48.2049689,88.0285714 L62.0124224,79.7440994 C62.157764,79.647205 62.2546584,79.5018634 62.2546584,79.3565217 C62.3515528,79.0173913 62.2062112,78.7751553 62.0124224,78.7751553 Z"
                id="Shape" fill="#FFFFFF" opacity="0.5"></path>
              <g id="Group" transform="translate(61.527950, 54.260870)">
                <path
                  d="M14.3888199,13.3714286 C13.6136646,16.0360248 12.8869565,18.6521739 12.1118012,21.4136646 C8.13913043,14.3403727 4.21490683,7.36397516 0.242236025,0.29068323 C8.33291925,0.726708075 16.3267081,1.16273292 24.4173913,1.59875776 C22.3341615,3.48819876 20.2993789,5.32919255 18.2645963,7.17018634 C21.3167702,9.05962733 24.3204969,10.9006211 27.3242236,12.7416149 C26.0161491,14.8732919 24.7565217,16.9080745 23.4484472,18.9913043 C20.4447205,17.1503106 17.4409938,15.3093168 14.3888199,13.3714286 Z M2.80993789,1.88944099 C5.76521739,7.17018634 8.67204969,12.3055901 11.6757764,17.6347826 C12.3055901,15.357764 12.9354037,13.226087 13.5652174,10.9975155 C16.7627329,13.0322981 19.9118012,14.9701863 22.9639752,16.9080745 C23.6906832,15.7453416 24.4658385,14.5341615 25.289441,13.2745342 C22.1403727,11.336646 18.9913043,9.39875776 15.842236,7.46086957 C17.489441,5.95900621 19.136646,4.50559006 20.8322981,2.9068323 C14.7279503,2.51925466 8.8173913,2.22857143 2.80993789,1.88944099 Z"
                  id="Shape" fill="#000000"></path>
                <path
                  d="M2.80993789,1.88944099 C8.8173913,2.22857143 14.7279503,2.51925466 20.8322981,2.85838509 C19.0881988,4.40869565 17.489441,5.91055901 15.842236,7.41242236 C18.9913043,9.35031056 22.1403727,11.2881988 25.289441,13.226087 C24.4658385,14.4857143 23.7391304,15.6968944 22.9639752,16.8596273 C19.9118012,14.9217391 16.7627329,12.9838509 13.5652174,10.9490683 C12.9354037,13.226087 12.3055901,15.3093168 11.6757764,17.5863354 C8.67204969,12.3055901 5.76521739,7.17018634 2.80993789,1.88944099 Z"
                  id="Shape" fill="#FFFFFF"></path>
              </g>
              <path
                d="M61.5279503,37.4496894 C59.6385093,36.5776398 57.1192547,37.0621118 54.4062112,38.8546584 C51.6931677,40.647205 49.1254658,43.4571429 47.1875776,46.8484472 C45.2496894,50.2397516 44.1354037,53.7763975 44.1354037,56.7801242 C44.1354037,59.7838509 45.1043478,61.915528 46.9937888,62.7875776 C48.8832298,63.6596273 51.4024845,63.1751553 54.115528,61.3826087 C56.8285714,59.5900621 59.3962733,56.7801242 61.3341615,53.3888199 C63.2720497,49.9975155 64.3863354,46.4608696 64.3863354,43.4571429 C64.4347826,40.4534161 63.4173913,38.3217391 61.5279503,37.4496894 Z M48.2534161,47.3329193 C49.173913,45.7341615 50.2881988,44.2322981 51.4509317,42.9726708 C50.7242236,44.1354037 50.1428571,45.3950311 49.6099379,46.6062112 C49.4645963,46.9453416 49.3192547,47.284472 49.2223602,47.6236025 L47.5267081,48.7378882 C47.7204969,48.3018634 48.0111801,47.8173913 48.2534161,47.3329193 Z M46.557764,51.063354 L48.5440994,49.7552795 C48.2049689,51.063354 47.9627329,52.3229814 47.8658385,53.4857143 L45.6857143,54.8906832 C45.7826087,53.7279503 46.0732919,52.4198758 46.557764,51.063354 Z M46.4608696,59.4447205 C46.0248447,58.7180124 45.7341615,57.7490683 45.6857143,56.6347826 L47.8658385,55.2298137 C47.9142857,56.3440994 48.1080745,57.3130435 48.447205,58.136646 L46.4608696,59.4447205 Z M48.1080745,60.9465839 C47.8658385,60.8012422 47.5751553,60.6559006 47.3813665,60.510559 L49.0770186,59.3962733 C49.173913,59.5900621 49.3192547,59.7354037 49.4645963,59.8807453 C49.9490683,60.4621118 50.578882,60.8496894 51.2571429,61.1403727 C50.0944099,61.4310559 48.9801242,61.3826087 48.1080745,60.9465839 Z M53.4372671,59.4931677 C52.4198758,59.3962733 51.4993789,58.9602484 50.821118,58.2335404 L53.4857143,56.489441 L53.4372671,59.4931677 Z M53.4857143,54.7937888 L50.0459627,57.0708075 C49.6583851,56.2956522 49.4161491,55.3267081 49.3677019,54.2124224 L53.5341615,51.4509317 L53.4857143,54.7937888 Z M53.5341615,49.8037267 L49.3677019,52.5652174 C49.4645963,51.3540373 49.7068323,50.0459627 50.1428571,48.7378882 L53.5826087,46.4608696 L53.5341615,49.8037267 Z M53.6310559,44.7652174 L50.9664596,46.5093168 C51.6931677,44.8621118 52.5652174,43.263354 53.6310559,41.7614907 L53.6310559,44.7652174 Z M62.1093168,40.8409938 C62.5453416,41.5677019 62.8360248,42.536646 62.884472,43.6509317 L61.1403727,44.8136646 C61.0919255,43.6993789 60.8981366,42.7304348 60.5590062,41.9068323 L62.1093168,40.8409938 Z M60.4621118,39.3391304 C60.7043478,39.484472 60.9950311,39.6298137 61.1888199,39.7751553 L59.8807453,40.5987578 C59.7838509,40.4049689 59.6385093,40.2596273 59.4931677,40.1142857 C59.0571429,39.6298137 58.5726708,39.242236 57.9913043,39 C58.9602484,38.9031056 59.7838509,39 60.4621118,39.3391304 Z M55.1329193,40.5018634 C56.3440994,40.5018634 57.3614907,40.9378882 58.136646,41.8099379 L55.084472,43.8447205 L55.1329193,40.5018634 Z M55.084472,45.4434783 L58.9602484,42.9242236 C59.3478261,43.6993789 59.5900621,44.668323 59.6385093,45.7826087 L55.0360248,48.7863354 L55.084472,45.4434783 Z M55.0360248,50.4819876 L59.6385093,47.4782609 C59.5416149,48.689441 59.2993789,49.9975155 58.863354,51.3055901 L54.9875776,53.8248447 L55.0360248,50.4819876 Z M54.9391304,58.8149068 L54.9875776,55.5204969 L58.0397516,53.4857143 C57.2161491,55.3267081 56.1503106,57.1677019 54.9391304,58.8149068 Z M60.3167702,52.9043478 C59.5900621,54.1639752 58.7664596,55.3751553 57.8459627,56.4409938 C58.4273292,55.4236025 58.9118012,54.4062112 59.3962733,53.3403727 C59.5416149,53.0012422 59.6869565,52.6621118 59.7838509,52.3229814 L61.0919255,51.4993789 C60.8496894,51.9838509 60.5590062,52.468323 60.3167702,52.9043478 Z M62.0124224,49.2223602 L60.4621118,50.2397516 C60.8012422,48.931677 61.0434783,47.6720497 61.1403727,46.5093168 L62.884472,45.3465839 C62.7875776,46.557764 62.4968944,47.8658385 62.0124224,49.2223602 Z"
                id="Shape" fill="#FFFFFF" opacity="0.8"></path>
              <g id="Group" transform="translate(22.770186, 20.049689)">
                <path
                  d="M27.5664596,2.85838509 L28.4869565,2.51925466 L26.2099379,1.21118012 C24.6111801,0.048447205 22.2372671,0.0968944099 19.7664596,1.64720497 C17.247205,3.24596273 15.2608696,5.91055901 13.952795,9.35031056 C12.1118012,7.99378882 9.7378882,7.99378882 7.31552795,9.54409938 C3.05217391,12.2571429 5.55111512e-17,18.3614907 0.436024845,23.157764 C0.629813665,25.2409938 1.45341615,26.7428571 2.66459627,27.5664596 L5.8136646,29.4074534 L5.57142857,28.2447205 C6.63726708,28.1478261 7.8,27.7602484 8.96273292,26.9850932 C11.3850932,25.4347826 13.468323,22.6732919 14.8732919,19.2335404 C16.6658385,20.6869565 18.9428571,20.6869565 21.4136646,19.0881988 C25.6770186,16.3751553 28.7291925,10.2708075 28.2931677,5.47453416 C28.1962733,4.50559006 27.9540373,3.58509317 27.5664596,2.85838509 Z M8.52670807,22.5279503 C6.49192547,23.8360248 4.65093168,23.0124224 4.40869565,20.6869565 C4.16645963,18.3614907 5.66832298,15.4062112 7.70310559,14.1465839 C9.68944099,12.8869565 11.336646,14.0981366 12.3055901,15.6968944 C11.7726708,18.2161491 10.5130435,21.268323 8.52670807,22.5279503 Z M20.9776398,14.6310559 C19.2335404,15.7453416 17.7801242,15.1639752 16.5689441,12.9838509 C17.247205,9.59254658 18.4583851,7.31552795 20.2024845,6.20124224 C22.2372671,4.8931677 24.0782609,5.71677019 24.3204969,8.04223602 C24.5142857,10.3677019 23.0608696,13.3229814 20.9776398,14.6310559 Z"
                  id="Shape" fill="url(#linearGradient-4)"></path>
                <path
                  d="M7.26708075,9.59254658 C3.00372671,12.3055901 -0.048447205,18.4099379 0.38757764,23.2062112 C0.58136646,25.289441 1.40496894,26.7913043 2.61614907,27.6149068 L5.76521739,29.4559006 L5.52298137,28.2931677 C5.66832298,28.2931677 5.76521739,28.2447205 5.91055901,28.2447205 L4.31180124,22.2857143 L4.65093168,21.752795 C4.50559006,21.4136646 4.40869565,21.0745342 4.36024845,20.6385093 C4.11801242,18.3130435 5.61987578,15.357764 7.65465839,14.0981366 C8.86583851,13.3229814 9.93167702,13.468323 10.8037267,14.0496894 L16.1813665,10.7068323 L13.9043478,9.39875776 C12.063354,7.99378882 9.68944099,8.04223602 7.26708075,9.59254658 Z"
                  id="Shape" fill="url(#linearGradient-5)"></path>
                <path
                  d="M28.4869565,2.51925466 L26.2099379,1.21118012 C24.6111801,0.048447205 22.2372671,0.0968944099 19.7664596,1.64720497 C17.247205,3.24596273 15.2608696,5.91055901 13.952795,9.35031056 L16.2298137,10.6583851 L16.5689441,12.9354037 C17.247205,9.54409938 18.4583851,7.26708075 20.2024845,6.15279503 C21.268323,5.47453416 22.3341615,5.37763975 23.0608696,5.8136646 C23.5937888,5.32919255 23.9329193,4.94161491 23.9813665,4.94161491 C24.0782609,4.8931677 26.1614907,4.65093168 28.0993789,4.40869565 C27.9540373,3.82732919 27.7602484,3.29440994 27.5664596,2.80993789 L28.4869565,2.51925466 Z"
                  id="Shape" fill="url(#linearGradient-6)"></path>
                <path
                  d="M15.0670807,17.2956522 L12.3055901,15.6484472 C11.7726708,18.2161491 10.5130435,21.268323 8.52670807,22.5279503 C7.46086957,23.2062112 6.44347826,23.3031056 5.71677019,22.915528 C6.15279503,23.6906832 7.70310559,26.4037267 7.89689441,26.4037267 C7.99378882,26.4037267 9.10807453,26.2583851 10.2708075,26.0645963 C12.1602484,24.4658385 13.7590062,22.0919255 14.8732919,19.2819876 C15.0670807,19.4757764 15.3093168,19.621118 15.5031056,19.7180124 L16.9080745,16.6658385 L15.0670807,17.2956522 Z"
                  id="Shape" fill="url(#linearGradient-7)"></path>
                <path
                  d="M15.9391304,15.8906832 L15.115528,17.247205 L12.3540373,15.6 C12.3540373,15.6 11.821118,14.9701863 11.9180124,14.9701863 C12.9838509,14.8732919 13.5167702,14.8248447 13.5167702,14.8248447 L15.9391304,15.8906832 Z"
                  id="Shape" fill="url(#linearGradient-8)"></path>
                <path
                  d="M24.1751553,20.7838509 C21.6559006,22.3826087 19.4273292,22.3826087 17.6347826,20.9291925 C16.2298137,24.3689441 14.1465839,27.1304348 11.7242236,28.6807453 C7.46086957,31.3937888 3.63354037,29.6496894 3.19751553,24.8534161 C2.76149068,20.0571429 5.8136646,13.9043478 10.0285714,11.1913043 C12.4509317,9.64099379 14.8248447,9.64099379 16.6658385,10.9975155 C18.0223602,7.50931677 20.0086957,4.8931677 22.4795031,3.29440994 C26.7428571,0.58136646 30.5701863,2.32546584 31.0062112,7.12173913 C31.5391304,11.9664596 28.4385093,18.0708075 24.1751553,20.7838509 Z M19.3304348,14.5826087 C20.5416149,16.7627329 22.0434783,17.3440994 23.7391304,16.2298137 C25.773913,14.9217391 27.2757764,12.0149068 27.0335404,9.68944099 C26.7913043,7.36397516 24.9503106,6.54037267 22.915528,7.8484472 C21.2198758,8.91428571 20.0086957,11.1913043 19.3304348,14.5826087 Z M10.4645963,15.7453416 C8.42981366,17.0534161 6.92795031,19.9602484 7.17018634,22.2857143 C7.41242236,24.6111801 9.25341615,25.4347826 11.2881988,24.1267081 C13.2745342,22.8670807 14.5341615,19.8149068 15.0670807,17.247205 C14.1465839,15.6968944 12.4509317,14.4857143 10.4645963,15.7453416 Z"
                  id="Shape" fill="#0DB5FF"></path>
              </g>
            </g>
          </g>
        </g>
      </g>
    </g>
  </g>
</svg>
