<?xml version="1.0" encoding="UTF-8"?>
<svg width="88px" height="124px" viewBox="0 0 88 124" version="1.1" xmlns="http://www.w3.org/2000/svg">
    <!-- Generator: Sketch 48.2 (47327) - http://www.bohemiancoding.com/sketch -->
    <title>1-illustration</title>
    <desc>Created with Sketch.</desc>
    <defs>
        <linearGradient x1="28.3131068%" y1="20.0998358%" x2="74.5858252%" y2="84.7638752%" id="linearGradient-1">
            <stop stop-color="#000000" stop-opacity="0" offset="0%"></stop>
            <stop stop-color="#000000" stop-opacity="0.3" offset="99.64%"></stop>
        </linearGradient>
        <linearGradient x1="97.9729549%" y1="-6.32381853%" x2="-6.21168614%" y2="103.790922%" id="linearGradient-2">
            <stop stop-color="#2D2F4D" offset="0%"></stop>
            <stop stop-color="#343757" offset="15.81%"></stop>
            <stop stop-color="#53588F" offset="30.1%"></stop>
            <stop stop-color="#2F304F" offset="43.11%"></stop>
            <stop stop-color="#212238" offset="99.81%"></stop>
        </linearGradient>
        <linearGradient x1="97.4787234%" y1="0.846977781%" x2="2.30889749%" y2="99.7758147%" id="linearGradient-3">
            <stop stop-color="#2EA8E6" offset="0%"></stop>
            <stop stop-color="#2863DE" offset="99.81%"></stop>
        </linearGradient>
        <linearGradient x1="110.699074%" y1="-6.05345212%" x2="-18.9703704%" y2="112.139866%" id="linearGradient-4">
            <stop stop-color="#2ECAE6" stop-opacity="0.8" offset="0%"></stop>
            <stop stop-color="#2ECAE6" stop-opacity="0" offset="99.81%"></stop>
        </linearGradient>
        <linearGradient x1="97.3796296%" y1="1.80460282%" x2="2.89722222%" y2="96.2752784%" id="linearGradient-5">
            <stop stop-color="#F45858" stop-opacity="0.6" offset="0.03303079%"></stop>
            <stop stop-color="#F45858" stop-opacity="0" offset="99.81%"></stop>
        </linearGradient>
        <linearGradient x1="96.587037%" y1="2.23518931%" x2="5.83611111%" y2="94.8956199%" id="linearGradient-6">
            <stop stop-color="#2ECAE6" stop-opacity="0.8" offset="0%"></stop>
            <stop stop-color="#2ECAE6" stop-opacity="0" offset="99.81%"></stop>
        </linearGradient>
        <linearGradient x1="93.4240741%" y1="0.240831477%" x2="10.0814815%" y2="94.0884929%" id="linearGradient-7">
            <stop stop-color="#4CDA64" stop-opacity="0.8" offset="0%"></stop>
            <stop stop-color="#4CDA64" stop-opacity="0" offset="99.77%"></stop>
        </linearGradient>
        <linearGradient x1="86.6564815%" y1="2.68181143%" x2="7.01851852%" y2="103.65761%" id="linearGradient-8">
            <stop stop-color="#4CDA64" stop-opacity="0.7" offset="0%"></stop>
            <stop stop-color="#4CDA64" stop-opacity="0" offset="99.77%"></stop>
        </linearGradient>
        <linearGradient x1="99.5453704%" y1="-5.80994803%" x2="-4.16944444%" y2="110.609354%" id="linearGradient-9">
            <stop stop-color="#C7FFAB" stop-opacity="0.6" offset="0%"></stop>
            <stop stop-color="#C7FFAB" stop-opacity="0" offset="99.77%"></stop>
        </linearGradient>
        <linearGradient x1="99.7777778%" y1="-4.92739421%" x2="-3.93703704%" y2="107.92784%" id="linearGradient-10">
            <stop stop-color="#2ECAE6" stop-opacity="0.8" offset="0%"></stop>
            <stop stop-color="#2ECAE6" stop-opacity="0" offset="99.81%"></stop>
        </linearGradient>
        <linearGradient x1="101.876852%" y1="-6.6277654%" x2="-1.83796296%" y2="106.227468%" id="linearGradient-11">
            <stop stop-color="#4CDA64" stop-opacity="0.8" offset="0%"></stop>
            <stop stop-color="#4CDA64" stop-opacity="0" offset="99.77%"></stop>
        </linearGradient>
        <linearGradient x1="88.5850416%" y1="1.16533446%" x2="1.04127424%" y2="97.0946571%" id="linearGradient-12">
            <stop stop-color="#BA4343" offset="0%"></stop>
            <stop stop-color="#E66E6E" offset="48.49%"></stop>
            <stop stop-color="#B03A3A" offset="99.81%"></stop>
        </linearGradient>
        <linearGradient x1="97.4888889%" y1="-0.978034763%" x2="3.03425926%" y2="100.31539%" id="linearGradient-13">
            <stop stop-color="#4CDA64" stop-opacity="0.8" offset="0%"></stop>
            <stop stop-color="#4CDA64" stop-opacity="0" offset="99.77%"></stop>
        </linearGradient>
        <linearGradient x1="91.4046296%" y1="-1.02615845%" x2="8.06666667%" y2="101.191504%" id="linearGradient-14">
            <stop stop-color="#C7FFAB" stop-opacity="0.7" offset="0%"></stop>
            <stop stop-color="#C7FFAB" stop-opacity="0" offset="99.77%"></stop>
        </linearGradient>
        <linearGradient x1="106.078704%" y1="-9.87379712%" x2="-5.04444444%" y2="108.48982%" id="linearGradient-15">
            <stop stop-color="#2ECAE6" stop-opacity="0.8" offset="0%"></stop>
            <stop stop-color="#2ECAE6" stop-opacity="0" offset="99.81%"></stop>
        </linearGradient>
        <linearGradient x1="94.9212963%" y1="-2.35432039%" x2="-5.08888889%" y2="113.618366%" id="linearGradient-16">
            <stop stop-color="#2ECAE6" stop-opacity="0.8" offset="0%"></stop>
            <stop stop-color="#2ECAE6" stop-opacity="0" offset="99.81%"></stop>
        </linearGradient>
        <linearGradient x1="49.9685393%" y1="58.5469613%" x2="49.9685393%" y2="95.0314917%" id="linearGradient-17">
            <stop stop-color="#A3B4C9" offset="0%"></stop>
            <stop stop-color="#DEE4EA" offset="100%"></stop>
        </linearGradient>
        <linearGradient x1="93.3519481%" y1="-1.83152416%" x2="0.619480519%" y2="96.6696088%" id="linearGradient-18">
            <stop stop-color="#B0C2D9" offset="0%"></stop>
            <stop stop-color="#D1DCEA" offset="40.66%"></stop>
            <stop stop-color="#F2F6F7" offset="60.43%"></stop>
            <stop stop-color="#D1DCEA" offset="71.89%"></stop>
            <stop stop-color="#B0C2D9" offset="99.81%"></stop>
        </linearGradient>
        <linearGradient x1="77.6557766%" y1="6.10285205%" x2="19.429912%" y2="98.8570173%" id="linearGradient-19">
            <stop stop-color="#2ECAE6" offset="0%"></stop>
            <stop stop-color="#2E90E6" offset="99.81%"></stop>
        </linearGradient>
        <linearGradient x1="76.7835903%" y1="5.96375008%" x2="18.5235672%" y2="98.7179153%" id="linearGradient-20">
            <stop stop-color="#2ECAE6" offset="0%"></stop>
            <stop stop-color="#2E90E6" offset="99.81%"></stop>
        </linearGradient>
        <linearGradient x1="78.1123531%" y1="7.67647199%" x2="19.8500839%" y2="100.430665%" id="linearGradient-21">
            <stop stop-color="#2ECAE6" offset="0%"></stop>
            <stop stop-color="#2E90E6" offset="99.81%"></stop>
        </linearGradient>
        <linearGradient x1="4.02657309%" y1="79.323539%" x2="98.9092187%" y2="10.0142595%" id="linearGradient-22">
            <stop stop-color="#4CDA64" stop-opacity="0" offset="0%"></stop>
            <stop stop-color="#4CDA64" offset="99.81%"></stop>
        </linearGradient>
        <linearGradient x1="3.86002972%" y1="78.7896174%" x2="100.032987%" y2="9.15073113%" id="linearGradient-23">
            <stop stop-color="#4CDA64" stop-opacity="0" offset="0%"></stop>
            <stop stop-color="#3AA34B" offset="99.81%"></stop>
        </linearGradient>
    </defs>
    <g id="the-confirmation" stroke="none" stroke-width="1" fill="none" fill-rule="evenodd"
       transform="translate(-44.000000, -615.000000)">
        <g id="1-illustration" transform="translate(20.000000, 607.000000)">
            <g id="Group">
                <g transform="translate(17.000000, 8.000000)" fill-rule="nonzero">
                    <path d="M25.6360294,47.95 C25.4264706,49.84 24.0294118,51.38 22.5625,51.38 C21.0955882,51.38 19.9080882,49.84 20.1176471,47.95 C20.3272059,46.06 21.7242647,44.52 23.1911765,44.52 C24.6580882,44.52 25.8455882,46.06 25.6360294,47.95 Z"
                          id="Shape" fill="#FFFFFF"></path>
                    <path d="M21.1654412,56.35 C21.0955882,57.19 20.4669118,57.89 19.7683824,57.89 C19.0698529,57.89 18.5808824,57.19 18.6507353,56.35 C18.7205882,55.51 19.3492647,54.81 20.0477941,54.81 C20.8161765,54.81 21.3051471,55.51 21.1654412,56.35 Z"
                          id="Shape" fill="#FFFFFF"></path>
                    <path d="M88.2242647,43.75 C88.1544118,44.59 87.5257353,45.29 86.8272059,45.29 C86.1286765,45.29 85.6397059,44.59 85.7095588,43.75 C85.7794118,42.91 86.4080882,42.21 87.1066176,42.21 C87.8051471,42.21 88.2941176,42.91 88.2242647,43.75 Z"
                          id="Shape" fill="#FFFFFF"></path>
                    <path d="M81.0992647,95.83 C81.0294118,96.39 80.6102941,96.88 80.1911765,96.88 C79.7022059,96.88 79.4227941,96.39 79.4227941,95.83 C79.4926471,95.27 79.9117647,94.78 80.3308824,94.78 C80.8897059,94.78 81.1691176,95.27 81.0992647,95.83 Z"
                          id="Shape" fill="#FFFFFF"></path>
                    <path d="M78.3051471,1.47 C78.2352941,2.31 77.6066176,2.94 76.9080882,2.94 C76.2095588,2.94 75.7205882,2.24 75.8602941,1.47 C76,0.7 76.5588235,0 77.2573529,0 C77.8860294,0 78.375,0.7 78.3051471,1.47 Z"
                          id="Shape" fill="#FFFFFF"></path>
                    <polygon id="Shape" fill="url(#linearGradient-1)"
                             points="71.9485294 101.29 34.7867647 79.31 0 100.24 36.5330882 121.94"></polygon>
                    <path d="M73.625,9.38 L69.2941176,6.79 C68.8051471,6.44 68.1066176,6.3 67.5477941,6.65 L32.9705882,26.95 C32.2720588,27.37 31.7830882,28.14 31.7830882,28.98 L31.7830882,118.09 C31.7830882,119.14 32.4816176,119.98 33.3198529,120.33 L37.5110294,122.92 L38.6286765,119.28 L38.2095588,118.44 L68.6654412,100.59 C69.3639706,100.17 69.8529412,99.4 69.8529412,98.56 L69.8529412,14 L70.6213235,14.07 L73.625,9.38 Z"
                          id="Shape" fill="url(#linearGradient-2)"></path>
                    <path d="M73.2757353,103.25 L39.8860294,122.85 C38.3492647,123.76 36.3235294,122.64 36.3235294,120.82 L36.3235294,31.78 C36.3235294,30.94 36.7426471,30.17 37.5110294,29.75 L72.0882353,9.45 C73.1360294,8.82 74.3933824,9.59 74.3933824,10.78 L74.3933824,101.29 C74.4632353,102.06 74.0441176,102.83 73.2757353,103.25 Z"
                          id="Shape" fill="#000000"></path>
                    <path d="M71.5992647,11.2 L65.2426471,14.91 L65.2426471,18.41 C65.2426471,18.69 65.1029412,18.97 64.8235294,19.18 L47.8492647,29.12 C47.3602941,29.4 46.7316176,29.05 46.7316176,28.49 L46.7316176,25.76 L38.4889706,30.59 C37.7904412,31.01 37.3713235,31.71 37.3713235,32.48 L37.3713235,119.7 C37.3713235,121.17 38.9779412,122.08 40.2352941,121.38 L72.3676471,102.48 C73.0661765,102.06 73.4852941,101.36 73.4852941,100.59 L73.4852941,12.25 C73.4852941,11.27 72.4375,10.71 71.5992647,11.2 Z"
                          id="Shape" fill="url(#linearGradient-3)"></path>
                    <path d="M49.0367647,44.24 L43.9375,47.25 C43.2389706,47.67 42.4007353,47.18 42.4007353,46.34 L42.4007353,40.18 C42.4007353,39.62 42.6801471,39.13 43.1691176,38.85 L48.4080882,35.77 C49.1066176,35.35 49.9448529,35.84 49.9448529,36.68 L49.9448529,42.7 C49.9448529,43.26 49.5955882,43.89 49.0367647,44.24 Z"
                          id="Shape" fill="url(#linearGradient-4)"></path>
                    <path d="M70.7610294,31.57 L65.6617647,34.58 C64.9632353,35 64.125,34.51 64.125,33.67 L64.125,27.51 C64.125,26.95 64.4044118,26.46 64.8933824,26.18 L70.1323529,23.1 C70.8308824,22.68 71.6691176,23.17 71.6691176,24.01 L71.6691176,30.03 C71.6691176,30.59 71.3198529,31.22 70.7610294,31.57 Z"
                          id="Shape" fill="url(#linearGradient-5)"></path>
                    <path d="M59.7941176,52.57 L54.6948529,55.58 C53.9963235,56 53.1580882,55.51 53.1580882,54.67 L53.1580882,48.51 C53.1580882,47.95 53.4375,47.46 53.9264706,47.18 L59.1654412,44.1 C59.8639706,43.68 60.7022059,44.17 60.7022059,45.01 L60.7022059,51.03 C60.7022059,51.66 60.3529412,52.29 59.7941176,52.57 Z"
                          id="Shape" fill="url(#linearGradient-6)"></path>
                    <path d="M70.7610294,46.27 L65.6617647,49.28 C64.9632353,49.7 64.125,49.21 64.125,48.37 L64.125,42.21 C64.125,41.65 64.4044118,41.16 64.8933824,40.88 L70.1323529,37.8 C70.8308824,37.38 71.6691176,37.87 71.6691176,38.71 L71.6691176,44.73 C71.6691176,45.29 71.3198529,45.92 70.7610294,46.27 Z"
                          id="Shape" fill="url(#linearGradient-7)"></path>
                    <path d="M49.0367647,73.64 L43.9375,76.65 C43.2389706,77.07 42.4007353,76.58 42.4007353,75.74 L42.4007353,69.58 C42.4007353,69.02 42.6801471,68.53 43.1691176,68.25 L48.4080882,65.17 C49.1066176,64.75 49.9448529,65.24 49.9448529,66.08 L49.9448529,72.1 C49.9448529,72.66 49.5955882,73.29 49.0367647,73.64 Z"
                          id="Shape" fill="url(#linearGradient-8)"></path>
                    <path d="M59.7941176,67.27 L54.6948529,70.28 C53.9963235,70.7 53.1580882,70.21 53.1580882,69.37 L53.1580882,63.21 C53.1580882,62.65 53.4375,62.16 53.9264706,61.88 L59.1654412,58.8 C59.8639706,58.38 60.7022059,58.87 60.7022059,59.71 L60.7022059,65.73 C60.7022059,66.36 60.3529412,66.99 59.7941176,67.27 Z"
                          id="Shape" fill="url(#linearGradient-9)"></path>
                    <path d="M49.0367647,88.34 L43.9375,91.35 C43.2389706,91.77 42.4007353,91.28 42.4007353,90.44 L42.4007353,84.28 C42.4007353,83.72 42.6801471,83.23 43.1691176,82.95 L48.4080882,79.87 C49.1066176,79.45 49.9448529,79.94 49.9448529,80.78 L49.9448529,86.8 C49.9448529,87.36 49.5955882,87.99 49.0367647,88.34 Z"
                          id="Shape" fill="url(#linearGradient-10)"></path>
                    <path d="M59.7941176,81.97 L54.6948529,84.98 C53.9963235,85.4 53.1580882,84.91 53.1580882,84.07 L53.1580882,77.91 C53.1580882,77.35 53.4375,76.86 53.9264706,76.58 L59.1654412,73.5 C59.8639706,73.08 60.7022059,73.57 60.7022059,74.41 L60.7022059,80.43 C60.7022059,81.06 60.3529412,81.69 59.7941176,81.97 Z"
                          id="Shape" fill="url(#linearGradient-11)"></path>
                    <path d="M43.0294118,57.68 C43.0294118,57.68 43.0294118,57.68 43.0294118,57.68 C42.6801471,57.47 42.3308824,57.47 41.9816176,57.68 L21.6544118,69.51 C21.0955882,69.86 20.7463235,70.42 20.7463235,71.12 L20.7463235,95.97 C20.7463235,96.67 21.2352941,97.3 21.7941176,97.44 L24.7977941,99.12 L25.4264706,95.97 L42.6102941,85.96 C43.1691176,85.61 43.5183824,85.05 43.5183824,84.35 L43.5183824,61.6 L43.6580882,61.74 L45.9632353,59.29 L43.0294118,57.68 Z"
                          id="Shape" fill="url(#linearGradient-12)"></path>
                    <path d="M45.6838235,87.64 L26.1948529,99.05 C25.1470588,99.68 23.8198529,98.91 23.8198529,97.65 L23.8198529,72.8 C23.8198529,72.17 24.1691176,71.54 24.7279412,71.19 L45.0551471,59.36 C45.7536765,58.94 46.5919118,59.43 46.5919118,60.27 L46.5919118,86.1 C46.5919118,86.73 46.3125,87.29 45.6838235,87.64 Z"
                          id="Shape" fill="#F45858"></path>
                    <path d="M59.1654412,29.4 L53.9264706,32.48 C53.4375,32.76 53.1580882,33.25 53.1580882,33.81 L53.1580882,39.97 C53.1580882,40.74 53.9963235,41.23 54.6948529,40.88 L59.7941176,37.87 C60.3529412,37.52 60.7022059,36.96 60.7022059,36.26 L60.7022059,30.24 C60.7022059,29.47 59.8639706,28.98 59.1654412,29.4 Z M58.5367647,35.14 C58.3970588,35.98 57.6985294,36.68 57,36.68 C56.3014706,36.68 55.8823529,35.98 56.0220588,35.14 C56.1617647,34.3 56.8602941,33.6 57.5588235,33.6 C58.2573529,33.6 58.6764706,34.3 58.5367647,35.14 Z"
                          id="Shape" fill="url(#linearGradient-13)"></path>
                    <path d="M48.4080882,50.4 L43.1691176,53.48 C42.6801471,53.76 42.4007353,54.25 42.4007353,54.81 L42.4007353,60.97 C42.4007353,61.74 43.2389706,62.23 43.9375,61.88 L49.0367647,58.87 C49.5955882,58.52 49.9448529,57.96 49.9448529,57.26 L49.9448529,51.24 C49.9448529,50.54 49.1066176,50.05 48.4080882,50.4 Z M47.9191176,56 C47.7794118,56.84 47.0808824,57.54 46.3823529,57.54 C45.6838235,57.54 45.2647059,56.84 45.4044118,56 C45.5441176,55.16 46.2426471,54.46 46.9411765,54.46 C47.6397059,54.46 48.0588235,55.16 47.9191176,56 Z"
                          id="Shape" fill="url(#linearGradient-14)"></path>
                    <path d="M48.4080882,94.5 L43.1691176,97.58 C42.6801471,97.86 42.4007353,98.35 42.4007353,98.91 L42.4007353,105.07 C42.4007353,105.84 43.2389706,106.33 43.9375,105.98 L49.0367647,102.97 C49.5955882,102.62 49.9448529,102.06 49.9448529,101.36 L49.9448529,95.34 C49.9448529,94.64 49.1066176,94.15 48.4080882,94.5 Z M47.9191176,100.52 C47.7794118,101.36 47.0808824,102.06 46.3823529,102.06 C45.6838235,102.06 45.2647059,101.36 45.4044118,100.52 C45.5441176,99.68 46.2426471,98.98 46.9411765,98.98 C47.6397059,98.98 48.0588235,99.68 47.9191176,100.52 Z"
                          id="Shape" fill="url(#linearGradient-15)"></path>
                    <path d="M70.1323529,52.43 L64.8933824,55.51 C64.4044118,55.79 64.125,56.28 64.125,56.84 L64.125,63 C64.125,63.77 64.9632353,64.26 65.6617647,63.91 L70.7610294,60.9 C71.3198529,60.55 71.6691176,59.99 71.6691176,59.29 L71.6691176,53.27 C71.6691176,52.57 70.8308824,52.08 70.1323529,52.43 Z M69.5735294,58.24 C69.4338235,59.08 68.7352941,59.78 68.0367647,59.78 C67.3382353,59.78 66.9191176,59.08 67.0588235,58.24 C67.1985294,57.4 67.8970588,56.7 68.5955882,56.7 C69.2941176,56.7 69.7132353,57.4 69.5735294,58.24 Z"
                          id="Shape" fill="url(#linearGradient-16)"></path>
                    <path d="M39.8161765,82.67 C38.4889706,82.39 37.9301471,82.39 37.9301471,82.39 C37.9301471,82.39 37.9301471,80.92 37.9301471,79.94 C38.6286765,79.03 38.8382353,78.05 39.0477941,77.21 C40.0955882,76.51 40.0955882,75.04 39.9558824,74.83 C39.8161765,74.62 39.4669118,74.97 39.4669118,74.97 C39.4669118,74.97 40.0257353,72.59 39.8161765,71.05 C39.6066176,69.51 38.0698529,69.93 38.0698529,69.93 C38.0698529,69.93 37.6507353,69.02 35.4852941,70 C33.3198529,70.91 31.9227941,73.08 31.5735294,74.62 C31.2941176,76.37 31.9227941,78.26 31.9227941,78.26 C31.9227941,78.26 31.5036765,78.26 31.4338235,78.61 C31.2941176,78.89 31.2941176,80.36 32.3419118,80.22 C32.4816176,80.92 32.7610294,81.69 33.4595588,81.97 C33.4595588,82.95 33.4595588,84.42 33.4595588,84.42 C33.4595588,84.42 32.9705882,84.84 31.5735294,86.31 C30.3860294,87.64 28.8492647,88.2 28.0808824,89.04 C29.3382353,89.74 31.8529412,90.58 35.6948529,88.9 C38.9080882,87.5 42.0514706,84.49 43.3088235,82.46 C42.5404412,82.18 41.0036765,82.88 39.8161765,82.67 Z"
                          id="Shape" fill="#DD4040"></path>
                    <path d="M64.6139706,102.55 C64.5441176,102.55 64.4742647,102.55 64.4044118,102.62 L47.4301471,112.63 C47.4301471,112.63 47.4301471,112.63 47.4301471,112.63 C47.2904412,112.7 47.1507353,112.91 47.0808824,113.12 C47.0110294,113.47 47.1507353,113.68 47.4301471,113.68 C47.5,113.68 47.5698529,113.68 47.6397059,113.61 L64.6139706,103.6 C64.6139706,103.6 64.6139706,103.6 64.6139706,103.6 C64.7536765,103.53 64.8933824,103.32 64.9632353,103.11 C65.0330882,102.76 64.8933824,102.55 64.6139706,102.55 Z"
                          id="Shape" fill="#FFFFFF" opacity="0.5"></path>
                    <polygon id="Shape" fill="url(#linearGradient-17)"
                             points="79.6323529 34.02 73.4154412 37.66 73.4154412 45.01 76.0698529 46.69 77.3272059 43.89 76.6985294 40.74 76.4889706 40.74 79.6323529 36.47"></polygon>
                    <polygon id="Shape" fill="#FFFFFF"
                             points="82.2867647 38.15 76.0698529 46.62 76.0698529 39.34 82.2867647 35.7"></polygon>
                    <path d="M94.4411765,9.87 L92.0661765,8.33 C91.7867647,8.05 91.3676471,7.98 91.0183824,8.19 L68.3161765,21.63 C67.8272059,21.91 67.5477941,22.4 67.5477941,22.96 L67.5477941,41.23 C67.5477941,41.79 67.8970588,42.21 68.3161765,42.42 L70.9007353,44.1 L72.1580882,42.42 L71.5294118,41.23 L91.5772059,29.4 C92.0661765,29.12 92.3455882,28.63 92.3455882,28.07 L92.3455882,12.04 L92.5551471,12.18 L94.4411765,9.87 Z"
                          id="Shape" fill="url(#linearGradient-18)"></path>
                    <path d="M94.2316176,31.08 L72.1580882,44.03 C71.25,44.52 70.2022059,43.89 70.2022059,42.91 L70.2022059,24.64 C70.2022059,24.08 70.4816176,23.59 70.9705882,23.31 L93.7426471,9.94 C94.3014706,9.59 95,10.01 95,10.71 L95,29.75 C95,30.31 94.7205882,30.8 94.2316176,31.08 Z"
                          id="Shape" fill="#FFFFFF"></path>
                    <path d="M78.9338235,30.94 C78.7941176,31.99 78.0257353,32.83 77.1875,32.83 C76.3492647,32.83 75.7205882,31.99 75.8602941,30.94 C76,29.89 76.7683824,29.05 77.6066176,29.05 C78.5147059,29.05 79.0735294,29.89 78.9338235,30.94 Z"
                          id="Shape" fill="url(#linearGradient-19)"></path>
                    <path d="M84.9411765,27.44 C84.8014706,28.49 84.0330882,29.33 83.1948529,29.33 C82.3566176,29.33 81.7279412,28.49 81.8676471,27.44 C82.0073529,26.39 82.7757353,25.55 83.6139706,25.55 C84.4522059,25.55 85.0808824,26.39 84.9411765,27.44 Z"
                          id="Shape" fill="url(#linearGradient-20)"></path>
                    <path d="M90.8786765,23.87 C90.7389706,24.92 89.9705882,25.76 89.1323529,25.76 C88.2941176,25.76 87.6654412,24.92 87.8051471,23.87 C87.9448529,22.82 88.7132353,21.98 89.5514706,21.98 C90.3897059,21.98 91.0183824,22.89 90.8786765,23.87 Z"
                          id="Shape" fill="url(#linearGradient-21)"></path>
                    <path d="M92.7647059,76.09 C92.3455882,72.31 89.1323529,70.14 86.1286765,71.96 C83.2647059,73.64 45.4044118,96.18 45.4044118,96.18 L45.4044118,110.74 L87.8051471,85.47 C91.7169118,83.44 93.1838235,79.73 92.7647059,76.09 Z"
                          id="Shape" fill="url(#linearGradient-22)"></path>
                    <path d="M89.7610294,71.12 C88.4338235,69.93 86.6176471,69.65 84.8713235,70.7 C82.0073529,72.38 44.1470588,94.92 44.1470588,94.92 L44.1470588,109.48 L45.4044118,108.71 L45.4044118,96.18 C45.4044118,96.18 83.2647059,73.64 86.1286765,71.96 C87.9448529,70.91 89.8308824,71.26 91.1580882,72.52 L89.7610294,71.12 Z"
                          id="Shape" fill="url(#linearGradient-23)"></path>
                    <path d="M91.0882353,78.68 C90.3897059,81.76 87.875,84.28 85.4301471,84.28 C82.9852941,84.28 81.5882353,81.83 82.2169118,78.75 C82.9154412,75.67 85.4301471,73.15 87.875,73.15 C90.3897059,73.15 91.7867647,75.6 91.0882353,78.68 Z"
                          id="Shape" fill="#FFFFFF"></path>
                    <path d="M84.8014706,77.07 C84.8014706,77 84.8014706,76.93 84.8014706,76.86 C84.8713235,76.65 84.9411765,76.44 85.0808824,76.3 C85.1507353,76.16 85.2904412,76.09 85.3602941,76.02 C85.5,75.88 85.7095588,75.95 85.8492647,76.09 C85.9889706,76.3 86.1286765,76.44 86.2683824,76.65 C86.3382353,76.79 86.4080882,76.86 86.4779412,77 C86.6176471,77.21 86.6176471,77.42 86.4779412,77.63 C86.4080882,77.77 86.2683824,77.84 86.1985294,77.91 C86.1985294,77.91 86.1286765,77.98 86.1286765,77.98 C86.2683824,78.33 86.4080882,78.68 86.6176471,78.96 C86.9669118,79.45 87.2463235,79.66 87.5955882,79.94 C87.6654412,79.87 87.7352941,79.8 87.875,79.66 C87.9448529,79.59 87.9448529,79.59 88.0147059,79.52 C88.1544118,79.38 88.2941176,79.38 88.4338235,79.45 C88.5036765,79.52 88.5036765,79.52 88.5735294,79.59 C88.7830882,79.87 88.9227941,80.08 89.1323529,80.36 C89.2022059,80.43 89.2022059,80.5 89.2022059,80.64 C89.2022059,80.71 89.2022059,80.71 89.2022059,80.78 C89.2022059,80.85 89.1323529,80.92 89.1323529,80.92 C89.0625,81.06 88.9227941,81.2 88.7830882,81.27 C88.5735294,81.41 88.2941176,81.48 88.0147059,81.41 C87.7352941,81.34 87.4558824,81.2 87.1764706,81.06 C86.9669118,80.92 86.7573529,80.78 86.6176471,80.57 C86.4080882,80.36 86.1985294,80.08 85.9889706,79.87 C85.7794118,79.59 85.6397059,79.38 85.4301471,79.1 C85.2205882,78.82 85.0808824,78.47 84.9411765,78.12 C84.8713235,77.91 84.8014706,77.7 84.8014706,77.49 C84.8014706,77.42 84.8014706,77.35 84.8014706,77.28 C84.7316176,77.28 84.7316176,77.21 84.8014706,77.07 Z"
                          id="Shape" fill="#4CDA64"></path>
                </g>
            </g>
        </g>
    </g>
</svg>