<?xml version="1.0" encoding="UTF-8"?>
<svg width="87px" height="129px" viewBox="0 0 87 129" version="1.1" xmlns="http://www.w3.org/2000/svg">
    <!-- Generator: Sketch 48.2 (47327) - http://www.bohemiancoding.com/sketch -->
    <title>3-illustration</title>
    <desc>Created with Sketch.</desc>
    <defs>
        <linearGradient x1="27.4787879%" y1="18.6311077%" x2="75.5838681%" y2="86.3042489%" id="linearGradient-1">
            <stop stop-color="#000000" stop-opacity="0" offset="0%"></stop>
            <stop stop-color="#000000" stop-opacity="0.3" offset="99.64%"></stop>
        </linearGradient>
        <linearGradient x1="98.018887%" y1="-6.32477799%" x2="-6.30607083%" y2="103.89357%" id="linearGradient-2">
            <stop stop-color="#2D2F4D" offset="0%"></stop>
            <stop stop-color="#343757" offset="15.81%"></stop>
            <stop stop-color="#53588F" offset="30.1%"></stop>
            <stop stop-color="#2F304F" offset="43.11%"></stop>
            <stop stop-color="#212238" offset="99.81%"></stop>
        </linearGradient>
        <linearGradient x1="97.345614%" y1="0.871025104%" x2="2.2668616%" y2="99.7903528%" id="linearGradient-3">
            <stop stop-color="#545454" offset="0%"></stop>
            <stop stop-color="#000000" offset="99.81%"></stop>
        </linearGradient>
        <linearGradient x1="20.179177%" y1="98.6748447%" x2="85.018588%" y2="-10.9357143%" id="linearGradient-4">
            <stop stop-color="#339444" offset="0%"></stop>
            <stop stop-color="#44C45A" offset="99.84%"></stop>
        </linearGradient>
        <linearGradient x1="79.4248%" y1="-3.01519757%" x2="15.7362667%" y2="101.739818%" id="linearGradient-5">
            <stop stop-color="#050505" offset="0%"></stop>
            <stop stop-color="#1C1C1C" offset="48.49%"></stop>
            <stop stop-color="#000000" offset="99.81%"></stop>
        </linearGradient>
        <linearGradient x1="97.5129032%" y1="18.3202532%" x2="-19.1983871%" y2="127.212658%" id="linearGradient-6">
            <stop stop-color="#050505" offset="0%"></stop>
            <stop stop-color="#1C1C1C" offset="57.46%"></stop>
            <stop stop-color="#000000" offset="99.81%"></stop>
        </linearGradient>
        <linearGradient x1="83.0761062%" y1="-8.23936782%" x2="19.4920354%" y2="103.487356%" id="linearGradient-7">
            <stop stop-color="#050505" offset="0%"></stop>
            <stop stop-color="#1C1C1C" offset="48.49%"></stop>
            <stop stop-color="#000000" offset="99.81%"></stop>
        </linearGradient>
        <linearGradient x1="90.0249027%" y1="-3.72679859%" x2="1.13424125%" y2="99.0132044%" id="linearGradient-8">
            <stop stop-color="#1D88C2" offset="0%"></stop>
            <stop stop-color="#1DB1EE" offset="51.48%"></stop>
            <stop stop-color="#1DA3E4" offset="57.65%"></stop>
            <stop stop-color="#1C7EC9" offset="75.77%"></stop>
            <stop stop-color="#1B67B9" offset="90.45%"></stop>
            <stop stop-color="#1B5FB3" offset="99.74%"></stop>
        </linearGradient>
    </defs>
    <g id="the-confirmation" stroke="none" stroke-width="1" fill="none" fill-rule="evenodd"
       transform="translate(-44.000000, -953.000000)">
        <g id="3-illustration" transform="translate(20.000000, 947.000000)">
            <g id="Group">
                <g transform="translate(16.000000, 6.000000)" fill-rule="nonzero">
                    <path d="M33.1102941,37.24 C32.9705882,39.13 31.5735294,40.6 30.0367647,40.6 C28.5,40.6 27.4522059,39.13 27.5919118,37.24 C27.8014706,35.35 29.1286765,33.88 30.6654412,33.88 C32.2022059,33.88 33.3198529,35.35 33.1102941,37.24 Z"
                          id="Shape" fill="#FFFFFF"></path>
                    <path d="M88.3639706,31.01 C88.2941176,31.85 87.6654412,32.55 86.9669118,32.55 C86.2683824,32.55 85.7794118,31.85 85.8492647,31.01 C85.9191176,30.17 86.5477941,29.47 87.2463235,29.47 C88.0147059,29.54 88.5036765,30.17 88.3639706,31.01 Z"
                          id="Shape" fill="#FFFFFF"></path>
                    <path d="M22.0036765,49.98 C21.9338235,50.68 21.4448529,51.24 20.8860294,51.24 C20.3272059,51.24 19.9080882,50.68 19.9779412,49.98 C20.0477941,49.28 20.5367647,48.72 21.0955882,48.72 C21.6544118,48.79 22.0735294,49.35 22.0036765,49.98 Z"
                          id="Shape" fill="#FFFFFF"></path>
                    <path d="M89.8308824,107.24 C89.7610294,107.59 89.5514706,107.87 89.2022059,107.94 C88.9227941,107.94 88.7132353,107.66 88.7132353,107.31 C88.7830882,106.96 88.9926471,106.68 89.3419118,106.61 C89.6911765,106.61 89.9007353,106.89 89.8308824,107.24 Z"
                          id="Shape" fill="#FFFFFF"></path>
                    <polygon id="Shape" fill="url(#linearGradient-1)"
                             points="78.4448529 106.68 34.5073529 80.99 0.0698529412 101.78 43.3786765 127.12"></polygon>
                    <path d="M80.1213235,15.54 L75.7904412,12.95 C75.3014706,12.6 74.6727941,12.46 74.0441176,12.81 L39.8161765,32.9 C39.1176471,33.32 38.6985294,34.09 38.6985294,34.93 L38.6985294,123.27 C38.6985294,124.32 39.3970588,125.16 40.2352941,125.44 L44.3566176,127.96 L45.4742647,124.39 L45.0551471,123.55 L75.2316176,105.84 C75.9301471,105.42 76.3492647,104.65 76.3492647,103.81 L76.3492647,20.09 L77.1176471,20.16 L80.1213235,15.54 Z"
                          id="Shape" fill="url(#linearGradient-2)"></path>
                    <path d="M79.8419118,108.57 L46.7316176,127.96 C45.1948529,128.87 43.2389706,127.75 43.2389706,125.93 L43.2389706,37.73 C43.2389706,36.89 43.6580882,36.12 44.3566176,35.7 L78.6544118,15.61 C79.7022059,14.98 80.9595588,15.75 80.9595588,16.94 L80.9595588,106.61 C80.9595588,107.45 80.5404412,108.22 79.8419118,108.57 Z"
                          id="Shape" fill="#000000"></path>
                    <path d="M78.1654412,17.29 L71.8786765,21 L71.8786765,24.5 C71.8786765,24.78 71.7389706,25.06 71.4595588,25.27 L54.625,35.14 C54.1360294,35.42 53.5073529,35.07 53.5073529,34.51 L53.5073529,31.78 L45.3345588,36.61 C44.6360294,37.03 44.2169118,37.73 44.2169118,38.5 L44.2169118,124.88 C44.2169118,126.35 45.8235294,127.26 47.0808824,126.49 L78.9338235,107.8 C79.6323529,107.38 80.0514706,106.68 80.0514706,105.91 L80.0514706,18.34 C79.9816176,17.43 78.9338235,16.8 78.1654412,17.29 Z"
                          id="Shape" fill="url(#linearGradient-3)"></path>
                    <path d="M60.2132353,47.67 C59.5845588,48.02 59.0955882,48.93 59.0955882,49.91 C59.0955882,50.96 59.5147059,51.24 60.1433824,50.89 C60.8419118,50.47 61.2610294,49.63 61.2610294,48.58 C61.2610294,47.67 60.9117647,47.32 60.2132353,47.67 Z M60.2132353,50.61 C59.7941176,50.82 59.5845588,50.54 59.5845588,49.7 C59.5845588,48.86 59.8639706,48.23 60.2132353,48.02 C60.6323529,47.74 60.8419118,48.16 60.8419118,48.93 C60.8419118,49.7 60.6323529,50.33 60.2132353,50.61 Z M62.7279412,46.2 C62.0992647,46.55 61.6102941,47.46 61.6102941,48.44 C61.6102941,49.49 62.0294118,49.77 62.6580882,49.42 C63.3566176,49 63.7757353,48.16 63.7757353,47.11 C63.7757353,46.13 63.4264706,45.78 62.7279412,46.2 Z M62.6580882,49.07 C62.2389706,49.28 62.0294118,49 62.0294118,48.16 C62.0294118,47.32 62.3088235,46.69 62.6580882,46.48 C63.0772059,46.2 63.2867647,46.62 63.2867647,47.39 C63.3566176,48.23 63.1470588,48.86 62.6580882,49.07 Z M64.4742647,47.74 C64.3345588,47.81 64.1948529,48.02 64.1948529,48.23 C64.1948529,48.37 64.3345588,48.44 64.4742647,48.37 C64.6838235,48.23 64.7536765,48.09 64.7536765,47.88 C64.7536765,47.74 64.6838235,47.67 64.4742647,47.74 Z M64.4742647,46.06 C64.3345588,46.13 64.1948529,46.34 64.1948529,46.55 C64.1948529,46.69 64.3345588,46.76 64.4742647,46.69 C64.6838235,46.55 64.7536765,46.41 64.7536765,46.2 C64.7536765,46.06 64.6838235,45.99 64.4742647,46.06 Z M66.2904412,44.1 C65.6617647,44.45 65.1727941,45.36 65.1727941,46.34 C65.1727941,47.39 65.5919118,47.67 66.2205882,47.32 C66.9191176,46.9 67.3382353,46.06 67.3382353,45.01 C67.2683824,44.1 66.9191176,43.75 66.2904412,44.1 Z M66.2205882,47.04 C65.8014706,47.25 65.5919118,46.97 65.5919118,46.13 C65.5919118,45.29 65.8713235,44.66 66.2205882,44.45 C66.6397059,44.17 66.8492647,44.59 66.8492647,45.36 C66.8492647,46.13 66.6397059,46.76 66.2205882,47.04 Z M68.7352941,42.63 C68.1066176,43.05 67.6176471,43.82 67.6176471,44.38 C67.6176471,44.94 67.9669118,45.08 68.5257353,44.8 C68.875,44.59 69.0845588,44.31 69.2941176,44.03 C69.2242647,44.45 69.0845588,44.8 68.875,45.08 C68.6654412,45.36 68.4558824,45.57 68.1764706,45.78 C68.0367647,45.85 67.8970588,45.92 67.8272059,45.99 L67.8272059,46.34 C67.8970588,46.27 68.0367647,46.2 68.2463235,46.06 C68.5955882,45.85 68.9448529,45.5 69.1544118,45.08 C69.5036765,44.59 69.7132353,43.96 69.7132353,43.33 C69.7830882,42.49 69.4338235,42.21 68.7352941,42.63 Z M69.2941176,43.68 C69.1544118,43.96 68.9448529,44.17 68.6654412,44.38 C68.3161765,44.59 68.0367647,44.45 68.0367647,44.1 C68.0367647,43.68 68.3161765,43.19 68.6654412,42.98 C69.0845588,42.7 69.2941176,42.98 69.2941176,43.54 C69.3639706,43.54 69.3639706,43.61 69.2941176,43.68 Z"
                          id="Shape" fill="#FAFCFF" opacity="0.6"></path>
                    <g opacity="0.5" transform="translate(50.294118, 50.400000)" fill="#FFFFFF" id="Shape">
                        <path d="M7.125,15.12 C6.63602941,17.36 4.75,19.25 3.00367647,19.25 C1.1875,19.25 0.139705882,17.43 0.698529412,15.19 C1.25735294,12.95 3.07352941,11.06 4.81985294,11.06 C6.56617647,11.06 7.61397059,12.88 7.125,15.12 Z"></path>
                        <path d="M16.5551471,9.8 C16.0661765,12.04 14.1801471,13.93 12.4338235,13.93 C10.6176471,13.93 9.56985294,12.11 10.1286765,9.87 C10.6875,7.63 12.5036765,5.74 14.25,5.74 C15.9963235,5.74 17.0441176,7.56 16.5551471,9.8 Z"></path>
                        <path d="M25.2867647,4.55 C24.7977941,6.79 22.9117647,8.68 21.1654412,8.68 C19.3492647,8.68 18.3014706,6.86 18.8602941,4.62 C19.3492647,2.38 21.2352941,0.49 22.9816176,0.49 C24.7279412,0.49 25.7757353,2.31 25.2867647,4.55 Z"></path>
                    </g>
                    <g opacity="0.5" transform="translate(50.294118, 64.400000)" fill="#FFFFFF" id="Shape">
                        <path d="M7.125,14.7 C6.63602941,16.94 4.75,18.83 3.00367647,18.83 C1.1875,18.83 0.139705882,17.01 0.698529412,14.77 C1.25735294,12.53 3.07352941,10.64 4.81985294,10.64 C6.56617647,10.64 7.61397059,12.46 7.125,14.7 Z"></path>
                        <path d="M16.5551471,9.45 C16.0661765,11.69 14.1801471,13.58 12.4338235,13.58 C10.6176471,13.58 9.56985294,11.76 10.1286765,9.52 C10.6875,7.28 12.5036765,5.39 14.25,5.39 C15.9963235,5.32 17.0441176,7.14 16.5551471,9.45 Z"></path>
                        <path d="M25.2867647,4.13 C24.7977941,6.37 22.9117647,8.26 21.1654412,8.26 C19.3492647,8.26 18.3014706,6.44 18.8602941,4.2 C19.4191176,1.96 21.2352941,0.07 22.9816176,0.07 C24.7279412,0.07 25.7757353,1.89 25.2867647,4.13 Z"></path>
                    </g>
                    <g transform="translate(60.772059, 84.700000)" id="Shape">
                        <path d="M9.15073529,5.67 C8.45220588,8.75 6.00735294,11.2 3.5625,11.27 C1.11764706,11.27 -0.279411765,8.82 0.419117647,5.81 C1.11764706,2.73 3.5625,0.28 6.00735294,0.21 C8.38235294,0.14 9.77941176,2.59 9.15073529,5.67 Z"
                              fill="#FFFFFF" opacity="0.8"></path>
                        <path d="M7.61397059,4.13 C7.61397059,4.13 7.68382353,4.2 7.68382353,4.2 C7.82352941,4.27 7.89338235,4.41 7.89338235,4.62 C7.89338235,4.76 7.89338235,4.9 7.89338235,5.04 C7.89338235,5.25 7.75367647,5.46 7.54411765,5.6 C7.33455882,5.74 7.125,5.88 6.91544118,6.02 C6.77573529,6.09 6.63602941,6.16 6.56617647,6.23 C6.35661765,6.37 6.14705882,6.3 6.14705882,6.09 C6.14705882,5.95 6.14705882,5.81 6.14705882,5.67 C6.14705882,5.6 6.14705882,5.6 6.14705882,5.53 C5.79779412,5.6 5.44852941,5.74 5.09926471,5.95 C4.54044118,6.23 4.12132353,6.58 3.77205882,6.93 C3.77205882,7.07 3.77205882,7.14 3.77205882,7.28 C3.77205882,7.35 3.77205882,7.42 3.77205882,7.49 C3.77205882,7.7 3.63235294,7.84 3.49264706,8.05 C3.42279412,8.12 3.35294118,8.12 3.28308824,8.19 C3.00367647,8.4 2.65441176,8.54 2.375,8.75 C2.30514706,8.82 2.23529412,8.82 2.16544118,8.82 C2.16544118,8.82 2.09558824,8.82 2.09558824,8.82 C2.09558824,8.75 2.02573529,8.75 2.02573529,8.68 C2.02573529,8.54 1.88602941,8.26 1.88602941,8.05 C1.95588235,7.7 2.09558824,7.42 2.30514706,7.07 C2.58455882,6.72 2.86397059,6.44 3.14338235,6.09 C3.35294118,5.88 3.63235294,5.67 3.84191176,5.46 C4.12132353,5.25 4.68014706,4.9 5.02941176,4.76 C6.14705882,4.2 6.49632353,4.13 6.84558824,4.06 C7.05514706,3.99 7.19485294,3.99 7.40441176,4.06 C7.47426471,4.06 7.47426471,4.06 7.54411765,4.06 C7.47426471,4.06 7.54411765,4.13 7.61397059,4.13 Z"
                              fill="#F45858"></path>
                    </g>
                    <g transform="translate(74.742647, 81.200000)" id="Shape">
                        <g>
                            <path d="M16.1360294,2.24 L16.5551471,2.17 L14.8786765,1.12 C14.7389706,1.05 14.5992647,0.91 14.4595588,0.84 L14.3198529,0.77 C13.4816176,0.28 12.4338235,0.07 11.3860294,0.07 C6.63602941,0.14 1.67647059,5.04 0.349264706,11.13 C-0.628676471,15.68 0.698529412,19.6 3.42279412,21.21 L5.65808824,22.61 L6.00735294,21.98 C6.21691176,21.98 6.35661765,21.98 6.56617647,21.98 C11.3161765,21.91 16.2757353,17.01 17.6029412,10.92 C18.4411765,7.35 17.8125,4.2 16.1360294,2.24 Z"
                                  fill="url(#linearGradient-4)"></path>
                            <path d="M19.8382353,12.32 C18.5110294,18.34 13.5514706,23.31 8.80147059,23.38 C4.05147059,23.45 1.1875,18.55 2.58455882,12.53 C3.91176471,6.51 8.87132353,1.54 13.6213235,1.47 C18.3713235,1.4 21.1654412,6.23 19.8382353,12.32 Z"
                                  fill="#4CDA64"></path>
                        </g>
                        <path d="M7.125,13.16 C8.03308824,13.51 8.94117647,13.86 9.84926471,14.21 C11.6654412,11.69 13.4816176,9.17 15.3676471,6.58 C15.9264706,6.93 16.5551471,7.28 17.1139706,7.7 C14.7389706,10.92 12.4338235,14.14 10.1286765,17.36 C8.66176471,16.8 7.19485294,16.17 5.65808824,15.61 C6.14705882,14.84 6.63602941,14 7.125,13.16 Z"
                              fill="#FFFFFF"></path>
                    </g>
                    <g transform="translate(26.544118, 47.600000)" id="Shape">
                        <polygon fill="#1E1E1E"
                                 points="9.08088235 24.08 1.46691176 28.49 3.21323529 30.24 6.21691176 30.45 9.43014706 25.48"></polygon>
                        <path d="M23.4705882,0.21 C23.4705882,0.21 23.4705882,0.21 23.4705882,0.21 C23.0514706,2.49106291e-15 22.7022059,2.49106291e-15 22.3529412,0.21 L1.32720588,12.46 C0.768382353,12.81 0.419117647,13.44 0.419117647,14.14 L0.419117647,23.87 L3.63235294,25.55 L4.40073529,25.13 C4.40073529,25.13 4.75,24.92 4.75,25.48 C4.75,25.69 4.75,27.16 4.75,28.84 L24.0294118,17.5 L24.0294118,4.27 L24.2389706,4.41 L26.6139706,1.89 L23.4705882,0.21 Z"
                              fill="url(#linearGradient-5)"></path>
                        <path d="M1.46691176,32.34 C1.39705882,32.48 1.32720588,32.55 1.04779412,32.76 C0.628676471,33.04 0.349264706,33.18 0.349264706,33.18 L1.46691176,34.72 L1.46691176,35 L4.68014706,35 L4.68014706,30.1 L1.46691176,28.49 L1.46691176,32.34 Z M1.46691176,24.01 L1.46691176,27.16 L4.68014706,28.77 L4.68014706,23.94 L1.46691176,23.94 L1.46691176,24.01 Z"
                              fill="url(#linearGradient-6)"></path>
                        <path d="M4.68014706,30.1 C4.68014706,31.36 4.68014706,32.55 4.68014706,33.32 C4.68014706,34.16 4.68014706,34.16 4.19117647,34.37 C3.77205882,34.65 3.5625,34.79 3.49264706,34.79 C3.49264706,34.79 3.49264706,34.79 3.49264706,34.79 L0.279411765,33.11 L0.279411765,39.83 C0.279411765,40.6 0.768382353,41.16 1.39705882,41.37 L4.54044118,43.05 L5.16911765,39.83 L23.0514706,29.47 C23.6102941,29.12 23.9595588,28.49 23.9595588,27.79 L23.9595588,18.69 L4.68014706,30.1 Z"
                              fill="url(#linearGradient-7)"></path>
                        <path d="M4.68014706,26.53 C4.68014706,27.93 4.68014706,30.24 4.68014706,31.92 L7.47426471,32.55 L25.9154412,19.46 C25.9154412,18.9 25.9154412,18.2 25.9154412,17.5 L22.6323529,15.96 L4.68014706,26.53 Z"
                              fill="#1E1E1E"></path>
                        <path d="M27.1029412,21 L23.8897059,19.46 L24.9375,22.68 C24.9375,22.68 25.9852941,22.89 26.1948529,22.89 C26.4044118,22.89 26.8235294,22.47 26.8235294,22.26 C26.8933824,22.05 27.1029412,21 27.1029412,21 Z"
                              fill="#1E1E1E"></path>
                        <path d="M27.1029412,21 L26.4742647,21.35 C26.4742647,21.35 25.9852941,21.7 25.9852941,21 C25.9852941,20.72 25.9852941,19.18 25.9852941,17.5 L4.68014706,30.1 C4.68014706,31.36 4.68014706,32.55 4.68014706,33.32 C4.68014706,34.16 4.68014706,34.16 4.19117647,34.37 C3.77205882,34.65 3.5625,34.79 3.49264706,34.79 L3.49264706,41.58 C3.49264706,42.84 4.88970588,43.61 5.9375,42.98 L26.125,31.22 C26.6838235,30.87 27.0330882,30.24 27.0330882,29.54 L27.1029412,21 Z"
                              fill="#474747"></path>
                        <path d="M25.9852941,16.24 C25.9852941,14.91 25.9852941,13.65 25.9852941,12.95 C25.9852941,12.39 26.4044118,12.11 26.4044118,12.11 L27.1727941,11.69 L27.1727941,2.87 C27.1727941,2.03 26.2647059,1.54 25.5661765,1.96 L4.54044118,14.21 C3.98161765,14.56 3.63235294,15.19 3.63235294,15.89 L3.63235294,25.55 L4.40073529,25.13 C4.40073529,25.13 4.75,24.92 4.75,25.48 C4.75,25.69 4.75,27.16 4.75,28.84 L25.9852941,16.24 Z"
                              fill="#474747"></path>
                        <g transform="translate(5.588235, 11.200000)" fill="#FFFFFF">
                            <path d="M11.5955882,10.15 C11.5955882,10.01 11.5955882,9.87 11.5955882,9.73 C11.5955882,8.33 11.6654412,7.21 11.7352941,6.37 C11.875,5.53 12.0147059,4.9 12.2242647,4.41 C12.4338235,3.99 12.7830882,3.64 13.1323529,3.36 C13.5514706,3.15 13.8308824,3.08 14.0404412,3.22 C14.25,3.36 14.4595588,3.85 14.5294118,4.55 C14.6691176,5.25 14.6691176,6.3 14.6691176,7.77 C14.6691176,7.98 14.6691176,8.12 14.6691176,8.33 L17.8125,6.44 C17.8125,6.23 17.8125,6.02 17.8125,5.81 C17.8125,3.22 17.3933824,1.47 16.5551471,0.63 C15.7169118,-0.21 14.5294118,-0.14 12.9926471,0.77 C11.4558824,1.75 10.2683824,3.15 9.43014706,4.97 C8.59191176,6.79 8.24264706,9.03 8.24264706,11.69 C8.24264706,11.83 8.24264706,11.9 8.24264706,12.04 L11.5955882,10.15 Z"></path>
                            <polygon
                                    points="4.12132353 10.22 4.12132353 14.56 7.19485294 12.81 7.19485294 4.9 4.40073529 6.65 0.139705882 12.39 1.53676471 13.79"></polygon>
                            <path d="M14.7389706,9.66 C14.7389706,10.29 14.6691176,10.78 14.5992647,11.2 C14.5294118,12.04 14.3198529,12.67 14.1102941,13.16 C13.9007353,13.58 13.5514706,13.93 13.2022059,14.21 C12.7830882,14.42 12.5036765,14.49 12.2941176,14.35 C12.0845588,14.21 11.875,13.72 11.8051471,13.02 C11.7352941,12.6 11.7352941,12.11 11.6654412,11.48 L8.52205882,13.3 C8.66176471,15.05 9.01102941,16.24 9.70955882,16.94 C10.5477941,17.78 11.7352941,17.71 13.2720588,16.73 C14.8088235,15.75 15.9963235,14.35 16.8345588,12.53 C17.4632353,11.2 17.8125,9.59 17.9522059,7.77 L14.7389706,9.66 Z"></path>
                            <polygon
                                    points="4.12132353 15.89 4.12132353 22.05 7.19485294 20.16 7.19485294 14.07"></polygon>
                        </g>
                        <path d="M27.1029412,21 L26.4742647,21.35 C26.4742647,21.35 25.9852941,21.7 25.9852941,21 C25.9852941,20.72 25.9852941,19.18 25.9852941,17.5 L4.68014706,30.1 C4.68014706,31.36 4.68014706,32.55 4.68014706,33.32 C4.68014706,34.16 4.68014706,34.16 4.19117647,34.37 C3.77205882,34.65 3.5625,34.79 3.49264706,34.79 L3.49264706,41.58 C3.49264706,42.84 4.88970588,43.61 5.9375,42.98 L26.125,31.22 C26.6838235,30.87 27.0330882,30.24 27.0330882,29.54 L27.1029412,21 Z"
                              fill="#000000" opacity="0.12"></path>
                    </g>
                    <path d="M35.3455882,104.79 C35.2757353,105.42 34.7867647,105.98 34.2279412,105.98 C33.6691176,105.98 33.3198529,105.42 33.3897059,104.79 C33.4595588,104.16 33.9485294,103.6 34.5073529,103.6 C35.0661765,103.6 35.4154412,104.16 35.3455882,104.79 Z"
                          id="Shape" fill="#FFFFFF"></path>
                    <g transform="translate(74.044118, 0.000000)" id="Shape">
                        <path d="M17.9522059,2.52 L15.7169118,1.19 C15.0183824,0.63 13.9705882,0.42 13.0625,0.98 L1.53676471,7.7 C0.558823529,8.26 0,9.31 0,10.43 L0,24.01 C0,24.71 0.349264706,25.34 0.768382353,25.76 L0.838235294,25.83 C0.977941176,25.97 1.1875,26.04 1.32720588,26.18 L3.84191176,27.72 L6.00735294,26.46 L4.54044118,25.48 L14.7389706,19.53 C15.8566176,18.9 16.5551471,17.71 16.5551471,16.38 L16.5551471,3.85 L17.9522059,2.52 Z"
                              fill="url(#linearGradient-8)"></path>
                        <path d="M17.4632353,21.07 L6.21691176,27.65 C4.68014706,28.56 2.72426471,27.44 2.72426471,25.62 L2.72426471,12.11 C2.72426471,10.99 3.28308824,9.94 4.26102941,9.38 L15.7867647,2.66 C17.3235294,1.75 19.2794118,2.87 19.2794118,4.69 L19.2794118,17.99 C19.2794118,19.25 18.5808824,20.44 17.4632353,21.07 Z"
                              fill="#64D6F0"></path>
                        <path d="M15.9963235,6.79 L7.33455882,11.97 L7.26470588,11.97 L7.26470588,12.04 L7.26470588,13.58 L11.1764706,16.59 L11.2463235,21.7 L12.5036765,20.93 L12.4338235,16.52 L15.9264706,8.47 L15.9963235,6.79 Z M8.52205882,12.81 L11.1764706,11.2 L11.1764706,14.7 L8.52205882,12.81 Z M12.5036765,14.35 L12.4338235,10.43 L14.6691176,9.1 L12.5036765,14.35 Z"
                              fill="#FFFFFF"></path>
                    </g>
                </g>
            </g>
        </g>
    </g>
</svg>