<?xml version="1.0" encoding="UTF-8"?>
<svg width="89px" height="117px" viewBox="0 0 89 117" version="1.1" xmlns="http://www.w3.org/2000/svg">
    <!-- Generator: Sketch 48.2 (47327) - http://www.bohemiancoding.com/sketch -->
    <title>5-illustartion</title>
    <desc>Created with Sketch.</desc>
    <defs>
        <linearGradient x1="28.7369121%" y1="20.3898955%" x2="74.197955%" y2="84.3904181%" id="linearGradient-1">
            <stop stop-color="#000000" stop-opacity="0" offset="0%"></stop>
            <stop stop-color="#000000" stop-opacity="0.3" offset="99.64%"></stop>
        </linearGradient>
        <linearGradient x1="97.9812287%" y1="-6.25984483%" x2="-6.24761092%" y2="103.893921%" id="linearGradient-2">
            <stop stop-color="#2D2F4D" offset="0%"></stop>
            <stop stop-color="#343757" offset="15.81%"></stop>
            <stop stop-color="#53588F" offset="30.1%"></stop>
            <stop stop-color="#2F304F" offset="43.11%"></stop>
            <stop stop-color="#212238" offset="99.81%"></stop>
        </linearGradient>
        <linearGradient x1="97.4924752%" y1="0.881978333%" x2="2.13544554%" y2="99.7426719%" id="linearGradient-3">
            <stop stop-color="#FFE47D" offset="0%"></stop>
            <stop stop-color="#FF8500" offset="99.81%"></stop>
        </linearGradient>
        <linearGradient x1="20.3735661%" y1="99.0900243%" x2="84.9402296%" y2="-10.6868613%" id="linearGradient-4">
            <stop stop-color="#C2841D" offset="0%"></stop>
            <stop stop-color="#FFD227" offset="99.84%"></stop>
        </linearGradient>
    </defs>
    <g id="the-confirmation" stroke="none" stroke-width="1" fill="none" fill-rule="evenodd"
       transform="translate(-43.000000, -1299.000000)">
        <g id="5-illustartion" transform="translate(20.000000, 1287.000000)">
            <g id="Group-6">
                <g fill-rule="nonzero">
                    <g id="Group" transform="translate(16.000000, 12.000000)">
                        <polygon id="Shape" fill="url(#linearGradient-1)"
                                 points="68.8817518 94.92 34.4759124 74.97 0.350364964 95.48 34.1956204 115.15"></polygon>
                        <path d="M70.5635036,4.97 L66.2890511,2.38 C65.7985401,2.03 65.1678832,1.89 64.5372263,2.24 L30.6218978,22.12 C29.9211679,22.54 29.5007299,23.31 29.5007299,24.08 L29.5007299,111.3 C29.5007299,112.35 30.2014599,113.19 31.0423358,113.47 L35.1065693,115.99 L36.2277372,112.42 L35.8072993,111.58 L65.7284672,94.08 C66.4291971,93.66 66.849635,92.89 66.849635,92.12 L66.849635,9.52 L67.620438,9.59 L70.5635036,4.97 Z"
                              id="Shape" fill="url(#linearGradient-2)"></path>
                        <path d="M70.2832117,96.88 L37.4890511,116.06 C35.9474453,116.97 34.0554745,115.85 34.0554745,114.1 L34.0554745,26.88 C34.0554745,26.04 34.4759124,25.34 35.1766423,24.92 L69.0919708,5.04 C70.0729927,4.48 71.4043796,5.18 71.4043796,6.37 L71.4043796,94.92 C71.4043796,95.69 70.9839416,96.46 70.2832117,96.88 Z"
                              id="Shape" fill="#000000"></path>
                        <path d="M68.6014599,6.72 L62.3649635,10.36 L62.3649635,13.79 C62.3649635,14.07 62.2248175,14.35 61.9445255,14.49 L45.3372263,24.29 C44.8467153,24.57 44.2160584,24.22 44.2160584,23.66 L44.2160584,21 L36.0875912,25.76 C35.3868613,26.18 35.0364964,26.88 35.0364964,27.65 L35.0364964,112.98 C35.0364964,114.45 36.5781022,115.36 37.8394161,114.59 L69.3722628,96.11 C70.0729927,95.69 70.4233577,94.99 70.4233577,94.22 L70.4233577,7.77 C70.4233577,6.86 69.3722628,6.23 68.6014599,6.72 Z"
                              id="Shape" fill="url(#linearGradient-3)"></path>
                        <path d="M82.6160584,56.77 C82.4058394,59.01 80.7941606,60.76 78.9722628,60.76 C77.150365,60.76 75.8890511,59.01 76.0992701,56.77 C76.3094891,54.53 77.9211679,52.78 79.7430657,52.78 C81.4948905,52.78 82.8262774,54.6 82.6160584,56.77 Z"
                              id="Shape" fill="#FFFFFF" opacity="0.7"></path>
                        <path d="M79.1824818,3.71 C79.0423358,5.53 77.6408759,7 76.1693431,7 C74.6978102,7 73.6467153,5.53 73.7868613,3.71 C73.9270073,1.89 75.3284672,0.42 76.8,0.42 C78.3416058,0.49 79.3927007,1.89 79.1824818,3.71 Z"
                              id="Shape" fill="#FFFFFF" opacity="0.7"></path>
                        <path d="M20.5313869,64.82 C20.3912409,66.15 19.410219,67.27 18.2890511,67.27 C17.1678832,67.27 16.3970803,66.22 16.5372263,64.89 C16.6773723,63.56 17.6583942,62.44 18.779562,62.44 C19.8306569,62.44 20.6014599,63.49 20.5313869,64.82 Z"
                              id="Shape" fill="#FFFFFF" opacity="0.7"></path>
                        <path d="M88.4321168,46.06 C88.3620438,46.55 88.0116788,46.9 87.6613139,46.9 C87.3109489,46.9 87.0306569,46.55 87.0306569,46.06 C87.0306569,45.57 87.4510949,45.22 87.8014599,45.22 C88.2218978,45.22 88.5021898,45.57 88.4321168,46.06 Z"
                              id="Shape" fill="#FFFFFF" opacity="0.7"></path>
                        <path d="M22.2131387,72.38 C22.1430657,72.87 21.7927007,73.22 21.4423358,73.22 C21.0919708,73.22 20.8116788,72.87 20.8116788,72.38 C20.8116788,71.89 21.2321168,71.54 21.5824818,71.54 C21.9328467,71.54 22.2131387,71.89 22.2131387,72.38 Z"
                              id="Shape" fill="#FFFFFF" opacity="0.7"></path>
                        <path d="M33.9854015,9.87 C33.9153285,10.78 33.2145985,11.55 32.4437956,11.55 C31.6729927,11.55 31.1824818,10.78 31.2525547,9.87 C31.3226277,8.96 32.0233577,8.19 32.7941606,8.19 C33.5649635,8.19 34.0554745,8.96 33.9854015,9.87 Z"
                              id="Shape" fill="#FFFFFF" opacity="0.7"></path>
                        <path d="M80.6540146,43.33 C80.5839416,44.17 79.9532847,44.87 79.2525547,44.87 C78.5518248,44.87 78.0613139,44.17 78.1313869,43.33 C78.2014599,42.49 78.8321168,41.79 79.5328467,41.79 C80.2335766,41.79 80.7240876,42.49 80.6540146,43.33 Z"
                              id="Shape" fill="#FFFFFF" opacity="0.7"></path>
                        <path d="M63.2058394,94.71 C63.1357664,94.71 63.0656934,94.71 62.9956204,94.78 L46.4583942,104.72 C46.4583942,104.72 46.4583942,104.72 46.4583942,104.72 C46.3182482,104.79 46.1781022,105 46.1080292,105.21 C46.0379562,105.56 46.1781022,105.77 46.4583942,105.77 C46.5284672,105.77 46.5985401,105.77 46.6686131,105.7 L63.2058394,95.76 C63.2058394,95.76 63.2058394,95.76 63.2058394,95.76 C63.3459854,95.69 63.4861314,95.48 63.5562044,95.27 C63.5562044,94.99 63.4160584,94.71 63.2058394,94.71 Z"
                              id="Shape" fill="#FFFFFF" opacity="0.5"></path>
                        <polygon id="Shape" fill="#FFFFFF" opacity="0.7"
                                 points="59.2817518 38.71 59.2817518 71.75 51.8540146 75.95 51.8540146 50.26 45.5474453 58.03 42.1839416 55.02 52.5547445 42.56"></polygon>
                        <path d="M38.470073,32.48 L39.0306569,32.34 L36.8583942,31.01 C36.6481752,30.87 36.5080292,30.8 36.2978102,30.66 L36.1576642,30.59 C35.0364964,29.96 33.7751825,29.68 32.3737226,29.68 C26.2072993,29.75 19.9007299,36.05 18.1489051,43.82 C16.8875912,49.63 18.5693431,54.6 22.1430657,56.7 L25.0160584,58.45 L25.5065693,57.68 C25.7167883,57.68 25.9970803,57.68 26.2072993,57.68 C32.3737226,57.61 38.680292,51.31 40.4321168,43.54 C41.4131387,39.06 40.5722628,35.07 38.470073,32.48 Z"
                              id="Shape" fill="url(#linearGradient-4)"></path>
                        <path d="M43.2350365,45.36 C41.5532847,53.13 35.1766423,59.43 29.010219,59.5 C22.8437956,59.57 19.270073,53.34 21.0218978,45.57 C22.7737226,37.8 29.080292,31.57 35.1766423,31.5 C41.2729927,31.43 44.9167883,37.66 43.2350365,45.36 Z"
                              id="Shape" fill="#FFE527"></path>
                        <path d="M34.6160584,34.16 C31.9532847,34.16 29.220438,35.7 27.0481752,38.08 C29.010219,36.26 31.3927007,35.14 33.7051095,35.14 C38.680292,35.07 41.5532847,40.11 40.2218978,46.41 C39.5912409,49.28 38.119708,51.94 36.2978102,53.97 C38.610219,51.87 40.4321168,48.86 41.2029197,45.5 C42.5343066,39.13 39.5912409,34.09 34.6160584,34.16 Z"
                              id="Shape" fill="#E0BF00"></path>
                        <path d="M30.1313869,41.86 L28.1693431,43.05 L25.2262774,47.04 L26.2072993,48.02 L28.0291971,45.5 L28.0291971,53.69 L30.1313869,52.36 L30.1313869,41.86 Z M37.5591241,42.56 C37.5591241,42.49 37.5591241,42.49 37.5591241,42.56 C37.5591241,40.74 37.2788321,39.55 36.7182482,38.99 C36.1576642,38.43 35.3167883,38.43 34.2656934,39.13 C33.2145985,39.76 32.3737226,40.74 31.8131387,42 C31.2525547,43.26 30.9722628,44.8 30.9722628,46.62 C30.9722628,46.69 30.9722628,46.76 30.9722628,46.83 C30.9722628,46.83 30.9722628,46.83 30.9722628,46.83 C30.9722628,47.04 30.9722628,47.46 31.0423358,47.74 C31.1124088,48.93 31.3927007,49.77 31.8131387,50.26 C32.3737226,50.82 33.2145985,50.82 34.2656934,50.12 C35.3167883,49.49 36.1576642,48.51 36.7182482,47.18 C37.1386861,46.27 37.4189781,45.15 37.4890511,43.96 C37.4890511,43.96 37.4890511,43.96 37.4890511,43.96 C37.5591241,43.61 37.5591241,42.84 37.5591241,42.56 Z M35.3167883,45.36 C35.3167883,45.71 35.2467153,45.99 35.2467153,46.27 C35.1766423,46.83 35.0364964,47.32 34.8963504,47.6 C34.7562044,47.88 34.5459854,48.16 34.2656934,48.3 C33.9854015,48.44 33.7751825,48.51 33.6350365,48.37 C33.4948905,48.23 33.3547445,47.95 33.2846715,47.46 C33.1445255,46.41 33.1445255,45.22 33.1445255,45.22 C33.1445255,44.24 33.2145985,43.47 33.2846715,42.91 C33.3547445,42.35 33.4948905,41.86 33.6350365,41.58 C33.7751825,41.3 33.9854015,41.02 34.2656934,40.88 C34.5459854,40.74 34.7562044,40.67 34.8963504,40.81 C35.0364964,40.95 35.1766423,41.23 35.2467153,41.72 C35.3167883,42.21 35.3868613,42.91 35.3868613,43.96 C35.3868613,43.96 35.3167883,45.22 35.3167883,45.36 Z"
                              id="Shape" fill="#DDB300"></path>
                        <g transform="translate(62.364964, 65.100000)" id="Shape">
                            <path d="M17.4481752,16.31 C16.5372263,19.53 15.6262774,22.61 14.7153285,25.9 C9.95036496,17.43 5.25547445,9.1 0.490510949,0.63 C10.1605839,1.12 19.7605839,1.68 29.4306569,2.17 C26.9080292,4.48 24.5255474,6.65 22.0729927,8.89 C25.7167883,11.13 29.3605839,13.37 32.9343066,15.54 C31.3226277,18.06 29.8510949,20.51 28.3094891,23.03 C24.7357664,20.79 21.1620438,18.55 17.4481752,16.31 Z M3.57372263,2.52 C7.14744526,8.82 10.5810219,14.98 14.1547445,21.35 C14.9255474,18.62 15.6262774,16.1 16.4671533,13.37 C20.3211679,15.75 24.1051095,18.13 27.7489051,20.44 C28.659854,19.04 29.5708029,17.64 30.4817518,16.1 C26.6978102,13.79 22.9839416,11.48 19.2,9.1 C21.1620438,7.28 23.1240876,5.53 25.1562044,3.64 C17.8686131,3.29 10.7912409,2.94 3.57372263,2.52 Z"
                                  fill="#000000"></path>
                            <path d="M3.57372263,2.52 C10.7912409,2.94 17.8686131,3.29 25.1562044,3.71 C23.0540146,5.6 21.1620438,7.35 19.2,9.17 C22.9839416,11.48 26.7678832,13.86 30.4817518,16.17 C29.5007299,17.71 28.589781,19.11 27.7489051,20.51 C24.1051095,18.2 20.3211679,15.89 16.4671533,13.44 C15.6963504,16.17 14.9956204,18.69 14.1547445,21.42 C10.6510949,15.05 7.14744526,8.82 3.57372263,2.52 Z"
                                  fill="#FFFFFF"></path>
                        </g>
                    </g>
                </g>
            </g>
        </g>
    </g>
</svg>