<?xml version="1.0" encoding="utf-8"?>
<!-- Generator: Adobe Illustrator 21.1.0, SVG Export Plug-In . SVG Version: 6.00 Build 0)  -->
<svg version="1.1" id="Слой_1" xmlns="http://www.w3.org/2000/svg" xmlns:xlink="http://www.w3.org/1999/xlink" x="0px" y="0px"
	 viewBox="0 0 28 28" style="enable-background:new 0 0 28 28;" xml:space="preserve">
<style type="text/css">
	.st0{fill:#000000;}
</style>
<g>
	<g>
		<path class="st0" d="M19,28H9c-5,0-9-4-9-9V9c0-5,4-9,9-9h10c5,0,9,4,9,9v10C28,24,24,28,19,28z M9,2C5.1,2,2,5.1,2,9v10
			c0,3.9,3.1,7,7,7h10c3.9,0,7-3.1,7-7V9c0-3.9-3.1-7-7-7H9z"/>
	</g>
	<path class="st0" d="M10.7,17.7l-4.4-4.4c-0.5-0.5-1.4-0.5-1.9,0l0,0c-0.5,0.5-0.5,1.4,0,1.9l5.1,5.1c0.9,0.9,2.3,0.9,3.2,0l11-11
		c0.5-0.5,0.5-1.4,0-1.9l0,0c-0.5-0.5-1.4-0.5-1.9,0L11.4,17.7C11.2,17.9,10.9,17.9,10.7,17.7z"/>
</g>
</svg>
