<?xml version="1.0" encoding="UTF-8"?>
<svg width="42px" height="42px" viewBox="0 0 42 42" version="1.1" xmlns="http://www.w3.org/2000/svg" xmlns:xlink="http://www.w3.org/1999/xlink">
    <!-- Generator: Sketch 48.2 (47327) - http://www.bohemiancoding.com/sketch -->
    <title>Group 2</title>
    <desc>Created with Sketch.</desc>
    <defs></defs>
    <g id="assessment-copy-2" stroke="none" stroke-width="1" fill="none" fill-rule="evenodd" transform="translate(-223.000000, -124.000000)">
        <g id="Group-2" transform="translate(223.000000, 124.000000)">
            <path d="M21,42 C9.40202025,42 0,32.5979797 0,21 C0,9.40202025 9.40202025,0 21,0 C32.5979797,0 42,9.40202025 42,21 C42,32.5979797 32.5979797,42 21,42 Z M21,40 C31.4934102,40 40,31.4934102 40,21 C40,10.5065898 31.4934102,2 21,2 C10.5065898,2 2,10.5065898 2,21 C2,31.4934102 10.5065898,40 21,40 Z" id="Combined-Shape" fill="#FEC81E"></path>
            <circle id="Oval-4-Copy" fill="#FFFFFF" cx="21" cy="21" r="19"></circle>
            <g id="Group-Copy" transform="translate(19.000000, 11.000000)" fill="#FEC81E">
                <polygon id="Path" points="0 4 4 4 4 0 0 0"></polygon>
                <polygon id="Path" points="0 20 4 20 4 8 0 8"></polygon>
            </g>
        </g>
    </g>
</svg>