<?xml version="1.0" encoding="UTF-8"?>
<svg width="256px" height="102px" viewBox="0 0 256 102" version="1.1" xmlns="http://www.w3.org/2000/svg" xmlns:xlink="http://www.w3.org/1999/xlink">
    <!-- Generator: Sketch 48.2 (47327) - http://www.bohemiancoding.com/sketch -->
    <title>Logo</title>
    <desc>Created with Sketch.</desc>
    <defs>
        <polygon id="path-1" points="0 71.7706244 134.847737 71.7706244 134.847737 0 0 0"></polygon>
        <polygon id="path-3" points="0 0.105857232 103.139051 0.105857232 103.139051 31.2448481 0 31.2448481"></polygon>
    </defs>
    <g id="welcome-page" stroke="none" stroke-width="1" fill="none" fill-rule="evenodd" transform="translate(-60.000000, -98.000000)">
        <g id="Logo" transform="translate(60.000000, 98.000000)">
            <g id="Page-1">
                <g transform="translate(121.152263, 29.443299)">
                    <path d="M12.9605842,27.4241751 C13.8579791,26.8890887 14.3068775,25.8946511 14.3068775,24.4400393 C14.3068775,21.8057676 12.6993631,20.4886318 9.48433449,20.4886318 L6.59080871,20.4886318 L6.59080871,28.2268048 L9.0020802,28.2268048 C10.7434201,28.2268048 12.0625865,27.9592615 12.9605842,27.4241751 Z M6.59080871,9.37529838 L6.59080871,16.002138 L9.04226805,16.002138 C11.8284922,16.002138 13.2218053,14.8496441 13.2218053,12.5446564 C13.2218053,11.3921626 12.8462498,10.5761558 12.0965453,10.095607 C11.346238,9.61588147 10.1536633,9.37529838 8.5198259,9.37529838 L6.59080871,9.37529838 Z M19.3504536,20.1181874 C20.5159015,21.1611943 21.0986255,22.7254989 21.0986255,24.8104837 C21.0986255,27.8563603 20.0336472,30.0037033 17.9036907,31.2521011 C15.7737343,32.5011163 12.7930008,33.1249036 8.96189234,33.1249036 L0,33.1249036 L0,4.60068105 L7.87682017,4.60068105 C11.7883044,4.60068105 14.7752669,5.17054809 16.8387125,6.30884156 C18.9015553,7.44795824 19.9331776,9.30717777 19.9331776,11.8860885 C19.9331776,13.5602916 19.4440913,14.9113849 18.4663208,15.9403972 C17.4879474,16.9694096 16.2760825,17.6625523 14.8293196,18.0190022 C16.6779611,18.3758637 18.1850058,19.0757979 19.3504536,20.1181874 Z" id="Fill-1" fill="#000000"></path>
                    <path d="M36.7695509,19.3635744 C36.7144924,16.0523055 35.5414803,14.3964674 33.2490818,14.3964674 C32.1296954,14.3964674 31.2637009,14.8036073 30.6496656,15.6178872 C30.0356303,16.432167 29.6602501,17.7757287 29.5239342,19.6485723 L36.7695509,19.6485723 L36.7695509,19.3635744 Z M42.9917754,23.5164016 L29.5239342,23.5164016 C29.7421214,25.3350956 30.2607766,26.6106649 31.0794903,27.3435168 C31.8982041,28.0763686 33.0302805,28.4427945 34.4771524,28.4427945 C35.3503106,28.4427945 36.1964513,28.2868599 37.015165,27.9745836 C37.8338788,27.662918 38.7203411,27.1806608 39.6759847,26.5292369 L42.3368044,30.1120682 C39.7987918,32.1211001 36.9742293,33.1249036 33.8631171,33.1249036 C30.342648,33.1249036 27.6408926,32.0936182 25.757851,30.0306402 C23.8748094,27.968273 22.9332885,25.1997215 22.9332885,21.7249859 C22.9332885,19.5264304 23.3285226,17.5518018 24.1204235,15.8011001 C24.9117103,14.0503985 26.0712137,12.6661228 27.5999569,11.648273 C29.1280861,10.6304232 30.9566833,10.1214983 33.085339,10.1214983 C36.2232642,10.1214983 38.6794054,11.0986341 40.4537628,13.0529057 C42.2275061,15.0071773 43.1145825,17.7217827 43.1145825,21.195704 C43.1145825,22.0914118 43.0736468,22.8649777 42.9917754,23.5164016 Z" id="Fill-3" fill="#000000"></path>
                    <path d="M59.7028394,19.3635744 C59.6477809,16.0523055 58.4747688,14.3964674 56.1823703,14.3964674 C55.0629839,14.3964674 54.1969895,14.8036073 53.5829542,15.6178872 C52.9689189,16.432167 52.5935386,17.7757287 52.4572228,19.6485723 L59.7028394,19.6485723 L59.7028394,19.3635744 Z M65.9250639,23.5164016 L52.4572228,23.5164016 C52.67541,25.3350956 53.1940651,26.6106649 54.0127789,27.3435168 C54.8314926,28.0763686 55.9635691,28.4427945 57.4104409,28.4427945 C58.2833945,28.4427945 59.1297398,28.2868599 59.9484536,27.9745836 C60.7671673,27.662918 61.6536296,27.1806608 62.6092733,26.5292369 L65.2700929,30.1120682 C62.7320803,32.1211001 59.9075179,33.1249036 56.7964056,33.1249036 C53.2759365,33.1249036 50.5741811,32.0936182 48.6911395,30.0306402 C46.8080979,27.968273 45.8665771,25.1997215 45.8665771,21.7249859 C45.8665771,19.5264304 46.2618111,17.5518018 47.053712,15.8011001 C47.8447942,14.0503985 49.0045022,12.6661228 50.5332455,11.648273 C52.0613747,10.6304232 53.8899718,10.1214983 56.0186276,10.1214983 C59.1565527,10.1214983 61.6126939,11.0986341 63.3870513,13.0529057 C65.1607947,15.0071773 66.047871,17.7217827 66.047871,21.195704 C66.047871,22.0914118 66.0069353,22.8649777 65.9250639,23.5164016 Z" id="Fill-5" fill="#000000"></path>
                    <path d="M71.3225274,32.4059477 C70.2521682,31.3132196 69.7171972,29.7569225 69.7171972,27.7370563 L69.7171972,2.54579378 L76.3053055,1.84027242 L76.3053055,27.4880488 C76.3053055,28.4010764 76.6805775,28.8573827 77.4311215,28.8573827 C77.8201535,28.8573827 78.1816655,28.7886982 78.5152406,28.6498765 L79.8078441,33.2982247 C78.6123943,33.7962397 77.2778854,34.0450398 75.8049429,34.0450398 C73.886886,34.0450398 72.392261,33.4986757 71.3225274,32.4059477" id="Fill-7" fill="#000000"></path>
                    <mask id="mask-2" fill="white">
                        <use xlink:href="#path-1"></use>
                    </mask>
                    <g id="Clip-10"></g>
                    <path d="M81.3138219,33.1249036 L87.5144249,33.1249036 L87.5144249,11.4364649 L81.3138219,11.4364649 L81.3138219,33.1249036 Z M87.0238864,1.04153519 C87.716723,1.73589199 88.063828,2.61404911 88.063828,3.67600656 C88.063828,4.73796401 87.716723,5.61612114 87.0238864,6.31068215 C86.3302649,7.00483473 85.4472956,7.35201312 84.3749784,7.35201312 C83.3018764,7.35201312 82.4255784,7.00483473 81.745692,6.31068215 C81.0650207,5.61612114 80.7251757,4.73796401 80.7251757,3.67600656 C80.7251757,2.61404911 81.0650207,1.73589199 81.745692,1.04153519 C82.4255784,0.347178397 83.3018764,0 84.3749784,0 C85.4472956,0 86.3302649,0.347178397 87.0238864,1.04153519 Z" id="Fill-9" fill="#000000" mask="url(#mask-2)"></path>
                    <path d="M109.434849,11.8140116 C110.476361,12.9423538 110.997117,14.5278761 110.997117,16.5691681 L110.997117,32.2047674 L104.667929,32.2047674 L104.667929,17.6572124 C104.667929,16.5830709 104.500687,15.8375591 104.167203,15.4206769 C103.832917,15.0043992 103.332191,14.7960589 102.665022,14.7960589 C101.383162,14.7960589 100.154578,15.7229114 98.9796728,17.5766165 L98.9796728,32.2047674 L92.6504857,32.2047674 L92.6504857,10.8065632 L98.1785098,10.8065632 L98.6191495,13.3453332 C99.5266667,12.2711917 100.508091,11.465233 101.563423,10.927457 C102.617954,10.390487 103.799669,10.1214983 105.108569,10.1214983 C106.951244,10.1214983 108.393337,10.6856694 109.434849,11.8140116" id="Fill-11" fill="#000000" mask="url(#mask-2)"></path>
                    <path d="M128.502769,19.3635744 C128.447711,16.0523055 127.274711,14.3964674 124.982336,14.3964674 C123.862961,14.3964674 122.996975,14.8036073 122.382946,15.6178872 C121.768917,16.432167 121.393541,17.7757287 121.257226,19.6485723 L128.502769,19.6485723 L128.502769,19.3635744 Z M134.724726,23.5164016 L121.257226,23.5164016 C121.475207,25.3350956 121.994061,26.6106649 122.812767,27.3435168 C123.631472,28.0763686 124.763537,28.4427945 126.210394,28.4427945 C127.083339,28.4427945 127.929676,28.2868599 128.748381,27.9745836 C129.567086,27.662918 130.45354,27.1806608 131.409174,26.5292369 L134.069966,30.1120682 C131.53198,32.1211001 128.707446,33.1249036 125.596365,33.1249036 C122.075932,33.1249036 119.373999,32.0936182 117.491181,30.0306402 C115.608159,27.968273 114.666443,25.1997215 114.666443,21.7249859 C114.666443,19.5264304 115.061877,17.5518018 115.85377,15.8011001 C116.644844,14.0503985 117.804541,12.6661228 119.333268,11.648273 C120.861177,10.6304232 122.689961,10.1214983 124.818595,10.1214983 C127.956488,10.1214983 130.412605,11.0986341 132.186944,13.0529057 C133.960465,15.0071773 134.847737,17.7217827 134.847737,21.195704 C134.847737,22.0914118 134.806801,22.8649777 134.724726,23.5164016 Z" id="Fill-12" fill="#000000" mask="url(#mask-2)"></path>
                    <polygon id="Fill-13" fill="#000000" mask="url(#mask-2)" points="33.941267 43.2464019 29.1862103 71.7706244 20.4549423 71.7706244 16.9296417 49.9967229 13.1993816 71.7706244 4.673073 71.7706244 0 43.2464019 6.72266642 43.2464019 9.55110534 66.6667231 13.4863247 43.2464019 20.5369261 43.2464019 24.2261942 66.6667231 27.5465356 43.2464019"></polygon>
                    <path d="M36.3645921,71.7706244 L42.5651646,71.7706244 L42.5651646,50.0821857 L36.3645921,50.0821857 L36.3645921,71.7706244 Z M42.074613,39.687256 C42.7674681,40.3816128 43.1145825,41.2597699 43.1145825,42.3217274 C43.1145825,43.3836848 42.7674681,44.261842 42.074613,44.9561988 C41.3811692,45.6505556 40.4979801,45.997734 39.4256342,45.997734 C38.3525035,45.997734 37.4763783,45.6505556 36.7962775,44.9561988 C36.1155881,44.261842 35.7759301,43.3836848 35.7759301,42.3217274 C35.7759301,41.2597699 36.1155881,40.3816128 36.7962775,39.687256 C37.4763783,38.9928992 38.3525035,38.6457208 39.4256342,38.6457208 C40.4979801,38.6457208 41.3811692,38.9928992 42.074613,39.687256 Z" id="Fill-14" fill="#000000" mask="url(#mask-2)"></path>
                    <polygon id="Fill-15" fill="#000000" mask="url(#mask-2)" points="46.7839086 61.6491261 59.6265502 61.6491261 59.6265502 57.048445 46.7839086 57.048445"></polygon>
                    <polygon id="Fill-16" fill="#000000" mask="url(#mask-2)" points="64.2132079 71.7706244 64.2132079 43.2464019 80.7251757 43.2464019 80.0455063 48.0621797 70.7700184 48.0621797 70.7700184 55.6357107 78.8460897 55.6357107 78.8460897 60.4514885 70.7700184 60.4514885 70.7700184 71.7706244"></polygon>
                    <path d="M82.2311692,71.7706244 L88.4317417,71.7706244 L88.4317417,50.0821857 L82.2311692,50.0821857 L82.2311692,71.7706244 Z M87.9411901,39.687256 C88.6340452,40.3816128 88.9811595,41.2597699 88.9811595,42.3217274 C88.9811595,43.3836848 88.6340452,44.261842 87.9411901,44.9561988 C87.2475501,45.6505556 86.3645572,45.997734 85.2922113,45.997734 C84.2190806,45.997734 83.3427591,45.6505556 82.6628546,44.9561988 C81.9821652,44.261842 81.6425072,43.3836848 81.6425072,42.3217274 C81.6425072,41.2597699 81.9821652,40.3816128 82.6628546,39.687256 C83.3427591,38.9928992 84.2190806,38.6457208 85.2922113,38.6457208 C86.3645572,38.6457208 87.2475501,38.9928992 87.9411901,39.687256 Z" id="Fill-17" fill="#000000" mask="url(#mask-2)"></path>
                </g>
                <g>
                    <path d="M72.9819781,72.4736842 C72.9819781,84.8273062 63.0201678,94.8421053 50.7313751,94.8421053 C38.4425823,94.8421053 28.480772,84.8273062 28.480772,72.4736842 C28.480772,60.1200623 38.4425823,50.1052632 50.7313751,50.1052632 C63.0201678,50.1052632 72.9819781,60.1200623 72.9819781,72.4736842" id="Fill-1" fill="#FEFEFE"></path>
                    <path d="M51.6213992,52.6297285 C40.7369747,52.6297285 31.8819647,61.5318697 31.8819647,72.4736842 C31.8819647,83.4157422 40.7369747,92.3178834 51.6213992,92.3178834 C62.5058236,92.3178834 71.3608337,83.4157422 71.3608337,72.4736842 C71.3608337,61.5318697 62.5058236,52.6297285 51.6213992,52.6297285 M51.6213992,102 C43.7762517,102 36.4005487,98.9288015 30.853208,93.3520874 C25.3056252,87.7753733 22.2506031,80.3603721 22.2506031,72.4736842 C22.2506031,64.5869964 25.3056252,57.1724821 30.853208,51.5955246 C36.4005487,46.0188105 43.7762517,42.9473684 51.6213992,42.9473684 C59.4665466,42.9473684 66.8422497,46.0188105 72.3895903,51.5955246 C77.9371732,57.1724821 80.9921953,64.5869964 80.9921953,72.4736842 C80.9921953,80.3603721 77.9371732,87.7753733 72.3895903,93.3520874 C66.8422497,98.9288015 59.4665466,102 51.6213992,102" id="Fill-3" fill="#020203"></path>
                    <g id="Group-7">
                        <mask id="mask-4" fill="white">
                            <use xlink:href="#path-3"></use>
                        </mask>
                        <g id="Clip-6"></g>
                        <path d="M97.3574984,31.2448481 C95.8730802,31.2448481 94.3891467,30.6671088 93.2595348,29.5118767 C87.848255,23.9803247 81.5422043,19.6368 74.5161198,16.6028672 C67.2450155,13.4629045 59.5158622,11.8707308 51.5433854,11.8707308 C43.582784,11.8707308 35.8640519,13.4582194 28.602157,16.5890586 C21.5847974,19.6143612 15.2840784,23.9458034 9.87497978,29.4630537 C7.61987593,31.7631614 3.95911896,31.7678465 1.69844097,29.4734101 C-0.562237014,27.1789737 -0.56684174,23.4543674 1.68826211,21.1542596 C8.15620531,14.557231 15.6931719,9.3768104 24.0904952,5.75650787 C32.7878527,2.00699689 42.0242055,0.105857232 51.5433854,0.105857232 C61.0768642,0.105857232 70.3260618,2.01266826 79.0340829,5.7730288 C87.441585,9.40368773 94.9853376,14.5984101 101.45522,21.2126993 C103.7079,23.5155195 103.699175,27.2401258 101.435831,29.5318498 C100.307916,30.6740131 98.8324647,31.2448481 97.3574984,31.2448481" id="Fill-5" fill="#020203" mask="url(#mask-4)"></path>
                    </g>
                    <path d="M83.2145547,46.5263158 C81.7285256,46.5263158 80.2432243,45.9500851 79.1121438,44.7978696 C75.5432477,41.1629189 71.3845496,38.3090644 66.7515353,36.3159899 C61.9581512,34.2535612 56.8614958,33.2078365 51.6035001,33.2078365 C46.3530255,33.2078365 41.263406,34.2506099 36.4758447,36.3068903 C31.8486532,38.2945541 27.6935944,41.1402927 24.1261539,44.7658978 C21.8686027,47.0597534 18.2038729,47.0646722 15.9407415,44.7762272 C13.6776101,42.4877822 13.6730003,38.7729019 15.9305516,36.4788003 C20.557743,31.7764824 25.9508764,28.0834905 31.9595291,25.5026263 C38.1836258,22.8292897 44.7927556,21.4736842 51.6035001,21.4736842 C58.4241919,21.4736842 65.0422985,22.8329787 71.2744015,25.5141853 C77.2903327,28.1026736 82.6878332,31.8057489 87.3169657,36.5203637 C89.5718481,38.8171705 89.5631139,42.5318049 87.2973137,44.8177906 C86.1681742,45.9569713 84.6911218,46.5263158 83.2145547,46.5263158" id="Fill-8" fill="#020203"></path>
                    <path d="M56.1693301,69.7894737 C56.3814189,70.2975865 56.5171556,70.8480001 56.5573277,71.4286286 C56.7544455,74.2650463 54.6355543,76.7255412 51.8250044,76.9242037 C50.1609811,77.0420416 48.6279539,76.3405538 47.6126726,75.1604126 C47.3269766,75.9908171 47.1712786,76.8829101 47.1712786,77.8115127 C47.1712786,82.2757548 50.7575742,85.8947368 55.1814957,85.8947368 C59.6054171,85.8947368 63.1917128,82.2757548 63.1917128,77.8115127 C63.1917128,73.6849215 60.1271554,70.2807166 56.1693301,69.7894737" id="Fill-10" fill="#020203"></path>
                </g>
            </g>
        </g>
    </g>
</svg>