<?xml version="1.0" encoding="UTF-8"?>
<svg width="172px" height="60px" viewBox="0 0 172 60" version="1.1" xmlns="http://www.w3.org/2000/svg" xmlns:xlink="http://www.w3.org/1999/xlink">
    <!-- Generator: Sketch 48.2 (47327) - http://www.bohemiancoding.com/sketch -->
    <title>logo_new copy</title>
    <desc>Created with Sketch.</desc>
    <defs></defs>
    <g id="welcome-page" stroke="none" stroke-width="1" fill="none" fill-rule="evenodd" transform="translate(-101.000000, -121.000000)">
        <g id="logo_new" transform="translate(101.000000, 121.000000)">
            <g>
                <ellipse id="Oval" fill="#FFFFFF" fill-rule="nonzero" cx="29.7556764" cy="42.0974478" rx="13.2031259" ry="13.225058"></ellipse>
                <g id="Group" transform="translate(66.432570, 4.037123)" fill="#000000" fill-rule="nonzero">
                    <g id="Shape">
                        <path d="M15.2461359,15.7030162 C16.1634057,16.4965197 16.6220406,17.6937355 16.6220406,19.2946636 C16.6220406,21.6334107 15.788159,23.2761021 14.1203957,24.2227378 C12.4526324,25.1832947 10.1177638,25.6566125 7.11578996,25.6566125 L0.0972861909,25.6566125 L0.0972861909,3.81438515 L6.2680103,3.81438515 C9.32557629,3.81438515 11.6743429,4.24593968 13.2865141,5.12296984 C14.8986852,6 15.7047708,7.4199536 15.7047708,9.39675174 C15.7047708,10.6774942 15.315626,11.7076566 14.5512345,12.5011601 C13.786843,13.2946636 12.8417772,13.8236659 11.702139,14.0881671 C13.1614318,14.3665893 14.3427641,14.8955916 15.2461359,15.7030162 Z M5.25345431,7.47563805 L5.25345431,12.5568445 L7.17138207,12.5568445 C9.35337235,12.5568445 10.4513165,11.6798144 10.4513165,9.91183295 C10.4513165,9.03480278 10.1594579,8.40835267 9.57574079,8.0324826 C8.99202364,7.67053364 8.06085581,7.47563805 6.76833928,7.47563805 L5.25345431,7.47563805 Z M10.2428461,21.2993039 C10.9516455,20.8955916 11.2990962,20.1299304 11.2990962,19.0162413 C11.2990962,16.9976798 10.0343757,15.9953596 7.51883275,15.9953596 L5.25345431,15.9953596 L5.25345431,21.9257541 L7.14358601,21.9257541 C8.50559269,21.9118329 9.54794473,21.7030162 10.2428461,21.2993039 Z"></path>
                        <path d="M33.8972885,18.7517401 L23.5432582,18.7517401 C23.7100345,20.1577726 24.1130773,21.1461717 24.7384885,21.7169374 C25.3638998,22.287703 26.2394755,22.5661253 27.3513177,22.5661253 C28.018423,22.5661253 28.6716302,22.4408353 29.2970415,22.2041763 C29.9224527,21.9675174 30.603456,21.5916473 31.3400515,21.0904872 L33.3830615,23.8607889 C31.4373377,25.4199536 29.2553474,26.199536 26.8648867,26.199536 C24.1547714,26.199536 22.0839653,25.4060325 20.6385705,23.8051044 C19.1931757,22.2041763 18.4704782,20.0603248 18.4704782,17.3735499 C18.4704782,15.675174 18.7762348,14.1438515 19.387748,12.7935035 C19.9992612,11.4431555 20.888735,10.3712297 22.0561693,9.57772622 C23.2375016,8.78422274 24.6412023,8.39443155 26.2672715,8.39443155 C28.6855283,8.39443155 30.561762,9.14617169 31.9376667,10.6635731 C33.2996733,12.1809745 33.9806767,14.2830626 33.9806767,16.9698376 C33.9945747,17.6519722 33.9667786,18.25058 33.8972885,18.7517401 Z M29.1163671,15.5359629 C29.074673,12.974478 28.1713013,11.6937355 26.4062518,11.6937355 C25.5445741,11.6937355 24.8774688,12.0139211 24.4049359,12.6403712 C23.932403,13.2668213 23.6405444,14.3109049 23.5432582,15.7587007 L29.1163671,15.7587007 L29.1163671,15.5359629 Z"></path>
                        <path d="M51.2698226,18.7517401 L40.9157923,18.7517401 C41.0825686,20.1577726 41.4856114,21.1461717 42.1110226,21.7169374 C42.7364338,22.287703 43.6120096,22.5661253 44.7238517,22.5661253 C45.390957,22.5661253 46.0441643,22.4408353 46.6695756,22.2041763 C47.2949868,21.9675174 47.9759901,21.5916473 48.7125856,21.0904872 L50.7555956,23.8607889 C48.8098718,25.4199536 46.6278815,26.199536 44.2374208,26.199536 C41.5273055,26.199536 39.4564994,25.4060325 38.0111046,23.8051044 C36.5657097,22.2041763 35.8430123,20.0603248 35.8430123,17.3735499 C35.8430123,15.675174 36.1487689,14.1438515 36.7602821,12.7935035 C37.3717953,11.4431555 38.2612691,10.3712297 39.4287034,9.57772622 C40.6100357,8.78422274 42.0137364,8.39443155 43.6398056,8.39443155 C46.0580624,8.39443155 47.934296,9.14617169 49.3102007,10.6635731 C50.6722074,12.1809745 51.3532107,14.2830626 51.3532107,16.9698376 C51.3671088,17.6519722 51.3393127,18.25058 51.2698226,18.7517401 Z M46.4889012,15.5359629 C46.4472071,12.974478 45.5438353,11.6937355 43.7787859,11.6937355 C42.9171082,11.6937355 42.2500029,12.0139211 41.77747,12.6403712 C41.304937,13.2668213 41.0130785,14.3109049 40.9157923,15.7587007 L46.4889012,15.7587007 L46.4889012,15.5359629 Z"></path>
                        <path d="M55.2168623,24.9466357 C54.4107767,24.1113689 54.007734,22.9280742 54.007734,21.3967517 L54.007734,2.26914153 L58.9832277,1.74013921 L58.9832277,21.2296984 C58.9832277,21.9257541 59.2611883,22.2737819 59.8310074,22.2737819 C60.1228659,22.2737819 60.4008265,22.2180974 60.650991,22.1206497 L61.6238529,25.6566125 C60.7204811,26.0324826 59.7198232,26.2273782 58.607981,26.2273782 C57.1625861,26.199536 56.0229479,25.7819026 55.2168623,24.9466357 Z"></path>
                        <path d="M68.0864356,0.90487239 C68.6423567,1.44779582 68.9203172,2.11600928 68.9203172,2.93735499 C68.9203172,3.7587007 68.6423567,4.44083527 68.0864356,4.96983759 C67.5305145,5.49883991 66.8217151,5.77726218 65.9600374,5.77726218 C65.0983597,5.77726218 64.4034583,5.51276102 63.8475373,4.96983759 C63.3055142,4.42691415 63.0275536,3.7587007 63.0275536,2.93735499 C63.0275536,2.11600928 63.3055142,1.43387471 63.8475373,0.90487239 C64.3895603,0.37587007 65.0983597,0.0974477958 65.9600374,0.0974477958 C66.8217151,0.0974477958 67.5305145,0.361948956 68.0864356,0.90487239 Z M68.4894784,8.92343387 L68.4894784,25.6705336 L63.5139846,25.6705336 L63.5139846,8.92343387 L68.4894784,8.92343387 Z"></path>
                        <path d="M85.5701539,9.71693735 C86.3901375,10.5939675 86.7931803,11.8468677 86.7931803,13.4338747 L86.7931803,25.6705336 L81.8176865,25.6705336 L81.8176865,14.2830626 C81.8176865,13.4477958 81.6926043,12.863109 81.4285417,12.5290023 C81.1644792,12.2088167 80.7753345,12.0417633 80.2472094,12.0417633 C79.2465515,12.0417633 78.2736896,12.7656613 77.3564198,14.2134571 L77.3564198,25.6566125 L72.380926,25.6566125 L72.380926,8.92343387 L76.7310085,8.92343387 L77.0784592,10.9141531 C77.7872586,10.0788863 78.5655481,9.43851508 79.3855317,9.02088167 C80.2194134,8.60324826 81.1366832,8.39443155 82.1651372,8.39443155 C83.6244301,8.38051044 84.7640683,8.82598608 85.5701539,9.71693735 Z"></path>
                        <path d="M105.027392,18.7517401 L94.6733617,18.7517401 C94.8401381,20.1577726 95.2431808,21.1461717 95.8685921,21.7169374 C96.4940033,22.287703 97.369579,22.5661253 98.4814212,22.5661253 C99.1485265,22.5661253 99.8017338,22.4408353 100.427145,22.2041763 C101.052556,21.9675174 101.73356,21.5916473 102.470155,21.0904872 L104.513165,23.8607889 C102.567441,25.4199536 100.385451,26.199536 97.9949902,26.199536 C95.2848749,26.199536 93.2140689,25.4060325 91.768674,23.8051044 C90.3232792,22.2041763 89.6005818,20.0603248 89.6005818,17.3735499 C89.6005818,15.675174 89.9063384,14.1438515 90.5178516,12.7935035 C91.1293648,11.4431555 92.0188385,10.3712297 93.1862728,9.57772622 C94.3676051,8.78422274 95.7713059,8.39443155 97.3973751,8.39443155 C99.8156318,8.39443155 101.691865,9.14617169 103.06777,10.6635731 C104.429777,12.1809745 105.11078,14.2830626 105.11078,16.9698376 C105.124678,17.6519722 105.096882,18.25058 105.027392,18.7517401 Z M100.246471,15.5359629 C100.204777,12.974478 99.3014048,11.6937355 97.5363553,11.6937355 C96.6746777,11.6937355 96.0075723,12.0139211 95.5350394,12.6403712 C95.0625065,13.2668213 94.7706479,14.3109049 94.6733617,15.7587007 L100.246471,15.7587007 L100.246471,15.5359629 Z"></path>
                    </g>
                    <g transform="translate(0.000000, 30.208817)" id="Shape">
                        <polygon points="26.1560873 3.81438515 22.5009061 25.6566125 15.802057 25.6566125 13.0919417 8.97911833 10.2289481 25.6566125 3.68297723 25.6566125 0.0972861909 3.81438515 5.25345431 3.81438515 7.42154656 21.7587007 10.4374185 3.81438515 15.8576491 3.81438515 18.6928467 21.7587007 21.2361857 3.81438515"></polygon>
                        <path d="M32.9939167,0.90487239 C33.5498378,1.43387471 33.8277984,2.11600928 33.8277984,2.93735499 C33.8277984,3.7587007 33.5498378,4.44083527 32.9939167,4.96983759 C32.4379956,5.49883991 31.7291962,5.77726218 30.8675186,5.77726218 C30.0058409,5.77726218 29.3109395,5.51276102 28.7550184,4.96983759 C28.2129953,4.42691415 27.9350348,3.7587007 27.9350348,2.93735499 C27.9350348,2.11600928 28.2129953,1.43387471 28.7550184,0.90487239 C29.2970415,0.361948956 30.0058409,0.0974477958 30.8675186,0.0974477958 C31.7430943,0.0974477958 32.4379956,0.361948956 32.9939167,0.90487239 Z M33.3969595,8.92343387 L33.3969595,25.6705336 L28.4214658,25.6705336 L28.4214658,8.92343387 L33.3969595,8.92343387 Z"></path>
                        <polygon points="36.7324861 17.7215777 36.7324861 13.8793503 46.7668617 13.8793503 46.7668617 17.7215777"></polygon>
                        <polygon points="50.1996745 25.6566125 50.1996745 3.81438515 63.19433 3.81438515 62.6662049 7.50348028 55.3697406 7.50348028 55.3697406 13.3085847 61.7211391 13.3085847 61.7211391 16.9976798 55.3697406 16.9976798 55.3697406 25.6705336 50.1996745 25.6705336"></polygon>
                        <path d="M69.1009916,0.90487239 C69.6569127,1.43387471 69.9348732,2.11600928 69.9348732,2.93735499 C69.9348732,3.7587007 69.6569127,4.44083527 69.1009916,4.96983759 C68.5450705,5.49883991 67.8362711,5.77726218 66.9745934,5.77726218 C66.1129157,5.77726218 65.4180143,5.51276102 64.8620932,4.96983759 C64.3200702,4.42691415 64.0421096,3.7587007 64.0421096,2.93735499 C64.0421096,2.11600928 64.3200702,1.43387471 64.8620932,0.90487239 C65.4041163,0.361948956 66.1129157,0.0974477958 66.9745934,0.0974477958 C67.8362711,0.0974477958 68.5450705,0.361948956 69.1009916,0.90487239 Z M69.4901363,8.92343387 L69.4901363,25.6705336 L64.5146426,25.6705336 L64.5146426,8.92343387 L69.4901363,8.92343387 Z"></path>
                    </g>
                </g>
                <path d="M29.7556764,59.9025522 C19.9575672,59.9025522 11.9800995,51.9118329 11.9800995,42.0974478 C11.9800995,32.2830626 19.9575672,24.2923434 29.7556764,24.2923434 C39.5537856,24.2923434 47.5312532,32.2830626 47.5312532,42.0974478 C47.5312532,51.9118329 39.5537856,59.9025522 29.7556764,59.9025522 Z M29.7556764,30.12529 C23.1680115,30.12529 17.8033729,35.4988399 17.8033729,42.0974478 C17.8033729,48.6960557 23.1680115,54.0696056 29.7556764,54.0696056 C36.3433413,54.0696056 41.7079798,48.6960557 41.7079798,42.0974478 C41.7079798,35.4988399 36.3433413,30.12529 29.7556764,30.12529 Z" id="Shape" fill="#000000" fill-rule="nonzero"></path>
                <path d="M55.4114347,16.5243619 C48.5736053,9.63341067 39.4564994,5.84686775 29.7556764,5.84686775 C20.0687514,5.84686775 10.9655435,9.63341067 4.1277141,16.4965197 L0,12.361949 C7.93577357,4.39907193 18.5121723,0 29.7556764,0 C41.0130785,0 51.6033752,4.39907193 59.5391488,12.4037123 L55.4114347,16.5243619 Z" id="Shape" fill="#000000" fill-rule="nonzero"></path>
                <path d="M46.7946578,25.1136891 C42.2500029,20.5336427 36.190463,18.0139211 29.7556764,18.0139211 C23.3208898,18.0139211 17.2752479,20.5197216 12.730593,25.0858469 L8.60287888,20.9651972 C14.2454779,15.2993039 21.7643107,12.1809745 29.7556764,12.1809745 C37.7609401,12.1809745 45.2797728,15.3132251 50.9362699,20.9930394 L46.7946578,25.1136891 Z" id="Shape" fill="#000000" fill-rule="nonzero"></path>
                <path d="M30.4088837,36.8213457 C30.5478639,37.1554524 30.6312521,37.5174014 30.6590481,37.8932715 C30.7841304,39.7447796 29.3943277,41.3596288 27.531992,41.4849188 C26.4340479,41.5684455 25.4194919,41.1090487 24.7523866,40.3294664 C24.5578142,40.8723898 24.460528,41.4570766 24.460528,42.0696056 C24.460528,44.9930394 26.8231926,47.3596288 29.7417783,47.3596288 C32.6603641,47.3596288 35.0230287,44.9930394 35.0230287,42.0696056 C35.0369267,39.3828306 33.0217128,37.1554524 30.4088837,36.8213457 Z" id="Shape" fill="#000000" fill-rule="nonzero"></path>
            </g>
        </g>
    </g>
</svg>