<?xml version="1.0" encoding="UTF-8"?>
<svg width="256px" height="93px" viewBox="0 0 256 93" version="1.1" xmlns="http://www.w3.org/2000/svg" xmlns:xlink="http://www.w3.org/1999/xlink">
    <!-- Generator: Sketch 48.2 (47327) - http://www.bohemiancoding.com/sketch -->
    <title>logo-01</title>
    <desc>Created with Sketch.</desc>
    <defs></defs>
    <g id="welcome-page" stroke="none" stroke-width="1" fill="none" fill-rule="evenodd" transform="translate(-60.000000, -100.000000)">
        <g id="logo-01" transform="translate(60.000000, 100.000000)">
            <g>
                <ellipse id="Oval" fill="#FFFFFF" fill-rule="nonzero" cx="47.143662" cy="66.0932039" rx="19.8309859" ry="19.8640777"></ellipse>
                <path d="M47.143662,93 C39.9323944,93 33.171831,90.2009709 28.1239437,85.1446602 C23.0760563,80.0883495 20.2816901,73.3165049 20.2816901,66.0932039 C20.2816901,58.8699029 23.0760563,52.0980583 28.1239437,47.0417476 C33.171831,41.9854369 39.9323944,39.1864078 47.143662,39.1864078 C54.3549296,39.1864078 61.115493,41.9854369 66.1633803,47.0417476 C71.2112676,52.0980583 74.0056338,58.8699029 74.0056338,66.0932039 C74.0056338,73.3165049 71.2112676,80.0883495 66.1633803,85.1446602 C61.115493,90.2009709 54.3549296,93 47.143662,93 Z M47.143662,47.9446602 C37.1380282,47.9446602 29.0253521,56.0708738 29.0253521,66.0932039 C29.0253521,76.115534 37.1380282,84.2417476 47.143662,84.2417476 C57.1492958,84.2417476 65.2619718,76.115534 65.2619718,66.0932039 C65.2619718,56.0708738 57.1492958,47.9446602 47.143662,47.9446602 Z" id="Shape" fill="#000000" fill-rule="nonzero"></path>
                <path d="M89.1492958,28.0805825 C87.7971831,28.0805825 86.4450704,27.538835 85.3633803,26.5456311 C80.4056338,21.5796117 74.6366197,17.6067961 68.2366197,14.8980583 C61.5661972,12.0990291 54.5352113,10.6543689 47.2338028,10.6543689 C39.9323944,10.6543689 32.9014085,12.0990291 26.2309859,14.8980583 C19.8309859,17.6067961 14.0619718,21.4893204 9.10422535,26.4553398 C7.03098592,28.5320388 3.69577465,28.5320388 1.62253521,26.4553398 C-0.450704225,24.3786408 -0.450704225,21.0378641 1.62253521,18.961165 C7.48169014,13.0019417 14.3323944,8.39708738 22.084507,5.05631068 C30.0169014,1.71553398 38.4901408,0 47.143662,0 C55.8873239,0 64.3605634,1.71553398 72.2929577,5.14660194 C79.9549296,8.39708738 86.8957746,13.092233 92.8450704,19.0514563 C94.9183099,21.1281553 94.9183099,24.468932 92.8450704,26.5456311 C91.7633803,27.538835 90.4112676,28.0805825 89.1492958,28.0805825 Z" id="Shape" fill="#000000" fill-rule="nonzero"></path>
                <path d="M76.0788732,42.1660194 C74.7267606,42.1660194 73.3746479,41.6242718 72.2929577,40.631068 C69.0478873,37.3805825 65.2619718,34.7621359 61.0253521,32.9563107 C56.6084507,31.0601942 52.0112676,30.1572816 47.143662,30.1572816 C42.3661972,30.1572816 37.6788732,31.0601942 33.3521127,32.9563107 C29.115493,34.7621359 25.3295775,37.2902913 22.084507,40.631068 C20.0112676,42.707767 16.6760563,42.707767 14.6028169,40.631068 C12.5295775,38.5543689 12.5295775,35.2135922 14.6028169,33.1368932 C18.8394366,28.8932039 23.7971831,25.5524272 29.2957746,23.2048544 C34.9746479,20.7669903 41.0140845,19.5932039 47.2338028,19.5932039 C53.4535211,19.5932039 59.4929577,20.8572816 65.2619718,23.2048544 C70.7605634,25.5524272 75.7183099,28.8932039 79.9549296,33.1368932 C82.028169,35.2135922 82.028169,38.5543689 79.9549296,40.631068 C78.7830986,41.7145631 77.4309859,42.1660194 76.0788732,42.1660194 Z" id="Shape" fill="#000000" fill-rule="nonzero"></path>
                <path d="M48.0450704,58.9601942 C48.2253521,59.4116505 48.315493,59.8631068 48.4056338,60.4048544 C48.5859155,62.9330097 46.6929577,65.1 44.1690141,65.2805825 C42.7267606,65.3708738 41.284507,64.738835 40.3830986,63.7456311 C40.1126761,64.4679612 40.0225352,65.2805825 40.0225352,66.0932039 C40.0225352,70.0660194 43.1774648,73.2262136 47.143662,73.2262136 C51.1098592,73.2262136 54.2647887,70.0660194 54.2647887,66.0932039 C54.2647887,62.3912621 51.5605634,59.4116505 48.0450704,58.9601942 Z" id="Shape" fill="#000000" fill-rule="nonzero"></path>
                <g id="Group" transform="translate(106.366197, 12.640777)" fill="#000000" fill-rule="nonzero">
                    <g id="Shape">
                        <path d="M22.1746479,22.8436893 C23.4366197,23.9271845 24.0676056,25.6427184 24.0676056,27.9 C24.0676056,31.1504854 22.8957746,33.4980583 20.5521127,34.8524272 C18.2084507,36.2067961 14.8732394,36.838835 10.6366197,36.838835 L0.721126761,36.838835 L0.721126761,6.13980583 L9.37464789,6.13980583 C13.7014085,6.13980583 16.9464789,6.77184466 19.2901408,7.94563107 C21.543662,9.20970874 22.715493,11.1961165 22.715493,13.9951456 C22.715493,15.8009709 22.1746479,17.2456311 21.0929577,18.3291262 C20.0112676,19.4126214 18.6591549,20.2252427 17.0366197,20.5864078 C19.2901408,21.0378641 20.9126761,21.7601942 22.1746479,22.8436893 Z M8.11267606,11.2864078 L8.11267606,18.4194175 L10.8169014,18.4194175 C13.8816901,18.4194175 15.4140845,17.1553398 15.4140845,14.7174757 C15.4140845,13.4533981 14.9633803,12.5504854 14.1521127,12.0990291 C13.3408451,11.5572816 11.9887324,11.2864078 10.1859155,11.2864078 L8.11267606,11.2864078 Z M15.143662,30.7893204 C16.1352113,30.2475728 16.5859155,29.1640777 16.5859155,27.538835 C16.5859155,24.7398058 14.7830986,23.2951456 11.2676056,23.2951456 L8.11267606,23.2951456 L8.11267606,31.6019417 L10.8169014,31.6019417 C12.7098592,31.6019417 14.1521127,31.331068 15.143662,30.7893204 Z"></path>
                        <path d="M48.4957746,27.1776699 L33.8929577,27.1776699 C34.1633803,29.1640777 34.7042254,30.5184466 35.6056338,31.331068 C36.5070423,32.1436893 37.6788732,32.5048544 39.3014085,32.5048544 C40.2028169,32.5048544 41.1943662,32.3242718 42.0957746,31.9631068 C42.9971831,31.6019417 43.9887324,31.0601942 44.9802817,30.4281553 L47.8647887,34.3106796 C45.0704225,36.4776699 42.0957746,37.561165 38.6704225,37.561165 C34.884507,37.561165 31.9098592,36.4776699 29.9267606,34.2203883 C27.8535211,31.9631068 26.8619718,28.9834951 26.8619718,25.1912621 C26.8619718,22.7533981 27.3126761,20.676699 28.1239437,18.6902913 C29.0253521,16.7941748 30.1971831,15.2592233 31.9098592,14.1757282 C33.5323944,13.092233 35.515493,12.5504854 37.8591549,12.5504854 C41.284507,12.5504854 43.8985915,13.6339806 45.8816901,15.7106796 C47.7746479,17.8776699 48.7661972,20.7669903 48.7661972,24.5592233 C48.5859155,25.6427184 48.5859155,26.4553398 48.4957746,27.1776699 Z M41.7352113,22.6631068 C41.6450704,19.0514563 40.3830986,17.2456311 37.9492958,17.2456311 C36.7774648,17.2456311 35.7859155,17.6970874 35.1549296,18.6 C34.5239437,19.5029126 34.0732394,20.9475728 33.8929577,23.0242718 L41.7352113,23.0242718 L41.7352113,22.6631068 Z"></path>
                        <path d="M73.0140845,27.1776699 L58.4112676,27.1776699 C58.6816901,29.1640777 59.2225352,30.5184466 60.1239437,31.331068 C61.0253521,32.1436893 62.1971831,32.5048544 63.8197183,32.5048544 C64.7211268,32.5048544 65.7126761,32.3242718 66.6140845,31.9631068 C67.515493,31.6019417 68.5070423,31.0601942 69.4985915,30.4281553 L72.3830986,34.3106796 C69.5887324,36.4776699 66.6140845,37.561165 63.1887324,37.561165 C59.4028169,37.561165 56.428169,36.4776699 54.4450704,34.2203883 C52.371831,31.9631068 51.3802817,28.9834951 51.3802817,25.1912621 C51.3802817,22.7533981 51.8309859,20.676699 52.6422535,18.6902913 C53.543662,16.7941748 54.715493,15.2592233 56.428169,14.1757282 C58.0507042,13.092233 60.0338028,12.5504854 62.3774648,12.5504854 C65.8028169,12.5504854 68.4169014,13.6339806 70.4,15.7106796 C72.2929577,17.8776699 73.284507,20.7669903 73.284507,24.5592233 C73.1042254,25.6427184 73.1042254,26.4553398 73.0140845,27.1776699 Z M66.2535211,22.6631068 C66.1633803,19.0514563 64.9014085,17.2456311 62.4676056,17.2456311 C61.2957746,17.2456311 60.3042254,17.6970874 59.6732394,18.6 C59.0422535,19.5029126 58.5915493,20.9475728 58.4112676,23.0242718 L66.2535211,23.0242718 L66.2535211,22.6631068 Z"></path>
                        <path d="M78.5126761,35.9359223 C77.3408451,34.7621359 76.8,33.1368932 76.8,30.9699029 L76.8,3.97281553 L83.8309859,3.25048544 L83.8309859,30.6990291 C83.8309859,31.692233 84.1915493,32.1436893 85.0028169,32.1436893 C85.4535211,32.1436893 85.8140845,32.0533981 86.1746479,31.9631068 L87.5267606,36.9291262 C86.2647887,37.4708738 84.8225352,37.7417476 83.2901408,37.7417476 C81.3070423,37.6514563 79.684507,37.1097087 78.5126761,35.9359223 Z"></path>
                        <path d="M96.7211268,1.98640777 C97.5323944,2.70873786 97.8929577,3.70194175 97.8929577,4.87572816 C97.8929577,6.04951456 97.5323944,6.95242718 96.7211268,7.76504854 C95.9098592,8.48737864 94.9183099,8.93883495 93.7464789,8.93883495 C92.5746479,8.93883495 91.5830986,8.5776699 90.771831,7.76504854 C89.9605634,7.04271845 89.6,6.04951456 89.6,4.87572816 C89.6,3.70194175 89.9605634,2.79902913 90.771831,1.98640777 C91.5830986,1.26407767 92.5746479,0.812621359 93.7464789,0.812621359 C94.9183099,0.902912621 95.9098592,1.26407767 96.7211268,1.98640777 Z M97.2619718,13.3631068 L97.2619718,36.9291262 L90.2309859,36.9291262 L90.2309859,13.3631068 L97.2619718,13.3631068 Z"></path>
                        <path d="M121.329577,14.4466019 C122.501408,15.7106796 123.042254,17.4262136 123.042254,19.6834951 L123.042254,36.9291262 L116.011268,36.9291262 L116.011268,20.8572816 C116.011268,19.6834951 115.830986,18.8708738 115.470423,18.4194175 C115.109859,17.9679612 114.569014,17.6970874 113.847887,17.6970874 C112.405634,17.6970874 111.053521,18.6902913 109.791549,20.7669903 L109.791549,36.9291262 L102.760563,36.9291262 L102.760563,13.3631068 L108.890141,13.3631068 L109.340845,16.1621359 C110.332394,14.9883495 111.414085,14.0854369 112.585915,13.4533981 C113.757746,12.8213592 115.019718,12.5504854 116.552113,12.5504854 C118.625352,12.5504854 120.157746,13.1825243 121.329577,14.4466019 Z"></path>
                        <path d="M148.732394,27.1776699 L134.129577,27.1776699 C134.4,29.1640777 134.940845,30.5184466 135.842254,31.331068 C136.743662,32.1436893 137.915493,32.5048544 139.538028,32.5048544 C140.439437,32.5048544 141.430986,32.3242718 142.332394,31.9631068 C143.233803,31.6019417 144.225352,31.0601942 145.216901,30.4281553 L148.101408,34.3106796 C145.307042,36.4776699 142.332394,37.561165 138.907042,37.561165 C135.121127,37.561165 132.146479,36.4776699 130.16338,34.2203883 C128.090141,31.9631068 127.098592,28.9834951 127.098592,25.1912621 C127.098592,22.7533981 127.549296,20.676699 128.360563,18.6902913 C129.261972,16.7941748 130.433803,15.2592233 132.146479,14.1757282 C133.769014,13.092233 135.752113,12.5504854 138.095775,12.5504854 C141.521127,12.5504854 144.135211,13.6339806 146.11831,15.7106796 C148.011268,17.8776699 149.002817,20.7669903 149.002817,24.5592233 C148.912676,25.6427184 148.822535,26.4553398 148.732394,27.1776699 Z M141.971831,22.6631068 C141.88169,19.0514563 140.619718,17.2456311 138.185915,17.2456311 C137.014085,17.2456311 136.022535,17.6970874 135.391549,18.6 C134.760563,19.5029126 134.309859,20.9475728 134.129577,23.0242718 L141.971831,23.0242718 L141.971831,22.6631068 Z"></path>
                    </g>
                    <g transform="translate(0.000000, 43.339806)" id="Shape">
                        <polygon points="37.5887324 5.41747573 32.4507042 36.2067961 22.9859155 36.2067961 19.2 12.731068 15.143662 36.2067961 5.94929577 36.2067961 0.811267606 5.41747573 8.11267606 5.41747573 11.1774648 30.6990291 15.4140845 5.41747573 23.0760563 5.41747573 27.0422535 30.6990291 30.6478873 5.41747573"></polygon>
                        <path d="M47.2338028,1.26407767 C48.0450704,1.98640777 48.4056338,2.97961165 48.4056338,4.15339806 C48.4056338,5.32718447 48.0450704,6.23009709 47.2338028,7.04271845 C46.4225352,7.76504854 45.4309859,8.21650485 44.2591549,8.21650485 C43.0873239,8.21650485 42.0957746,7.85533981 41.284507,7.04271845 C40.4732394,6.32038835 40.1126761,5.32718447 40.1126761,4.15339806 C40.1126761,2.97961165 40.4732394,2.07669903 41.284507,1.26407767 C42.0957746,0.541747573 43.0873239,0.0902912621 44.2591549,0.0902912621 C45.4309859,0.0902912621 46.4225352,0.541747573 47.2338028,1.26407767 Z M47.7746479,12.5504854 L47.7746479,36.1165049 L40.743662,36.1165049 L40.743662,12.5504854 L47.7746479,12.5504854 Z"></path>
                        <polygon points="52.4619718 25.0106796 52.4619718 19.5932039 66.6140845 19.5932039 66.6140845 25.0106796"></polygon>
                        <polygon points="71.4816901 36.2067961 71.4816901 5.41747573 89.7802817 5.41747573 89.0591549 10.6543689 78.7830986 10.6543689 78.7830986 18.8708738 87.7070423 18.8708738 87.7070423 24.107767 78.7830986 24.107767 78.7830986 36.2970874 71.4816901 36.2970874"></polygon>
                        <path d="M98.0732394,1.26407767 C98.884507,1.98640777 99.2450704,2.97961165 99.2450704,4.15339806 C99.2450704,5.32718447 98.884507,6.23009709 98.0732394,7.04271845 C97.2619718,7.76504854 96.2704225,8.21650485 95.0985915,8.21650485 C93.9267606,8.21650485 92.9352113,7.85533981 92.1239437,7.04271845 C91.3126761,6.32038835 90.9521127,5.32718447 90.9521127,4.15339806 C90.9521127,2.97961165 91.3126761,2.07669903 92.1239437,1.26407767 C92.9352113,0.541747573 93.9267606,0.0902912621 95.0985915,0.0902912621 C96.3605634,0.0902912621 97.3521127,0.541747573 98.0732394,1.26407767 Z M98.7042254,12.5504854 L98.7042254,36.1165049 L91.6732394,36.1165049 L91.6732394,12.5504854 L98.7042254,12.5504854 Z"></path>
                    </g>
                </g>
            </g>
        </g>
    </g>
</svg>