<?xml version="1.0" encoding="UTF-8"?>
<svg width="30px" height="27px" viewBox="0 0 30 27" version="1.1" xmlns="http://www.w3.org/2000/svg" xmlns:xlink="http://www.w3.org/1999/xlink">
    <!-- Generator: Sketch 48.2 (47327) - http://www.bohemiancoding.com/sketch -->
    <title>Telegram_icon</title>
    <desc>Created with Sketch.</desc>
    <defs>
        <polygon id="path-1" points="0 0 30 0 30 27 0 27"></polygon>
    </defs>
    <g id="the-confirmation" stroke="none" stroke-width="1" fill="none" fill-rule="evenodd" transform="translate(-217.000000, -368.000000)">
        <g id="Telegram_icon" transform="translate(216.000000, 364.000000)">
            <g transform="translate(1.000000, 4.000000)" id="Page-1">
                <g>
                    <mask id="mask-2" fill="white">
                        <use xlink:href="#path-1"></use>
                    </mask>
                    <g id="Clip-2"></g>
                    <path d="M2.56238862,12.9466112 C2.83347256,13.0382654 3.0696514,13.1182623 3.30595336,13.1980125 C5.29034195,13.8677168 7.27485366,14.5370819 9.25865742,15.2085133 C9.32197293,15.2299465 9.36700481,15.2262767 9.42517997,15.1900097 C10.4814747,14.5311608 11.5395239,13.8752108 12.597296,13.2187673 C14.8794245,11.8024764 17.1617068,10.3864015 19.4437737,8.96998728 C20.736709,8.16752013 22.0277666,7.36199989 23.3244263,6.56557723 C23.4579214,6.48357576 23.6210273,6.44289884 23.7756993,6.40475074 C23.9117492,6.37119767 24.0184344,6.4281577 24.0524777,6.53267179 C24.098433,6.67373035 24.1238577,6.81639255 24.0045832,6.94107548 C23.9515176,6.99655523 23.9070398,7.0607933 23.8514194,7.11334332 C23.4988902,7.44634514 23.1446989,7.77758912 22.7904153,8.10870975 C21.1618801,9.63071741 19.533345,11.1527559 17.9043789,12.6743318 C16.168543,14.2957959 14.4318759,15.9163966 12.6979791,17.5399577 C12.6520238,17.5829476 12.6155181,17.6526134 12.6053913,17.7149086 C12.5132345,18.2806848 12.4291729,18.8477871 12.3404019,19.4141492 C12.1670461,20.5202284 11.9919358,21.6260609 11.8182414,22.7321093 C11.7986342,22.8568847 11.7833978,22.9823078 11.7622824,23.1353011 C11.8193187,23.0853416 11.8511765,23.058419 11.8819878,23.0302936 C13.1841264,21.8416578 14.4868191,20.6536697 15.7863414,19.4621967 C15.8603069,19.3943813 15.9018914,19.3996856 15.9761648,19.4572316 C16.7119421,20.0271711 17.4508282,20.5931015 18.1888216,21.1601421 C19.5642794,22.2170019 20.9389369,23.2749411 22.3161492,24.3294879 C22.5093585,24.4774237 22.6846842,24.6557668 22.940932,24.7058189 C23.1583963,24.7482845 23.3415711,24.6350429 23.3839558,24.4171022 C23.5256385,23.6885258 23.6683369,22.9601652 23.8108199,22.2317739 C24.0677448,20.9183318 24.3255623,19.6050748 24.5816254,18.2914477 C24.9171329,16.5703112 25.2504858,14.8487739 25.5861781,13.1276991 C25.9042331,11.4970757 26.2247505,9.86694578 26.5430209,8.23635325 C26.903984,6.38680231 27.2639005,4.5370355 27.6232629,2.68714534 C27.6423776,2.58879909 27.6519195,2.48863332 27.6710035,2.3533417 C19.2874395,5.89035267 10.9415817,9.41145061 2.56238862,12.9466112 M16.004175,22.3988607 C15.5389584,22.8233316 15.0756194,23.2461372 14.6122189,23.6688812 C13.9894061,24.237032 13.3748425,24.8146196 12.7409487,25.3700647 C12.2718845,25.7810588 11.7169119,25.8966442 11.1042259,25.7713445 C10.5058836,25.6490053 10.1668055,25.2352665 9.89984619,24.7349002 C9.66148194,24.28804 9.52703268,23.8014898 9.37931702,23.3207681 C8.80159766,21.440378 8.22637152,19.5592169 7.6501604,17.6783641 C7.59503251,17.4983865 7.53522598,17.3197041 7.48613107,17.1381228 C7.46538501,17.061364 7.42537035,17.0274717 7.35198962,17.0028312 C5.73727493,16.4602769 4.12274493,15.9170133 2.50996941,15.3685996 C2.15522405,15.2479566 1.79610786,15.1306751 1.45887661,14.9700336 C0.957369793,14.7311839 0.537985367,14.3815598 0.26508538,13.8848634 C-0.211612353,13.0173255 -0.0352708204,12.0465688 0.71260319,11.3986061 C1.01151271,11.1396184 1.3515142,10.9462874 1.71490888,10.7931707 C3.20727105,10.1644825 4.69984868,9.53638026 6.19199538,8.90719864 C8.37716523,7.98575381 10.5621504,7.06381555 12.7469817,6.1415689 C14.8183867,5.2671847 16.8889608,4.39076512 18.9609199,3.51770701 C21.3019622,2.53128396 23.6435586,1.54606363 25.9865401,0.564235619 C26.36828,0.404272624 26.7517436,0.242767667 27.1462573,0.120335993 C27.8168415,-0.0877361741 28.4732051,-0.0373449007 29.0689002,0.360881852 C29.6271355,0.734067163 29.9154873,1.27480192 29.986221,1.94157653 C30.0431033,2.47771624 29.9118245,2.99023312 29.812188,3.50682077 C29.5486145,4.87370719 29.2804855,6.23969927 29.0138031,7.60596891 C28.7471516,8.97223854 28.4796074,10.3383231 28.213356,11.7046853 C27.9640031,12.9842967 27.71622,14.2641857 27.4671441,15.543828 C27.2100038,16.8649491 26.9520939,18.1858851 26.6946457,19.5069136 C26.4519414,20.7525402 26.2093295,21.998136 25.9669022,23.2438243 C25.8419949,23.8855266 25.7298307,24.5300662 25.5877787,25.1679136 C25.5167988,25.4866677 25.3233433,25.7551847 25.1203766,26.0091148 C24.4832509,26.8062468 23.6336473,27.0798523 22.6508565,26.9804883 C22.3645977,26.9515303 22.0855109,26.8476639 21.8043001,26.7737731 C21.601118,26.7203596 21.4496779,26.5788384 21.2886343,26.4550807 C19.553537,25.1212847 17.8185937,23.7872421 16.0834656,22.4534461 C16.0593953,22.4349426 16.0333857,22.4189062 16.004175,22.3988607" id="Fill-1" fill="#000000" mask="url(#mask-2)"></path>
                </g>
            </g>
        </g>
    </g>
</svg>