<?xml version="1.0" encoding="utf-8"?>
<!-- Generator: Adobe Illustrator 21.1.0, SVG Export Plug-In . SVG Version: 6.00 Build 0)  -->
<svg version="1.1" id="Слой_1" xmlns="http://www.w3.org/2000/svg" xmlns:xlink="http://www.w3.org/1999/xlink" x="0px" y="0px"
	 viewBox="0 0 571.4 637.9" style="enable-background:new 0 0 571.4 637.9;" xml:space="preserve">
<style type="text/css">
	.st0{fill:url(#Shape_1_);}
</style>
<linearGradient id="Shape_1_" gradientUnits="userSpaceOnUse" x1="532.2584" y1="319.1379" x2="532.2584" y2="317.7515" gradientTransform="matrix(394.8252 -41.4978 -44.8427 -426.6499 -195584.5781 158271.9844)">
	<stop  offset="0" style="stop-color:#8A6300;stop-opacity:0"/>
	<stop  offset="0.9973" style="stop-color:#8A6300;stop-opacity:0.7"/>
</linearGradient>
<path id="Shape" class="st0" d="M436.7,97.7c-0.9,0-1.7,0.3-2.5,0.9c-2.1,1.5-2.6,4.5-1,6.7c1.5,2.1,4.4,2.6,6.5,1.1l0.1,0.1
	l0.5-0.3c2.1-1.5,2.5-4.4,1.1-6.5l-13.1-18.2c-1.6-2.3-1.1-5.5,1.1-7.1l8.3-6.1c2.3-1.6,5.4-1.1,7.1,1.1l7.3,10.1
	c-0.9,0-1.7,0.3-2.5,0.9c-2.1,1.5-2.6,4.5-1,6.7s4.5,2.6,6.6,1c2.1-1.5,2.6-4.5,1.1-6.6l0.3-0.2l-9.7-13.3
	c-2.4-3.4-7.3-4.2-10.6-1.7l-8.3,6.1c-3.4,2.4-4.2,7.3-1.7,10.6L436.7,97.7z M83.3,139.9c-0.9,0-1.7,0.3-2.5,0.9
	c-2.1,1.5-2.6,4.5-1,6.7c1.5,2.1,4.4,2.6,6.5,1.1l0.1,0.1l0.5-0.3c2.1-1.5,2.5-4.4,1.1-6.5l-13.1-18.2c-1.6-2.3-1.1-5.5,1.1-7.1
	l8.3-6c2.3-1.6,5.4-1.1,7.1,1.1l7.3,10.1c-0.9,0-1.7,0.3-2.5,0.9c-2.1,1.5-2.6,4.5-1,6.7s4.5,2.6,6.6,1c2.1-1.5,2.6-4.5,1.1-6.6
	l0.3-0.2l-9.8-13.5c-2.4-3.4-7.3-4.2-10.6-1.7l-8.3,6c-3.4,2.4-4.2,7.3-1.7,10.6L83.3,139.9z M484.2,365.5c2.1-1.5,2.6-4.5,1.1-6.6
	l0.3-0.2l-9.8-13.4c-2.4-3.4-7.3-4.2-10.6-1.7l-8.3,6.1c-3.4,2.4-4.2,7.3-1.7,10.6l10.6,14.6c-0.9,0-1.7,0.3-2.5,0.9
	c-2.1,1.5-2.6,4.5-1,6.7c1.5,2.1,4.4,2.6,6.5,1.1l0.1,0.1l0.5-0.3c2.1-1.5,2.5-4.4,1.1-6.5l-13.1-18.2c-1.6-2.3-1.1-5.5,1.1-7.1
	l8.3-6.1c2.3-1.6,5.4-1.1,7.1,1.1l7.3,10.1c-0.9,0-1.7,0.3-2.5,0.9c-2.1,1.5-2.6,4.5-1,6.7C479.2,366.6,482.1,367.1,484.2,365.5z
	 M130.8,402.7c2.1-1.5,2.6-4.5,1.1-6.6l0.3-0.2l-9.8-13.4c-2.4-3.4-7.3-4.2-10.6-1.7l-8.3,6.1c-3.4,2.4-4.2,7.3-1.7,10.6l10.6,14.6
	c-0.9,0-1.7,0.3-2.5,0.9c-2.1,1.5-2.6,4.5-1,6.7c1.5,2.1,4.4,2.6,6.5,1.1l0.1,0.1l0.5-0.3c2.1-1.5,2.5-4.4,1.1-6.5L103.9,396
	c-1.6-2.3-1.1-5.5,1.1-7.1l8.3-6.1c2.3-1.6,5.4-1.1,7.1,1.1l7.3,10.1c-0.9,0-1.7,0.3-2.5,0.9c-2.1,1.5-2.6,4.5-1,6.7
	C125.7,403.8,128.7,404.2,130.8,402.7z M144.4,187.5c3.8,1.4,7.9,0.8,11.2-1.5c3.2-2.4,5.1-6.1,4.9-10.1l-2.6,0.1
	c0.1,3.1-1.3,6.1-3.9,7.9c-2.5,1.9-5.8,2.3-8.8,1.2L144.4,187.5z M143.8,180c1.2-0.8,1.4-2.4,0.6-3.5c-0.8-1.2-2.4-1.4-3.5-0.6
	c-1.2,0.8-1.4,2.4-0.6,3.5C141.1,180.5,142.6,180.8,143.8,180z M153.3,173c1.2-0.8,1.4-2.4,0.6-3.5c-0.8-1.2-2.4-1.4-3.5-0.6
	c-1.2,0.8-1.4,2.4-0.6,3.6C150.6,173.6,152.2,173.8,153.3,173z M146.8,194.5c4.5,0.7,9.1-0.4,12.8-3.1c3.7-2.7,6.2-6.7,6.9-11.3
	c0.7-4.5-0.4-9.2-3.1-12.9c-2.7-3.8-6.7-6.2-11.3-6.9c-4.5-0.7-9.1,0.4-12.8,3.1c-3.7,2.7-6.2,6.7-6.9,11.3
	c-0.7,4.5,0.4,9.2,3.1,12.9C138.2,191.4,142.2,193.8,146.8,194.5z M134.9,175.1c0.6-3.9,2.7-7.3,5.9-9.6c3.2-2.3,7-3.2,10.9-2.6
	c3.9,0.6,7.3,2.7,9.6,5.9c2.3,3.2,3.2,7.1,2.6,11c-0.6,3.9-2.7,7.3-5.9,9.6s-7,3.2-10.9,2.6c-3.9-0.6-7.3-2.7-9.6-5.9
	C135.3,182.9,134.3,179,134.9,175.1z M438.8,148.9c1.2-0.8,1.4-2.4,0.6-3.5c-0.8-1.2-2.4-1.4-3.5-0.6c-1.2,0.8-1.4,2.4-0.6,3.5
	C436.1,149.5,437.7,149.8,438.8,148.9z M441.8,163.5c4.5,0.7,9.1-0.4,12.8-3.1c3.7-2.7,6.2-6.7,6.9-11.3c0.7-4.5-0.4-9.2-3.1-12.9
	c-2.7-3.8-6.7-6.2-11.3-6.9c-4.5-0.7-9.1,0.4-12.8,3.1c-3.7,2.7-6.2,6.7-6.9,11.3c-0.7,4.5,0.4,9.2,3.1,12.9
	C433.2,160.3,437.2,162.8,441.8,163.5z M430,144.1c0.6-3.9,2.7-7.3,5.9-9.6c3.2-2.3,7-3.2,10.9-2.6s7.3,2.7,9.6,5.9s3.2,7.1,2.6,11
	s-2.7,7.3-5.9,9.6c-3.2,2.3-7,3.2-10.9,2.6c-3.9-0.6-7.3-2.7-9.6-5.9S429.4,148,430,144.1z M448.4,142c1.2-0.8,1.4-2.4,0.6-3.5
	c-0.8-1.2-2.4-1.4-3.5-0.6c-1.2,0.8-1.4,2.4-0.6,3.6C445.7,142.6,447.2,142.8,448.4,142z M439.5,156.5c3.8,1.4,7.9,0.8,11.2-1.5
	c3.2-2.4,5.1-6.1,4.9-10.1l-2.6,0.1c0.1,3.1-1.3,6.1-3.9,7.9c-2.5,1.9-5.8,2.3-8.8,1.2L439.5,156.5z M165.2,286.1
	c1.2-0.8,1.4-2.4,0.6-3.5c-0.8-1.2-2.4-1.4-3.5-0.6c-1.2,0.8-1.4,2.4-0.6,3.6C162.5,286.7,164.1,287,165.2,286.1z M164,273.4
	c-4.5-0.7-9.1,0.4-12.8,3.1c-3.7,2.7-6.2,6.7-6.9,11.3c-0.7,4.5,0.4,9.2,3.1,12.9c2.7,3.8,6.7,6.2,11.3,6.9
	c4.5,0.7,9.1-0.4,12.8-3.1c3.7-2.7,6.2-6.7,6.9-11.3c0.7-4.5-0.4-9.2-3.1-12.9C172.6,276.7,168.6,274.2,164,273.4z M175.9,292.8
	c-0.6,3.9-2.7,7.3-5.9,9.6s-7,3.2-10.9,2.6c-3.9-0.6-7.3-2.7-9.6-5.9s-3.2-7.1-2.6-11c0.6-3.9,2.7-7.3,5.9-9.6
	c3.2-2.3,7-3.2,10.9-2.6c3.9,0.6,7.3,2.7,9.6,5.9C175.5,285.1,176.4,288.9,175.9,292.8z M156.2,289.5c-0.8-1.2-2.4-1.4-3.5-0.6
	c-1.2,0.8-1.4,2.4-0.6,3.5c0.8,1.2,2.4,1.4,3.6,0.6S157.1,290.6,156.2,289.5z M166,297c-2.5,1.9-5.8,2.3-8.8,1.2l-0.9,2.4
	c3.8,1.4,7.9,0.8,11.2-1.5s5.1-6.1,4.9-10.1l-2.6,0.1C170,292.2,168.5,295.2,166,297z M423.2,475.6c-0.8-1.2-2.4-1.4-3.5-0.6
	c-1.2,0.8-1.4,2.4-0.6,3.5c0.8,1.2,2.4,1.4,3.6,0.6S424.1,476.7,423.2,475.6z M432.2,472.2c1.2-0.8,1.4-2.4,0.6-3.5
	c-0.8-1.2-2.4-1.4-3.5-0.6c-1.2,0.8-1.4,2.4-0.6,3.6C429.5,472.7,431.1,473,432.2,472.2z M431,459.5c-4.5-0.7-9.1,0.4-12.8,3.1
	c-3.7,2.7-6.2,6.7-6.9,11.3c-0.7,4.5,0.4,9.2,3.1,12.9c2.7,3.8,6.7,6.2,11.3,6.9c4.5,0.7,9.1-0.4,12.8-3.1c3.7-2.7,6.2-6.7,6.9-11.3
	c0.7-4.5-0.4-9.2-3.1-12.9C439.6,462.7,435.6,460.2,431,459.5z M442.9,478.9c-0.6,3.9-2.7,7.3-5.9,9.6c-3.2,2.3-7,3.2-10.9,2.6
	c-3.9-0.6-7.3-2.7-9.6-5.9c-2.3-3.2-3.2-7.1-2.6-11c0.6-3.9,2.7-7.3,5.9-9.6c3.2-2.3,7-3.2,10.9-2.6c3.9,0.6,7.3,2.7,9.6,5.9
	S443.4,475,442.9,478.9z M433,483c-2.5,1.9-5.8,2.3-8.8,1.2l-0.9,2.4c3.8,1.4,7.9,0.8,11.2-1.5c3.2-2.4,5.1-6.1,4.9-10.1l-2.6,0.1
	C437,478.2,435.5,481.2,433,483z M295,209.2c-2.7-3.8-6.7-6.2-11.3-6.9c-4.5-0.7-9.1,0.4-12.8,3.1c-3.7,2.7-6.2,6.7-6.9,11.3
	c-0.7,4.5,0.4,9.2,3.1,12.9c2.7,3.8,6.7,6.2,11.3,6.9c4.5,0.7,9.1-0.4,12.8-3.1c3.7-2.7,6.2-6.7,6.9-11.3
	C298.8,217.5,297.7,212.9,295,209.2z M295.6,221.7c-0.6,3.9-2.7,7.3-5.9,9.6c-3.2,2.3-7,3.2-10.9,2.6c-3.9-0.6-7.3-2.7-9.6-5.9
	c-2.3-3.2-3.2-7.1-2.6-11c0.6-3.9,2.7-7.3,5.9-9.6s7-3.2,10.9-2.6c3.9,0.6,7.3,2.7,9.6,5.9S296.2,217.8,295.6,221.7z M281.9,229.7
	l7.2-16.2l-17.6,1.8L281.9,229.7z M281.4,224.6l-5.2-7.2l8.8-0.9L281.4,224.6z M372.6,465.6c-4.5-0.7-9.1,0.4-12.8,3.1
	c-3.7,2.7-6.2,6.7-6.9,11.3c-0.7,4.5,0.4,9.2,3.1,12.9c2.7,3.8,6.7,6.2,11.3,6.9c4.5,0.7,9.1-0.4,12.8-3.1c3.7-2.7,6.2-6.7,6.9-11.3
	c0.7-4.5-0.4-9.2-3.1-12.9C381.1,468.8,377.1,466.3,372.6,465.6z M384.4,485c-0.6,3.9-2.7,7.3-5.9,9.6c-3.2,2.3-7,3.2-10.9,2.6
	c-3.9-0.6-7.3-2.7-9.6-5.9c-2.3-3.2-3.2-7.1-2.6-11c0.6-3.9,2.7-7.3,5.9-9.6c3.2-2.3,7-3.2,10.9-2.6c3.9,0.6,7.3,2.7,9.6,5.9
	S385,481.1,384.4,485z M370.8,493.1l7.2-16.2l-17.6,1.8L370.8,493.1z M370.2,488l-5.2-7.2l8.8-0.9L370.2,488z M290.3,349.6
	c4.5,0.7,9.1-0.4,12.8-3.1c3.7-2.7,6.2-6.7,6.9-11.3c0.7-4.5-0.4-9.2-3.1-12.9c-2.7-3.8-6.7-6.2-11.3-6.9c-4.5-0.7-9.1,0.4-12.8,3.1
	c-3.7,2.7-6.2,6.7-6.9,11.3c-0.7,4.5,0.4,9.2,3.1,12.9C281.7,346.4,285.7,348.9,290.3,349.6z M278.4,330.2c0.6-3.9,2.7-7.3,5.9-9.6
	c3.2-2.3,7-3.2,10.9-2.6c3.9,0.6,7.3,2.7,9.6,5.9s3.2,7.1,2.6,11c-0.6,3.9-2.7,7.3-5.9,9.6c-3.2,2.3-7,3.2-10.9,2.6
	c-3.9-0.6-7.3-2.7-9.6-5.9C278.8,338,277.8,334.1,278.4,330.2z M301,326.6l-17.6,1.8l10.4,14.4L301,326.6z M296.9,329.6l-3.6,8.1
	l-5.2-7.2L296.9,329.6z M454.4,191.5l-2.5-0.4l-1.4,8.9l-8.9-1.4l-0.4,2.6l8.9,1.4l-1.4,8.9l2.5,0.4l1.4-8.9l8.9,1.4l0.4-2.6
	l-8.9-1.4L454.4,191.5z M454.2,184.4c-4.5-0.7-9.1,0.4-12.8,3.1c-3.7,2.7-6.2,6.7-6.9,11.3c-0.7,4.5,0.4,9.2,3.1,12.9
	c2.7,3.8,6.7,6.2,11.3,6.9c4.5,0.7,9.1-0.4,12.8-3.1c3.7-2.7,6.2-6.7,6.9-11.3c0.7-4.5-0.4-9.2-3.1-12.9
	C462.8,187.6,458.8,185.1,454.2,184.4z M466.1,203.8c-0.6,3.9-2.7,7.3-5.9,9.6c-3.2,2.3-7,3.2-10.9,2.6c-3.9-0.6-7.3-2.7-9.6-5.9
	c-2.3-3.2-3.2-7.1-2.6-11c0.6-3.9,2.7-7.3,5.9-9.6c3.2-2.3,7-3.2,10.9-2.6c3.9,0.6,7.3,2.7,9.6,5.9S466.7,199.9,466.1,203.8z
	 M425.6,407.7c-4.5-0.7-9.1,0.4-12.8,3.1c-3.7,2.7-6.2,6.7-6.9,11.3c-0.7,4.5,0.4,9.2,3.1,12.9c2.7,3.8,6.7,6.2,11.3,6.9
	c4.5,0.7,9.1-0.4,12.8-3.1c3.7-2.7,6.2-6.7,6.9-11.3c0.7-4.5-0.4-9.2-3.1-12.9C434.1,411,430.1,408.5,425.6,407.7z M437.4,427.1
	c-0.6,3.9-2.7,7.3-5.9,9.6s-7,3.2-10.9,2.6c-3.9-0.6-7.3-2.7-9.6-5.9c-2.3-3.2-3.2-7.1-2.6-11c0.6-3.9,2.7-7.3,5.9-9.6
	c3.2-2.3,7-3.2,10.9-2.6c3.9,0.6,7.3,2.7,9.6,5.9C437.1,419.4,438,423.2,437.4,427.1z M425.8,414.8l-2.5-0.4l-1.4,8.9l-8.9-1.4
	l-0.4,2.6l8.9,1.4l-1.4,8.9l2.5,0.4l1.4-8.9l8.9,1.4l0.4-2.6l-8.9-1.4L425.8,414.8z M460.8,331.7c4.5,0.7,9.1-0.4,12.8-3.1
	c3.7-2.7,6.2-6.7,6.9-11.3c0.7-4.5-0.4-9.2-3.1-12.9c-2.7-3.8-6.7-6.2-11.3-6.9c-4.5-0.7-9.1,0.4-12.8,3.1
	c-3.7,2.7-6.2,6.7-6.9,11.3c-0.7,4.5,0.4,9.2,3.1,12.9C452.2,328.5,456.2,331,460.8,331.7z M448.9,312.3c0.6-3.9,2.7-7.3,5.9-9.6
	c3.2-2.3,7-3.2,10.9-2.6c3.9,0.6,7.3,2.7,9.6,5.9c2.3,3.2,3.2,7.1,2.6,11c-0.6,3.9-2.7,7.3-5.9,9.6c-3.2,2.3-7,3.2-10.9,2.6
	c-3.9-0.6-7.3-2.7-9.6-5.9C449.3,320,448.3,316.2,448.9,312.3z M460.6,324.6l2.5,0.4l1.4-8.9l8.9,1.4l0.4-2.6l-8.9-1.4l1.4-8.9
	l-2.5-0.4l-1.4,8.9l-8.9-1.4l-0.4,2.6l8.9,1.4L460.6,324.6z M107.1,361.8l2.5,0.4l1.4-8.9l8.9,1.4l0.4-2.6l-8.9-1.4l1.4-8.9
	l-2.5-0.4l-1.4,8.9l-9-1.4l-0.4,2.6l8.9,1.4L107.1,361.8z M107.3,368.8c4.5,0.7,9.1-0.4,12.8-3.1c3.7-2.7,6.2-6.7,6.9-11.3
	c0.7-4.5-0.4-9.2-3.1-12.9c-2.7-3.8-6.7-6.2-11.3-6.9c-4.5-0.7-9.1,0.4-12.8,3.1c-3.7,2.7-6.2,6.7-6.9,11.3
	c-0.6,4.5,0.4,9.1,3.2,12.8C98.8,365.7,102.8,368.1,107.3,368.8z M95.5,349.4c0.6-3.9,2.7-7.3,5.9-9.6c3.2-2.3,7-3.2,10.9-2.6
	c3.9,0.6,7.3,2.7,9.6,5.9c2.3,3.2,3.2,7.1,2.6,11c-0.6,3.9-2.7,7.3-5.9,9.6c-3.2,2.3-7,3.2-10.9,2.6s-7.3-2.7-9.6-5.9
	S94.9,353.3,95.5,349.4z M334.5,162.4c3.4,0.4,7.1-0.3,10.3-2.1c0.5-0.3,0.6-0.8,0.4-1.3l-1.7-2.9c-0.3-0.5-0.8-0.6-1.3-0.4
	c-1,0.6-2.1,1.1-3.2,1.2c-0.3,0.1-0.7,0.3-0.7,0.7l-0.7,2.9c-1.5,0.1-2.9,0-4.2-0.4c-1.1-0.2-2.1-0.6-3-1.1l0.5-2.9
	c0-0.4-0.1-0.7-0.4-0.9c-0.9-0.7-1.8-1.5-2.4-2.4c-0.3-0.5-0.9-0.5-1.3-0.2l-2.7,2c-0.5,0.3-0.5,0.9-0.2,1.3
	C326.3,159.6,330.3,161.8,334.5,162.4z M327.2,172.3c0.8,2.1,1.2,3.2,1.9,5.4c0.2,0.6,0.4,1.4,0.7,2.2l0.7,2.2l1.4-1.8
	c3.1-4,3.7-4.8,4.8-6.4c2.7-0.4,5.3-1.4,7.5-3c3.6-2.6,6-6.5,6.7-11c0.7-4.4-0.4-8.9-3-12.5c-2.6-3.6-6.5-6-10.9-6.7
	c-4.4-0.7-8.9,0.4-12.5,3c-3.6,2.6-6,6.5-6.7,11c-0.7,4.4,0.4,8.9,3,12.5C322.5,169.3,324.7,171.1,327.2,172.3z M320.4,155
	c0.6-3.8,2.6-7.1,5.7-9.3c3.1-2.3,6.8-3.2,10.6-2.6s7.1,2.6,9.3,5.7c2.3,3.1,3.2,6.9,2.6,10.6c-0.6,3.8-2.6,7.1-5.7,9.3
	c-2,1.5-4.4,2.4-6.9,2.7l-0.6,0.1l-0.4,0.5c-1.2,1.6-1.6,2.3-3.7,4.9c-0.8-2.4-1.1-3.5-2.1-6l-0.2-0.5l-0.4-0.2
	c-2.3-1-4.2-2.6-5.7-4.6C320.7,162.5,319.8,158.8,320.4,155z M296.7,451c0.8,2.1,1.2,3.2,1.9,5.4c0.2,0.6,0.4,1.4,0.7,2.2l0.7,2.2
	l1.4-1.8c3.1-4,3.7-4.8,4.8-6.4c2.7-0.4,5.3-1.4,7.5-3c3.6-2.6,6-6.5,6.7-11c0.7-4.4-0.4-8.9-3-12.5c-2.6-3.6-6.5-6-10.9-6.7
	c-4.4-0.7-8.9,0.4-12.5,3c-3.6,2.6-6,6.5-6.7,11c-0.7,4.4,0.4,8.9,3,12.5C292.1,448,294.2,449.8,296.7,451z M289.9,433.7
	c0.6-3.8,2.6-7.1,5.7-9.3c3.1-2.3,6.8-3.2,10.6-2.6s7.1,2.6,9.3,5.7c2.3,3.1,3.2,6.9,2.6,10.6c-0.6,3.8-2.6,7.1-5.7,9.3
	c-2,1.5-4.4,2.4-6.9,2.7l-0.5,0.1l-0.4,0.5c-1.2,1.6-1.6,2.3-3.7,4.9c-0.8-2.4-1.1-3.5-2.1-6l-0.2-0.5l-0.4-0.2
	c-2.3-1-4.2-2.6-5.7-4.6C290.2,441.2,289.4,437.5,289.9,433.7z M304,441c3.4,0.4,7.1-0.3,10.3-2.1c0.5-0.3,0.6-0.8,0.4-1.3l-1.7-2.9
	c-0.3-0.5-0.8-0.6-1.3-0.4c-1,0.6-2.1,1.1-3.2,1.2c-0.3,0.1-0.7,0.3-0.7,0.7l-0.7,2.9c-1.5,0.1-2.9,0-4.2-0.4
	c-1.1-0.2-2.1-0.6-3-1.1l0.5-2.9c0-0.4-0.1-0.7-0.4-0.9c-0.9-0.7-1.8-1.5-2.4-2.4c-0.3-0.5-0.9-0.5-1.3-0.2l-2.7,2
	c-0.5,0.3-0.5,0.9-0.2,1.3C295.8,438.3,299.8,440.5,304,441z M354,268.9c-1,0.6-2.1,1.1-3.2,1.2c-0.3,0.1-0.7,0.3-0.7,0.7l-0.7,2.9
	c-1.5,0.1-2.9,0-4.2-0.4c-1.1-0.2-2.1-0.6-3-1.1l0.5-2.9c0-0.4-0.1-0.7-0.4-0.9c-0.9-0.7-1.8-1.5-2.4-2.4c-0.3-0.5-0.9-0.5-1.3-0.2
	l-2.7,2c-0.5,0.3-0.5,0.9-0.2,1.3c2.7,3.7,6.7,5.9,10.9,6.5c3.5,0.5,7.1-0.2,10.3-2.1c0.5-0.3,0.6-0.8,0.4-1.3l-1.7-2.9
	C355,268.7,354.5,268.6,354,268.9z M349,253.8c-4.4-0.7-8.9,0.4-12.5,3c-3.6,2.6-6,6.5-6.7,11c-0.7,4.4,0.4,8.9,3,12.5
	c1.6,2.2,3.8,4,6.2,5.2c0.8,2.1,1.2,3.2,1.9,5.4c0.2,0.6,0.4,1.4,0.7,2.2l0.7,2.2l1.4-1.8c3.1-4,3.7-4.8,4.8-6.4
	c2.7-0.4,5.3-1.4,7.5-3c3.6-2.6,6-6.5,6.7-11c0.7-4.4-0.4-8.9-3-12.5C357.3,256.9,353.4,254.5,349,253.8z M360.4,272.6
	c-0.6,3.8-2.6,7.1-5.7,9.3c-2,1.5-4.4,2.4-6.9,2.7l-0.6,0.1l-0.4,0.5c-1.2,1.6-1.6,2.3-3.7,4.9c-0.8-2.4-1.1-3.5-2.1-6l-0.2-0.5
	l-0.4-0.2c-2.3-1-4.2-2.6-5.7-4.6c-2.3-3.1-3.2-6.9-2.6-10.6s2.6-7.1,5.7-9.3c3.1-2.3,6.8-3.2,10.6-2.6c3.7,0.6,7.1,2.6,9.3,5.7
	C360.1,265,361,268.8,360.4,272.6z M204.3,130.7c4.5,0.7,9.1-0.4,12.8-3.1c3.7-2.7,6.2-6.7,6.9-11.3c0.7-4.5-0.4-9.2-3.1-12.9
	c-2.7-3.8-6.7-6.2-11.3-6.9c-4.5-0.7-9.1,0.4-12.8,3.1c-3.7,2.7-6.2,6.7-6.9,11.3c-0.7,4.5,0.4,9.2,3.1,12.9
	C195.7,127.5,199.7,130,204.3,130.7z M192.5,111.3c0.6-3.9,2.7-7.3,5.9-9.6s7-3.2,10.9-2.6c3.9,0.6,7.3,2.7,9.6,5.9
	c2.3,3.2,3.2,7.1,2.6,11c-0.6,3.9-2.7,7.3-5.9,9.6c-3.2,2.3-7,3.2-10.9,2.6s-7.3-2.7-9.6-5.9C192.8,119.1,191.8,115.2,192.5,111.3z
	 M197.9,120.8c0.4,0.2,0.8,0.2,1.3,0.1c0.3,0,0.5-0.1,0.7-0.2l0.1,0c1.1-0.3,2.3-0.7,3.4-1.1c0.1,0.1,0.1,0.1,0.2,0.1l0.1,0.1
	l0.9,0.7c0.8,0.6,1.6,1.2,2.3,1.8l0.1,0.1c0.2,0.2,0.5,0.4,0.8,0.5c0.4,0.2,0.8,0.3,1.3,0.1c0.1-0.1,0.2-0.1,0.3-0.2
	c0.3-0.2,0.5-0.5,0.6-0.9c0.1-0.4,0.2-0.8,0.2-1.2c0.1-0.1,0.1-0.4,0.1-0.5l0.2-0.9l0-0.2l2.3,0l2.1,0.1l0.1,0c0.1,0,0.3,0,0.5-0.1
	c0.1,0,0.1,0,0.1-0.1c0.1-0.1,0.3-0.1,0.5-0.2c0.1-0.1,0.2-0.1,0.3-0.2c0.6-0.4,0.9-0.9,0.9-1.6c0-0.2,0-0.5-0.1-0.8
	c-0.2-0.4-0.4-0.9-0.6-1.3c-0.1-0.1-0.2-0.3-0.2-0.5c-0.2-0.3-0.3-0.7-0.5-1c-0.3-0.5-0.5-1-0.7-1.5c-0.2-0.4-0.4-0.9-0.6-1.3
	c-0.2-0.5-0.4-0.9-0.6-1.3c-0.3-0.5-0.5-1-0.7-1.5c-0.2-0.5-0.4-0.9-0.6-1.4c-0.3-0.6-0.5-1.1-0.8-1.7l-0.3-0.6l-0.3-0.7
	c-0.3-0.5-0.5-1-0.7-1.5c-0.2-0.4-0.4-0.7-0.7-0.9c-0.6-0.5-1.4-0.5-2,0c-0.1,0.1-0.3,0.2-0.3,0.3c-0.2,0.3-0.4,0.6-0.6,0.8
	c-0.9,1.5-1.8,3-2.7,4.4l-0.1,0.1c-0.5,0.8-1,1.6-1.5,2.5c-0.3,0.5-0.6,1-0.9,1.6c-0.8,1.4-1.7,2.8-2.5,4.2
	c-0.4,0.7-0.8,1.3-1.2,1.9l-0.6,1c-0.2,0.3-0.3,0.5-0.3,0.8C196.8,119.8,197.1,120.5,197.9,120.8z M205.9,107.8l2.7-4.4
	c0.4,0.7,0.6,1.4,1,2.1c0.3,0.6,0.5,1.2,0.8,1.8c0.5,1,0.9,2,1.4,3l0.4,0.9l0.2,0.4c0.5,1.2,1.1,2.4,1.6,3.6
	c0.2,0.5,0.4,0.9,0.6,1.3l0.3,0.7c-0.1,0-0.1,0-0.1,0c-0.8-0.1-1.7,0-2.6-0.1l-0.7,0l-0.5,0l-2.1-0.1l-0.1,0l-0.2,0l0,0.2l-0.7,3.1
	c-0.3-0.5-0.5-1-0.7-1.5l-0.1-0.2c-0.2-0.3-0.4-0.7-0.5-1.1c0.2-1,0.4-1.9,0.6-2.9l0.2-0.9c0.1-0.6,0.2-1.1,0.3-1.7
	c0.1-0.8,0.3-1.5,0.5-2.3c0-0.3,0.1-0.6,0.2-0.9c0.1-0.5,0.2-1,0.3-1.5c0.1-0.1,0-0.3,0-0.4s0-0.3-0.3-0.5c-0.1-0.1-0.3,0-0.4,0
	c-0.1,0-0.1,0.1-0.1,0.1c-0.1,0.1-0.2,0.2-0.2,0.4c-0.5,1.2-1,2.5-1.5,3.6c-0.2,0.4-0.3,0.9-0.5,1.2c-0.5,1.2-1,2.4-1.5,3.6
	l-0.6,1.5l-0.1,0.1c-0.1,0.1,0,0.2-0.1,0.3c-1.3,0.4-2.5,0.8-3.8,1.2l-0.3,0.1L205.9,107.8z M244.6,392.5c-0.1-0.1-0.2-0.3-0.2-0.5
	c-0.2-0.3-0.3-0.7-0.5-1c-0.3-0.5-0.5-1-0.7-1.5c-0.2-0.4-0.4-0.9-0.6-1.3c-0.2-0.5-0.4-0.9-0.6-1.3c-0.3-0.5-0.5-1-0.7-1.5
	c-0.2-0.5-0.4-0.9-0.6-1.4c-0.3-0.6-0.5-1.1-0.8-1.7l-0.3-0.6l-0.3-0.7c-0.3-0.5-0.5-1-0.7-1.5c-0.2-0.4-0.4-0.7-0.7-0.9
	c-0.6-0.5-1.4-0.5-2,0c-0.1,0.1-0.3,0.2-0.3,0.3c-0.2,0.3-0.4,0.6-0.6,0.8c-0.9,1.5-1.8,3-2.7,4.4l-0.1,0.1c-0.5,0.8-1,1.6-1.5,2.5
	c-0.3,0.5-0.6,1-0.9,1.6c-0.8,1.4-1.7,2.8-2.5,4.2c-0.4,0.7-0.8,1.3-1.2,1.9l-0.6,1c-0.2,0.3-0.3,0.5-0.3,0.8
	c-0.2,0.8,0.2,1.5,0.9,1.9c0.4,0.2,0.8,0.2,1.3,0.1c0.3,0,0.5-0.1,0.7-0.2l0.1,0c1.1-0.3,2.3-0.7,3.4-1.1c0.1,0.1,0.1,0.1,0.2,0.1
	l0.1,0.1l0.9,0.7c0.8,0.6,1.6,1.2,2.3,1.8l0.1,0.1c0.2,0.2,0.5,0.4,0.8,0.5c0.4,0.2,0.8,0.3,1.3,0.1c0.1-0.1,0.2-0.1,0.3-0.2
	c0.3-0.2,0.5-0.5,0.6-0.9c0.1-0.4,0.2-0.8,0.2-1.2c0.1-0.1,0.1-0.4,0.1-0.5l0.2-0.9l0-0.2l2.3,0l2.1,0.1l0.1,0c0.1,0,0.3,0,0.5-0.1
	c0.1,0,0.1,0,0.1-0.1c0.1-0.1,0.3-0.1,0.5-0.2c0.1-0.1,0.2-0.1,0.3-0.2c0.6-0.4,0.9-0.9,0.9-1.6c0-0.2,0-0.5-0.1-0.8
	C245,393.3,244.8,392.9,244.6,392.5z M243,394.5c-0.8-0.1-1.7,0-2.6-0.1l-0.7,0l-0.5,0l-2.1-0.1l-0.1,0l-0.2,0l0,0.2l-0.7,3.1
	c-0.3-0.5-0.5-1-0.7-1.5l-0.1-0.2c-0.2-0.3-0.4-0.7-0.5-1.1c0.2-1,0.4-1.9,0.6-2.9l0.2-0.9c0.1-0.6,0.2-1.1,0.3-1.7
	c0.1-0.8,0.3-1.5,0.5-2.3c0-0.3,0.1-0.6,0.2-0.9c0.1-0.5,0.2-1,0.3-1.5c0.1-0.1,0-0.3,0-0.4c0-0.1,0-0.3-0.3-0.5
	c-0.1-0.1-0.3,0-0.4,0c-0.1,0-0.1,0.1-0.1,0.1c-0.1,0.1-0.2,0.2-0.2,0.4c-0.5,1.2-1,2.5-1.5,3.6c-0.2,0.4-0.3,0.9-0.5,1.2
	c-0.5,1.2-1,2.4-1.5,3.6l-0.6,1.5l-0.1,0.1c-0.1,0.1,0,0.2-0.1,0.3c-1.3,0.4-2.5,0.8-3.8,1.2l-0.3,0.1l6.5-10.9l2.7-4.4
	c0.4,0.7,0.6,1.4,1,2.1c0.3,0.6,0.5,1.2,0.8,1.8c0.5,1,0.9,2,1.4,3l0.4,0.9l0.2,0.4c0.5,1.2,1.1,2.4,1.6,3.6
	c0.2,0.5,0.4,0.9,0.6,1.3l0.3,0.7C243.1,394.5,243,394.5,243,394.5z M237.8,373.8c-4.5-0.7-9.1,0.4-12.8,3.1
	c-3.7,2.7-6.2,6.7-6.9,11.3c-0.7,4.5,0.4,9.2,3.1,12.9c2.7,3.8,6.7,6.2,11.3,6.9c4.5,0.7,9.1-0.4,12.8-3.1c3.7-2.7,6.2-6.7,6.9-11.3
	c0.7-4.5-0.4-9.2-3.1-12.9C246.4,377,242.4,374.5,237.8,373.8z M249.7,393.2c-0.6,3.9-2.7,7.3-5.9,9.6c-3.2,2.3-7,3.2-10.9,2.6
	c-3.9-0.6-7.3-2.7-9.6-5.9c-2.3-3.2-3.2-7.1-2.6-11c0.6-3.9,2.7-7.3,5.9-9.6c3.2-2.3,7-3.2,10.9-2.6c3.9,0.6,7.3,2.7,9.6,5.9
	S250.2,389.3,249.7,393.2z M341.4,233.8l5.6-11.4l12.5-1.8l-9.1-8.9l2.2-12.6l-11.2,5.9l-11.3-5.9l2.2,12.5l-9.1,8.8l12.6,1.8
	L341.4,233.8z M335,212.5l-1.5-8.8l7.9,4.2l7.9-4.2l-1.5,8.9l6.4,6.3l-8.9,1.3l-3.9,8.1l-4-8.1l-8.9-1.3L335,212.5z M103.2,315.3
	l5.6-11.4l12.5-1.8l-9.1-8.9l2.2-12.6l-11.2,5.9L92,280.7l2.2,12.5l-9.1,8.8l12.6,1.8L103.2,315.3z M96.8,294l-1.5-8.8l7.9,4.2
	l7.9-4.2l-1.5,8.9l6.4,6.3l-8.9,1.3l-3.9,8.1l-4-8.1l-8.9-1.3L96.8,294z M493.6,469.3l2.2-12.6l-11.2,5.9l-11.3-5.9l2.2,12.5
	l-9.1,8.9L479,480l5.6,11.4l5.6-11.4l12.5-1.8L493.6,469.3z M488.6,477.7l-3.9,8.1l-4-8.1l-8.9-1.3l6.4-6.3l-1.5-8.8l7.9,4.2
	l7.9-4.2l-1.5,8.9l6.4,6.3L488.6,477.7z M251.7,429.4l-11.2,5.9l-11.3-5.9l2.2,12.5l-9.1,8.9l12.6,1.8l5.6,11.4l5.6-11.4l12.5-1.8
	l-9.1-8.9L251.7,429.4z M253.3,449.1l-8.9,1.3l-3.9,8.1l-4-8.1l-8.9-1.3l6.4-6.3l-1.5-8.8l7.9,4.2l7.9-4.2l-1.5,8.9L253.3,449.1z
	 M353.3,346.9l5.6-11.4l12.5-1.8l-9.1-8.9l2.2-12.6l-11.2,5.9l-11.3-5.9l2.2,12.5l-9.1,8.8l12.6,1.8L353.3,346.9z M346.9,325.6
	l-1.5-8.8l7.9,4.2l7.9-4.2l-1.5,8.9l6.4,6.3l-8.9,1.3l-3.9,8.1l-4-8.1l-8.9-1.3L346.9,325.6z M314.9,467.8c-3.5-0.5-7.1,0.3-10,2.4
	l-13.6,9.9c-2.9,2.1-4.8,5.2-5.3,8.7c-0.5,3.5,0.3,7.1,2.4,10c2.1,2.9,5.2,4.8,8.7,5.4c3.1,0.5,6.2-0.1,8.9-1.7l4.6,6.3l2.2-11.2
	l7.9-5.7c2.9-2.1,4.8-5.2,5.3-8.7s-0.3-7.1-2.4-10C321.6,470.2,318.5,468.4,314.9,467.8z M319.3,489.9l-8.7,6.3l-1.3,6.6l-2.7-3.8
	l-1,0.7c-4.8,3.6-11.7,2.5-15.3-2.4c-3.6-4.9-2.5-11.7,2.4-15.3l13.6-9.9c4.8-3.6,11.7-2.5,15.3,2.4S324.2,486.3,319.3,489.9z
	 M296.9,490c-1.1,0.8-1.4,2.3-0.5,3.4s2.3,1.4,3.4,0.5c1.1-0.8,1.4-2.3,0.5-3.4S298,489.2,296.9,490z M312.6,478.5
	c-1.1,0.8-1.4,2.3-0.5,3.4s2.3,1.4,3.4,0.5c1.1-0.8,1.4-2.3,0.5-3.4C315.3,477.9,313.7,477.7,312.6,478.5z M304.8,484.2
	c-1.1,0.8-1.4,2.3-0.5,3.4c0.8,1.1,2.3,1.4,3.4,0.5c1.1-0.8,1.4-2.3,0.5-3.4C307.3,483.6,305.9,483.4,304.8,484.2z M205.9,243.9
	c3.1,0.5,6.2-0.1,8.9-1.7l4.6,6.3l2.2-11.2l7.9-5.7c2.9-2.1,4.8-5.2,5.3-8.7c0.5-3.5-0.3-7.1-2.4-10c-2.1-2.9-5.2-4.8-8.7-5.4
	c-3.5-0.5-7.1,0.3-10,2.4l-13.6,9.9c-2.9,2.1-4.8,5.2-5.3,8.7c-0.5,3.5,0.3,7.1,2.4,10S202.4,243.3,205.9,243.9z M201.6,221.8
	l13.6-9.9c4.8-3.6,11.7-2.5,15.3,2.4c3.6,4.9,2.5,11.7-2.4,15.3l-8.7,6.3l-1.3,6.6l-2.7-3.8l-1,0.7c-4.8,3.6-11.7,2.5-15.3-2.4
	C195.6,232.1,196.6,225.3,201.6,221.8z M208.4,233.6c1.1-0.8,1.4-2.3,0.5-3.4c-0.8-1.1-2.3-1.4-3.4-0.5c-1.1,0.8-1.4,2.3-0.5,3.4
	C205.8,234.2,207.3,234.4,208.4,233.6z M216.3,227.8c1.1-0.8,1.4-2.3,0.5-3.4c-0.8-1.1-2.3-1.4-3.4-0.5c-1.1,0.8-1.4,2.3-0.5,3.4
	C213.7,228.4,215.2,228.7,216.3,227.8z M224.2,222.1c1.1-0.8,1.4-2.3,0.5-3.4c-0.8-1.1-2.3-1.4-3.4-0.5c-1.1,0.8-1.4,2.3-0.5,3.4
	S223.1,222.9,224.2,222.1z M217.9,340c-1.1,0.8-1.4,2.3-0.5,3.4c0.8,1.1,2.3,1.4,3.4,0.5s1.4-2.3,0.5-3.4
	C220.5,339.4,219,339.2,217.9,340z M235.9,317.8c-3.5-0.5-7.1,0.3-10,2.4l-13.6,9.9c-2.9,2.1-4.8,5.2-5.3,8.7s0.3,7.1,2.4,10
	c2,2.9,5.2,4.8,8.7,5.4c3.1,0.5,6.2-0.1,8.9-1.7l4.6,6.3l2.2-11.2l7.9-5.7c2.9-2.1,4.8-5.2,5.3-8.7c0.5-3.5-0.3-7.1-2.4-10
	C242.6,320.3,239.4,318.4,235.9,317.8z M240.2,339.9l-8.7,6.3l-1.3,6.6l-2.7-3.8l-1,0.7c-4.8,3.6-11.7,2.5-15.3-2.4
	c-3.6-4.9-2.5-11.7,2.4-15.3l13.6-9.9c4.8-3.6,11.7-2.5,15.3,2.4C246.3,329.4,245.2,336.3,240.2,339.9z M233.6,328.5
	c-1.1,0.8-1.4,2.3-0.5,3.4c0.8,1.1,2.3,1.4,3.4,0.5c1.1-0.8,1.4-2.3,0.5-3.4C236.2,327.9,234.7,327.7,233.6,328.5z M225.7,334.2
	c-1.1,0.8-1.4,2.3-0.5,3.4c0.8,1.1,2.3,1.4,3.4,0.5c1.1-0.8,1.4-2.3,0.5-3.4C228.3,333.6,226.8,333.4,225.7,334.2z M279.1,146.4
	c-2.4,0-4.8,1-6.8,2.9c-1.8,1.7-2.8,4-2.9,6.7c-3.7-1-6.9-0.2-9.7,2.5c-2,1.9-2.9,4.2-2.8,6.7c0.1,2,0.7,3.8,1.6,5.3
	c1,1.5,2.4,2.7,4.2,3.7c1.1,0.6,3,1.4,6.6,1.8c4,0.4,8.4,0.2,13.2-0.6c0.3,0,0.5-0.1,0.7-0.3c0.3-0.2,0.4-0.5,0.6-0.6
	c1.9-3.5,3.2-7,4.2-10.5c0.7-2.6,1-4.8,0.9-7c0-3.1-1.1-5.6-3-7.6C284,147.5,281.6,146.4,279.1,146.4z M286.4,157.1
	c0.1,1.9-0.2,3.9-0.9,6.2c-0.8,3.2-2.1,6.4-3.8,9.6c-4.4,0.7-8.4,0.9-12.1,0.5c-2.4-0.2-4.2-0.7-5.6-1.5c-2.8-1.4-4.3-3.7-4.4-6.8
	c-0.1-1.8,0.6-3.4,2-4.7c0.3-0.3,0.6-0.6,1-0.8c1-0.7,1.9-1.1,3-1.3c1.4-0.2,2.9,0,4.5,0.6c0.1,0,0.1,0.1,0.1,0.1l1.9,0.8l-0.1-1.9
	c0-0.1,0-0.3,0-0.5c0-0.3,0-0.6,0-0.9c0.1-2.2,0.8-3.9,2.2-5.2c1.5-1.4,3.2-2.1,5-2.1c1.8,0,3.5,0.7,4.9,2.2
	C285.5,152.7,286.3,154.7,286.4,157.1z M165.7,460.6c1.1,0.6,3,1.4,6.6,1.8c4,0.4,8.4,0.2,13.2-0.6c0.3,0,0.5-0.1,0.7-0.3
	c0.3-0.2,0.4-0.5,0.6-0.6c1.9-3.5,3.2-7,4.2-10.5c0.7-2.6,1-4.8,0.9-7c0-3.1-1.1-5.6-3-7.6c-1.9-1.9-4.3-3-6.7-3
	c-2.4,0-4.8,1-6.8,2.9c-1.8,1.7-2.8,4-2.9,6.7c-3.7-1-6.9-0.2-9.7,2.5c-2,1.9-2.9,4.2-2.8,6.7c0.1,2,0.7,3.8,1.6,5.3
	C162.5,458.4,163.9,459.7,165.7,460.6z M162.4,451.4c-0.1-1.8,0.6-3.4,2-4.7c0.3-0.3,0.6-0.6,1-0.8c1-0.7,1.9-1.1,3-1.3
	c1.4-0.2,2.9,0,4.5,0.6c0.1,0,0.1,0.1,0.1,0.1l1.9,0.8l-0.1-1.9c0-0.1,0-0.3,0-0.5c0-0.3,0-0.6,0-0.9c0.1-2.2,0.8-3.9,2.2-5.2
	c1.5-1.4,3.2-2.1,5-2.1c1.8,0,3.5,0.7,4.9,2.2c1.5,1.5,2.2,3.5,2.4,5.9c0.1,1.9-0.2,3.9-0.9,6.2c-0.8,3.2-2.1,6.4-3.8,9.6
	c-4.4,0.7-8.4,0.9-12.1,0.5c-2.4-0.2-4.2-0.7-5.6-1.5C164,456.8,162.6,454.6,162.4,451.4z M274.7,287.3c1.1,0.6,3,1.4,6.6,1.8
	c4,0.4,8.4,0.2,13.2-0.6c0.3,0,0.5-0.1,0.7-0.3c0.3-0.2,0.4-0.5,0.6-0.6c1.9-3.5,3.2-7,4.2-10.5c0.7-2.6,1-4.8,0.9-7
	c0-3.1-1.1-5.6-3-7.6c-1.9-1.9-4.3-3-6.7-3c-2.4,0-4.8,1-6.8,2.9c-1.8,1.7-2.8,4-2.9,6.7c-3.7-1-6.9-0.2-9.7,2.5
	c-2,1.9-2.9,4.2-2.8,6.7c0.1,2,0.7,3.8,1.6,5.3C271.5,285.2,272.9,286.4,274.7,287.3z M271.4,278.2c-0.1-1.8,0.6-3.4,2-4.7
	c0.3-0.3,0.6-0.6,1-0.8c1-0.7,1.9-1.1,3-1.3c1.4-0.2,2.9,0,4.5,0.6c0.1,0,0.1,0.1,0.1,0.1l1.9,0.8l-0.1-1.9c0-0.1,0-0.3,0-0.5
	c0-0.3,0-0.6,0-0.9c0.1-2.2,0.8-3.9,2.2-5.2c1.5-1.4,3.2-2.1,5-2.1c1.8,0,3.5,0.7,4.9,2.2c1.5,1.5,2.2,3.5,2.4,5.9
	c0.1,1.9-0.2,3.9-0.9,6.2c-0.8,3.2-2.1,6.4-3.8,9.6c-4.4,0.7-8.4,0.9-12.1,0.5c-2.4-0.2-4.2-0.7-5.6-1.5
	C273,283.5,271.6,281.3,271.4,278.2z M222.7,156.2c-2.5-3.4-7.3-4.2-10.7-1.7l-15.6,11.3c-3.4,2.5-4.2,7.3-1.7,10.8l6.4,8.9
	c2.5,3.4,7.3,4.2,10.7,1.7l15.6-11.3c3.4-2.5,4.2-7.3,1.7-10.8L222.7,156.2z M198,167.9l15.6-11.3c0.7-0.6,1.6-0.9,2.4-0.9l-4.9,14
	l-14.7,0.4C196.7,169.2,197.3,168.5,198,167.9z M226,173.8l-15.6,11.3c-2.3,1.6-5.5,1.1-7.1-1.1l-6.4-8.9c-0.6-0.8-0.9-1.7-1-2.6
	l17-0.4l5.6-16.1c0.8,0.3,1.6,1,2.1,1.7l6.4,8.9C228.7,168.9,228.2,172.1,226,173.8z M234.6,269.4c-2.5-3.4-7.3-4.2-10.7-1.7
	L208.3,279c-3.4,2.5-4.2,7.3-1.7,10.8l6.4,8.9c2.5,3.4,7.3,4.2,10.7,1.7l15.6-11.3c3.4-2.5,4.2-7.3,1.7-10.8L234.6,269.4z
	 M209.9,281l15.6-11.3c0.7-0.6,1.6-0.9,2.4-0.9l-4.9,14l-14.7,0.4C208.6,282.3,209.2,281.6,209.9,281z M237.9,286.9l-15.6,11.3
	c-2.3,1.6-5.5,1.1-7.1-1.1l-6.4-8.9c-0.6-0.8-0.9-1.7-1-2.6l17-0.4l5.6-16.1c0.8,0.3,1.6,1,2.1,1.7l6.4,8.9
	C240.6,282.1,240.1,285.3,237.9,286.9z M374.5,416.5c-2.5-3.4-7.3-4.2-10.7-1.7l-15.6,11.3c-3.4,2.5-4.2,7.3-1.7,10.8l6.4,8.9
	c2.5,3.4,7.3,4.2,10.7,1.7l15.6-11.3c3.4-2.5,4.2-7.3,1.7-10.8L374.5,416.5z M349.7,428.1l15.6-11.3c0.7-0.6,1.6-0.9,2.4-0.9
	l-4.9,14l-14.7,0.4C348.5,429.4,349,428.7,349.7,428.1z M377.8,434l-15.6,11.3c-2.3,1.6-5.5,1.1-7.1-1.1l-6.4-8.9
	c-0.6-0.8-0.9-1.7-1-2.6l17-0.4l5.6-16.1c0.8,0.3,1.6,1,2.1,1.7l6.4,8.9C380.5,429.2,380,432.3,377.8,434z M277.2,90.6
	c-0.4,0.3-0.7,0.5-1,0.7c-2.6-1.7-5.8-2.5-8.9-2.1c-3.4,0.4-6.5,2.1-8.6,4.7c-2.3,2.8-3.4,6.1-3.1,9.7c-0.7,0.4-1.2,0.9-1.8,1.4
	c-3.5,3.6-4.1,9.2-1.4,13.4c1.2,1.9,2.9,3.3,5,4.1c2,0.8,4.3,1,6.4,0.5c0.7-0.1,1.6-0.4,2.5-1c3.7-2.7,7.4-5.4,11.1-8.1
	c3.8-2.8,7.6-5.5,11.5-8.4c0.3-0.2,0.4-0.3,0.6-0.5c1.7-2,2.6-4.7,2.3-7.4c-0.3-2.7-1.7-5.2-3.9-6.8
	C284.7,88.8,280.5,88.6,277.2,90.6z M287.5,103.5c0,0-0.1,0.1-0.1,0.2c-7.6,5.5-15.1,11-22.6,16.5c-0.4,0.3-0.9,0.4-1.5,0.6
	c-1.6,0.4-3.4,0.3-4.9-0.4c-1.6-0.6-2.9-1.7-3.8-3.2c-2.1-3.2-1.6-7.5,1-10.2c0.3-0.3,0.6-0.6,1-0.9c0.3-0.2,0.5-0.3,0.7-0.5
	c0.6-0.3,0.9-0.9,0.8-1.5c-0.3-3.2,0.5-6,2.5-8.5c1.7-2.1,4.2-3.4,7-3.8s5.5,0.4,7.7,2c0.1,0.1,0.2,0.1,0.2,0.1l0.8,0.5l0.7-0.5
	c0.2-0.2,0.4-0.3,0.6-0.4c0.3-0.2,0.7-0.5,1-0.7c2.4-1.5,5.6-1.4,7.9,0.4c1.6,1.2,2.7,3,2.9,5C289.4,100.1,288.9,102,287.5,103.5z
	 M306.3,371.9c-0.4,0.3-0.7,0.5-1,0.7c-2.6-1.7-5.8-2.5-8.9-2.1c-3.4,0.4-6.5,2.1-8.6,4.7c-2.3,2.8-3.4,6.1-3.1,9.7
	c-0.7,0.4-1.2,0.9-1.8,1.4c-3.5,3.6-4.1,9.2-1.4,13.4c1.2,1.9,2.9,3.3,5,4.1c2,0.8,4.3,1,6.4,0.5c0.7-0.1,1.6-0.4,2.5-1
	c3.7-2.7,7.4-5.4,11.1-8.1c3.8-2.8,7.6-5.5,11.5-8.4c0.3-0.2,0.4-0.3,0.6-0.5c1.7-2,2.6-4.7,2.3-7.4c-0.3-2.7-1.7-5.2-3.9-6.8
	C313.8,370,309.6,369.9,306.3,371.9z M316.7,384.7c0,0-0.1,0.1-0.1,0.2c-7.6,5.5-15.1,11-22.6,16.5c-0.4,0.3-0.9,0.4-1.5,0.6
	c-1.6,0.4-3.4,0.3-4.9-0.4c-1.6-0.6-2.9-1.7-3.8-3.2c-2.1-3.2-1.6-7.5,1-10.2c0.3-0.3,0.6-0.6,1-0.9c0.3-0.2,0.5-0.3,0.7-0.5
	c0.6-0.3,0.9-0.9,0.8-1.5c-0.3-3.2,0.5-6,2.5-8.5c1.7-2.1,4.2-3.4,7-3.8s5.5,0.4,7.7,2c0.1,0.1,0.2,0.1,0.2,0.1l0.8,0.5l0.7-0.5
	c0.2-0.2,0.4-0.3,0.6-0.4c0.3-0.2,0.7-0.5,1-0.7c2.4-1.5,5.6-1.4,7.9,0.4c1.6,1.2,2.7,3,2.9,5C318.6,381.3,318,383.3,316.7,384.7z
	 M130,118.1c-0.5,3.2,0.6,6.5,3,8.7l1.8-1.9c-1.8-1.6-2.6-4.1-2.2-6.4c0.4-2.4,1.9-4.5,4.1-5.5l-1.1-2.3
	C132.6,112.1,130.5,114.8,130,118.1z M162.5,119.1l-9.9-1.5c-0.3-2.3-1.2-4.5-2.5-6.4c-2.2-3-5.4-5-9.1-5.6
	c-3.7-0.6-7.3,0.3-10.4,2.5s-5,5.4-5.6,9.2c-0.6,3.7,0.3,7.4,2.5,10.4c2.2,3,5.4,5,9.1,5.6c3.7,0.6,7.3-0.3,10.4-2.5
	c1.9-1.4,3.4-3.2,4.4-5.3l9.9,1.5c1.1,0.2,2.1-0.1,3-0.7c0.8-0.6,1.4-1.5,1.6-2.6C166.2,121.5,164.7,119.5,162.5,119.1z
	 M145.5,128.7c-5.1,3.7-12.2,2.5-15.9-2.5c-3.7-5.1-2.5-12.3,2.5-16c5.1-3.7,12.2-2.5,15.9,2.5S150.6,125,145.5,128.7z M163.3,123.4
	c-0.1,0.8-0.9,1.3-1.7,1.2l-9.4-1.5c0.1-0.5,0.2-0.9,0.3-1.4c0.1-0.5,0.1-1,0.1-1.5l9.4,1.5C162.9,121.8,163.5,122.5,163.3,123.4z
	 M159.1,395.4c-0.5,3.2,0.6,6.5,3,8.7l1.8-1.9c-1.8-1.6-2.6-4.1-2.2-6.4c0.4-2.4,1.9-4.5,4.1-5.5l-1.1-2.3
	C161.8,389.4,159.7,392.1,159.1,395.4z M191.7,396.4l-9.9-1.5c-0.3-2.3-1.2-4.5-2.5-6.4c-2.2-3-5.4-5-9.1-5.6
	c-3.7-0.6-7.3,0.3-10.4,2.5s-5,5.4-5.6,9.2c-0.6,3.7,0.3,7.4,2.5,10.4c2.2,3,5.4,5,9.1,5.6c3.7,0.6,7.3-0.3,10.4-2.5
	c1.9-1.4,3.4-3.2,4.4-5.3l9.9,1.5c1.1,0.2,2.1-0.1,3-0.7c0.8-0.6,1.4-1.5,1.6-2.6C195.3,398.8,193.8,396.7,191.7,396.4z
	 M174.6,405.9c-5.1,3.7-12.2,2.5-15.9-2.5c-3.7-5.1-2.5-12.3,2.5-16c5.1-3.7,12.2-2.5,15.9,2.5S179.7,402.3,174.6,405.9z
	 M192.5,400.7c-0.1,0.8-0.9,1.3-1.7,1.2l-9.4-1.5c0.1-0.5,0.2-0.9,0.3-1.4c0.1-0.5,0.1-1,0.1-1.5l9.4,1.5
	C192,399.1,192.6,399.8,192.5,400.7z M401.4,150.1l2.5,0.6l0.9-3.4c2.3,5.5,0.6,12.1-4.4,15.7c-5.8,4.2-14,2.9-18.2-2.9
	c-4.2-5.8-2.9-14.1,2.9-18.3l-1.5-2.1c-3.4,2.4-5.6,6.1-6.3,10.3c-0.7,4.1,0.3,8.3,2.8,11.7c2.4,3.4,6.1,5.6,10.3,6.3
	c4.1,0.7,8.2-0.3,11.7-2.8c3.4-2.4,5.6-6.1,6.3-10.3c0.5-2.8,0.1-5.6-0.9-8.2l2.8,1.2l1.1-2.3l-7.7-3.4L401.4,150.1z M413.3,263.2
	l2.5,0.6l0.9-3.4c2.3,5.5,0.6,12.1-4.4,15.7c-5.8,4.2-14,2.9-18.2-2.9c-4.2-5.8-2.9-14.1,2.9-18.3l-1.5-2.1
	c-3.4,2.4-5.6,6.1-6.3,10.3c-0.7,4.1,0.3,8.3,2.8,11.7c2.4,3.4,6.1,5.6,10.3,6.3c4.1,0.7,8.2-0.3,11.7-2.8c3.4-2.4,5.6-6.1,6.3-10.3
	c0.5-2.8,0.1-5.6-0.9-8.2l2.8,1.2l1.1-2.3l-7.7-3.4L413.3,263.2z M314,87.5L314,87.5c1,3.7,2,7.5,3,11.1l0.9,3.6
	c0.1,0.3,0.1,0.5,0.2,0.7l0.6,2l3.9-2.9l4.9,17.1l6.1-37.5l-6.3,4.6l-0.1-0.3c-0.2-1-0.6-2-0.8-3c-0.2-0.7-0.4-1.4-0.6-2.2
	c-0.1-0.3-0.2-0.6-0.2-1l-0.4-1.6l-11.6,8.3l0.4,0.9C313.9,87.5,313.9,87.5,314,87.5z M323.9,82c0.1,0.5,0.2,1,0.4,1.5
	c0.2,1,0.6,2,0.8,3c0.1,0.5,0.3,1.1,0.5,1.7c0,0.1,0,0.1,0.1,0.3l0,0.1l0.5,1.5l4.5-3.2l-3.5,21.8l-3-10.4l-3.9,2.9l-0.8-3.1
	c-0.9-3.5-1.9-7.1-2.9-10.6L323.9,82z M477.1,407c-0.2-1-0.6-2-0.8-3c-0.2-0.7-0.4-1.4-0.6-2.2c-0.1-0.3-0.2-0.6-0.2-1l-0.4-1.6
	l-11.6,8.3l0.4,0.9c0,0.1,0,0.1,0.1,0.1c0,0,0,0,0,0.1c1,3.7,2,7.4,3,11.1l0.9,3.6c0.1,0.3,0.1,0.5,0.2,0.7l0.6,2l3.9-2.9l4.9,17.1
	l6.1-37.5l-6.3,4.6L477.1,407z M476.8,429.7l-3-10.4l-3.9,2.9l-0.8-3.1c-0.9-3.5-1.9-7.1-2.9-10.6l7.5-5.4c0.1,0.5,0.2,1,0.4,1.5
	c0.2,1,0.6,2,0.8,3c0.1,0.5,0.3,1.1,0.5,1.7c0,0.1,0,0.1,0.1,0.3l0,0.1l0.5,1.5l4.5-3.2L476.8,429.7z M123.7,444.1
	c-0.2-1-0.6-2-0.8-3c-0.2-0.7-0.4-1.4-0.6-2.2c-0.1-0.3-0.2-0.6-0.2-1l-0.4-1.6l-11.6,8.3l0.4,0.9c0,0.1,0,0.1,0.1,0.1
	c0,0,0,0,0,0.1c1,3.7,2,7.4,3,11.1l0.9,3.6c0.1,0.3,0.1,0.5,0.2,0.7l0.6,2l3.9-2.9l4.9,17.1l6.1-37.5l-6.3,4.6L123.7,444.1z
	 M123.4,466.8l-3-10.4l-3.9,2.9l-0.8-3.1c-0.9-3.5-1.9-7.1-2.9-10.6l7.5-5.4c0.1,0.5,0.2,1,0.4,1.5c0.2,1,0.6,2,0.8,3
	c0.1,0.5,0.3,1.1,0.5,1.7c0,0.1,0,0.1,0.1,0.3l0,0.1l0.5,1.5l4.5-3.2L123.4,466.8z M356.4,363.2c-0.2-1-0.6-2-0.8-3
	c-0.2-0.7-0.4-1.4-0.6-2.2c-0.1-0.3-0.2-0.6-0.2-1l-0.4-1.6l-11.6,8.3l0.4,0.9c0,0.1,0,0.1,0.1,0.1c0,0,0,0,0,0.1
	c1,3.7,2,7.4,3,11.1l0.9,3.6c0.1,0.3,0.1,0.5,0.2,0.7l0.6,2l3.9-2.9l4.9,17.1l6.1-37.5l-6.3,4.6L356.4,363.2z M356.1,385.9l-3-10.4
	l-3.9,2.9l-0.8-3.1c-0.9-3.5-1.9-7.1-2.9-10.6l7.5-5.4c0.1,0.5,0.2,1,0.4,1.5c0.2,1,0.6,2,0.8,3c0.1,0.5,0.3,1.1,0.5,1.7
	c0,0.1,0,0.1,0.1,0.3l0,0.1l0.5,1.5l4.5-3.2L356.1,385.9z M390.1,213.1l7.6,10.4c1.6,2.3,4.7,2.7,7,1.1l10.4-7.6
	c2.3-1.6,2.7-4.7,1.1-7l-7.6-10.4c-1.4-1.9-4-2.6-6-1.7l-2.4-3.4c-2.4-3.4-7.2-4.1-10.5-1.7c-3.4,2.4-4.1,7.2-1.7,10.6l2.1-1.5
	c-1.6-2.2-1.1-5.4,1.1-7c2.2-1.6,5.4-1.1,7,1.1l2.4,3.2l-9.2,6.8C388.9,207.7,388.4,210.9,390.1,213.1z M392.7,208.1l10.4-7.6
	c1.1-0.8,2.7-0.6,3.5,0.5l7.6,10.4c0.8,1.1,0.6,2.7-0.5,3.5l-10.4,7.6c-1.1,0.8-2.7,0.6-3.5-0.5l-7.6-10.4
	C391.3,210.5,391.6,208.9,392.7,208.1z M404.5,213.6c1.1-0.8,1.3-2.3,0.5-3.4c-0.8-1.1-2.3-1.3-3.4-0.5c-1.1,0.8-1.3,2.3-0.5,3.4
	C401.9,214.1,403.5,214.3,404.5,213.6z M254.1,488.5c-1.4-1.9-4-2.6-6-1.7l-2.4-3.4c-2.4-3.4-7.2-4.1-10.5-1.7
	c-3.4,2.4-4.1,7.2-1.7,10.6l2.1-1.5c-1.6-2.2-1.1-5.4,1.1-7c2.2-1.6,5.4-1.1,7,1.1l2.4,3.2l-9.2,6.8c-2.3,1.6-2.7,4.7-1.1,7
	l7.6,10.4c1.6,2.3,4.7,2.7,7,1.1l10.4-7.6c2.3-1.6,2.7-4.7,1.1-7L254.1,488.5z M259,503.9l-10.4,7.6c-1.1,0.8-2.7,0.6-3.5-0.5
	l-7.6-10.4c-0.8-1.1-0.6-2.7,0.5-3.5l10.4-7.6c1.1-0.8,2.7-0.6,3.5,0.5l7.6,10.4C260.4,501.6,260.1,503.1,259,503.9z M247.1,498.5
	c-1.1,0.8-1.3,2.3-0.5,3.4c0.8,1.1,2.3,1.3,3.4,0.5c1.1-0.8,1.3-2.3,0.5-3.4C249.7,498,248.2,497.7,247.1,498.5z M401.9,326.2
	l7.6,10.4c1.6,2.3,4.7,2.7,7,1.1l10.4-7.6c2.3-1.6,2.7-4.7,1.1-7l-7.6-10.4c-1.4-1.9-4-2.6-6-1.7l-2.4-3.4
	c-2.4-3.4-7.2-4.1-10.5-1.7s-4.1,7.2-1.7,10.6l2.1-1.5c-1.6-2.2-1.1-5.4,1.1-7c2.2-1.6,5.4-1.1,7,1.1l2.4,3.2l-9.2,6.8
	C400.8,320.8,400.3,324,401.9,326.2z M404.5,321.2l10.4-7.6c1.1-0.8,2.7-0.6,3.5,0.5l7.6,10.4c0.8,1.1,0.6,2.7-0.5,3.5l-10.4,7.6
	c-1.1,0.8-2.7,0.6-3.5-0.5l-7.6-10.4C403.2,323.6,403.5,322.1,404.5,321.2z M416.4,326.7c1.1-0.8,1.3-2.3,0.5-3.4
	c-0.8-1.1-2.3-1.3-3.4-0.5c-1.1,0.7-1.3,2.3-0.5,3.4C413.8,327.2,415.3,327.4,416.4,326.7z M89.3,197.1c4.6,0.7,9.1-0.4,12.9-3.1
	c3.7-2.7,6.2-6.7,6.9-11.3c0.7-4.6-0.4-9.2-3.1-12.9c-2.7-3.8-6.7-6.2-11.3-6.9c-4.6-0.7-9.1,0.4-12.9,3.1s-6.2,6.7-6.9,11.3
	c-0.7,4.6,0.4,9.2,3.1,12.9C80.7,193.9,84.7,196.4,89.3,197.1z M80.8,189.6l3-2.2c1.1,1.3,2.4,2.5,3.8,3.5l-2.7,2
	C83.5,192.2,82,191.1,80.8,189.6z M93.8,180.3l6.3-4.6c0.9,1.5,1.6,3.2,2,4.9l-5.4,3.9L93.8,180.3z M94.7,185.9l-4.8,3.4
	c-1.5-0.9-2.9-2.1-4-3.4l5.7-4.2L94.7,185.9z M92.2,178.2l-3-4.1l5.4-3.9c1.5,0.9,2.9,2.1,4,3.4L92.2,178.2z M90.2,179.7l-5.7,4.2
	c-0.9-1.5-1.6-3.2-2-4.9l4.8-3.4L90.2,179.7z M89.7,194.6c-0.6-0.1-1.3-0.2-1.9-0.4l2.4-1.7c0.4,0.2,0.8,0.4,1.2,0.6
	c1.5,0.6,3.1,1,4.7,1.2C94,194.7,91.8,194.9,89.7,194.6z M92.6,190.6l3.6-2.7l2.7,3.7C96.8,191.8,94.6,191.4,92.6,190.6z
	 M101.2,190.6l-3-4.1l4.3-3.1C102.6,185.9,102.2,188.3,101.2,190.6z M106.5,182.3c-0.3,1.7-0.8,3.4-1.6,4.8c0.2-1.3,0.3-2.7,0.2-4.1
	c0-0.4-0.1-0.9-0.1-1.3l1.8-1.3C106.7,181,106.6,181.6,106.5,182.3z M106.5,177.3l-2.1,1.5c-0.5-1.7-1.2-3.3-2.2-4.8l2.4-1.8
	C105.5,173.9,106.1,175.6,106.5,177.3z M99,167c1.5,0.8,3,2,4.2,3.3l-2.4,1.8c-1.1-1.3-2.4-2.5-3.8-3.5L99,167z M94.3,165.4
	c0.6,0.1,1.3,0.2,1.9,0.4l-1.8,1.3c-0.4-0.2-0.8-0.4-1.2-0.6c-1.3-0.5-2.6-0.9-4-1.1C90.9,165.2,92.5,165.1,94.3,165.4z M91.9,168.9
	l-4.3,3.1l-3-4.1C87.2,167.6,89.7,168,91.9,168.9z M83,169.8l2.7,3.7l-3.6,2.7C81.9,173.9,82.2,171.8,83,169.8z M77.4,177.7
	c0.3-2.2,1.2-4.2,2.4-6c-0.3,1.6-0.4,3.3-0.3,4.8c0,0.4,0.1,0.9,0.1,1.3l-2.4,1.7C77.3,178.9,77.3,178.3,77.4,177.7z M80.2,180.6
	c0.5,1.7,1.2,3.3,2.2,4.8l-3,2.2c-0.9-1.6-1.6-3.2-1.8-5L80.2,180.6z M454.5,273c4.6,0.7,9.1-0.4,12.9-3.1s6.2-6.7,6.9-11.3
	c0.7-4.6-0.4-9.2-3.1-12.9c-2.7-3.8-6.7-6.2-11.3-6.9c-4.6-0.7-9.1,0.4-12.9,3.1c-3.7,2.7-6.2,6.7-6.9,11.3
	c-0.7,4.6,0.4,9.2,3.1,12.9C446,269.9,450,272.3,454.5,273z M446.2,265.6l3-2.2c1.1,1.3,2.4,2.5,3.8,3.5l-2.7,2
	C448.7,268.1,447.3,267,446.2,265.6z M459,256.2l6.3-4.6c0.9,1.5,1.6,3.2,2,4.9l-5.4,3.9L459,256.2z M460,261.9l-4.8,3.4
	c-1.5-0.9-2.9-2.1-4-3.4l5.7-4.2L460,261.9z M457.6,254.2l-3-4.1l5.4-3.9c1.5,0.9,2.9,2.1,4,3.4L457.6,254.2z M455.5,255.6l-5.7,4.2
	c-0.9-1.5-1.6-3.2-2-4.9l4.8-3.4L455.5,255.6z M455,270.6c-0.6-0.1-1.3-0.2-1.9-0.4l2.4-1.7c0.4,0.2,0.8,0.4,1.2,0.6
	c1.5,0.6,3.1,1,4.7,1.2C459.3,270.7,457.2,270.9,455,270.6z M457.8,266.6l3.6-2.7l2.7,3.7C462,267.8,459.8,267.4,457.8,266.6z
	 M466.5,266.5l-3-4.1l4.3-3.1C467.9,261.9,467.4,264.3,466.5,266.5z M471.8,258.2c-0.3,1.7-0.8,3.4-1.6,4.8c0.2-1.3,0.3-2.7,0.2-4.1
	c0-0.4-0.1-0.9-0.1-1.3l1.8-1.3C472,257,471.9,257.6,471.8,258.2z M471.7,253.3l-2.1,1.5c-0.5-1.7-1.2-3.3-2.2-4.8l2.4-1.8
	C470.8,249.9,471.5,251.6,471.7,253.3z M464.2,242.9c1.5,0.8,3,2,4.2,3.3L466,248c-1.1-1.3-2.4-2.5-3.8-3.5L464.2,242.9z
	 M459.5,241.3c0.6,0.1,1.3,0.2,1.9,0.4l-1.8,1.3c-0.4-0.2-0.8-0.4-1.2-0.6c-1.3-0.5-2.6-0.9-4-1.1
	C456.1,241.1,457.8,241.1,459.5,241.3z M457.3,244.9L453,248l-3-4.1C452.5,243.6,455,244,457.3,244.9z M448.3,245.7l2.7,3.7
	l-3.6,2.7C447.2,249.9,447.5,247.8,448.3,245.7z M442.7,253.6c0.3-2.2,1.2-4.2,2.4-6c-0.3,1.6-0.4,3.3-0.3,4.8
	c0,0.4,0.1,0.9,0.1,1.3l-2.4,1.7C442.5,254.9,442.6,254.3,442.7,253.6z M445.5,256.6c0.5,1.7,1.2,3.3,2.2,4.8l-3,2.2
	c-0.9-1.6-1.6-3.2-1.8-5L445.5,256.6z M196.3,552.5c1.2-0.8,1.4-2.4,0.6-3.5c-0.8-1.2-2.4-1.4-3.5-0.6c-1.2,0.8-1.4,2.4-0.6,3.6
	C193.6,553.1,195.1,553.4,196.3,552.5z M195.1,539.8c-4.5-0.7-9.1,0.4-12.8,3.1c-3.7,2.7-6.2,6.7-6.9,11.3
	c-0.7,4.5,0.4,9.2,3.1,12.9c2.7,3.8,6.7,6.2,11.3,6.9c4.5,0.7,9.1-0.4,12.8-3.1c3.7-2.7,6.2-6.7,6.9-11.3c0.7-4.5-0.4-9.2-3.1-12.9
	C203.6,543.1,199.6,540.5,195.1,539.8z M206.9,559.2c-0.6,3.9-2.7,7.3-5.9,9.6c-3.2,2.3-7,3.2-10.9,2.6c-3.9-0.6-7.3-2.7-9.6-5.9
	c-2.3-3.2-3.2-7.1-2.6-11c0.6-3.9,2.7-7.3,5.9-9.6s7-3.2,10.9-2.6c3.9,0.6,7.3,2.7,9.6,5.9C206.6,551.5,207.5,555.3,206.9,559.2z
	 M187.3,555.9c-0.8-1.2-2.4-1.4-3.5-0.6c-1.2,0.8-1.4,2.4-0.6,3.5c0.8,1.2,2.4,1.4,3.6,0.6C187.9,558.7,188.1,557,187.3,555.9z
	 M197.1,563.4c-2.5,1.9-5.8,2.3-8.8,1.2l-0.9,2.4c3.8,1.4,7.9,0.8,11.2-1.5c3.2-2.4,5.1-6.1,4.9-10.1l-2.6,0.1
	C201,558.6,199.6,561.6,197.1,563.4z M385.1,535.3c-1,0.6-2.1,1.1-3.2,1.2c-0.3,0.1-0.7,0.3-0.7,0.7l-0.7,2.9
	c-1.5,0.1-2.9,0-4.2-0.4c-1.1-0.2-2.1-0.6-3-1.1l0.5-2.9c0-0.4-0.1-0.7-0.4-0.9c-0.9-0.7-1.8-1.5-2.4-2.4c-0.3-0.5-0.9-0.5-1.3-0.2
	l-2.7,2c-0.5,0.3-0.5,0.9-0.2,1.3c2.7,3.7,6.7,5.9,10.9,6.5c3.5,0.5,7.1-0.2,10.3-2.1c0.5-0.3,0.6-0.8,0.4-1.3l-1.7-2.9
	C386.1,535.1,385.5,535,385.1,535.3z M380.1,520.2c-4.4-0.7-8.9,0.4-12.5,3s-6,6.5-6.7,11c-0.7,4.4,0.4,8.9,3,12.5
	c1.6,2.2,3.8,4,6.2,5.2c0.8,2.1,1.2,3.2,1.9,5.4c0.2,0.6,0.4,1.4,0.7,2.2l0.7,2.2l1.4-1.8c3.1-4,3.7-4.8,4.8-6.4
	c2.7-0.4,5.3-1.4,7.5-3c3.6-2.6,6-6.5,6.7-11c0.7-4.4-0.4-8.9-3-12.5C388.3,523.3,384.5,520.9,380.1,520.2z M391.5,539
	c-0.6,3.8-2.6,7.1-5.7,9.3c-2,1.5-4.4,2.4-6.9,2.7l-0.6,0.1l-0.4,0.5c-1.2,1.6-1.6,2.3-3.7,4.9c-0.8-2.4-1.1-3.5-2.1-6l-0.2-0.5
	l-0.4-0.2c-2.3-1-4.2-2.6-5.7-4.6c-2.3-3.1-3.2-6.9-2.6-10.6c0.6-3.8,2.6-7.1,5.7-9.3c3.1-2.3,6.8-3.2,10.6-2.6
	c3.7,0.6,7.1,2.6,9.3,5.7C391.2,531.4,392.1,535.2,391.5,539z M134.3,581.7l5.6-11.4l12.5-1.8l-9.1-8.9l2.2-12.6l-11.2,5.9
	l-11.3-5.9l2.2,12.5l-9.1,8.8l12.6,1.8L134.3,581.7z M127.9,560.4l-1.5-8.8l7.9,4.2l7.9-4.2l-1.5,8.9l6.4,6.3l-8.9,1.3l-3.9,8.1
	l-4-8.1l-8.9-1.3L127.9,560.4z M305.8,553.7c1.1,0.6,3,1.4,6.6,1.8c4,0.4,8.4,0.2,13.2-0.6c0.3,0,0.5-0.1,0.7-0.3
	c0.3-0.2,0.4-0.5,0.6-0.6c1.9-3.5,3.2-7,4.2-10.5c0.7-2.6,1-4.8,0.9-7c0-3.1-1.1-5.6-3-7.6c-1.9-1.9-4.3-3-6.7-3s-4.8,1-6.8,2.9
	c-1.8,1.7-2.8,4-2.9,6.7c-3.7-1-6.9-0.2-9.7,2.5c-2,1.9-2.9,4.2-2.8,6.7c0.1,2,0.7,3.8,1.6,5.3C302.5,551.6,303.9,552.8,305.8,553.7
	z M302.5,544.6c-0.1-1.8,0.6-3.4,2-4.7c0.3-0.3,0.6-0.6,1-0.8c1-0.7,1.9-1.1,3-1.3c1.4-0.2,2.9,0,4.5,0.6c0.1,0,0.1,0.1,0.1,0.1
	l1.9,0.8l-0.1-1.9c0-0.1,0-0.3,0-0.5c0-0.3,0-0.6,0-0.9c0.1-2.2,0.8-3.9,2.2-5.2c1.5-1.4,3.2-2.1,5-2.1c1.8,0,3.5,0.7,4.9,2.2
	c1.5,1.5,2.2,3.5,2.4,5.9c0.1,1.9-0.2,3.9-0.9,6.2c-0.8,3.2-2.1,6.4-3.8,9.6c-4.4,0.7-8.4,0.9-12.1,0.5c-2.4-0.2-4.2-0.7-5.6-1.5
	C304,549.9,302.6,547.7,302.5,544.6z M265.7,535.8c-2.5-3.4-7.3-4.2-10.7-1.7l-15.6,11.3c-3.4,2.5-4.2,7.3-1.7,10.8l6.4,8.9
	c2.5,3.4,7.3,4.2,10.7,1.7l15.6-11.3c3.4-2.5,4.2-7.3,1.7-10.8L265.7,535.8z M240.9,547.4l15.6-11.3c0.7-0.6,1.6-0.9,2.4-0.9
	l-4.9,14l-14.7,0.4C239.7,548.7,240.2,548,240.9,547.4z M268.9,553.3l-15.6,11.3c-2.3,1.6-5.5,1.1-7.1-1.1l-6.4-8.9
	c-0.6-0.8-0.9-1.7-1-2.6l17-0.4l5.6-16.1c0.8,0.3,1.6,1,2.1,1.7l6.4,8.9C271.7,548.5,271.2,551.6,268.9,553.3z M444.4,529.6l2.5,0.6
	l0.9-3.4c2.3,5.5,0.6,12.1-4.4,15.7c-5.8,4.2-14,2.9-18.2-2.9c-4.2-5.8-2.9-14.1,2.9-18.3l-1.5-2.1c-3.4,2.4-5.6,6.1-6.3,10.3
	c-0.7,4.1,0.3,8.3,2.8,11.7c2.4,3.4,6.1,5.6,10.3,6.3c4.1,0.7,8.2-0.3,11.7-2.8c3.4-2.4,5.6-6.1,6.3-10.3c0.5-2.8,0.1-5.6-0.9-8.2
	l2.8,1.2l1.1-2.3l-7.7-3.4L444.4,529.6z M485.6,539.4c4.6,0.7,9.1-0.4,12.9-3.1c3.7-2.7,6.2-6.7,6.9-11.3c0.7-4.6-0.4-9.2-3.1-12.9
	c-2.7-3.8-6.7-6.2-11.3-6.9c-4.6-0.7-9.1,0.4-12.9,3.1c-3.7,2.7-6.2,6.7-6.9,11.3c-0.7,4.6,0.4,9.2,3.1,12.9
	C477.1,536.3,481.1,538.7,485.6,539.4z M477.2,532l3-2.2c1.1,1.3,2.4,2.5,3.8,3.5l-2.7,2C479.8,534.5,478.4,533.4,477.2,532z
	 M490.1,522.6l6.3-4.6c0.9,1.5,1.6,3.2,2,4.9l-5.4,3.9L490.1,522.6z M491,528.3l-4.8,3.4c-1.5-0.9-2.9-2.1-4-3.4l5.7-4.2L491,528.3z
	 M488.6,520.6l-3-4.1l5.4-3.9c1.5,0.9,2.9,2.1,4,3.4L488.6,520.6z M486.6,522l-5.7,4.2c-0.9-1.5-1.6-3.2-2-4.9l4.8-3.4L486.6,522z
	 M486,536.9c-0.6-0.1-1.3-0.2-1.9-0.4l2.4-1.7c0.4,0.2,0.8,0.4,1.2,0.6c1.5,0.6,3.1,1,4.7,1.2C490.4,537.1,488.2,537.3,486,536.9z
	 M488.9,533l3.6-2.7l2.7,3.7C493.1,534.2,490.9,533.8,488.9,533z M497.6,532.9l-3-4.1l4.3-3.1C499,528.3,498.5,530.7,497.6,532.9z
	 M502.9,524.6c-0.3,1.7-0.8,3.4-1.6,4.8c0.2-1.3,0.3-2.7,0.2-4.1c0-0.4-0.1-0.9-0.1-1.3l1.8-1.3C503,523.4,503,524,502.9,524.6z
	 M502.8,519.7l-2.1,1.5c-0.5-1.7-1.2-3.3-2.2-4.8l2.4-1.8C501.9,516.3,502.5,518,502.8,519.7z M495.3,509.3c1.5,0.8,3,2,4.2,3.3
	l-2.4,1.8c-1.1-1.3-2.4-2.5-3.8-3.5L495.3,509.3z M490.6,507.7c0.6,0.1,1.3,0.2,1.9,0.4l-1.8,1.3c-0.4-0.2-0.8-0.4-1.2-0.6
	c-1.3-0.5-2.6-0.9-4-1.1C487.2,507.5,488.9,507.5,490.6,507.7z M488.3,511.2l-4.3,3.1l-3-4.1C483.6,510,486,510.4,488.3,511.2z
	 M479.3,512.1l2.7,3.7l-3.6,2.7C478.2,516.3,478.6,514.2,479.3,512.1z M473.8,520c0.3-2.2,1.2-4.2,2.4-6c-0.3,1.6-0.4,3.3-0.3,4.8
	c0,0.4,0.1,0.9,0.1,1.3l-2.4,1.7C473.6,521.3,473.7,520.7,473.8,520z M476.6,522.9c0.5,1.7,1.2,3.3,2.2,4.8l-3,2.2
	c-0.9-1.6-1.6-3.2-1.8-5L476.6,522.9z M385.1,108.1c4.5,0.7,9.1-0.4,12.8-3.1c3.7-2.7,6.2-6.7,6.9-11.3c0.7-4.5-0.4-9.2-3.1-12.9
	c-2.7-3.8-6.7-6.2-11.3-6.9c-4.5-0.7-9.1,0.4-12.8,3.1c-3.7,2.7-6.2,6.7-6.9,11.3c-0.7,4.5,0.4,9.2,3.1,12.9
	C376.5,104.9,380.5,107.4,385.1,108.1z M373.3,88.7c0.6-3.9,2.7-7.3,5.9-9.6c3.2-2.3,7-3.2,10.9-2.6c3.9,0.6,7.3,2.7,9.6,5.9
	s3.2,7.1,2.6,11c-0.6,3.9-2.7,7.3-5.9,9.6s-7,3.2-10.9,2.6c-3.9-0.6-7.3-2.7-9.6-5.9C373.6,96.5,372.7,92.6,373.3,88.7z M393.6,84.3
	l-3.7-0.1l1-3.5l-2.4-0.7l-1.9,6.7l7,0.2L393.6,84.3z M379.7,94.5l2.4,0.7l1.9-6.8l-7-0.2l-0.1,2.6l3.7,0.1L379.7,94.5z M394.2,99.9
	c3.1-2.3,3.8-6.6,1.5-9.8l-11.3,8.2C386.7,101.4,391.1,102.1,394.2,99.9z M100.8,220.8c-4.5-0.7-9.1,0.4-12.8,3.1
	c-3.7,2.7-6.2,6.7-6.9,11.3c-0.7,4.5,0.4,9.2,3.1,12.9c2.7,3.8,6.7,6.2,11.3,6.9c4.5,0.7,9.1-0.4,12.8-3.1c3.7-2.7,6.2-6.7,6.9-11.3
	c0.7-4.5-0.4-9.2-3.1-12.9C109.3,224,105.3,221.5,100.8,220.8z M112.6,240.2c-0.6,3.9-2.7,7.3-5.9,9.6c-3.2,2.3-7,3.2-10.9,2.6
	c-3.9-0.6-7.3-2.7-9.6-5.9c-2.3-3.2-3.3-7-2.7-10.9c0.6-3.9,2.7-7.3,5.9-9.6c3.2-2.3,7-3.2,10.9-2.6c3.9,0.6,7.3,2.7,9.6,5.9
	C112.3,232.4,113.2,236.3,112.6,240.2z M87.4,235.2l-0.1,2.6l3.7,0.1l-1,3.5l2.4,0.7l1.9-6.8L87.4,235.2z M94.8,245.2
	c2.3,3.1,6.6,3.8,9.8,1.6c3.1-2.3,3.8-6.6,1.5-9.8L94.8,245.2z M103.9,231.2l-3.7-0.1l1-3.5l-2.4-0.7l-1.9,6.7l7,0.2L103.9,231.2z
	 M406.2,365.6l-0.1,2.6l3.7,0.1l-1,3.5l2.4,0.7l1.9-6.8L406.2,365.6z M413.6,375.6c2.3,3.1,6.6,3.8,9.8,1.6c3.1-2.3,3.8-6.6,1.5-9.8
	L413.6,375.6z M419.7,351.2c-4.5-0.7-9.1,0.4-12.8,3.1c-3.7,2.7-6.2,6.7-6.9,11.3c-0.7,4.5,0.4,9.2,3.1,12.9
	c2.7,3.8,6.7,6.2,11.3,6.9c4.5,0.7,9.1-0.4,12.8-3.1c3.7-2.7,6.2-6.7,6.9-11.3c0.7-4.5-0.4-9.2-3.1-12.9
	C428.2,354.4,424.2,351.9,419.7,351.2z M431.5,370.6c-0.6,3.9-2.7,7.3-5.9,9.6c-3.2,2.3-7,3.2-10.9,2.6c-3.9-0.6-7.3-2.7-9.6-5.9
	s-3.2-7.1-2.6-11c0.6-3.9,2.7-7.3,5.9-9.6c3.2-2.3,7-3.2,10.9-2.6c3.9,0.6,7.3,2.7,9.6,5.9C431.2,362.8,432.1,366.7,431.5,370.6z
	 M422.8,361.6l-3.7-0.1l1-3.5l-2.4-0.7l-1.9,6.7l7,0.2L422.8,361.6z M116.5,505.5l-0.1,2.6l3.7,0.1l-1,3.5l2.4,0.7l1.9-6.8
	L116.5,505.5z M133,501.5l-3.7-0.1l1-3.5l-2.4-0.7l-1.9,6.7l7,0.2L133,501.5z M129.9,491.1c-4.5-0.7-9.1,0.4-12.8,3.1
	c-3.7,2.7-6.2,6.7-6.9,11.3c-0.7,4.5,0.4,9.2,3.1,12.9c2.7,3.8,6.7,6.2,11.3,6.9c4.5,0.7,9.1-0.4,12.8-3.1c3.7-2.7,6.2-6.7,6.9-11.3
	c0.7-4.5-0.4-9.2-3.1-12.9C138.5,494.3,134.4,491.8,129.9,491.1z M141.8,510.5c-0.6,3.9-2.7,7.3-5.9,9.6s-7,3.2-10.9,2.6
	c-3.9-0.6-7.3-2.7-9.6-5.9c-2.3-3.2-3.3-7-2.7-10.9c0.6-3.9,2.7-7.3,5.9-9.6c3.2-2.3,7-3.2,10.9-2.6c3.9,0.6,7.3,2.7,9.6,5.9
	C141.4,502.7,142.3,506.6,141.8,510.5z M123.9,515.5c2.3,3.1,6.6,3.8,9.8,1.6c3.1-2.3,3.8-6.6,1.5-9.8L123.9,515.5z M160.1,239.3
	c3.7-2.7,4.5-7.9,1.8-11.6c-2.7-3.7-7.9-4.5-11.6-1.8c-3.7,2.7-4.5,7.9-1.8,11.6C151.2,241.2,156.3,242,160.1,239.3z M151.8,227.9
	c2.6-1.9,6.2-1.3,8.1,1.2c1.9,2.6,1.3,6.2-1.2,8.1c-2.5,1.9-6.2,1.3-8.1-1.2C148.7,233.4,149.2,229.8,151.8,227.9z M158.5,220.8
	c0.8-0.6,1.1-1.9,0.4-2.7s-1.8-1.1-2.7-0.4c-0.8,0.6-1.1,1.9-0.4,2.7C156.5,221.2,157.7,221.4,158.5,220.8z M146.9,250.6
	c2.5,3.4,7.3,4.2,10.7,1.7l15.5-11.3c3.4-2.5,4.2-7.3,1.7-10.8l-11.3-15.5c-2.5-3.4-7.3-4.2-10.7-1.7l-15.5,11.3
	c-3.4,2.5-4.2,7.3-1.7,10.8L146.9,250.6z M138.8,226.3l15.5-11.3c2.3-1.6,5.5-1.1,7.1,1.1l11.3,15.5c1.6,2.3,1.1,5.5-1.1,7.2
	l-15.5,11.3c-2.3,1.6-5.5,1.1-7.1-1.1l-11.3-15.5C136,231.2,136.5,228,138.8,226.3z M191.8,484.3c-2.5-3.4-7.3-4.2-10.7-1.7
	l-15.5,11.3c-3.4,2.5-4.2,7.3-1.7,10.8l11.3,15.5c2.5,3.4,7.3,4.2,10.7,1.7l15.5-11.3c3.4-2.5,4.2-7.3,1.7-10.8L191.8,484.3z
	 M199.9,508.6l-15.5,11.3c-2.3,1.6-5.5,1.1-7.1-1.1L166,503.2c-1.6-2.3-1.1-5.5,1.1-7.2l15.5-11.3c2.3-1.6,5.5-1.1,7.1,1.1
	l11.3,15.5C202.7,503.7,202.2,506.9,199.9,508.6z M186.8,490.5c0.8-0.6,1.1-1.9,0.4-2.7s-1.8-1.1-2.7-0.4s-1.1,1.9-0.4,2.7
	C184.8,490.9,186,491.1,186.8,490.5z M178.6,495.6c-3.7,2.7-4.5,7.9-1.8,11.6c2.7,3.7,7.9,4.5,11.6,1.8c3.7-2.7,4.5-7.9,1.8-11.6
	C187.5,493.7,182.4,492.9,178.6,495.6z M186.9,507c-2.6,1.9-6.2,1.3-8.1-1.2c-1.9-2.6-1.3-6.2,1.2-8.1c2.6-1.9,6.2-1.3,8.1,1.2
	C190.1,501.5,189.5,505.1,186.9,507z M158.8,363.7c2.5,3.4,7.3,4.2,10.7,1.7l15.5-11.3c3.4-2.5,4.2-7.3,1.7-10.8l-11.3-15.5
	c-2.5-3.4-7.3-4.2-10.7-1.7l-15.5,11.3c-3.4,2.5-4.2,7.3-1.7,10.8L158.8,363.7z M150.7,339.4l15.5-11.3c2.3-1.6,5.5-1.1,7.1,1.1
	l11.3,15.5c1.6,2.3,1.1,5.5-1.1,7.2L168,363.3c-2.3,1.6-5.5,1.1-7.1-1.1l-11.3-15.5C147.9,344.3,148.4,341.1,150.7,339.4z
	 M172,352.5c3.7-2.7,4.5-7.9,1.8-11.6s-7.9-4.5-11.6-1.8c-3.7,2.7-4.5,7.9-1.8,11.6S168.2,355.2,172,352.5z M163.7,341.1
	c2.6-1.9,6.2-1.3,8.1,1.2c1.9,2.6,1.3,6.2-1.2,8.1c-2.5,1.9-6.2,1.3-8.1-1.2C160.6,346.5,161.1,342.9,163.7,341.1z M170.4,333.9
	c0.8-0.6,1.1-1.9,0.4-2.7c-0.6-0.8-1.8-1.1-2.7-0.4s-1.1,1.9-0.4,2.7C168.3,334.4,169.5,334.5,170.4,333.9z M322.9,610.9
	c4.5,0.7,9.1-0.4,12.8-3.1c3.7-2.7,6.2-6.7,6.9-11.3c0.7-4.5-0.4-9.2-3.1-12.9c-2.7-3.8-6.7-6.2-11.3-6.9c-4.5-0.7-9.1,0.4-12.8,3.1
	c-3.7,2.7-6.2,6.7-6.9,11.3c-0.7,4.5,0.4,9.2,3.1,12.9C314.3,607.7,318.3,610.2,322.9,610.9z M311,591.5c0.6-3.9,2.7-7.3,5.9-9.6
	c3.2-2.3,7-3.2,10.9-2.6s7.3,2.7,9.6,5.9c2.3,3.2,3.2,7.1,2.6,11c-0.6,3.9-2.7,7.3-5.9,9.6s-7,3.2-10.9,2.6
	c-3.9-0.6-7.3-2.7-9.6-5.9C311.3,599.3,310.4,595.4,311,591.5z M333.6,587.9l-17.6,1.8l10.4,14.4L333.6,587.9z M329.4,590.9
	l-3.6,8.1l-5.2-7.2L329.4,590.9z M56.9,230c-2.7-3.8-6.7-6.2-11.3-6.9c-4.5-0.7-9.1,0.4-12.8,3.1c-3.7,2.7-6.2,6.7-6.9,11.3
	c-0.7,4.5,0.4,9.2,3.1,12.9c2.7,3.8,6.7,6.2,11.3,6.9c4.5,0.7,9.1-0.4,12.8-3.1c3.7-2.7,6.2-6.7,6.9-11.3
	C60.7,238.3,59.6,233.8,56.9,230z M57.5,242.5c-0.6,3.9-2.7,7.3-5.9,9.6c-3.2,2.3-7,3.2-10.9,2.6c-3.9-0.6-7.3-2.7-9.6-5.9
	c-2.3-3.2-3.2-7.1-2.6-11c0.6-3.9,2.7-7.3,5.9-9.6c3.2-2.3,7-3.2,10.9-2.6s7.3,2.7,9.6,5.9C57.2,234.7,58.1,238.6,57.5,242.5z
	 M43.8,250.6l7.2-16.2l-17.6,1.8L43.8,250.6z M43.3,245.5l-5.2-7.2l8.8-0.9L43.3,245.5z M52.2,370.4c4.5,0.7,9.1-0.4,12.8-3.1
	c3.7-2.7,6.2-6.7,6.9-11.3c0.7-4.5-0.4-9.2-3.1-12.9c-2.7-3.8-6.7-6.2-11.3-6.9c-4.5-0.7-9.1,0.4-12.8,3.1
	c-3.7,2.7-6.2,6.7-6.9,11.3c-0.7,4.5,0.4,9.2,3.1,12.9C43.6,367.3,47.6,369.7,52.2,370.4z M40.3,351c0.6-3.9,2.7-7.3,5.9-9.6
	c3.2-2.3,7-3.2,10.9-2.6c3.9,0.6,7.3,2.7,9.6,5.9c2.3,3.2,3.2,7.1,2.6,11c-0.6,3.9-2.7,7.3-5.9,9.6c-3.2,2.3-7,3.2-10.9,2.6
	c-3.9-0.6-7.3-2.7-9.6-5.9C40.7,358.8,39.7,354.9,40.3,351z M62.9,347.4l-17.6,1.8l10.4,14.4L62.9,347.4z M58.8,350.5l-3.6,8.1
	l-5.2-7.2L58.8,350.5z M58.6,471.8c0.8,2.1,1.2,3.2,1.9,5.4c0.2,0.6,0.4,1.4,0.7,2.2l0.7,2.2l1.4-1.8c3.1-4,3.7-4.8,4.8-6.4
	c2.7-0.4,5.3-1.4,7.5-3c3.6-2.6,6-6.5,6.7-11c0.7-4.4-0.4-8.9-3-12.5c-2.6-3.6-6.5-6-10.9-6.7c-4.4-0.7-8.9,0.4-12.5,3
	c-3.6,2.6-6,6.5-6.7,11c-0.7,4.4,0.4,8.9,3,12.5C54,468.8,56.1,470.6,58.6,471.8z M51.8,454.5c0.6-3.8,2.6-7.1,5.7-9.3
	c3.1-2.3,6.8-3.2,10.6-2.6c3.7,0.6,7.1,2.6,9.3,5.7c2.3,3.1,3.2,6.9,2.6,10.6c-0.6,3.8-2.6,7.1-5.7,9.3c-2,1.5-4.4,2.4-6.9,2.7
	l-0.5,0.1l-0.4,0.5c-1.2,1.6-1.6,2.3-3.7,4.9c-0.8-2.4-1.1-3.5-2.1-6l-0.2-0.5l-0.4-0.2c-2.3-1-4.2-2.6-5.7-4.6
	C52.1,462,51.3,458.3,51.8,454.5z M65.9,461.8c3.4,0.4,7.1-0.3,10.3-2.1c0.5-0.3,0.6-0.8,0.4-1.3l-1.7-2.9c-0.3-0.5-0.8-0.6-1.3-0.4
	c-1,0.6-2.1,1.1-3.2,1.2c-0.3,0.1-0.7,0.3-0.7,0.7l-0.7,2.9c-1.5,0.1-2.9,0-4.2-0.4c-1.1-0.2-2.1-0.6-3-1.1l0.5-2.9
	c0-0.4-0.1-0.7-0.4-0.9c-0.9-0.7-1.8-1.5-2.4-2.4c-0.3-0.5-0.9-0.5-1.3-0.2l-2.7,2c-0.5,0.3-0.5,0.9-0.2,1.3
	C57.7,459.1,61.7,461.3,65.9,461.8z M77.8,494.6c-3.5-0.5-7.1,0.3-10,2.4l-13.6,9.9c-2.9,2.1-4.8,5.2-5.3,8.7
	c-0.5,3.5,0.3,7.1,2.4,10c2.1,2.9,5.2,4.8,8.7,5.4c3.1,0.5,6.2-0.1,8.9-1.7l4.6,6.3l2.2-11.2l7.9-5.7c2.9-2.1,4.8-5.2,5.3-8.7
	c0.5-3.5-0.3-7.1-2.4-10C84.5,497,81.4,495.2,77.8,494.6z M82.2,516.7l-8.7,6.3l-1.3,6.6l-2.7-3.8l-1,0.7
	c-4.8,3.6-11.7,2.5-15.3-2.4c-3.6-4.9-2.5-11.7,2.4-15.3l13.6-9.9c4.8-3.6,11.7-2.5,15.3,2.4S87.1,513.1,82.2,516.7z M59.8,516.8
	c-1.1,0.8-1.4,2.3-0.5,3.4c0.8,1.1,2.3,1.4,3.4,0.5c1.1-0.8,1.4-2.3,0.5-3.4C62.4,516.2,60.9,516,59.8,516.8z M75.5,505.3
	c-1.1,0.8-1.4,2.3-0.5,3.4c0.8,1.1,2.3,1.4,3.4,0.5c1.1-0.8,1.4-2.3,0.5-3.4C78.2,504.7,76.6,504.5,75.5,505.3z M67.7,511
	c-1.1,0.8-1.4,2.3-0.5,3.4c0.8,1.1,2.3,1.4,3.4,0.5s1.4-2.3,0.5-3.4C70.2,510.5,68.8,510.2,67.7,511z M41,167.2
	c-2.4,0-4.8,1-6.8,2.9c-1.8,1.7-2.8,4-2.9,6.7c-3.7-1-6.9-0.2-9.7,2.5c-2,1.9-2.9,4.2-2.8,6.7c0.1,2,0.7,3.8,1.6,5.3
	c1,1.5,2.4,2.7,4.2,3.7c1.1,0.6,3,1.4,6.6,1.8c4,0.4,8.4,0.2,13.2-0.6c0.3,0,0.5-0.1,0.7-0.3c0.3-0.2,0.4-0.5,0.6-0.6
	c1.9-3.5,3.2-7,4.2-10.5c0.7-2.6,1-4.8,0.9-7c0-3.1-1.1-5.6-3-7.6C45.9,168.3,43.5,167.3,41,167.2z M48.3,177.9
	c0.1,1.9-0.2,3.9-0.9,6.2c-0.8,3.2-2.1,6.4-3.8,9.6c-4.4,0.7-8.4,0.9-12.1,0.5c-2.4-0.2-4.2-0.7-5.6-1.5c-2.8-1.4-4.3-3.7-4.4-6.8
	c-0.1-1.8,0.6-3.4,2-4.7c0.3-0.3,0.6-0.6,1-0.8c1-0.7,1.9-1.1,3-1.3c1.4-0.2,2.9,0,4.5,0.6c0.1,0,0.1,0.1,0.1,0.1l1.9,0.8l-0.1-1.9
	c0-0.1,0-0.3,0-0.5c0-0.3,0-0.6,0-0.9c0.1-2.2,0.8-3.9,2.2-5.2c1.5-1.4,3.2-2.1,5-2.1c1.8,0,3.5,0.7,4.9,2.2
	C47.4,173.5,48.2,175.5,48.3,177.9z M36.6,308.2c1.1,0.6,3,1.4,6.6,1.8c4,0.4,8.4,0.2,13.2-0.6c0.3,0,0.5-0.1,0.7-0.3
	c0.3-0.2,0.4-0.5,0.6-0.6c1.9-3.5,3.2-7,4.2-10.5c0.7-2.6,1-4.8,0.9-7c0-3.1-1.1-5.6-3-7.6c-1.9-1.9-4.3-3-6.7-3
	c-2.4,0-4.8,1-6.8,2.9c-1.8,1.7-2.8,4-2.9,6.7c-3.7-1-6.9-0.2-9.7,2.5c-2,1.9-2.9,4.2-2.8,6.7c0.1,2,0.7,3.8,1.6,5.3
	C33.4,306,34.8,307.2,36.6,308.2z M33.3,299c-0.1-1.8,0.6-3.4,2-4.7c0.3-0.3,0.6-0.6,1-0.8c1-0.7,1.9-1.1,3-1.3
	c1.4-0.2,2.9,0,4.5,0.6c0.1,0,0.1,0.1,0.1,0.1l1.9,0.8l-0.1-1.9c0-0.1,0-0.3,0-0.5c0-0.3,0-0.6,0-0.9c0.1-2.2,0.8-3.9,2.2-5.2
	c1.5-1.4,3.2-2.1,5-2.1c1.8,0,3.5,0.7,4.9,2.2c1.5,1.5,2.2,3.5,2.4,5.9c0.1,1.9-0.2,3.9-0.9,6.2c-0.8,3.2-2.1,6.4-3.8,9.6
	c-4.4,0.7-8.4,0.9-12.1,0.5c-2.4-0.2-4.2-0.7-5.6-1.5C34.9,304.4,33.5,302.1,33.3,299z M31.1,119.4c-0.4,0.3-0.7,0.5-1,0.7
	c-2.6-1.7-5.8-2.5-8.9-2.1c-3.4,0.4-6.5,2.1-8.6,4.7c-2.3,2.8-3.4,6.1-3.1,9.7c-0.7,0.4-1.2,0.9-1.8,1.4c-3.5,3.6-4.1,9.2-1.4,13.4
	c1.2,1.9,2.9,3.3,5,4.1c2,0.8,4.3,1,6.4,0.5c0.7-0.1,1.6-0.4,2.5-1c3.7-2.7,7.4-5.4,11.1-8.1c3.8-2.8,7.6-5.5,11.5-8.4
	c0.3-0.2,0.4-0.3,0.6-0.5c1.7-2,2.6-4.7,2.3-7.4s-1.7-5.2-3.9-6.8C38.6,117.6,34.4,117.4,31.1,119.4z M41.4,132.3
	c0,0-0.1,0.1-0.1,0.2c-7.6,5.5-15.1,11-22.6,16.5c-0.4,0.3-0.9,0.4-1.5,0.6c-1.6,0.4-3.4,0.3-4.9-0.4c-1.6-0.6-2.9-1.7-3.8-3.2
	c-2.1-3.2-1.6-7.5,1-10.2c0.3-0.3,0.6-0.6,1-0.9c0.3-0.2,0.5-0.3,0.7-0.5c0.6-0.3,0.9-0.9,0.8-1.5c-0.3-3.2,0.5-6,2.5-8.5
	c1.7-2.1,4.2-3.4,7-3.8c2.7-0.4,5.5,0.4,7.7,2c0.1,0.1,0.2,0.1,0.2,0.1l0.8,0.5l0.7-0.5c0.2-0.2,0.4-0.3,0.6-0.4
	c0.3-0.2,0.7-0.5,1-0.7c2.4-1.5,5.6-1.4,7.9,0.4c1.6,1.2,2.7,3,2.9,5C43.3,128.9,42.8,130.8,41.4,132.3z M68.2,392.7
	c-0.4,0.3-0.7,0.5-1,0.7c-2.6-1.7-5.8-2.5-8.9-2.1c-3.4,0.4-6.5,2.1-8.6,4.7c-2.3,2.8-3.4,6.1-3.1,9.7c-0.7,0.4-1.2,0.9-1.8,1.4
	c-3.5,3.6-4.1,9.2-1.4,13.4c1.2,1.9,2.9,3.3,5,4.1c2,0.8,4.3,1,6.4,0.5c0.7-0.1,1.6-0.4,2.5-1c3.7-2.7,7.4-5.4,11.1-8.1
	c3.8-2.8,7.6-5.5,11.5-8.4c0.3-0.2,0.4-0.3,0.6-0.5c1.7-2,2.6-4.7,2.3-7.4c-0.3-2.7-1.7-5.2-3.9-6.8
	C75.7,390.9,71.5,390.7,68.2,392.7z M78.6,405.6c0,0-0.1,0.1-0.1,0.2c-7.6,5.5-15.1,11-22.6,16.5c-0.4,0.3-0.9,0.4-1.5,0.6
	c-1.6,0.4-3.4,0.3-4.9-0.4c-1.6-0.6-2.9-1.7-3.8-3.2c-2.1-3.2-1.6-7.5,1-10.2c0.3-0.3,0.6-0.6,1-0.9c0.3-0.2,0.5-0.3,0.7-0.5
	c0.6-0.3,0.9-0.9,0.8-1.5c-0.3-3.2,0.5-6,2.5-8.5c1.7-2.1,4.2-3.4,7-3.8c2.7-0.4,5.5,0.4,7.7,2c0.1,0.1,0.2,0.1,0.2,0.1l0.8,0.5
	l0.7-0.5c0.2-0.2,0.4-0.3,0.6-0.4c0.3-0.2,0.7-0.5,1-0.7c2.4-1.5,5.6-1.4,7.9,0.4c1.6,1.2,2.7,3,2.9,5
	C80.5,402.2,79.9,404.1,78.6,405.6z M68.7,580.5c1.1,0.6,3,1.4,6.6,1.8c4,0.4,8.4,0.2,13.2-0.6c0.3,0,0.5-0.1,0.7-0.3
	c0.3-0.2,0.4-0.5,0.6-0.6c1.9-3.5,3.2-7,4.2-10.5c0.7-2.6,1-4.8,0.9-7c0-3.1-1.1-5.6-3-7.6c-1.9-1.9-4.3-3-6.7-3
	c-2.4,0-4.8,1-6.8,2.9c-1.8,1.7-2.8,4-2.9,6.7c-3.7-1-6.9-0.2-9.7,2.5c-2,1.9-2.9,4.2-2.8,6.7c0.1,2,0.7,3.8,1.6,5.3
	C65.4,578.4,66.8,579.6,68.7,580.5z M65.4,571.4c-0.1-1.8,0.6-3.4,2-4.7c0.3-0.3,0.6-0.6,1-0.8c1-0.7,1.9-1.1,3-1.3
	c1.4-0.2,2.9,0,4.5,0.6c0.1,0,0.1,0.1,0.1,0.1l1.9,0.8l-0.1-1.9c0-0.1,0-0.3,0-0.5c0-0.3,0-0.6,0-0.9c0.1-2.2,0.8-3.9,2.2-5.2
	c1.5-1.4,3.2-2.1,5-2.1s3.5,0.7,4.9,2.2c1.5,1.5,2.2,3.5,2.4,5.9c0.1,1.9-0.2,3.9-0.9,6.2c-0.8,3.2-2.1,6.4-3.8,9.6
	c-4.4,0.7-8.4,0.9-12.1,0.5c-2.4-0.2-4.2-0.7-5.6-1.5C66.9,576.8,65.5,574.5,65.4,571.4z M85.8,637.7c4.5,0.7,9.1-0.4,12.8-3.1
	c3.7-2.7,6.2-6.7,6.9-11.3c0.7-4.5-0.4-9.2-3.1-12.9c-2.7-3.8-6.7-6.2-11.3-6.9c-4.5-0.7-9.1,0.4-12.8,3.1
	c-3.7,2.7-6.2,6.7-6.9,11.3c-0.7,4.5,0.4,9.2,3.1,12.9C77.2,634.5,81.2,637,85.8,637.7z M73.9,618.3c0.6-3.9,2.7-7.3,5.9-9.6
	c3.2-2.3,7-3.2,10.9-2.6c3.9,0.6,7.3,2.7,9.6,5.9c2.3,3.2,3.2,7.1,2.6,11c-0.6,3.9-2.7,7.3-5.9,9.6c-3.2,2.3-7,3.2-10.9,2.6
	c-3.9-0.6-7.3-2.7-9.6-5.9C74.2,626.1,73.3,622.2,73.9,618.3z M96.5,614.7l-17.6,1.8L89.3,631L96.5,614.7z M92.3,617.7l-3.6,8.1
	l-5.2-7.2L92.3,617.7z M493.4,593c4.5,0.7,9.1-0.4,12.8-3.1c3.7-2.7,6.2-6.7,6.9-11.3c0.7-4.5-0.4-9.2-3.1-12.9
	c-2.7-3.8-6.7-6.2-11.3-6.9c-4.5-0.7-9.1,0.4-12.8,3.1c-3.7,2.7-6.2,6.7-6.9,11.3c-0.7,4.5,0.4,9.2,3.1,12.9
	C484.8,589.8,488.8,592.2,493.4,593z M481.5,573.6c0.6-3.9,2.7-7.3,5.9-9.6c3.2-2.3,7-3.2,10.9-2.6c3.9,0.6,7.3,2.7,9.6,5.9
	c2.3,3.2,3.2,7.1,2.6,11c-0.6,3.9-2.7,7.3-5.9,9.6c-3.2,2.3-7,3.2-10.9,2.6c-3.9-0.6-7.3-2.7-9.6-5.9S480.9,577.5,481.5,573.6z
	 M493.2,585.9l2.5,0.4l1.4-8.9l8.9,1.4l0.4-2.6l-8.9-1.4l1.4-8.9l-2.5-0.4l-1.4,8.9l-8.9-1.4l-0.4,2.6l8.9,1.4L493.2,585.9z
	 M139.7,623.1l2.5,0.4l1.4-8.9l8.9,1.4l0.4-2.6l-8.9-1.4l1.4-8.9l-2.5-0.4l-1.4,8.9l-9-1.4l-0.4,2.6l8.9,1.4L139.7,623.1z
	 M139.9,630.1c4.5,0.7,9.1-0.4,12.8-3.1c3.7-2.7,6.2-6.7,6.9-11.3c0.7-4.5-0.4-9.2-3.1-12.9c-2.7-3.8-6.7-6.2-11.3-6.9
	c-4.5-0.7-9.1,0.4-12.8,3.1c-3.7,2.7-6.2,6.7-6.9,11.3c-0.6,4.5,0.4,9.1,3.2,12.8C131.4,627,135.4,629.4,139.9,630.1z M128.1,610.7
	c0.6-3.9,2.7-7.3,5.9-9.6c3.2-2.3,7-3.2,10.9-2.6c3.9,0.6,7.3,2.7,9.6,5.9c2.3,3.2,3.2,7.1,2.6,11c-0.6,3.9-2.7,7.3-5.9,9.6
	c-3.2,2.3-7,3.2-10.9,2.6s-7.3-2.7-9.6-5.9C128.4,618.5,127.5,614.6,128.1,610.7z M385.9,608.2l5.6-11.4L404,595l-9.1-8.9l2.2-12.6
	l-11.2,5.9l-11.3-5.9l2.2,12.5l-9.1,8.8l12.6,1.8L385.9,608.2z M379.5,586.9l-1.5-8.8l7.9,4.2l7.9-4.2l-1.5,8.9l6.4,6.3l-8.9,1.3
	l-3.9,8.1l-4-8.1l-8.9-1.3L379.5,586.9z M250.5,601.3c-1.1,0.8-1.4,2.3-0.5,3.4c0.8,1.1,2.3,1.4,3.4,0.5c1.1-0.8,1.4-2.3,0.5-3.4
	C253,600.7,251.6,600.4,250.5,601.3z M268.5,579.1c-3.5-0.5-7.1,0.3-10,2.4l-13.6,9.9c-2.9,2.1-4.8,5.2-5.3,8.7
	c-0.5,3.5,0.3,7.1,2.4,10c2,2.9,5.2,4.8,8.7,5.4c3.1,0.5,6.2-0.1,8.9-1.7l4.6,6.3l2.2-11.2l7.9-5.7c2.9-2.1,4.8-5.2,5.3-8.7
	c0.5-3.5-0.3-7.1-2.4-10C275.2,581.6,272,579.7,268.5,579.1z M272.8,601.2l-8.7,6.3l-1.3,6.6l-2.7-3.8l-1,0.7
	c-4.8,3.6-11.7,2.5-15.3-2.4c-3.6-4.9-2.5-11.7,2.4-15.3l13.6-9.9c4.8-3.6,11.7-2.5,15.3,2.4S277.7,597.6,272.8,601.2z M266.2,589.8
	c-1.1,0.8-1.4,2.3-0.5,3.4s2.3,1.4,3.4,0.5c1.1-0.8,1.4-2.3,0.5-3.4S267.3,589,266.2,589.8z M258.3,595.5c-1.1,0.8-1.4,2.3-0.5,3.4
	c0.8,1.1,2.3,1.4,3.4,0.5c1.1-0.8,1.4-2.3,0.5-3.4C260.9,594.9,259.4,594.7,258.3,595.5z M434.5,587.5l7.6,10.4
	c1.6,2.3,4.7,2.7,7,1.1l10.4-7.6c2.3-1.6,2.7-4.7,1.1-7l-7.6-10.4c-1.4-1.9-4-2.6-6-1.7l-2.4-3.4c-2.4-3.4-7.2-4.1-10.5-1.7
	c-3.4,2.4-4.1,7.2-1.7,10.6l2.1-1.5c-1.6-2.2-1.1-5.4,1.1-7c2.2-1.6,5.4-1.1,7,1.1l2.4,3.2l-9.2,6.8
	C433.4,582.1,432.9,585.3,434.5,587.5z M437.1,582.5l10.4-7.6c1.1-0.8,2.7-0.6,3.5,0.5l7.6,10.4c0.8,1.1,0.6,2.7-0.5,3.5l-10.4,7.6
	c-1.1,0.8-2.7,0.6-3.5-0.5l-7.6-10.4C435.8,584.9,436,583.4,437.1,582.5z M449,588c1.1-0.8,1.3-2.3,0.5-3.4
	c-0.8-1.1-2.3-1.3-3.4-0.5c-1.1,0.7-1.3,2.3-0.5,3.4C446.4,588.5,447.9,588.7,449,588z M191.4,625c2.5,3.4,7.3,4.2,10.7,1.7
	l15.5-11.3c3.4-2.5,4.2-7.3,1.7-10.8L208,589c-2.5-3.4-7.3-4.2-10.7-1.7l-15.5,11.3c-3.4,2.5-4.2,7.3-1.7,10.8L191.4,625z
	 M183.3,600.7l15.5-11.3c2.3-1.6,5.5-1.1,7.1,1.1l11.3,15.5c1.6,2.3,1.1,5.5-1.1,7.2l-15.5,11.3c-2.3,1.6-5.5,1.1-7.1-1.1
	l-11.3-15.5C180.5,605.6,181,602.4,183.3,600.7z M204.6,613.7c3.7-2.7,4.5-7.9,1.8-11.6c-2.7-3.7-7.9-4.5-11.6-1.8
	c-3.7,2.7-4.5,7.9-1.8,11.6C195.7,615.6,200.8,616.4,204.6,613.7z M196.3,602.3c2.6-1.9,6.2-1.3,8.1,1.2c1.9,2.6,1.3,6.2-1.2,8.1
	c-2.5,1.9-6.2,1.3-8.1-1.2C193.2,607.8,193.7,604.2,196.3,602.3z M203,595.2c0.8-0.6,1.1-1.9,0.4-2.7s-1.8-1.1-2.7-0.4
	s-1.1,1.9-0.4,2.7C200.9,595.7,202.1,595.8,203,595.2z M495.1,141.8c3.8,1.4,7.9,0.8,11.2-1.5s5.1-6.1,4.9-10.1l-2.6,0.1
	c0.1,3.1-1.3,6.1-3.9,7.9c-2.5,1.9-5.8,2.3-8.8,1.2L495.1,141.8z M494.4,134.2c1.2-0.8,1.4-2.4,0.6-3.5c-0.8-1.2-2.4-1.4-3.5-0.6
	c-1.2,0.8-1.4,2.4-0.6,3.5C491.7,134.8,493.2,135.1,494.4,134.2z M504,127.3c1.2-0.8,1.4-2.4,0.6-3.5c-0.8-1.2-2.4-1.4-3.5-0.6
	c-1.2,0.8-1.4,2.4-0.6,3.6C501.2,127.9,502.8,128.1,504,127.3z M497.4,148.8c4.5,0.7,9.1-0.4,12.8-3.1c3.7-2.7,6.2-6.7,6.9-11.3
	c0.7-4.5-0.4-9.2-3.1-12.9c-2.7-3.8-6.7-6.2-11.3-6.9c-4.5-0.7-9.1,0.4-12.8,3.1c-3.7,2.7-6.2,6.7-6.9,11.3
	c-0.7,4.5,0.4,9.2,3.1,12.9C488.8,145.6,492.8,148.1,497.4,148.8z M485.6,129.4c0.6-3.9,2.7-7.3,5.9-9.6c3.2-2.3,7-3.2,10.9-2.6
	c3.9,0.6,7.3,2.7,9.6,5.9c2.3,3.2,3.2,7.1,2.6,11s-2.7,7.3-5.9,9.6c-3.2,2.3-7,3.2-10.9,2.6c-3.9-0.6-7.3-2.7-9.6-5.9
	C485.9,137.2,484.9,133.3,485.6,129.4z M515.9,240.4c1.2-0.8,1.4-2.4,0.6-3.5c-0.8-1.2-2.4-1.4-3.5-0.6c-1.2,0.8-1.4,2.4-0.6,3.6
	C513.1,241,514.7,241.2,515.9,240.4z M514.7,227.7c-4.5-0.7-9.1,0.4-12.8,3.1c-3.7,2.7-6.2,6.7-6.9,11.3c-0.7,4.5,0.4,9.2,3.1,12.9
	c2.7,3.8,6.7,6.2,11.3,6.9c4.5,0.7,9.1-0.4,12.8-3.1c3.7-2.7,6.2-6.7,6.9-11.3c0.7-4.5-0.4-9.2-3.1-12.9
	C523.2,230.9,519.2,228.4,514.7,227.7z M526.5,247.1c-0.6,3.9-2.7,7.3-5.9,9.6c-3.2,2.3-7,3.2-10.9,2.6c-3.9-0.6-7.3-2.7-9.6-5.9
	c-2.3-3.2-3.2-7.1-2.6-11s2.7-7.3,5.9-9.6s7-3.2,10.9-2.6c3.9,0.6,7.3,2.7,9.6,5.9C526.2,239.3,527.1,243.2,526.5,247.1z
	 M506.8,243.8c-0.8-1.2-2.4-1.4-3.5-0.6c-1.2,0.8-1.4,2.4-0.6,3.5c0.8,1.2,2.4,1.4,3.6,0.6C507.5,246.5,507.7,244.9,506.8,243.8z
	 M516.7,251.3c-2.5,1.9-5.8,2.3-8.8,1.2l-0.9,2.4c3.8,1.4,7.9,0.8,11.2-1.5c3.2-2.4,5.1-6.1,4.9-10.1l-2.6,0.1
	C520.6,246.5,519.2,249.5,516.7,251.3z M137.4,59.6c1.2-0.8,1.4-2.4,0.6-3.5c-0.8-1.2-2.4-1.4-3.5-0.6c-1.2,0.8-1.4,2.4-0.6,3.6
	C134.7,60.2,136.2,60.5,137.4,59.6z M136.2,46.9c-4.5-0.7-9.1,0.4-12.8,3.1c-3.7,2.7-6.2,6.7-6.9,11.3c-0.7,4.5,0.4,9.2,3.1,12.9
	c2.7,3.8,6.7,6.2,11.3,6.9c4.5,0.7,9.1-0.4,12.8-3.1c3.7-2.7,6.2-6.7,6.9-11.3c0.7-4.5-0.4-9.2-3.1-12.9
	C144.7,50.2,140.7,47.6,136.2,46.9z M148,66.3c-0.6,3.9-2.7,7.3-5.9,9.6c-3.2,2.3-7,3.2-10.9,2.6c-3.9-0.6-7.3-2.7-9.6-5.9
	c-2.3-3.2-3.2-7.1-2.6-11c0.6-3.9,2.7-7.3,5.9-9.6c3.2-2.3,7-3.2,10.9-2.6c3.9,0.6,7.3,2.7,9.6,5.9C147.7,58.6,148.6,62.4,148,66.3z
	 M128.4,63c-0.8-1.2-2.4-1.4-3.5-0.6c-1.2,0.8-1.4,2.4-0.6,3.5c0.8,1.2,2.4,1.4,3.6,0.6C129,65.8,129.2,64.1,128.4,63z M138.2,70.5
	c-2.5,1.9-5.8,2.3-8.8,1.2l-0.9,2.4c3.8,1.4,7.9,0.8,11.2-1.5s5.1-6.1,4.9-10.1l-2.6,0.1C142.1,65.7,140.7,68.7,138.2,70.5z
	 M327.2,41.4c-1,0.6-2.1,1.1-3.2,1.2c-0.3,0.1-0.7,0.3-0.7,0.7l-0.7,2.9c-1.5,0.1-2.9,0-4.2-0.4c-1.1-0.2-2.1-0.6-3-1.1l0.5-2.9
	c0-0.4-0.1-0.7-0.4-0.9c-0.9-0.7-1.8-1.5-2.4-2.4c-0.3-0.5-0.9-0.5-1.3-0.2l-2.7,2c-0.5,0.3-0.5,0.9-0.2,1.3
	c2.7,3.7,6.7,5.9,10.9,6.5c3.5,0.5,7.1-0.2,10.3-2.1c0.5-0.3,0.6-0.8,0.4-1.3l-1.7-2.9C328.2,41.2,327.6,41.1,327.2,41.4z
	 M322.2,26.3c-4.4-0.7-8.9,0.4-12.5,3s-6,6.5-6.7,11c-0.7,4.4,0.4,8.9,3,12.5c1.6,2.2,3.8,4,6.2,5.2c0.8,2.1,1.2,3.2,1.9,5.4
	c0.2,0.6,0.4,1.4,0.7,2.2l0.7,2.2l1.4-1.8c3.1-4,3.7-4.8,4.8-6.4c2.7-0.4,5.3-1.4,7.5-3c3.6-2.6,6-6.5,6.7-11
	c0.7-4.4-0.4-8.9-3-12.5C330.4,29.4,326.6,27,322.2,26.3z M333.6,45.1c-0.6,3.8-2.6,7.1-5.7,9.3c-2,1.5-4.4,2.4-6.9,2.7l-0.6,0.1
	l-0.4,0.5c-1.2,1.6-1.6,2.3-3.7,4.9c-0.8-2.4-1.1-3.5-2.1-6l-0.2-0.5l-0.4-0.2c-2.3-1-4.2-2.6-5.7-4.6c-2.3-3.1-3.2-6.9-2.6-10.6
	c0.6-3.8,2.6-7.1,5.7-9.3c3.1-2.3,6.8-3.2,10.6-2.6c3.7,0.6,7.1,2.6,9.3,5.7C333.3,37.5,334.2,41.3,333.6,45.1z M74.4,93.8L80,82.4
	l12.5-1.8l-9.1-8.9l2.2-12.6l-11.2,5.9l-11.3-5.9l2.2,12.5l-9.1,8.8l12.6,1.8L74.4,93.8z M68,72.5l-1.5-8.8l7.9,4.2l7.9-4.2
	l-1.5,8.9l6.4,6.3l-8.9,1.3l-3.9,8.1l-4-8.1l-8.9-1.3L68,72.5z M247.8,59.8c1.1,0.6,3,1.4,6.6,1.8c4,0.4,8.4,0.2,13.2-0.6
	c0.3,0,0.5-0.1,0.7-0.3c0.3-0.2,0.4-0.5,0.6-0.6c1.9-3.5,3.2-7,4.2-10.5c0.7-2.6,1-4.8,0.9-7c0-3.1-1.1-5.6-3-7.6
	c-1.9-1.9-4.3-3-6.7-3c-2.4,0-4.8,1-6.8,2.9c-1.8,1.7-2.8,4-2.9,6.7c-3.7-1-6.9-0.2-9.7,2.5c-2,1.9-2.9,4.2-2.8,6.7
	c0.1,2,0.7,3.8,1.6,5.3C244.6,57.7,246,58.9,247.8,59.8z M244.6,50.7c-0.1-1.8,0.6-3.4,2-4.7c0.3-0.3,0.6-0.6,1-0.8
	c1-0.7,1.9-1.1,3-1.3c1.4-0.2,2.9,0,4.5,0.6c0.1,0,0.1,0.1,0.1,0.1l1.9,0.8l-0.1-1.9c0-0.1,0-0.3,0-0.5c0-0.3,0-0.6,0-0.9
	c0.1-2.2,0.8-3.9,2.2-5.2c1.5-1.4,3.2-2.1,5-2.1c1.8,0,3.5,0.7,4.9,2.2c1.5,1.5,2.2,3.5,2.4,5.9c0.1,1.9-0.2,3.9-0.9,6.2
	c-0.8,3.2-2.1,6.4-3.8,9.6c-4.4,0.7-8.4,0.9-12.1,0.5c-2.4-0.2-4.2-0.7-5.6-1.5C246.1,56,244.7,53.8,244.6,50.7z M207.8,42.9
	c-2.5-3.4-7.3-4.2-10.7-1.7l-15.6,11.3c-3.4,2.5-4.2,7.3-1.7,10.8l6.4,8.9c2.5,3.4,7.3,4.2,10.7,1.7l15.6-11.3
	c3.4-2.5,4.2-7.3,1.7-10.8L207.8,42.9z M183,54.5l15.6-11.3c0.7-0.6,1.6-0.9,2.4-0.9l-4.9,14l-14.7,0.4
	C181.8,55.8,182.3,55.1,183,54.5z M211,60.4l-15.6,11.3c-2.3,1.6-5.5,1.1-7.1-1.1l-6.4-8.9c-0.6-0.8-0.9-1.7-1-2.6l17-0.4l5.6-16.1
	c0.8,0.3,1.6,1,2.1,1.7l6.4,8.9C213.8,55.6,213.3,58.7,211,60.4z M386.5,35.7l2.5,0.6l0.9-3.4c2.3,5.5,0.6,12.1-4.4,15.7
	c-5.8,4.2-14,2.9-18.2-2.9c-4.2-5.8-2.9-14.1,2.9-18.3l-1.5-2.1c-3.4,2.4-5.6,6.1-6.3,10.3c-0.7,4.1,0.3,8.3,2.8,11.7
	c2.4,3.4,6.1,5.6,10.3,6.3c4.1,0.7,8.2-0.3,11.7-2.8c3.4-2.4,5.6-6.1,6.3-10.3c0.5-2.8,0.1-5.6-0.9-8.2l2.8,1.2l1.1-2.3l-7.7-3.4
	L386.5,35.7z M427.7,45.5c4.6,0.7,9.1-0.4,12.9-3.1c3.7-2.7,6.2-6.7,6.9-11.3s-0.4-9.2-3.1-12.9c-2.7-3.8-6.7-6.2-11.3-6.9
	c-4.6-0.7-9.1,0.4-12.9,3.1c-3.7,2.7-6.2,6.7-6.9,11.3c-0.7,4.6,0.4,9.2,3.1,12.9C419.2,42.4,423.2,44.8,427.7,45.5z M419.3,38.1
	l3-2.2c1.1,1.3,2.4,2.5,3.8,3.5l-2.7,2C421.9,40.6,420.5,39.5,419.3,38.1z M432.2,28.7l6.3-4.6c0.9,1.5,1.6,3.2,2,4.9l-5.4,3.9
	L432.2,28.7z M433.1,34.4l-4.8,3.4c-1.5-0.9-2.9-2.1-4-3.4l5.7-4.2L433.1,34.4z M430.7,26.7l-3-4.1l5.4-3.9c1.5,0.9,2.9,2.1,4,3.4
	L430.7,26.7z M428.6,28.1l-5.7,4.2c-0.9-1.5-1.6-3.2-2-4.9l4.8-3.4L428.6,28.1z M431,39.1l3.6-2.7l2.7,3.7
	C435.2,40.3,433,39.9,431,39.1z M439.7,39l-3-4.1l4.3-3.1C441,34.4,440.6,36.8,439.7,39z M445,30.7c-0.3,1.7-0.8,3.4-1.6,4.8
	c0.2-1.3,0.3-2.7,0.2-4.1c0-0.4-0.1-0.9-0.1-1.3l1.8-1.3C445.1,29.5,445,30.1,445,30.7z M444.9,25.8l-2.1,1.5
	c-0.5-1.7-1.2-3.3-2.2-4.8l2.4-1.8C444,22.4,444.6,24.1,444.9,25.8z M437.4,15.4c1.5,0.8,3,2,4.2,3.3l-2.4,1.8
	c-1.1-1.3-2.4-2.5-3.8-3.5L437.4,15.4z M432.7,13.8c0.6,0.1,1.3,0.2,1.9,0.4l-1.8,1.3c-0.4-0.2-0.8-0.4-1.2-0.6
	c-1.3-0.5-2.6-0.9-4-1.1C429.3,13.6,431,13.6,432.7,13.8z M430.4,17.3l-4.3,3.1l-3-4.1C425.6,16.1,428.1,16.5,430.4,17.3z
	 M421.4,18.2l2.7,3.7l-3.6,2.7C420.3,22.4,420.7,20.3,421.4,18.2z M415.9,26.1c0.3-2.2,1.2-4.2,2.4-6c-0.3,1.6-0.4,3.3-0.3,4.8
	c0,0.4,0.1,0.9,0.1,1.3l-2.4,1.7C415.7,27.4,415.8,26.8,415.9,26.1z M418.7,29c0.5,1.7,1.2,3.3,2.2,4.8l-3,2.2
	c-0.9-1.6-1.6-3.2-1.8-5L418.7,29z M5.7,96.6c1.1,0.6,3,1.4,6.6,1.8c4,0.4,8.4,0.2,13.2-0.6c0.3,0,0.5-0.1,0.7-0.3
	c0.3-0.2,0.4-0.5,0.6-0.6c1.9-3.5,3.2-7,4.2-10.5c0.7-2.6,1-4.8,0.9-7c0-3.1-1.1-5.6-3-7.6c-1.9-1.9-4.3-3-6.7-3
	c-2.4,0-4.8,1-6.8,2.9c-1.8,1.7-2.8,4-2.9,6.7c-3.7-1-6.9-0.2-9.7,2.5c-2,1.9-2.9,4.2-2.8,6.7c0.1,2,0.7,3.8,1.6,5.3
	C2.5,94.5,3.9,95.7,5.7,96.6z M2.5,87.5c-0.1-1.8,0.6-3.4,2-4.7c0.3-0.3,0.6-0.6,1-0.8c1-0.7,1.9-1.1,3-1.3c1.4-0.2,2.9,0,4.5,0.6
	c0.1,0,0.1,0.1,0.1,0.1l1.9,0.8l-0.1-1.9c0-0.1,0-0.3,0-0.5c0-0.3,0-0.6,0-0.9c0.1-2.2,0.8-3.9,2.2-5.2c1.5-1.4,3.2-2.1,5-2.1
	c1.8,0,3.5,0.7,4.9,2.2c1.5,1.5,2.2,3.5,2.4,5.9c0.1,1.9-0.2,3.9-0.9,6.2c-0.8,3.2-2.1,6.4-3.8,9.6c-4.4,0.7-8.4,0.9-12.1,0.5
	c-2.4-0.2-4.2-0.7-5.6-1.5C4,92.9,2.6,90.6,2.5,87.5z M489,12.9c1.2-0.8,1.4-2.4,0.6-3.5c-0.8-1.2-2.4-1.4-3.5-0.6
	c-1.2,0.8-1.4,2.4-0.6,3.6C486.3,13.5,487.9,13.7,489,12.9z M487.8,0.2c-4.5-0.7-9.1,0.4-12.8,3.1c-3.7,2.7-6.2,6.7-6.9,11.3
	c-0.7,4.5,0.4,9.2,3.1,12.9c2.7,3.8,6.7,6.2,11.3,6.9c4.5,0.7,9.1-0.4,12.8-3.1c3.7-2.7,6.2-6.7,6.9-11.3c0.7-4.5-0.4-9.2-3.1-12.9
	C496.4,3.4,492.3,0.9,487.8,0.2z M499.7,19.6c-0.6,3.9-2.7,7.3-5.9,9.6c-3.2,2.3-7,3.2-10.9,2.6c-3.9-0.6-7.3-2.7-9.6-5.9
	c-2.3-3.2-3.2-7.1-2.6-11s2.7-7.3,5.9-9.6c3.2-2.3,7-3.2,10.9-2.6c3.9,0.6,7.3,2.7,9.6,5.9S500.2,15.7,499.7,19.6z M480,16.3
	c-0.8-1.2-2.4-1.4-3.5-0.6c-1.2,0.8-1.4,2.4-0.6,3.5c0.8,1.2,2.4,1.4,3.6,0.6C480.6,19,480.9,17.4,480,16.3z M489.8,23.8
	c-2.5,1.9-5.8,2.3-8.8,1.2l-0.9,2.4c3.8,1.4,7.9,0.8,11.2-1.5s5.1-6.1,4.9-10.1l-2.6,0.1C493.8,19,492.3,22,489.8,23.8z
	 M516.3,414.9c1.1,0.6,3,1.4,6.6,1.8c4,0.4,8.4,0.2,13.2-0.6c0.3,0,0.5-0.1,0.7-0.3c0.3-0.2,0.4-0.5,0.6-0.6c1.9-3.5,3.2-7,4.2-10.5
	c0.7-2.6,1-4.8,0.9-7c0-3.1-1.1-5.6-3-7.6c-1.9-1.9-4.3-3-6.7-3c-2.4,0-4.8,1-6.8,2.9c-1.8,1.7-2.8,4-2.9,6.7
	c-3.7-1-6.9-0.2-9.7,2.5c-2,1.9-2.9,4.2-2.8,6.7c0.1,2,0.7,3.8,1.6,5.3C513.1,412.7,514.5,413.9,516.3,414.9z M513.1,405.7
	c-0.1-1.8,0.6-3.4,2-4.7c0.3-0.3,0.6-0.6,1-0.8c1-0.7,1.9-1.1,3-1.3c1.4-0.2,2.9,0,4.5,0.6c0.1,0,0.1,0.1,0.1,0.1l1.9,0.8l-0.1-1.9
	c0-0.1,0-0.3,0-0.5c0-0.3,0-0.6,0-0.9c0.1-2.2,0.8-3.9,2.2-5.2c1.5-1.4,3.2-2.1,5-2.1c1.8,0,3.5,0.7,4.9,2.2
	c1.5,1.5,2.2,3.5,2.4,5.9c0.1,1.9-0.2,3.9-0.9,6.2c-0.8,3.2-2.1,6.4-3.8,9.6c-4.4,0.7-8.4,0.9-12.1,0.5c-2.4-0.2-4.2-0.7-5.6-1.5
	C514.6,411.1,513.2,408.8,513.1,405.7z M480.6,72.4c-0.5,3.2,0.6,6.5,3,8.7l1.8-1.9c-1.8-1.6-2.6-4.1-2.2-6.4
	c0.4-2.4,1.9-4.5,4.1-5.5l-1.1-2.3C483.2,66.4,481.2,69.1,480.6,72.4z M513.2,73.4l-9.9-1.5c-0.3-2.3-1.2-4.5-2.5-6.4
	c-2.2-3-5.4-5-9.1-5.6c-3.7-0.6-7.3,0.3-10.4,2.5c-3,2.2-5,5.4-5.6,9.2c-0.6,3.7,0.3,7.4,2.5,10.4s5.4,5,9.1,5.6
	c3.7,0.6,7.3-0.3,10.4-2.5c1.9-1.4,3.4-3.2,4.4-5.3l9.9,1.5c1.1,0.2,2.1-0.1,3-0.7c0.8-0.6,1.4-1.5,1.6-2.6
	C516.8,75.8,515.3,73.7,513.2,73.4z M496.1,82.9c-5.1,3.7-12.2,2.5-15.9-2.5c-3.7-5.1-2.5-12.3,2.5-16c5.1-3.7,12.2-2.5,15.9,2.5
	S501.2,79.3,496.1,82.9z M514,77.6c-0.1,0.8-0.9,1.3-1.7,1.2l-9.4-1.5c0.1-0.5,0.2-0.9,0.3-1.4c0.1-0.5,0.1-1,0.1-1.5l9.4,1.5
	C513.5,76.1,514.1,76.8,514,77.6z M509.8,349.6c-0.5,3.2,0.6,6.5,3,8.7l1.8-1.9c-1.8-1.6-2.6-4.1-2.2-6.4c0.4-2.4,1.9-4.5,4.1-5.5
	l-1.1-2.3C512.4,343.7,510.3,346.4,509.8,349.6z M542.3,350.7l-9.9-1.5c-0.3-2.3-1.2-4.5-2.5-6.4c-2.2-3-5.4-5-9.1-5.6
	c-3.7-0.6-7.3,0.3-10.4,2.5s-5,5.4-5.6,9.2c-0.6,3.7,0.3,7.4,2.5,10.4c2.2,3,5.4,5,9.1,5.6c3.7,0.6,7.3-0.3,10.4-2.5
	c1.9-1.4,3.4-3.2,4.4-5.3l9.9,1.5c1.1,0.2,2.1-0.1,3-0.7c0.8-0.6,1.4-1.5,1.6-2.6C546,353.1,544.4,351,542.3,350.7z M525.3,360.2
	c-5.1,3.7-12.2,2.5-15.9-2.5c-3.7-5.1-2.5-12.3,2.5-16c5.1-3.7,12.2-2.5,15.9,2.5S530.4,356.5,525.3,360.2z M546.9,506.8
	c1.2-0.8,1.4-2.4,0.6-3.5c-0.8-1.2-2.4-1.4-3.5-0.6c-1.2,0.8-1.4,2.4-0.6,3.6C544.2,507.4,545.8,507.6,546.9,506.8z M545.7,494.1
	c-4.5-0.7-9.1,0.4-12.8,3.1c-3.7,2.7-6.2,6.7-6.9,11.3c-0.7,4.5,0.4,9.2,3.1,12.9c2.7,3.8,6.7,6.2,11.3,6.9
	c4.5,0.7,9.1-0.4,12.8-3.1c3.7-2.7,6.2-6.7,6.9-11.3c0.7-4.5-0.4-9.2-3.1-12.9C554.3,497.3,550.3,494.8,545.7,494.1z M557.6,513.5
	c-0.6,3.9-2.7,7.3-5.9,9.6c-3.2,2.3-7,3.2-10.9,2.6c-3.9-0.6-7.3-2.7-9.6-5.9c-2.3-3.2-3.2-7.1-2.6-11c0.6-3.9,2.7-7.3,5.9-9.6
	s7-3.2,10.9-2.6s7.3,2.7,9.6,5.9C557.2,505.7,558.1,509.6,557.6,513.5z M537.9,510.2c-0.8-1.2-2.4-1.4-3.5-0.6
	c-1.2,0.8-1.4,2.4-0.6,3.5c0.8,1.2,2.4,1.4,3.6,0.6S538.8,511.3,537.9,510.2z M547.7,517.7c-2.5,1.9-5.8,2.3-8.8,1.2l-0.9,2.4
	c3.8,1.4,7.9,0.8,11.2-1.5c3.2-2.4,5.1-6.1,4.9-10.1l-2.6,0.1C551.7,512.9,550.2,515.9,547.7,517.7z M510.7,193.6
	c3.7-2.7,4.5-7.9,1.8-11.6s-7.9-4.5-11.6-1.8s-4.5,7.9-1.8,11.6S507,196.3,510.7,193.6z M502.4,182.2c2.6-1.9,6.2-1.3,8.1,1.2
	c1.9,2.6,1.3,6.2-1.2,8.1c-2.5,1.9-6.2,1.3-8.1-1.2C499.3,187.7,499.9,184.1,502.4,182.2z M509.1,175.1c0.8-0.6,1.1-1.9,0.4-2.7
	c-0.6-0.8-1.8-1.1-2.7-0.4c-0.8,0.6-1.1,1.9-0.4,2.7C507.1,175.5,508.3,175.7,509.1,175.1z M497.5,204.8c2.5,3.4,7.3,4.2,10.7,1.7
	l15.5-11.3c3.4-2.5,4.2-7.3,1.7-10.8l-11.3-15.5c-2.5-3.4-7.3-4.2-10.7-1.7l-15.5,11.3c-3.4,2.5-4.2,7.3-1.7,10.8L497.5,204.8z
	 M489.4,180.6l15.5-11.3c2.3-1.6,5.5-1.1,7.1,1.1l11.3,15.5c1.6,2.3,1.1,5.5-1.1,7.2l-15.5,11.3c-2.3,1.6-5.5,1.1-7.1-1.1
	l-11.3-15.5C486.7,185.5,487.2,182.3,489.4,180.6z M542.5,438.6c-2.5-3.4-7.3-4.2-10.7-1.7l-15.5,11.3c-3.4,2.5-4.2,7.3-1.7,10.8
	l11.3,15.5c2.5,3.4,7.3,4.2,10.7,1.7l15.5-11.3c3.4-2.5,4.2-7.3,1.7-10.8L542.5,438.6z M550.6,462.9l-15.5,11.3
	c-2.3,1.6-5.5,1.1-7.1-1.1l-11.3-15.5c-1.6-2.3-1.1-5.5,1.1-7.2l15.5-11.3c2.3-1.6,5.5-1.1,7.1,1.1l11.3,15.5
	C553.3,458,552.8,461.2,550.6,462.9z M537.5,444.8c0.8-0.6,1.1-1.9,0.4-2.7c-0.6-0.8-1.8-1.1-2.7-0.4c-0.8,0.6-1.1,1.9-0.4,2.7
	C535.4,445.2,536.6,445.4,537.5,444.8z M529.3,449.8c-3.7,2.7-4.5,7.9-1.8,11.6c2.7,3.7,7.9,4.5,11.6,1.8c3.7-2.7,4.5-7.9,1.8-11.6
	C538.2,448,533,447.1,529.3,449.8z M537.5,461.2c-2.6,1.9-6.2,1.3-8.1-1.2c-1.9-2.6-1.3-6.2,1.2-8.1c2.6-1.9,6.2-1.3,8.1,1.2
	C540.7,455.7,540.1,459.4,537.5,461.2z M509.4,318c2.5,3.4,7.3,4.2,10.7,1.7l15.5-11.3c3.4-2.5,4.2-7.3,1.7-10.8L526.1,282
	c-2.5-3.4-7.3-4.2-10.7-1.7l-15.5,11.3c-3.4,2.5-4.2,7.3-1.7,10.8L509.4,318z M501.3,293.7l15.5-11.3c2.3-1.6,5.5-1.1,7.1,1.1
	l11.3,15.5c1.6,2.3,1.1,5.5-1.1,7.2l-15.5,11.3c-2.3,1.6-5.5,1.1-7.1-1.1l-11.3-15.5C498.5,298.6,499,295.4,501.3,293.7z
	 M522.6,306.7c3.7-2.7,4.5-7.9,1.8-11.6s-7.9-4.5-11.6-1.8c-3.7,2.7-4.5,7.9-1.8,11.6C513.7,308.6,518.9,309.4,522.6,306.7z
	 M514.3,295.3c2.6-1.9,6.2-1.3,8.1,1.2c1.9,2.6,1.3,6.2-1.2,8.1s-6.2,1.3-8.1-1.2C511.2,300.8,511.7,297.2,514.3,295.3z M521,288.2
	c0.8-0.6,1.1-1.9,0.4-2.7c-0.6-0.8-1.8-1.1-2.7-0.4c-0.8,0.6-1.1,1.9-0.4,2.7C519,288.6,520.2,288.8,521,288.2z M542,579.2
	c2.5,3.4,7.3,4.2,10.7,1.7l15.5-11.3c3.4-2.5,4.2-7.3,1.7-10.8l-11.3-15.5c-2.5-3.4-7.3-4.2-10.7-1.7l-15.5,11.3
	c-3.4,2.5-4.2,7.3-1.7,10.8L542,579.2z M533.9,555l15.5-11.3c2.3-1.6,5.5-1.1,7.1,1.1l11.3,15.5c1.6,2.3,1.1,5.5-1.1,7.2l-15.5,11.3
	c-2.3,1.6-5.5,1.1-7.1-1.1l-11.3-15.5C531.1,559.9,531.6,556.7,533.9,555z M555.2,568c3.7-2.7,4.5-7.9,1.8-11.6
	c-2.7-3.7-7.9-4.5-11.6-1.8c-3.7,2.7-4.5,7.9-1.8,11.6C546.3,569.9,551.5,570.7,555.2,568z M546.9,556.6c2.6-1.9,6.2-1.3,8.1,1.2
	c1.9,2.6,1.3,6.2-1.2,8.1c-2.5,1.9-6.2,1.3-8.1-1.2C543.8,562.1,544.3,558.5,546.9,556.6z M553.6,549.5c0.8-0.6,1.1-1.9,0.4-2.7
	c-0.6-0.8-1.8-1.1-2.7-0.4s-1.1,1.9-0.4,2.7S552.8,550.1,553.6,549.5z"/>
</svg>
