<?xml version="1.0" encoding="UTF-8"?>
<svg width="400px" height="48px" viewBox="0 0 400 48" version="1.1" xmlns="http://www.w3.org/2000/svg">
  <!-- Generator: Sketch 48.2 (47327) - http://www.bohemiancoding.com/sketch -->
  <title>Group 2</title>
  <desc>Created with Sketch.</desc>
  <defs>
    <radialGradient cx="50.0231933%" cy="49.9663866%" fx="50.0231933%" fy="49.9663866%" r="50.0231933%"
                    gradientTransform="translate(0.500232,0.499664),scale(0.991667,1.000000),translate(-0.500232,-0.499664)"
                    id="radialGradient-1">
      <stop stop-color="#FFE93C" offset="0%"></stop>
      <stop stop-color="#FEE234" offset="5.775308%"></stop>
      <stop stop-color="#FBD321" offset="22.07%"></stop>
      <stop stop-color="#FACE1A" offset="33.48%"></stop>
      <stop stop-color="#FACC18" offset="71.57%"></stop>
      <stop stop-color="#FAC512" offset="85.52%"></stop>
      <stop stop-color="#F9B908" offset="95.48%"></stop>
      <stop stop-color="#F9B100" offset="100%"></stop>
    </radialGradient>
    <radialGradient cx="50.0336975%" cy="49.9827731%" fx="50.0336975%" fy="49.9827731%" r="50.0231933%"
                    id="radialGradient-2">
      <stop stop-color="#FFE93C" offset="0%"></stop>
      <stop stop-color="#FEE234" offset="5.775308%"></stop>
      <stop stop-color="#FBD321" offset="22.07%"></stop>
      <stop stop-color="#FACE1A" offset="33.48%"></stop>
      <stop stop-color="#FACC18" offset="71.57%"></stop>
      <stop stop-color="#FAC512" offset="85.52%"></stop>
      <stop stop-color="#F9B908" offset="95.48%"></stop>
      <stop stop-color="#F9B100" offset="100%"></stop>
    </radialGradient>
    <radialGradient cx="49.9736975%" cy="50.0403361%" fx="49.9736975%" fy="50.0403361%" r="50.0231933%"
                    gradientTransform="translate(0.499737,0.500403),scale(0.991736,1.000000),translate(-0.499737,-0.500403)"
                    id="radialGradient-3">
      <stop stop-color="#FFE93C" offset="0%"></stop>
      <stop stop-color="#FEE234" offset="5.775308%"></stop>
      <stop stop-color="#FBD321" offset="22.07%"></stop>
      <stop stop-color="#FACE1A" offset="33.48%"></stop>
      <stop stop-color="#FACC18" offset="71.57%"></stop>
      <stop stop-color="#FAC512" offset="85.52%"></stop>
      <stop stop-color="#F9B908" offset="95.48%"></stop>
      <stop stop-color="#F9B100" offset="100%"></stop>
    </radialGradient>
    <radialGradient cx="49.9756757%" cy="50.0009291%" fx="49.9756757%" fy="50.0009291%" r="49.9756757%"
                    id="radialGradient-4">
      <stop stop-color="#FFE93C" offset="0%"></stop>
      <stop stop-color="#FEE234" offset="5.775308%"></stop>
      <stop stop-color="#FBD321" offset="22.07%"></stop>
      <stop stop-color="#FACE1A" offset="33.48%"></stop>
      <stop stop-color="#FACC18" offset="71.57%"></stop>
      <stop stop-color="#FAC512" offset="85.52%"></stop>
      <stop stop-color="#F9B908" offset="95.48%"></stop>
      <stop stop-color="#F9B100" offset="100%"></stop>
    </radialGradient>
  </defs>
  <g id="768_interrogation1" stroke="none" stroke-width="1" fill="none" fill-rule="evenodd"
     transform="translate(-184.000000, -354.000000)">
    <g id="Group-2" transform="translate(184.000000, 354.000000)" fill-rule="nonzero">
      <g id="1-01-copy-2">
        <ellipse id="Oval" fill="url(#radialGradient-1)" cx="24" cy="24" rx="24" ry="23.8"></ellipse>
        <g id="Group" transform="translate(7.260504, 0.000000)">
          <ellipse id="Oval" fill="#FFFFFF" cx="16.8605042" cy="23.44" rx="7.50252101" ry="7.44"></ellipse>
          <path
            d="M16.7394958,33.24 C11.2537815,33.24 6.77647059,28.8 6.77647059,23.36 C6.77647059,17.92 11.2537815,13.48 16.7394958,13.48 C22.2252101,13.48 26.702521,17.92 26.702521,23.36 C26.702521,28.8 22.2252101,33.24 16.7394958,33.24 Z M16.7394958,16.72 C13.0285714,16.72 10.0436975,19.72 10.0436975,23.36 C10.0436975,27 13.0285714,30 16.7394958,30 C20.4504202,30 23.4352941,27 23.4352941,23.36 C23.4352941,19.72 20.4504202,16.72 16.7394958,16.72 Z"
            id="Shape" fill="#000000"></path>
          <path
            d="M31.1394958,9.16 C27.2672269,5.36 22.1848739,3.24 16.7394958,3.24 C11.2941176,3.24 6.21176471,5.32 2.37983193,9.16 L0.0806722689,6.88 C4.51764706,2.44 10.4470588,0 16.7394958,0 C23.0722689,0 29.0016807,2.44 33.4386555,6.88 L31.1394958,9.16 Z"
            id="Shape" fill="#000000"></path>
          <path
            d="M26.2991597,13.92 C23.7579832,11.4 20.3697479,10 16.7394958,10 C13.1495798,10 9.76134454,11.4 7.17983193,13.92 L4.88067227,11.64 C8.02689076,8.48 12.2621849,6.76 16.7394958,6.76 C21.2168067,6.76 25.4521008,8.48 28.5983193,11.64 L26.2991597,13.92 Z"
            id="Shape" fill="#000000"></path>
          <path
            d="M18.6756303,19.2 L16.7798319,21.08 L14.8436975,19.2 C13.8352941,19.64 13.0285714,20.48 12.5445378,21.48 L14.4403361,23.36 L12.5445378,25.24 C12.9882353,26.24 13.8352941,27.04 14.8436975,27.52 L16.7394958,25.64 L18.6352941,27.52 C19.6436975,27.08 20.4504202,26.24 20.9344538,25.24 L19.0386555,23.36 L20.9344538,21.48 C20.4907563,20.48 19.6840336,19.64 18.6756303,19.2 Z"
            id="Shape" fill="#000000"></path>
        </g>
        <path
          d="M33.5596639,42.64 C31.0184874,40.12 27.6302521,38.72 24,38.72 C20.410084,38.72 17.0218487,40.12 14.4403361,42.64 L12.1411765,40.36 C15.3277311,37.2 19.5226891,35.44 24,35.44 C28.4773109,35.44 32.712605,37.16 35.8588235,40.32 L33.5596639,42.64 Z"
          id="Shape" fill="#000000"></path>
      </g>
      <g id="2-01-copy-2" transform="translate(88.000000, 0.000000)">
        <ellipse id="Oval" fill="url(#radialGradient-1)" cx="24" cy="24" rx="24" ry="23.8"></ellipse>
        <ellipse id="Oval" fill="#FFFFFF" cx="24.1210084" cy="23.44" rx="7.50252101" ry="7.44"></ellipse>
        <path
          d="M24,33.24 C18.5142857,33.24 14.0369748,28.8 14.0369748,23.36 C14.0369748,17.92 18.5142857,13.48 24,13.48 C29.4857143,13.48 33.9630252,17.92 33.9630252,23.36 C33.9630252,28.8 29.4857143,33.24 24,33.24 Z M24,16.72 C20.2890756,16.72 17.3042017,19.72 17.3042017,23.36 C17.3042017,27 20.2890756,30 24,30 C27.7109244,30 30.6957983,27 30.6957983,23.36 C30.6957983,19.72 27.7109244,16.72 24,16.72 Z"
          id="Shape" fill="#000000"></path>
        <path
          d="M38.4,9.16 C34.5277311,5.36 29.4453782,3.24 24,3.24 C18.5546218,3.24 13.4722689,5.32 9.64033613,9.16 L7.34117647,6.88 C11.7781513,2.44 17.707563,0 24,0 C30.3327731,0 36.2621849,2.44 40.6991597,6.88 L38.4,9.16 Z"
          id="Shape" fill="#000000"></path>
        <path
          d="M33.5596639,13.92 C31.0184874,11.4 27.6302521,10 24,10 C20.410084,10 17.0218487,11.4 14.4403361,13.92 L12.1411765,11.64 C15.287395,8.48 19.5226891,6.76 24,6.76 C28.4773109,6.76 32.712605,8.48 35.8588235,11.64 L33.5596639,13.92 Z"
          id="Shape" fill="#000000"></path>
        <path
          d="M24,37.84 C21.4991597,37.84 19.1193277,38.4 16.9411765,39.4 L18.7563025,42.12 C20.410084,41.44 22.1848739,41.08 24,41.08 C25.8151261,41.08 27.589916,41.44 29.2436975,42.12 L31.0588235,39.4 C28.8806723,38.4 26.5008403,37.84 24,37.84 Z"
          id="Shape" fill="#000000"></path>
        <path
          d="M24.3630252,20.44 C24.4436975,20.64 24.4840336,20.84 24.5243697,21.04 C24.605042,22.08 23.7983193,22.96 22.789916,23.04 C22.1848739,23.08 21.6201681,22.84 21.2168067,22.4 C21.0957983,22.72 21.0554622,23.04 21.0554622,23.36 C21.0554622,25 22.3865546,26.28 24,26.28 C25.6537815,26.28 26.9445378,24.96 26.9445378,23.36 C26.9445378,21.84 25.8151261,20.6 24.3630252,20.44 Z"
          id="Shape" fill="#000000"></path>
      </g>
      <g id="3-01-copy-2" transform="translate(176.000000, 0.000000)">
        <circle id="Oval" fill="url(#radialGradient-2)" cx="24.12" cy="24.2" r="23.8"></circle>
        <circle id="Oval" fill="#FFFFFF" cx="24.24" cy="23.64" r="7.44"></circle>
        <g id="Group" transform="translate(7.600000, 0.000000)" fill="#000000">
          <path
            d="M16.52,33.44 C11.08,33.44 6.64,29 6.64,23.56 C6.64,18.12 11.08,13.68 16.52,13.68 C21.96,13.68 26.4,18.12 26.4,23.56 C26.4,29 21.96,33.44 16.52,33.44 Z M16.52,16.92 C12.84,16.92 9.88,19.92 9.88,23.56 C9.88,27.2 12.88,30.2 16.52,30.2 C20.16,30.2 23.16,27.2 23.16,23.56 C23.16,19.92 20.2,16.92 16.52,16.92 Z"
            id="Shape"></path>
          <path
            d="M30.8,9.36 C27,5.56 21.92,3.44 16.52,3.44 C11.12,3.44 6.08,5.52 2.28,9.36 L0,7.08 C4.4,2.64 10.28,0.2 16.52,0.2 C22.8,0.2 28.68,2.64 33.08,7.08 L30.8,9.36 Z"
            id="Shape"></path>
          <path
            d="M26,14.16 C23.48,11.64 20.12,10.24 16.52,10.24 C12.96,10.24 9.6,11.64 7.04,14.16 L4.76,11.88 C7.88,8.72 12.08,7 16.52,7 C20.96,7 25.16,8.72 28.28,11.88 L26,14.16 Z"
            id="Shape"></path>
          <path
            d="M16.88,20.64 C16.96,20.84 17,21.04 17.04,21.24 C17.12,22.28 16.32,23.16 15.32,23.24 C14.72,23.28 14.16,23.04 13.76,22.6 C13.64,22.92 13.6,23.24 13.6,23.56 C13.6,25.2 14.92,26.48 16.52,26.48 C18.16,26.48 19.44,25.16 19.44,23.56 C19.48,22.08 18.32,20.84 16.88,20.64 Z"
            id="Shape"></path>
        </g>
        <rect id="Rectangle-path" fill="#000000" x="16.8" y="36.64" width="14.64" height="3.2"></rect>
      </g>
      <g id="4-01-copy-2" transform="translate(264.000000, 0.000000)">
        <ellipse id="Oval" fill="url(#radialGradient-3)" cx="23.92" cy="24.0793388" rx="23.8" ry="23.6033058"></ellipse>
        <ellipse id="Oval" fill="#FFFFFF" cx="24" cy="23.5239669" rx="7.44" ry="7.3785124"></ellipse>
        <path
          d="M23.88,33.2826446 C18.44,33.2826446 14,28.8793388 14,23.4842975 C14,18.0892562 18.44,13.6859504 23.88,13.6859504 C29.32,13.6859504 33.76,18.0892562 33.76,23.4842975 C33.76,28.8793388 29.36,33.2826446 23.88,33.2826446 Z M23.88,16.8991736 C20.2,16.8991736 17.24,19.8743802 17.24,23.4842975 C17.24,27.0942149 20.24,30.0694215 23.88,30.0694215 C27.52,30.0694215 30.52,27.0942149 30.52,23.4842975 C30.52,19.8743802 27.56,16.8991736 23.88,16.8991736 Z"
          id="Shape" fill="#000000"></path>
        <path
          d="M38.16,9.40165289 C34.36,5.63305785 29.28,3.53057851 23.88,3.53057851 C18.48,3.53057851 13.44,5.59338843 9.64,9.40165289 L7.36,7.14049587 C11.76,2.73719008 17.64,0.317355372 23.88,0.317355372 C30.16,0.317355372 36.04,2.73719008 40.44,7.14049587 L38.16,9.40165289 Z"
          id="Shape" fill="#000000"></path>
        <path
          d="M33.36,14.122314 C30.84,11.6231405 27.48,10.2347107 23.88,10.2347107 C20.32,10.2347107 16.96,11.6231405 14.4,14.122314 L12.12,11.861157 C15.24,8.72727273 19.44,7.0214876 23.88,7.0214876 C28.32,7.0214876 32.52,8.72727273 35.64,11.861157 L33.36,14.122314 Z"
          id="Shape" fill="#000000"></path>
        <path
          d="M24.28,20.5884298 C24.36,20.7867769 24.4,20.985124 24.44,21.1834711 C24.52,22.214876 23.72,23.0876033 22.72,23.1669421 C22.12,23.2066116 21.56,22.968595 21.16,22.5322314 C21.04,22.8495868 21,23.1669421 21,23.4842975 C21,25.1107438 22.32,26.3801653 23.92,26.3801653 C25.52,26.3801653 26.84,25.0710744 26.84,23.4842975 C26.84,21.9768595 25.72,20.7471074 24.28,20.5884298 Z"
          id="Shape" fill="#000000"></path>
        <path
          d="M14.44,34.1157025 C16.96,36.614876 20.32,38.0033058 23.92,38.0033058 C27.48,38.0033058 30.84,36.614876 33.4,34.1157025 L35.68,36.3768595 C32.52,39.5504132 28.36,41.2561983 23.92,41.2561983 C19.48,41.2561983 15.28,39.5504132 12.16,36.4165289 L14.44,34.1157025 Z"
          id="Shape" fill="#000000"></path>
      </g>
      <g id="5-01-copy-2" transform="translate(352.000000, 0.000000)">
        <circle id="Oval" fill="url(#radialGradient-4)" cx="23.8789916" cy="24.0403361" r="23.8789916"></circle>
        <circle id="Oval" fill="#FFFFFF" cx="23.9596639" cy="23.4756303" r="7.46218487"></circle>
        <g id="Group" transform="translate(7.260504, 0.000000)" fill="#000000">
          <path
            d="M16.5781513,33.3176471 C11.1327731,33.3176471 6.65546218,28.8806723 6.65546218,23.394958 C6.65546218,17.9092437 11.092437,13.4722689 16.5781513,13.4722689 C22.0638655,13.4722689 26.5008403,17.9092437 26.5008403,23.394958 C26.5008403,28.8806723 22.0638655,33.3176471 16.5781513,33.3176471 Z M16.5781513,16.7798319 C12.907563,16.7798319 9.92268908,19.7647059 9.92268908,23.4352941 C9.92268908,27.1058824 12.907563,30.0907563 16.5781513,30.0907563 C20.2487395,30.0907563 23.2336134,27.1058824 23.2336134,23.4352941 C23.2336134,19.7647059 20.2890756,16.7798319 16.5781513,16.7798319 Z"
            id="Shape"></path>
          <path
            d="M30.897479,9.19663866 C27.0655462,5.36470588 22.0235294,3.26722689 16.6184874,3.26722689 C11.2134454,3.26722689 6.13109244,5.36470588 2.3394958,9.19663866 L0,6.89747899 C4.43697479,2.4605042 10.3260504,0 16.5781513,0 C22.8705882,0 28.7596639,2.4605042 33.1966387,6.89747899 L30.897479,9.19663866 Z"
            id="Shape"></path>
          <path
            d="M26.097479,13.9563025 C23.5563025,11.4151261 20.2084034,10.0033613 16.6184874,10.0033613 C13.0285714,10.0033613 9.68067227,11.4151261 7.1394958,13.9563025 L4.84033613,11.6571429 C7.98655462,8.51092437 12.1815126,6.77647059 16.6184874,6.77647059 C21.0957983,6.77647059 25.2504202,8.51092437 28.4369748,11.697479 L26.097479,13.9563025 Z"
            id="Shape"></path>
          <path
            d="M16.9815126,20.4504202 C17.0621849,20.6521008 17.102521,20.8537815 17.1428571,21.0554622 C17.2235294,22.1042017 16.4168067,22.9915966 15.4084034,23.0722689 C14.8033613,23.112605 14.2386555,22.8705882 13.8352941,22.4268908 C13.7142857,22.7495798 13.6739496,23.0722689 13.6739496,23.394958 C13.6739496,25.0487395 15.005042,26.3394958 16.6184874,26.3394958 C18.2722689,26.3394958 19.5630252,25.0084034 19.5630252,23.394958 C19.5630252,21.902521 18.4336134,20.6521008 16.9815126,20.4504202 Z"
            id="Shape"></path>
        </g>
        <path
          d="M23.8789916,42.8369748 C27.0252101,42.8369748 29.5663866,40.2957983 29.5663866,37.1495798 L18.1512605,37.1495798 C18.1512605,40.2957983 20.7327731,42.8369748 23.8789916,42.8369748 Z"
          id="Shape" fill="#000000"></path>
      </g>
    </g>
  </g>
</svg>
