<?xml version="1.0" encoding="UTF-8"?>
<svg width="87px" height="132px" viewBox="0 0 87 132" version="1.1" xmlns="http://www.w3.org/2000/svg">
  <!-- Generator: Sketch 48.2 (47327) - http://www.bohemiancoding.com/sketch -->
  <title>2-illustration</title>
  <desc>Created with Sketch.</desc>
  <defs>
    <linearGradient x1="27.3261708%" y1="18.9860429%" x2="75.751607%" y2="85.8161043%" id="linearGradient-1">
      <stop stop-color="#000000" stop-opacity="0" offset="0%"></stop>
      <stop stop-color="#000000" stop-opacity="0.3" offset="99.64%"></stop>
    </linearGradient>
    <linearGradient x1="97.9741379%" y1="-6.31881731%" x2="-6.26224138%" y2="103.797391%" id="linearGradient-2">
      <stop stop-color="#2D2F4D" offset="0%"></stop>
      <stop stop-color="#343757" offset="15.81%"></stop>
      <stop stop-color="#53588F" offset="30.1%"></stop>
      <stop stop-color="#2F304F" offset="43.11%"></stop>
      <stop stop-color="#212238" offset="99.81%"></stop>
    </linearGradient>
    <linearGradient x1="112.018762%" y1="3.41539069%" x2="-22.5778443%" y2="104.73284%" id="linearGradient-3">
      <stop stop-color="#38F9BD" offset="0%"></stop>
      <stop stop-color="#38D2C3" offset="99.81%"></stop>
    </linearGradient>
    <linearGradient x1="24.4211111%" y1="8.7202773%" x2="74.0133333%" y2="88.0071057%" id="linearGradient-4">
      <stop stop-color="#2EA8E6" offset="0%"></stop>
      <stop stop-color="#2EA8E6" stop-opacity="0.3" offset="49.01%"></stop>
      <stop stop-color="#2EA8E6" stop-opacity="0" offset="99.81%"></stop>
    </linearGradient>
    <linearGradient x1="97.266%" y1="3.73490054%" x2="18.456%" y2="81.6587703%" id="linearGradient-5">
      <stop stop-color="#217CA8" offset="0%"></stop>
      <stop stop-color="#217CA8" stop-opacity="0.3" offset="49.01%"></stop>
      <stop stop-color="#217CA8" stop-opacity="0" offset="99.81%"></stop>
    </linearGradient>
    <linearGradient x1="24.4422222%" y1="8.68003472%" x2="74.0333333%" y2="88.1045139%" id="linearGradient-6">
      <stop stop-color="#2EA8E6" offset="0%"></stop>
      <stop stop-color="#2EA8E6" stop-opacity="0.3" offset="49.01%"></stop>
      <stop stop-color="#2EA8E6" stop-opacity="0" offset="99.81%"></stop>
    </linearGradient>
    <linearGradient x1="97.302%" y1="3.85804702%" x2="18.492%" y2="81.7819168%" id="linearGradient-7">
      <stop stop-color="#217CA8" offset="0%"></stop>
      <stop stop-color="#217CA8" stop-opacity="0.3" offset="49.01%"></stop>
      <stop stop-color="#217CA8" stop-opacity="0" offset="99.81%"></stop>
    </linearGradient>
    <linearGradient x1="23.9722222%" y1="8.6745234%" x2="71.77%" y2="85.0934142%" id="linearGradient-8">
      <stop stop-color="#2EA8E6" offset="0%"></stop>
      <stop stop-color="#2EA8E6" stop-opacity="0.3" offset="65.89%"></stop>
      <stop stop-color="#2EA8E6" stop-opacity="0" offset="99.81%"></stop>
    </linearGradient>
    <linearGradient x1="96.456%" y1="3.86083032%" x2="17.646%" y2="81.6440433%" id="linearGradient-9">
      <stop stop-color="#217CA8" offset="0%"></stop>
      <stop stop-color="#217CA8" stop-opacity="0.3" offset="59.84%"></stop>
      <stop stop-color="#217CA8" stop-opacity="0" offset="99.81%"></stop>
    </linearGradient>
    <linearGradient x1="20.0975993%" y1="99.3092357%" x2="85.0331845%" y2="-10.5366242%" id="linearGradient-10">
      <stop stop-color="#7791AD" offset="0%"></stop>
      <stop stop-color="#89A1BC" offset="14.1%"></stop>
      <stop stop-color="#B7CAE0" offset="52.77%"></stop>
      <stop stop-color="#D3E3F7" offset="82.61%"></stop>
      <stop stop-color="#DEECFF" offset="99.81%"></stop>
    </linearGradient>
    <linearGradient x1="91.4178733%" y1="0.158907471%" x2="-0.938235294%" y2="97.4521936%" id="linearGradient-11">
      <stop stop-color="#E50E0E" offset="0%"></stop>
      <stop stop-color="#FF4A4A" offset="68.08%"></stop>
      <stop stop-color="#C90B0B" offset="100%"></stop>
    </linearGradient>
  </defs>
  <g id="the-confirmation" stroke="none" stroke-width="1" fill="none" fill-rule="evenodd"
     transform="translate(-45.000000, -781.000000)">
    <g id="2-illustration" transform="translate(20.000000, 777.000000)">
      <g id="Group">
        <g transform="translate(17.000000, 4.000000)" fill-rule="nonzero">
          <polygon id="Shape" fill="url(#linearGradient-1)"
                   points="76.2794118 109.9 33.8786765 84.28 0.209558824 104.58 42.0514706 129.92"></polygon>
          <path
            d="M77.9558824,20.86 L73.7647059,18.34 C73.2757353,17.99 72.6470588,17.85 72.0882353,18.2 L38.5588235,37.87 C37.8602941,38.29 37.4411765,39.06 37.4411765,39.83 L37.4411765,126.14 C37.4411765,127.19 38.0698529,127.96 38.9779412,128.31 L43.0294118,130.83 L44.1470588,127.33 L43.7977941,126.49 L73.2757353,109.2 C73.9742647,108.78 74.3933824,108.01 74.3933824,107.24 L74.3933824,25.34 L75.1617647,25.41 L77.9558824,20.86 Z"
            id="Shape" fill="url(#linearGradient-2)"></path>
          <path
            d="M77.6764706,111.79 L45.3345588,130.76 C43.7977941,131.67 41.9117647,130.55 41.9117647,128.8 L41.9117647,42.49 C41.9117647,41.65 42.3308824,40.95 43.0294118,40.53 L76.5588235,20.86 C77.5367647,20.3 78.7941176,21 78.7941176,22.19 L78.7941176,109.83 C78.7941176,110.67 78.3051471,111.37 77.6764706,111.79 Z"
            id="Shape" fill="#000000"></path>
          <path
            d="M76,22.61 L69.8529412,26.25 L69.8529412,29.68 C69.8529412,29.96 69.7132353,30.24 69.4338235,30.38 L53.0183824,39.97 C52.5294118,40.25 51.9705882,39.9 51.9705882,39.34 L51.9705882,36.68 L43.9375,41.37 C43.3088235,41.79 42.8897059,42.49 42.8897059,43.26 L42.8897059,127.68 C42.8897059,129.08 44.4264706,129.99 45.6838235,129.29 L76.8382353,111.02 C77.4669118,110.6 77.8860294,109.9 77.8860294,109.13 L77.8860294,23.66 C77.8161765,22.68 76.8382353,22.12 76,22.61 Z"
            id="Shape" fill="url(#linearGradient-3)"></path>
          <path
            d="M70.4816176,110.39 C70.4117647,110.39 70.3419118,110.39 70.2720588,110.46 L53.8566176,120.12 C53.8566176,120.12 53.8566176,120.12 53.8566176,120.12 C53.7169118,120.19 53.5772059,120.4 53.5073529,120.61 C53.4375,120.89 53.5772059,121.17 53.8566176,121.17 C53.9264706,121.17 53.9963235,121.17 54.0661765,121.1 L70.4816176,111.44 C70.4816176,111.44 70.4816176,111.44 70.4816176,111.44 C70.6213235,111.37 70.7610294,111.16 70.8308824,110.95 C70.8308824,110.67 70.6911765,110.39 70.4816176,110.39 Z"
            id="Shape" fill="#FFFFFF" opacity="0.3"></path>
          <path
            d="M64.8933824,56.98 C59.375,57.12 53.6470588,62.86 52.1102941,69.86 C50.5735294,76.86 53.7867647,82.46 59.3051471,82.32 C64.8235294,82.18 70.5514706,76.44 72.0882353,69.44 C73.625,62.44 70.4117647,56.84 64.8933824,56.98 Z M66.9889706,74.97 C64.6838235,77.35 61.8198529,78.82 59.0257353,78.89 C58.1176471,78.89 57.3492647,78.75 56.5808824,78.54 C57.2095588,78.12 57.9080882,77.63 58.6066176,76.93 C59.7941176,75.6 60.2132353,75.25 60.2132353,75.25 C60.2132353,75.25 60.2132353,73.99 60.2132353,73.08 C59.5845588,72.8 59.375,72.17 59.2352941,71.54 C58.3272059,71.75 58.3272059,70.49 58.3970588,70.21 C58.5367647,69.93 58.8860294,69.93 58.8860294,69.93 C58.8860294,69.93 58.3272059,68.32 58.6066176,66.71 C58.8860294,65.31 60.1433824,63.35 62.0294118,62.44 C63.9154412,61.53 64.2647059,62.3 64.2647059,62.3 C64.2647059,62.3 65.5919118,61.88 65.8014706,63.21 C66.0110294,64.54 65.5220588,66.71 65.5220588,66.71 C65.5220588,66.71 65.8713235,66.36 66.0110294,66.57 C66.1507353,66.78 66.0808824,68.04 65.1727941,68.67 C65.0330882,69.44 64.8235294,70.28 64.1948529,71.12 C64.1948529,71.96 64.1948529,73.29 64.1948529,73.29 C64.1948529,73.29 64.6139706,73.22 65.8014706,73.43 C66.7095588,73.57 67.7573529,73.15 68.5257353,73.01 C68.1066176,73.71 67.5477941,74.41 66.9889706,74.97 Z"
            id="Shape" fill="#FFFFFF" opacity="0.6"></path>
          <path
            d="M73.4852941,80.22 L51.4816176,93.17 C51.0625,93.38 50.8529412,93.87 50.8529412,94.36 L50.8529412,96.39 C50.8529412,97.93 50.9227941,98.42 51.9705882,97.79 L73.9742647,84.84 C74.3933824,84.63 74.6029412,84.14 74.6029412,83.65 L74.6029412,80.92 C74.6727941,80.29 74.4632353,79.59 73.4852941,80.22 Z M53.7867647,94.57 C53.7169118,94.92 53.5073529,95.27 53.1580882,95.27 C52.8786765,95.27 52.6691176,94.99 52.6691176,94.57 C52.7389706,94.22 52.9485294,93.87 53.2977941,93.87 C53.5772059,93.94 53.8566176,94.22 53.7867647,94.57 Z M55.9522059,93.38 C55.8823529,93.73 55.6727941,94.08 55.3235294,94.08 C55.0441176,94.08 54.8345588,93.8 54.8345588,93.38 C54.9044118,93.03 55.1139706,92.68 55.4632353,92.68 C55.7426471,92.68 56.0220588,92.96 55.9522059,93.38 Z M58.1176471,92.12 C58.0477941,92.47 57.8382353,92.82 57.4889706,92.82 C57.2095588,92.82 57,92.54 57,92.12 C57.0698529,91.77 57.2794118,91.42 57.6286765,91.42 C57.9080882,91.49 58.1875,91.77 58.1176471,92.12 Z M60.2830882,90.93 C60.2132353,91.28 60.0036765,91.63 59.6544118,91.63 C59.375,91.63 59.1654412,91.35 59.1654412,90.93 C59.2352941,90.58 59.4448529,90.23 59.7941176,90.23 C60.0735294,90.23 60.3529412,90.58 60.2830882,90.93 Z M62.4485294,89.74 C62.3786765,90.09 62.1691176,90.44 61.8198529,90.44 C61.5404412,90.44 61.3308824,90.16 61.3308824,89.74 C61.4007353,89.39 61.6102941,89.04 61.9595588,89.04 C62.2389706,89.04 62.5183824,89.32 62.4485294,89.74 Z"
            id="Shape" fill="#FFFFFF" opacity="0.6"></path>
          <path
            d="M73.4852941,89.46 L51.4816176,102.41 C51.0625,102.62 50.8529412,103.11 50.8529412,103.6 L50.8529412,105.63 C50.8529412,107.17 50.9227941,107.66 51.9705882,107.03 L73.9742647,94.08 C74.3933824,93.87 74.6029412,93.38 74.6029412,92.89 L74.6029412,90.16 C74.6727941,89.53 74.4632353,88.83 73.4852941,89.46 Z"
            id="Shape" fill="#00BAA8"></path>
          <g transform="translate(53.786765, 0.000000)" id="Shape">
            <g transform="translate(0.000000, 25.900000)">
              <polygon fill="url(#linearGradient-4)"
                       points="9.77941176 38.78 3.49264706 42.49 3.49264706 5.81 9.77941176 2.1"></polygon>
              <polygon fill="url(#linearGradient-5)"
                       points="0 40.39 3.49264706 42.49 3.49264706 5.81 0 3.78"></polygon>
              <polygon fill="#39C7FF"
                       points="9.84926471 2.1 6.21691176 0 0 3.78 3.49264706 5.81"></polygon>
            </g>
            <g transform="translate(10.477941, 13.300000)">
              <polygon fill="url(#linearGradient-6)"
                       points="10.1286765 38.85 3.84191176 42.49 3.84191176 5.88 10.1286765 2.17"></polygon>
              <polygon fill="url(#linearGradient-7)"
                       points="0.349264706 40.46 3.84191176 42.49 3.84191176 5.88 0.349264706 3.78"></polygon>
              <polygon fill="#39C7FF"
                       points="10.1985294 2.17 6.56617647 0.07 0.349264706 3.78 3.84191176 5.88"></polygon>
            </g>
            <g transform="translate(21.654412, 0.000000)">
              <polygon fill="url(#linearGradient-8)"
                       points="9.77941176 38.78 3.49264706 42.49 3.49264706 5.81 9.77941176 2.1"></polygon>
              <polygon fill="url(#linearGradient-9)"
                       points="0 40.39 3.49264706 42.49 3.49264706 5.81 0 3.71"></polygon>
              <polygon fill="#39C7FF"
                       points="9.77941176 2.1 6.21691176 0 0 3.71 3.49264706 5.81"></polygon>
            </g>
          </g>
          <path
            d="M89.1323529,79.87 L89.5514706,79.8 L87.9448529,78.75 C87.8051471,78.68 87.6654412,78.54 87.5257353,78.47 L87.3860294,78.4 C86.5477941,77.98 85.5698529,77.7 84.5220588,77.7 C79.8419118,77.77 75.0220588,82.6 73.6948529,88.48 C72.7169118,92.96 74.0441176,96.74 76.6985294,98.35 L78.8639706,99.68 L79.2132353,99.12 C79.4227941,99.12 79.5625,99.12 79.7720588,99.12 C84.4522059,99.05 89.2720588,94.22 90.5992647,88.34 C91.2977941,84.91 90.6691176,81.83 89.1323529,79.87 Z"
            id="Shape" fill="url(#linearGradient-10)"></path>
          <path
            d="M92.7647059,89.74 C91.4375,95.62 86.6176471,100.45 81.9375,100.52 C77.2573529,100.59 74.5330882,95.83 75.8602941,89.88 C77.1875,83.93 82.0073529,79.17 86.6875,79.1 C91.2977941,79.1 94.0220588,83.86 92.7647059,89.74 Z"
            id="Shape" fill="#FFFFFF"></path>
          <path
            d="M85.0808824,86.31 C85.0808824,85.82 85.1507353,85.26 85.1507353,84.77 C86.6875,85.05 88.2242647,85.4 89.7610294,85.68 C88.1544118,87.43 86.5477941,89.18 84.8713235,91 C84.8713235,90.51 84.9411765,89.95 84.9411765,89.46 C83.8235294,89.95 82.1470588,91.56 81.7977941,93.52 C81.5183824,95.41 82.7757353,96.39 84.5919118,95.69 C82.6360294,96.6 80.3308824,96.25 80.1213235,93.73 C79.9117647,91 82.3566176,87.57 85.0808824,86.31 Z"
            id="Shape" fill="#2ECAE6"></path>
          <path
            d="M49.5955882,52.15 L46.9411765,50.61 C46.4522059,50.12 45.7536765,50.19 44.8455882,50.75 C40.9338235,52.99 37.0220588,55.23 33.1102941,57.54 C33.1102941,57.54 33.1102941,57.54 33.1102941,57.54 C29.1985294,59.78 25.2867647,62.02 21.375,64.26 C21.0257353,64.47 20.6764706,64.75 20.3272059,65.03 C19.4889706,65.8 18.7205882,67.13 18.7205882,68.25 C18.7904412,71.33 18.7205882,74.41 18.7205882,77.49 C18.7205882,78.47 18.7205882,79.45 18.7205882,80.43 C18.7205882,81.06 18.9301471,81.41 19.3492647,81.62 L22.2830882,83.37 C22.2830882,83.37 22.7022059,81.27 22.9117647,80.29 C24.3088235,79.45 25.7757353,78.68 27.1727941,77.84 C27.3125,77.77 27.3823529,77.7 27.5220588,77.77 C28.5698529,78.26 29.6875,78.68 30.7352941,79.17 C31.5036765,79.45 32.2022059,79.8 32.9705882,80.15 C33.1102941,80.22 33.1801471,80.15 33.3198529,79.94 C33.6691176,79.38 34.0183824,78.82 34.2977941,78.33 C35.6948529,76.09 37.0919118,73.85 38.4191176,71.61 C38.5588235,71.4 38.6286765,71.33 38.8382353,71.19 C40.7242647,70.07 42.6102941,69.02 44.5661765,67.9 C44.8455882,67.76 45.0551471,67.62 45.3345588,67.41 C46.4522059,66.64 47.3602941,65.1 47.3602941,64.05 C47.3602941,60.83 47.3602941,57.61 47.3602941,54.46 L47.4301471,54.6 L49.5955882,52.15 Z"
            id="Shape" fill="url(#linearGradient-11)"></path>
          <path
            d="M36.1139706,59.29 C40.0257353,57.05 43.9375,54.74 47.8492647,52.5 C48.8272059,51.94 49.5955882,51.87 50.0845588,52.5 C50.2242647,52.71 50.3639706,52.99 50.3639706,53.34 C50.3639706,57.47 50.3639706,61.6 50.3639706,65.73 C50.3639706,66.78 49.4558824,68.32 48.3382353,69.09 C48.0588235,69.23 47.8492647,69.44 47.5698529,69.58 C45.6838235,70.7 43.7977941,71.75 41.8419118,72.87 C41.7022059,72.94 41.5625,73.08 41.4227941,73.29 C40.0257353,75.53 38.6286765,77.77 37.3014706,80.01 C36.9522059,80.57 36.6029412,81.13 36.3235294,81.62 C36.1838235,81.83 36.1139706,81.9 35.9742647,81.83 C35.2757353,81.48 34.5073529,81.2 33.7389706,80.85 C32.6911765,80.36 31.5735294,79.94 30.5257353,79.45 C30.4558824,79.38 30.3161765,79.45 30.1764706,79.52 C28.2205882,80.64 26.3345588,81.76 24.3786765,82.88 C23.8198529,83.23 23.2610294,83.44 22.7720588,83.44 C22.0735294,83.44 21.7242647,83.02 21.7242647,82.18 C21.7242647,81.2 21.7242647,80.22 21.7242647,79.24 C21.7242647,76.16 21.7242647,73.08 21.7242647,70 C21.7242647,68.88 22.4926471,67.55 23.3308824,66.78 C23.6801471,66.43 24.0294118,66.22 24.3786765,66.01 C28.2904412,63.77 32.2022059,61.53 36.1139706,59.29 C36.1139706,59.29 36.1139706,59.29 36.1139706,59.29 Z M38.3492647,64.19 C38.3492647,63.91 38.3492647,63.63 38.2794118,63.42 C38.0698529,62.44 37.5808824,61.88 36.5330882,62.02 C35.7647059,62.09 34.9264706,62.65 34.0882353,63.21 C33.3198529,63.77 32.6911765,64.54 32.0625,65.31 C31.9227941,65.52 31.7830882,65.59 31.6433824,65.52 C31.2941176,65.52 30.9448529,65.38 30.5257353,65.45 C29.8970588,65.59 29.1985294,65.94 28.5,66.36 C27.7316176,66.85 27.1029412,67.48 26.6139706,68.32 C26.0551471,69.16 25.7058824,70 25.5661765,70.91 C25.4264706,71.75 25.4963235,72.45 25.8455882,72.94 C26.3345588,73.71 27.0330882,74.13 27.8014706,74.55 C28.4301471,74.83 29.1286765,75.11 29.8970588,75.32 C30.5257353,75.46 31.1544118,75.67 31.7830882,75.74 C31.8529412,75.74 31.9227941,75.74 31.9926471,75.67 C33.0404412,74.27 34.0882353,72.87 35.0661765,71.4 C35.8345588,70.21 36.6029412,69.02 37.2316176,67.76 C37.8602941,66.43 38.3492647,65.24 38.3492647,64.19 Z M45.8933824,61.95 C45.8933824,60.27 45.8933824,58.59 45.8933824,56.91 C45.8933824,56.77 45.8933824,56.63 45.8933824,56.49 C45.8933824,56.35 45.8235294,56.35 45.7536765,56.42 C45.5441176,56.56 45.2647059,56.7 45.0551471,56.84 C44.9154412,56.91 44.8455882,57.05 44.7757353,57.19 C44.7757353,57.4 44.6360294,57.68 44.5661765,57.89 C44.3566176,58.52 44.0073529,59.08 43.4485294,59.57 C42.9595588,59.99 42.4007353,60.41 41.9117647,60.76 C41.7720588,60.83 41.7022059,60.9 41.7022059,61.04 C41.7022059,61.25 41.7022059,61.46 41.7022059,61.67 C41.7022059,61.81 41.7720588,61.88 41.9117647,61.74 C42.6801471,61.32 43.3786765,60.9 44.1470588,60.48 C44.3566176,60.34 44.4264706,60.41 44.4264706,60.62 C44.4264706,63.14 44.4264706,65.66 44.4264706,68.18 C44.4264706,68.39 44.4963235,68.39 44.6360294,68.32 C44.9852941,68.11 45.2647059,67.9 45.6139706,67.76 C45.8235294,67.62 45.8933824,67.55 45.8933824,67.34 C45.8933824,65.52 45.8933824,63.77 45.8933824,61.95 Z"
            id="Shape" fill="#FF4343"></path>
          <path
            d="M38.3492647,64.19 C38.4191176,65.24 37.9301471,66.43 37.3014706,67.69 C36.6727941,68.95 35.9044118,70.14 35.1360294,71.33 C34.1580882,72.8 33.1102941,74.2 32.0625,75.6 C31.9926471,75.74 31.9227941,75.74 31.8529412,75.67 C31.1544118,75.6 30.5955882,75.46 29.9669118,75.25 C29.1985294,75.04 28.5,74.83 27.8713235,74.48 C27.1029412,74.13 26.3345588,73.64 25.9154412,72.87 C25.6360294,72.38 25.5661765,71.68 25.6360294,70.84 C25.7757353,70 26.125,69.16 26.6838235,68.25 C27.1727941,67.41 27.8713235,66.78 28.5698529,66.29 C29.2683824,65.87 29.9669118,65.52 30.5955882,65.38 C31.0147059,65.31 31.3639706,65.45 31.7132353,65.45 C31.8529412,65.45 31.9926471,65.45 32.1323529,65.24 C32.7610294,64.47 33.3897059,63.7 34.1580882,63.14 C34.9963235,62.51 35.7647059,62.02 36.6029412,61.95 C37.6507353,61.81 38.1397059,62.44 38.3492647,63.35 C38.3492647,63.63 38.3492647,63.84 38.3492647,64.19 Z"
            id="Shape" fill="#FDFDFD"></path>
          <path
            d="M45.8933824,61.95 C45.8933824,63.7 45.8933824,65.52 45.8933824,67.27 C45.8933824,67.48 45.8235294,67.62 45.6139706,67.69 C45.2647059,67.83 44.9852941,68.04 44.6360294,68.25 C44.4264706,68.39 44.4264706,68.32 44.4264706,68.11 C44.4264706,65.59 44.4264706,63.07 44.4264706,60.55 C44.4264706,60.34 44.3566176,60.34 44.1470588,60.41 C43.3786765,60.83 42.6801471,61.25 41.9117647,61.67 C41.7720588,61.74 41.7022059,61.74 41.7022059,61.6 C41.7022059,61.39 41.7022059,61.18 41.7022059,60.97 C41.7022059,60.83 41.7022059,60.76 41.9117647,60.69 C42.4007353,60.34 42.9595588,59.99 43.4485294,59.5 C44.0073529,59.01 44.3566176,58.45 44.5661765,57.82 C44.6360294,57.61 44.7058824,57.33 44.7757353,57.12 C44.7757353,56.98 44.8455882,56.84 45.0551471,56.77 C45.2647059,56.63 45.5441176,56.49 45.7536765,56.35 C45.8933824,56.28 45.8933824,56.28 45.8933824,56.42 C45.8933824,56.56 45.8933824,56.7 45.8933824,56.84 C45.8933824,58.66 45.8933824,60.27 45.8933824,61.95 Z"
            id="Shape" fill="#FDFDFD"></path>
          <path
            d="M29.0588235,46.06 C26.8235294,47.32 25.0073529,46.55 25.0073529,44.31 C25.0073529,46.55 23.1911765,49.42 20.9558824,50.68 C23.1911765,49.42 25.0073529,50.19 25.0073529,52.43 C25.0073529,50.12 26.8235294,47.32 29.0588235,46.06 Z"
            id="Shape" fill="#FFFFFF"></path>
          <path
            d="M94.7904412,38.36 C91.7867647,40.04 89.4117647,38.99 89.4117647,35.98 C89.4117647,38.99 86.9669118,42.77 84.0330882,44.45 C87.0367647,42.77 89.4117647,43.82 89.4117647,46.83 C89.4117647,43.82 91.8566176,40.04 94.7904412,38.36 Z"
            id="Shape" fill="#FFFFFF"></path>
          <path
            d="M33.3198529,50.4 C32.1323529,51.1 31.1544118,50.68 31.1544118,49.42 C31.1544118,50.61 30.1764706,52.15 28.9889706,52.85 C30.1764706,52.15 31.1544118,52.57 31.1544118,53.83 C31.0845588,52.64 32.0625,51.1 33.3198529,50.4 Z"
            id="Shape" fill="#FFFFFF"></path>
          <path
            d="M34.5073529,110.88 C33.3198529,111.58 32.3419118,111.16 32.3419118,109.9 C32.3419118,111.09 31.3639706,112.63 30.1764706,113.33 C31.3639706,112.63 32.3419118,113.05 32.3419118,114.31 C32.3419118,113.12 33.3198529,111.58 34.5073529,110.88 Z"
            id="Shape" fill="#FFFFFF"></path>
          <path
            d="M86.6176471,70.42 C85.5,71.05 84.5919118,70.7 84.5919118,69.51 C84.5919118,70.63 83.6838235,72.1 82.5661765,72.73 C83.6838235,72.1 84.5919118,72.45 84.5919118,73.64 C84.5220588,72.52 85.5,71.05 86.6176471,70.42 Z"
            id="Shape" fill="#FFFFFF"></path>
        </g>
      </g>
    </g>
  </g>
</svg>
