<?xml version="1.0" encoding="UTF-8"?>
<svg xmlns:xlink="http://www.w3.org/1999/xlink" width="122px" height="199px" viewBox="0 0 122 199" version="1.1"
     xmlns="http://www.w3.org/2000/svg">
  <!-- Generator: Sketch 48.2 (47327) - http://www.bohemiancoding.com/sketch -->
  <title>Page 1</title>
  <desc>Created with Sketch.</desc>
  <defs>
    <polygon id="path-1" points="0 199.505962 121.449893 199.505962 121.449893 0.993761352 0 0.993761352"></polygon>
  </defs>
  <g id="welcome-page-copy-3" stroke="none" stroke-width="1" fill="none" fill-rule="evenodd"
     transform="translate(-126.000000, -206.000000)">
    <g id="Page-1" transform="translate(126.000000, 205.000000)">
      <path
        d="M12.1408829,159.275053 C12.9463792,158.80755 13.3507068,157.932559 13.3507068,156.659559 C13.3507068,154.347311 11.907131,153.191187 9.01997947,153.191187 L6.42027955,153.191187 L6.42027955,159.979468 L8.58722262,159.979468 C10.1508331,159.979468 11.3353866,159.742557 12.1408829,159.275053 Z M6.42027955,143.446261 L6.42027955,149.25847 L8.62196952,149.25847 C11.1237463,149.25847 12.3746348,148.247651 12.3746348,146.226013 C12.3746348,145.215194 12.039801,144.498144 11.3638158,144.078023 C10.6909895,143.657901 9.6201532,143.446261 8.15130696,143.446261 L6.42027955,143.446261 Z M17.8804391,152.868988 C18.9260049,153.785043 19.4503672,155.152807 19.4503672,156.981758 C19.4503672,159.65411 18.493248,161.536761 16.5821685,162.629709 C14.6679302,163.725815 11.9924189,164.275448 8.54931691,164.275448 L0.500671247,164.275448 L0.500671247,139.260839 L7.5764037,139.260839 C11.0889994,139.260839 13.7708284,139.759931 15.6250494,140.758114 C17.4761115,141.756298 18.4048014,143.389402 18.4048014,145.65111 C18.4048014,147.116797 17.9657269,148.30135 17.0844192,149.20477 C16.209429,150.108189 15.1196399,150.714681 13.8213693,151.027403 C15.4797441,151.340125 16.8348733,151.956093 17.8804391,152.868988 Z"
        id="Fill-1" fill="#000000"></path>
      <path
        d="M33.7806207,152.689252 C33.7332386,149.75156 32.6971492,148.282713 30.6755113,148.282713 C29.6899629,148.282713 28.9255311,148.645976 28.3853747,149.366185 C27.8420595,150.089552 27.5135434,151.280423 27.3935086,152.941957 L33.7806207,152.941957 L33.7806207,152.689252 Z M39.2674722,156.369265 L27.3935086,156.369265 C27.5830372,157.983416 28.0410645,159.111111 28.7644318,159.761826 C29.4846403,160.41254 30.482824,160.737898 31.7589829,160.737898 C32.5297323,160.737898 33.2752112,160.59891 33.9954197,160.320935 C34.718787,160.046119 35.4990129,159.616521 36.3455737,159.041617 L38.6894101,162.219379 C36.4529732,163.997789 33.9606728,164.888573 31.2156677,164.888573 C28.1137171,164.888573 25.731975,163.972518 24.0704414,162.143568 C22.4089078,160.317776 21.5812998,157.863382 21.5812998,154.780384 C21.5812998,152.831399 21.9287689,151.081418 22.6268657,149.530443 C23.3249625,147.979468 24.3484166,146.750691 25.6940693,145.847272 C27.0428808,144.947011 28.6538735,144.492142 30.5333649,144.492142 C33.3004817,144.492142 35.464266,145.360815 37.0278765,147.095001 C38.591487,148.826029 39.3748717,151.233041 39.3748717,154.31288 C39.3748717,155.1089 39.3401248,155.791203 39.2674722,156.369265 Z"
        id="Fill-3" fill="#000000"></path>
      <path
        d="M53.7051252,152.689252 C53.6545842,149.75156 52.6216536,148.282713 50.6000158,148.282713 C49.6144673,148.282713 48.8500355,148.645976 48.3098792,149.366185 C47.766564,150.089552 47.4380479,151.280423 47.3180131,152.941957 L53.7051252,152.941957 L53.7051252,152.689252 Z M59.1919766,156.369265 L47.3180131,156.369265 C47.5075417,157.983416 47.965569,159.111111 48.6889363,159.761826 C49.4091448,160.41254 50.4073284,160.737898 51.6834873,160.737898 C52.4542368,160.737898 53.1997157,160.59891 53.9199242,160.320935 C54.6432915,160.046119 55.4235173,159.616521 56.2669194,159.041617 L58.6139146,162.219379 C56.3774777,163.997789 53.8851773,164.888573 51.1401722,164.888573 C48.0382216,164.888573 45.6564795,163.972518 43.9949459,162.143568 C42.3334123,160.317776 41.5058043,157.863382 41.5058043,154.780384 C41.5058043,152.831399 41.8532733,151.081418 42.5513701,149.530443 C43.249467,147.979468 44.2729211,146.750691 45.6185738,145.847272 C46.9673853,144.947011 48.578378,144.492142 50.4578694,144.492142 C53.2249862,144.492142 55.3887704,145.360815 56.952381,147.095001 C58.5159915,148.826029 59.2993761,151.233041 59.2993761,154.31288 C59.2993761,155.1089 59.2646292,155.791203 59.1919766,156.369265 Z"
        id="Fill-5" fill="#000000"></path>
      <path
        d="M63.721393,163.461107 C62.795862,162.510306 62.331517,161.158335 62.331517,159.402037 L62.331517,137.489379 L68.0331675,136.87657 L68.0331675,159.18408 C68.0331675,159.976941 68.3585248,160.374951 69.0092395,160.374951 C69.3472321,160.374951 69.6599542,160.318092 69.9474058,160.194899 L71.0656243,164.238174 C70.0326937,164.670931 68.8765695,164.888889 67.6035695,164.888889 C65.9420359,164.888889 64.6469241,164.415068 63.721393,163.461107"
        id="Fill-7" fill="#000000"></path>
      <mask id="mask-2" fill="white">
        <use xlink:href="#path-1"></use>
      </mask>
      <g id="Clip-10"></g>
      <path
        d="M73.230672,164.275764 L78.9354813,164.275764 L78.9354813,145.10811 L73.230672,145.10811 L73.230672,164.275764 Z M78.4837716,135.919134 C79.1218511,136.535102 79.4408908,137.312169 79.4408908,138.250336 C79.4408908,139.188502 79.1218511,139.965569 78.4837716,140.578378 C77.8456922,141.191187 77.0338782,141.497591 76.0483298,141.497591 C75.0596225,141.497591 74.2541262,141.191187 73.628682,140.578378 C73.0032378,139.965569 72.6905157,139.188502 72.6905157,138.250336 C72.6905157,137.312169 73.0032378,136.535102 73.628682,135.919134 C74.2541262,135.306326 75.0596225,134.999921 76.0483298,134.999921 C77.0338782,134.999921 77.8456922,135.306326 78.4837716,135.919134 Z"
        id="Fill-9" fill="#000000" mask="url(#mask-2)"></path>
      <path
        d="M98.5362078,146.010582 C99.4743742,147.018242 99.9418779,148.442865 99.9418779,150.271816 L99.9418779,164.274816 L94.2402274,164.274816 L94.2402274,151.244729 C94.2402274,150.284451 94.0886046,149.614783 93.7885177,149.238885 C93.4884309,148.866145 93.0367212,148.682935 92.4365474,148.682935 C91.2804233,148.682935 90.1748401,149.510543 89.116639,151.172076 L89.116639,164.274816 L83.4118297,164.274816 L83.4118297,145.107163 L88.3932717,145.107163 L88.7912817,147.381505 C89.6062544,146.421227 90.490721,145.69786 91.4415225,145.214562 C92.3923241,144.734423 93.4600016,144.494354 94.6382374,144.494354 C96.299771,144.494354 97.5980415,144.999763 98.5362078,146.010582"
        id="Fill-11" fill="#000000" mask="url(#mask-2)"></path>
      <path
        d="M115.355919,152.689252 C115.308537,149.75156 114.272447,148.282713 112.253968,148.282713 C111.265261,148.282713 110.500829,148.645976 109.960673,149.366185 C109.417358,150.089552 109.088842,151.280423 108.968807,152.941957 L115.355919,152.941957 L115.355919,152.689252 Z M120.84277,156.369265 L108.968807,156.369265 C109.161494,157.983416 109.616363,159.111111 110.33973,159.761826 C111.059938,160.41254 112.058122,160.737898 113.334281,160.737898 C114.10503,160.737898 114.850509,160.59891 115.573877,160.320935 C116.294085,160.046119 117.074311,159.616521 117.920872,159.041617 L120.264708,162.219379 C118.028271,163.997789 115.535971,164.888573 112.794125,164.888573 C109.689015,164.888573 107.307273,163.972518 105.64574,162.143568 C103.984206,160.317776 103.156598,157.863382 103.156598,154.780384 C103.156598,152.831399 103.504067,151.081418 104.202164,149.530443 C104.900261,147.979468 105.923715,146.750691 107.269367,145.847272 C108.618179,144.947011 110.229172,144.492142 112.108663,144.492142 C114.87578,144.492142 117.039564,145.360815 118.603175,147.095001 C120.166785,148.826029 120.95017,151.233041 120.95017,154.31288 C120.95017,155.1089 120.915423,155.791203 120.84277,156.369265 Z"
        id="Fill-12" fill="#000000" mask="url(#mask-2)"></path>
      <polygon id="Fill-13" fill="#000000" mask="url(#mask-2)"
               points="46.7058359 174.4923 42.517255 199.50691 34.8287136 199.50691 31.726763 180.411909 28.4416015 199.50691 20.9331122 199.50691 16.8171839 174.4923 22.7367922 174.4923 25.2290926 195.030877 28.6943062 174.4923 34.9013662 174.4923 38.1517808 195.030877 41.0736792 174.4923"></polygon>
      <path
        d="M49.3026929,199.505962 L55.0075022,199.505962 L55.0075022,180.338308 L49.3026929,180.338308 L49.3026929,199.505962 Z M54.5557925,171.152492 C55.1938719,171.7653 55.5129116,172.542368 55.5129116,173.480534 C55.5129116,174.4187 55.1938719,175.195767 54.5557925,175.808576 C53.917713,176.424544 53.1058991,176.72779 52.1203506,176.72779 C51.1316434,176.72779 50.326147,176.424544 49.7007028,175.808576 C49.0752586,175.195767 48.7625365,174.4187 48.7625365,173.480534 C48.7625365,172.542368 49.0752586,171.7653 49.7007028,171.152492 C50.326147,170.536524 51.1316434,170.233278 52.1203506,170.233278 C53.1058991,170.233278 53.917713,170.536524 54.5557925,171.152492 Z"
        id="Fill-14" fill="#000000" mask="url(#mask-2)"></path>
      <polygon id="Fill-15" fill="#000000" mask="url(#mask-2)"
               points="58.83282 190.411751 70.3466793 190.411751 70.3466793 186.005212 58.83282 186.005212"></polygon>
      <polygon id="Fill-16" fill="#000000" mask="url(#mask-2)"
               points="74.2822396 199.506594 74.2822396 174.491985 89.1886599 174.491985 88.5758509 178.715312 80.2018479 178.715312 80.2018479 185.358288 87.4923794 185.358288 87.4923794 189.578457 80.2018479 189.578457 80.2018479 199.506594"></polygon>
      <path
        d="M90.7052041,199.505962 L96.4100134,199.505962 L96.4100134,180.338308 L90.7052041,180.338308 L90.7052041,199.505962 Z M95.9583037,171.152492 C96.5963832,171.7653 96.9154229,172.542368 96.9154229,173.480534 C96.9154229,174.4187 96.5963832,175.195767 95.9583037,175.808576 C95.3202243,176.424544 94.5084103,176.72779 93.5228619,176.72779 C92.5341546,176.72779 91.7286583,176.424544 91.1032141,175.808576 C90.4777699,175.195767 90.1650478,174.4187 90.1650478,173.480534 C90.1650478,172.542368 90.4777699,171.7653 91.1032141,171.152492 C91.7286583,170.536524 92.5341546,170.233278 93.5228619,170.233278 C94.5084103,170.233278 95.3202243,170.536524 95.9583037,171.152492 Z"
        id="Fill-17" fill="#000000" mask="url(#mask-2)"></path>
      <path
        d="M87.8243702,86.7026771 C87.8243702,101.665956 75.6945432,113.795783 60.7281055,113.795783 C45.7648267,113.795783 33.6318408,101.665956 33.6318408,86.7026771 C33.6318408,71.7393982 45.7648267,59.6064124 60.7281055,59.6064124 C75.6945432,59.6064124 87.8243702,71.7393982 87.8243702,86.7026771"
        id="Fill-18" fill="#FFFFFF" mask="url(#mask-2)"></path>
      <path
        d="M60.6905157,62.342257 C47.2497828,62.342257 36.3171444,73.2780542 36.3171444,86.718787 C36.3171444,100.15952 47.2497828,111.095317 60.6905157,111.095317 C74.1312485,111.095317 85.0670457,100.15952 85.0670457,86.718787 C85.0670457,73.2780542 74.1312485,62.342257 60.6905157,62.342257 M60.6905157,122.988233 C40.6920951,122.988233 24.4242281,106.717208 24.4242281,86.718787 C24.4242281,66.7203664 40.6920951,50.4493406 60.6905157,50.4493406 C80.6920951,50.4493406 96.9599621,66.7203664 96.9599621,86.718787 C96.9599621,106.717208 80.6920951,122.988233 60.6905157,122.988233"
        id="Fill-19" fill="#000000" mask="url(#mask-2)"></path>
      <path
        d="M113.022191,34.6379215 C99.0634131,20.612809 80.4769802,12.8863618 60.6901998,12.8863618 C40.9350075,12.8863618 22.3738451,20.5938561 8.42138514,34.5779041 L0,26.1786307 C16.201532,9.93919292 37.7540867,0.99660428 60.6901998,0.99660428 C83.6642186,0.99660428 105.245203,9.96130459 121.449893,26.2512833 L113.022191,34.6379215 Z"
        id="Fill-20" fill="#000000" mask="url(#mask-2)"></path>
      <path
        d="M95.4497354,52.1254047 C86.1754718,42.8100766 73.8340046,37.6801706 60.6901998,37.6801706 C47.5685067,37.6801706 35.2396746,42.7974414 25.9717287,52.0843402 L17.5503435,43.6882255 C29.0673616,32.145937 44.3875859,25.7872542 60.6901998,25.7872542 C77.021243,25.7872542 92.3572613,32.161731 103.877438,43.7387665 L95.4497354,52.1254047 Z"
        id="Fill-21" fill="#000000" mask="url(#mask-2)"></path>
      <path
        d="M61.8611703,77.2695254 C62.1138751,77.8633815 62.2718155,78.5109374 62.3223565,79.1900813 C62.5529495,82.5194662 60.0448551,85.4066177 56.7154703,85.6403696 C54.7443734,85.7793572 52.9280581,84.9580668 51.7277107,83.5713496 C51.3897181,84.5474216 51.2033483,85.5929874 51.2033483,86.6827766 C51.2033483,91.9232409 55.4519466,96.1686804 60.6892522,96.1686804 C65.9297165,96.1686804 70.1783148,91.9232409 70.1783148,86.6827766 C70.1783148,81.8403222 66.5488431,77.8475875 61.8611703,77.2695254"
        id="Fill-22" fill="#000000" mask="url(#mask-2)"></path>
    </g>
  </g>
</svg>
