<?xml version="1.0" encoding="UTF-8"?>
<svg width="94px" height="177px" viewBox="0 0 94 177" version="1.1" xmlns="http://www.w3.org/2000/svg" xmlns:xlink="http://www.w3.org/1999/xlink">
    <!-- Generator: Sketch 48.2 (47327) - http://www.bohemiancoding.com/sketch -->
    <title>Page 1</title>
    <desc>Created with Sketch.</desc>
    <defs>
        <polygon id="path-1" points="0 0.4691 93.934 0.4691 93.934 26.4901 0 26.4901"></polygon>
        <polygon id="path-3" points="0 177.531 93.934 177.531 93.934 1 0 1"></polygon>
    </defs>
    <g id="320_welcome-page" stroke="none" stroke-width="1" fill="none" fill-rule="evenodd" transform="translate(-113.000000, -196.000000)">
        <g id="Page-1" transform="translate(113.000000, 195.000000)">
            <path d="M67.9255,67.2877 C67.9255,78.8617 58.5435,88.2447 46.9695,88.2447 C35.3955,88.2447 26.0125,78.8617 26.0125,67.2877 C26.0125,55.7137 35.3955,46.3307 46.9695,46.3307 C58.5435,46.3307 67.9255,55.7137 67.9255,67.2877" id="Fill-1" fill="#FFFFFF"></path>
            <path d="M46.9401,48.4479 C36.5441,48.4479 28.0871,56.9059 28.0871,67.3019 C28.0871,77.6969 36.5441,86.1539 46.9401,86.1539 C57.3361,86.1539 65.7941,77.6969 65.7941,67.3019 C65.7941,56.9059 57.3361,48.4479 46.9401,48.4479 M46.9401,95.3529 C31.4721,95.3529 18.8891,82.7689 18.8891,67.3019 C18.8891,51.8339 31.4721,39.2499 46.9401,39.2499 C62.4081,39.2499 74.9921,51.8339 74.9921,67.3019 C74.9921,82.7689 62.4081,95.3529 46.9401,95.3529" id="Fill-3" fill="#000000"></path>
            <g id="Group-7" transform="translate(0.000000, 0.531000)">
                <mask id="mask-2" fill="white">
                    <use xlink:href="#path-1"></use>
                </mask>
                <g id="Clip-6"></g>
                <path d="M87.4147,26.4901 C76.6177,15.6411 62.2437,9.6671 46.9397,9.6671 C31.6617,9.6671 17.3037,15.6251 6.5127,26.4431 L-0.0003,19.9471 C12.5297,7.3861 29.1997,0.4691 46.9397,0.4691 C64.7087,0.4691 81.3977,7.4051 93.9347,20.0011 L87.4147,26.4901 Z" id="Fill-5" fill="#000000" mask="url(#mask-2)"></path>
            </g>
            <path d="M73.8239,40.5465 C66.6519,33.3415 57.1049,29.3725 46.9399,29.3725 C36.7919,29.3725 27.2559,33.3295 20.0879,40.5155 L13.5749,34.0195 C22.4809,25.0915 34.3309,20.1745 46.9399,20.1745 C59.5699,20.1745 71.4329,25.1055 80.3439,34.0575 L73.8239,40.5465 Z" id="Fill-8" fill="#000000"></path>
            <path d="M47.8454,59.9918 C48.0394,60.4528 48.1634,60.9528 48.2004,61.4788 C48.3814,64.0538 46.4404,66.2878 43.8664,66.4688 C42.3414,66.5748 40.9374,65.9378 40.0074,64.8668 C39.7454,65.6208 39.6034,66.4298 39.6034,67.2728 C39.6034,71.3258 42.8884,74.6108 46.9404,74.6108 C50.9924,74.6108 54.2784,71.3258 54.2784,67.2728 C54.2784,63.5278 51.4704,60.4368 47.8454,59.9918" id="Fill-10" fill="#000000"></path>
            <path d="M9.6237,147.1032 C10.2427,146.7422 10.5537,146.0722 10.5537,145.0912 C10.5537,143.3162 9.4427,142.4272 7.2237,142.4272 L5.2267,142.4272 L5.2267,147.6442 L6.8907,147.6442 C8.0927,147.6442 9.0037,147.4632 9.6237,147.1032 Z M5.2267,134.9372 L5.2267,139.4042 L6.9187,139.4042 C8.8417,139.4042 9.8037,138.6262 9.8037,137.0732 C9.8037,136.2962 9.5447,135.7472 9.0267,135.4222 C8.5087,135.0992 7.6857,134.9372 6.5577,134.9372 L5.2267,134.9372 Z M14.0347,142.1782 C14.8397,142.8812 15.2417,143.9352 15.2417,145.3412 C15.2417,147.3942 14.5067,148.8412 13.0357,149.6832 C11.5657,150.5252 9.5077,150.9462 6.8627,150.9462 L0.6757,150.9462 L0.6757,131.7182 L6.1137,131.7182 C8.8137,131.7182 10.8767,132.1022 12.3007,132.8702 C13.7257,133.6372 14.4367,134.8912 14.4367,136.6292 C14.4367,137.7572 14.0997,138.6682 13.4247,139.3622 C12.7487,140.0552 11.9127,140.5232 10.9137,140.7632 C12.1897,141.0032 13.2297,141.4752 14.0347,142.1782 Z" id="Fill-12" fill="#000000"></path>
            <path d="M26.2565,142.0397 C26.2185,139.7827 25.4235,138.6547 23.8695,138.6547 C23.1105,138.6547 22.5245,138.9327 22.1085,139.4867 C21.6925,140.0417 21.4375,140.9577 21.3455,142.2337 L26.2565,142.2337 L26.2565,142.0397 Z M30.4735,144.8697 L21.3455,144.8697 C21.4925,146.1087 21.8445,146.9777 22.4005,147.4767 C22.9545,147.9767 23.7215,148.2267 24.7025,148.2267 C25.2945,148.2267 25.8675,148.1197 26.4225,147.9077 C26.9775,147.6947 27.5785,147.3667 28.2265,146.9227 L30.0285,149.3637 C28.3095,150.7327 26.3955,151.4167 24.2855,151.4167 C21.9005,151.4167 20.0695,150.7147 18.7925,149.3087 C17.5165,147.9027 16.8785,146.0167 16.8785,143.6487 C16.8785,142.1497 17.1465,140.8047 17.6835,139.6117 C18.2195,138.4187 19.0055,137.4757 20.0415,136.7817 C21.0765,136.0887 22.3165,135.7417 23.7595,135.7417 C25.8855,135.7417 27.5505,136.4067 28.7535,137.7387 C29.9545,139.0707 30.5565,140.9207 30.5565,143.2877 C30.5565,143.8977 30.5285,144.4257 30.4735,144.8697 Z" id="Fill-14" fill="#000000"></path>
            <path d="M41.571,142.0397 C41.534,139.7827 40.738,138.6547 39.184,138.6547 C38.426,138.6547 37.84,138.9327 37.423,139.4867 C37.007,140.0417 36.753,140.9577 36.66,142.2337 L41.571,142.2337 L41.571,142.0397 Z M45.788,144.8697 L36.66,144.8697 C36.807,146.1087 37.159,146.9777 37.715,147.4767 C38.269,147.9767 39.037,148.2267 40.017,148.2267 C40.609,148.2267 41.182,148.1197 41.737,147.9077 C42.292,147.6947 42.893,147.3667 43.541,146.9227 L45.344,149.3637 C43.624,150.7327 41.71,151.4167 39.601,151.4167 C37.215,151.4167 35.384,150.7147 34.107,149.3087 C32.831,147.9027 32.193,146.0167 32.193,143.6487 C32.193,142.1497 32.461,140.8047 32.998,139.6117 C33.534,138.4187 34.32,137.4757 35.356,136.7817 C36.391,136.0887 37.631,135.7417 39.074,135.7417 C41.201,135.7417 42.865,136.4067 44.068,137.7387 C45.27,139.0707 45.871,140.9207 45.871,143.2877 C45.871,143.8977 45.843,144.4257 45.788,144.8697 Z" id="Fill-16" fill="#000000"></path>
            <path d="M49.2692,150.3209 C48.5572,149.5909 48.2012,148.5499 48.2012,147.1999 L48.2012,130.3589 L52.5842,129.8869 L52.5842,147.0339 C52.5842,147.6439 52.8342,147.9489 53.3332,147.9489 C53.5922,147.9489 53.8332,147.9029 54.0552,147.8099 L54.9152,150.9179 C54.1202,151.2509 53.2322,151.4169 52.2512,151.4169 C50.9752,151.4169 49.9812,151.0509 49.2692,150.3209" id="Fill-18" fill="#000000"></path>
            <mask id="mask-4" fill="white">
                <use xlink:href="#path-3"></use>
            </mask>
            <g id="Clip-21"></g>
            <path d="M56.58,150.946 L60.964,150.946 L60.964,136.214 L56.58,136.214 L56.58,150.946 Z M60.617,129.152 C61.107,129.624 61.352,130.22 61.352,130.942 C61.352,131.663 61.107,132.259 60.617,132.731 C60.127,133.203 59.503,133.439 58.744,133.439 C57.985,133.439 57.366,133.203 56.885,132.731 C56.404,132.259 56.164,131.663 56.164,130.942 C56.164,130.22 56.404,129.624 56.885,129.152 C57.366,128.68 57.985,128.445 58.744,128.445 C59.503,128.445 60.127,128.68 60.617,129.152 Z" id="Fill-20" fill="#000000" mask="url(#mask-4)"></path>
            <path d="M76.029,136.9069 C76.751,137.6829 77.111,138.7749 77.111,140.1799 L77.111,150.9459 L72.727,150.9459 L72.727,140.9289 C72.727,140.1899 72.612,139.6769 72.381,139.3899 C72.149,139.1029 71.802,138.9599 71.341,138.9599 C70.453,138.9599 69.601,139.5979 68.788,140.8739 L68.788,150.9459 L64.404,150.9459 L64.404,136.2139 L68.233,136.2139 L68.538,137.9609 C69.167,137.2209 69.846,136.6669 70.577,136.2969 C71.307,135.9269 72.126,135.7419 73.033,135.7419 C74.309,135.7419 75.307,136.1299 76.029,136.9069" id="Fill-22" fill="#000000" mask="url(#mask-4)"></path>
            <path d="M88.9577,142.0397 C88.9207,139.7827 88.1257,138.6547 86.5717,138.6547 C85.8127,138.6547 85.2267,138.9327 84.8107,139.4867 C84.3947,140.0417 84.1397,140.9577 84.0477,142.2337 L88.9577,142.2337 L88.9577,142.0397 Z M93.1757,144.8697 L84.0477,144.8697 C84.1947,146.1087 84.5467,146.9777 85.1017,147.4767 C85.6557,147.9767 86.4237,148.2267 87.4037,148.2267 C87.9957,148.2267 88.5687,148.1197 89.1247,147.9077 C89.6797,147.6947 90.2797,147.3667 90.9277,146.9227 L92.7307,149.3637 C91.0117,150.7327 89.0967,151.4167 86.9877,151.4167 C84.6027,151.4167 82.7707,150.7147 81.4947,149.3087 C80.2187,147.9027 79.5797,146.0167 79.5797,143.6487 C79.5797,142.1497 79.8487,140.8047 80.3847,139.6117 C80.9207,138.4187 81.7067,137.4757 82.7427,136.7817 C83.7787,136.0887 85.0187,135.7417 86.4607,135.7417 C88.5877,135.7417 90.2527,136.4067 91.4547,137.7387 C92.6567,139.0707 93.2587,140.9207 93.2587,143.2877 C93.2587,143.8977 93.2297,144.4257 93.1757,144.8697 Z" id="Fill-23" fill="#000000" mask="url(#mask-4)"></path>
            <polygon id="Fill-24" fill="#000000" mask="url(#mask-4)" points="37.1569 158.3043 33.9379 177.5313 28.0289 177.5313 25.6429 162.8543 23.1179 177.5313 17.3469 177.5313 14.1839 158.3043 18.7339 158.3043 20.6489 174.0903 23.3119 158.3043 28.0849 158.3043 30.5819 174.0903 32.8289 158.3043"></polygon>
            <path d="M39.154,177.531 L43.538,177.531 L43.538,162.799 L39.154,162.799 L39.154,177.531 Z M43.191,155.738 C43.68,156.21 43.926,156.805 43.926,157.527 C43.926,158.249 43.68,158.845 43.191,159.317 C42.701,159.789 42.077,160.024 41.318,160.024 C40.559,160.024 39.94,159.789 39.46,159.317 C38.978,158.845 38.738,158.249 38.738,157.527 C38.738,156.805 38.978,156.21 39.46,155.738 C39.94,155.266 40.559,155.03 41.318,155.03 C42.077,155.03 42.701,155.266 43.191,155.738 Z" id="Fill-25" fill="#000000" mask="url(#mask-4)"></path>
            <polygon id="Fill-26" fill="#000000" mask="url(#mask-4)" points="46.478 170.54 55.329 170.54 55.329 167.155 46.478 167.155"></polygon>
            <polygon id="Fill-27" fill="#000000" mask="url(#mask-4)" points="58.3532 177.5309 58.3532 158.3039 69.8122 158.3039 69.3402 161.5509 62.9032 161.5509 62.9032 166.6549 68.5072 166.6549 68.5072 169.9009 62.9032 169.9009 62.9032 177.5309"></polygon>
            <path d="M70.977,177.531 L75.361,177.531 L75.361,162.799 L70.977,162.799 L70.977,177.531 Z M75.014,155.738 C75.504,156.21 75.75,156.805 75.75,157.527 C75.75,158.249 75.504,158.845 75.014,159.317 C74.524,159.789 73.899,160.024 73.141,160.024 C72.383,160.024 71.763,159.789 71.283,159.317 C70.801,158.845 70.561,158.249 70.561,157.527 C70.561,156.805 70.801,156.21 71.283,155.738 C71.763,155.266 72.383,155.03 73.141,155.03 C73.899,155.03 74.524,155.266 75.014,155.738 Z" id="Fill-28" fill="#000000" mask="url(#mask-4)"></path>
            <polygon id="Fill-29" fill="#000000" mask="url(#mask-4)" points="93.3552 106.6735 4.5792 106.6735 0.5792 122.1665 89.3552 122.1665"></polygon>
            <path d="M19.8884,111.5407 C20.1864,111.6637 20.4804,111.8497 20.7684,112.0967 L20.1104,112.8677 C19.7264,112.5457 19.3304,112.3837 18.9264,112.3837 C18.4594,112.3837 18.0934,112.5937 17.8254,113.0117 C17.5584,113.4307 17.4244,114.1087 17.4244,115.0487 C17.4244,115.9687 17.5584,116.6407 17.8254,117.0647 C18.0934,117.4907 18.4634,117.7027 18.9364,117.7027 C19.1834,117.7027 19.4004,117.6567 19.5844,117.5637 C19.7704,117.4717 19.9764,117.3357 20.2024,117.1577 L20.8404,117.9187 C20.6004,118.1657 20.3154,118.3697 19.9864,118.5307 C19.6574,118.6917 19.2854,118.7727 18.8754,118.7727 C18.3054,118.7727 17.8074,118.6347 17.3784,118.3557 C16.9504,118.0787 16.6174,117.6607 16.3804,117.1017 C16.1434,116.5417 16.0254,115.8577 16.0254,115.0487 C16.0254,114.2527 16.1484,113.5777 16.3954,113.0217 C16.6424,112.4667 16.9784,112.0497 17.4044,111.7717 C17.8284,111.4937 18.3134,111.3547 18.8544,111.3547 C19.2444,111.3547 19.5904,111.4167 19.8884,111.5407" id="Fill-30" fill="#FFFFFF" mask="url(#mask-4)"></path>
            <polygon id="Fill-31" fill="#FFFFFF" mask="url(#mask-4)" points="26.9929 111.5094 25.3569 114.7804 27.1679 118.6184 25.7269 118.6184 24.2349 115.4084 23.5049 115.4084 23.5049 118.6184 22.1679 118.6184 22.1679 111.5094 23.5049 111.5094 23.5049 114.3904 24.2559 114.3904 25.6859 111.5094"></polygon>
            <path d="M29.6882,113.0016 C29.4492,113.4196 29.3282,114.1086 29.3282,115.0686 C29.3282,116.0226 29.4502,116.7086 29.6942,117.1266 C29.9372,117.5456 30.2922,117.7546 30.7582,117.7546 C31.2462,117.7546 31.6072,117.5466 31.8442,117.1326 C32.0802,116.7166 32.1992,116.0256 32.1992,115.0596 C32.1992,114.1056 32.0802,113.4196 31.8442,113.0016 C31.6072,112.5826 31.2462,112.3736 30.7582,112.3736 C30.2852,112.3736 29.9282,112.5826 29.6882,113.0016 M32.8462,112.2966 C33.3472,112.9236 33.5982,113.8446 33.5982,115.0596 C33.5982,116.2596 33.3472,117.1786 32.8462,117.8156 C32.3452,118.4536 31.6502,118.7726 30.7582,118.7726 C29.8742,118.7726 29.1802,118.4576 28.6802,117.8266 C28.1792,117.1956 27.9282,116.2756 27.9282,115.0686 C27.9282,113.8756 28.1792,112.9586 28.6802,112.3166 C29.1802,111.6756 29.8742,111.3556 30.7582,111.3556 C31.6502,111.3556 32.3452,111.6686 32.8462,112.2966" id="Fill-32" fill="#FFFFFF" mask="url(#mask-4)"></path>
            <path d="M38.0837,114.8278 C38.3027,114.6258 38.4117,114.2728 38.4117,113.7728 C38.4117,113.3268 38.3027,113.0018 38.0837,112.7958 C37.8627,112.5898 37.5227,112.4868 37.0637,112.4868 L36.5507,112.4868 L36.5507,115.1308 L37.0637,115.1308 C37.5227,115.1308 37.8627,115.0298 38.0837,114.8278 M39.0867,112.0808 C39.5567,112.4618 39.7907,113.0248 39.7907,113.7728 C39.7907,114.5548 39.5567,115.1428 39.0867,115.5368 C38.6157,115.9318 37.9697,116.1288 37.1467,116.1288 L36.5507,116.1288 L36.5507,118.6188 L35.2127,118.6188 L35.2127,111.5098 L37.0547,111.5098 C37.9387,111.5098 38.6157,111.6998 39.0867,112.0808" id="Fill-33" fill="#FFFFFF" mask="url(#mask-4)"></path>
            <path d="M42.6716,113.0016 C42.4326,113.4196 42.3126,114.1086 42.3126,115.0686 C42.3126,116.0226 42.4346,116.7086 42.6776,117.1266 C42.9206,117.5456 43.2756,117.7546 43.7416,117.7546 C44.2296,117.7546 44.5906,117.5466 44.8276,117.1326 C45.0646,116.7166 45.1826,116.0256 45.1826,115.0596 C45.1826,114.1056 45.0646,113.4196 44.8276,113.0016 C44.5906,112.5826 44.2296,112.3736 43.7416,112.3736 C43.2686,112.3736 42.9116,112.5826 42.6716,113.0016 M45.8306,112.2966 C46.3316,112.9236 46.5816,113.8446 46.5816,115.0596 C46.5816,116.2596 46.3316,117.1786 45.8306,117.8156 C45.3296,118.4536 44.6336,118.7726 43.7416,118.7726 C42.8586,118.7726 42.1636,118.4576 41.6636,117.8266 C41.1626,117.1956 40.9126,116.2756 40.9126,115.0686 C40.9126,113.8756 41.1626,112.9586 41.6636,112.3166 C42.1636,111.6756 42.8586,111.3556 43.7416,111.3556 C44.6336,111.3556 45.3296,111.6686 45.8306,112.2966" id="Fill-34" fill="#FFFFFF" mask="url(#mask-4)"></path>
            <path d="M51.7507,111.5407 C52.0487,111.6637 52.3427,111.8497 52.6307,112.0967 L51.9727,112.8677 C51.5887,112.5457 51.1927,112.3837 50.7887,112.3837 C50.3227,112.3837 49.9557,112.5937 49.6877,113.0117 C49.4207,113.4307 49.2867,114.1087 49.2867,115.0487 C49.2867,115.9687 49.4207,116.6407 49.6877,117.0647 C49.9557,117.4907 50.3257,117.7027 50.7997,117.7027 C51.0467,117.7027 51.2627,117.6567 51.4467,117.5637 C51.6327,117.4717 51.8387,117.3357 52.0647,117.1577 L52.7027,117.9187 C52.4627,118.1657 52.1777,118.3697 51.8497,118.5307 C51.5197,118.6917 51.1487,118.7727 50.7377,118.7727 C50.1677,118.7727 49.6697,118.6347 49.2407,118.3557 C48.8127,118.0787 48.4797,117.6607 48.2427,117.1017 C48.0057,116.5417 47.8877,115.8577 47.8877,115.0487 C47.8877,114.2527 48.0117,113.5777 48.2587,113.0217 C48.5057,112.4667 48.8407,112.0497 49.2677,111.7717 C49.6907,111.4937 50.1757,111.3547 50.7167,111.3547 C51.1067,111.3547 51.4527,111.4167 51.7507,111.5407" id="Fill-35" fill="#FFFFFF" mask="url(#mask-4)"></path>
            <polygon id="Fill-36" fill="#FFFFFF" mask="url(#mask-4)" points="58.1247 111.5094 57.9807 112.5584 56.3457 112.5584 56.3457 118.6184 55.0187 118.6184 55.0187 112.5584 53.3107 112.5584 53.3107 111.5094"></polygon>
            <polygon id="Fill-37" fill="#FFFFFF" mask="url(#mask-4)" points="62.8571 118.6188 62.8571 115.4298 60.7171 115.4298 60.7171 118.6188 59.3801 118.6188 59.3801 111.5098 60.7171 111.5098 60.7171 114.3698 62.8571 114.3698 62.8571 111.5098 64.1951 111.5098 64.1951 118.6188"></polygon>
            <path d="M67.5788,113.0016 C67.3398,113.4196 67.2198,114.1086 67.2198,115.0686 C67.2198,116.0226 67.3418,116.7086 67.5848,117.1266 C67.8278,117.5456 68.1828,117.7546 68.6488,117.7546 C69.1368,117.7546 69.4978,117.5466 69.7348,117.1326 C69.9718,116.7166 70.0898,116.0256 70.0898,115.0596 C70.0898,114.1056 69.9718,113.4196 69.7348,113.0016 C69.4978,112.5826 69.1368,112.3736 68.6488,112.3736 C68.1758,112.3736 67.8188,112.5826 67.5788,113.0016 M70.7378,112.2966 C71.2388,112.9236 71.4888,113.8446 71.4888,115.0596 C71.4888,116.2596 71.2388,117.1786 70.7378,117.8156 C70.2368,118.4536 69.5408,118.7726 68.6488,118.7726 C67.7648,118.7726 67.0708,118.4576 66.5708,117.8266 C66.0698,117.1956 65.8198,116.2756 65.8198,115.0686 C65.8198,113.8756 66.0698,112.9586 66.5708,112.3166 C67.0708,111.6756 67.7648,111.3556 68.6488,111.3556 C69.5408,111.3556 70.2368,111.6686 70.7378,112.2966" id="Fill-38" fill="#FFFFFF" mask="url(#mask-4)"></path>
            <path d="M74.4323,110.4801 C74.1633,110.2341 74.0093,109.8941 73.9683,109.4621 L74.6993,109.3181 C74.7603,109.5381 74.8543,109.6941 74.9813,109.7861 C75.1083,109.8781 75.2823,109.9241 75.5003,109.9241 C75.7213,109.9241 75.8963,109.8761 76.0263,109.7811 C76.1573,109.6851 76.2483,109.5311 76.3033,109.3181 L77.0443,109.4621 C77.0033,109.8871 76.8473,110.2251 76.5773,110.4751 C76.3053,110.7261 75.9473,110.8511 75.5003,110.8511 C75.0553,110.8511 74.6993,110.7271 74.4323,110.4801 Z M77.9093,118.6191 L76.6123,118.6191 L76.6123,115.5631 C76.6123,114.6441 76.6713,113.7491 76.7863,112.8771 L74.7293,118.6191 L73.1043,118.6191 L73.1043,111.5091 L74.4013,111.5091 L74.4013,114.5951 C74.4013,115.1441 74.3843,115.6041 74.3543,115.9741 C74.3243,116.3451 74.2813,116.7701 74.2263,117.2511 L76.3033,111.5091 L77.9093,111.5091 L77.9093,118.6191 Z" id="Fill-39" fill="#FFFFFF" mask="url(#mask-4)"></path>
        </g>
    </g>
</svg>