<?xml version="1.0" encoding="UTF-8"?>
<svg xmlns:xlink="http://www.w3.org/1999/xlink" width="176px" height="90px" viewBox="0 0 176 90" version="1.1"
     xmlns="http://www.w3.org/2000/svg">
  <!-- Generator: Sketch 48.2 (47327) - http://www.bohemiancoding.com/sketch -->
  <title>Page 1</title>
  <desc>Created with Sketch.</desc>
  <defs>
    <polygon id="path-1"
             points="0.117176471 0.180264706 52.8774706 0.180264706 52.8774706 52.9411765 0.117176471 52.9411765"></polygon>
    <polygon id="path-3" points="0 0.385588235 88.3385294 0.385588235 88.3385294 24.8562353 0 24.8562353"></polygon>
    <polygon id="path-5" points="0 89.6144118 175.588235 89.6144118 175.588235 0.882352941 0 0.882352941"></polygon>
  </defs>
  <g id="320_home" stroke="none" stroke-width="1" fill="none" fill-rule="evenodd"
     transform="translate(-72.000000, -125.000000)">
    <g id="Page-1" transform="translate(72.000000, 125.000000)">
      <path
        d="M63.8797059,63.2213824 C63.8797059,74.1060882 55.0561765,82.9296176 44.1714706,82.9296176 C33.2867647,82.9296176 24.4632353,74.1060882 24.4632353,63.2213824 C24.4632353,52.3366765 33.2867647,43.5131471 44.1714706,43.5131471 C55.0561765,43.5131471 63.8797059,52.3366765 63.8797059,63.2213824"
        id="Fill-1" fill="#FFFFFF"></path>
      <g id="Group-5" transform="translate(17.647059, 36.673235)">
        <mask id="mask-2" fill="white">
          <use xlink:href="#path-1"></use>
        </mask>
        <g id="Clip-4"></g>
        <path
          d="M26.4968824,8.83085294 C16.7204118,8.83085294 8.76776471,16.7843824 8.76776471,26.5608529 C8.76776471,36.3373235 16.7204118,44.2908529 26.4968824,44.2908529 C36.2733529,44.2908529 44.2268824,36.3373235 44.2268824,26.5608529 C44.2268824,16.7843824 36.2733529,8.83085294 26.4968824,8.83085294 M26.4968824,52.9414412 C11.9512941,52.9414412 0.117176471,41.1073235 0.117176471,26.5608529 C0.117176471,12.0143824 11.9512941,0.180264706 26.4968824,0.180264706 C41.0433529,0.180264706 52.8774706,12.0143824 52.8774706,26.5608529 C52.8774706,41.1073235 41.0433529,52.9414412 26.4968824,52.9414412"
          id="Fill-3" fill="#000000" mask="url(#mask-2)"></path>
      </g>
      <g id="Group-8" transform="translate(0.000000, 0.496765)">
        <mask id="mask-4" fill="white">
          <use xlink:href="#path-3"></use>
        </mask>
        <g id="Clip-7"></g>
        <path
          d="M82.2070588,24.8562353 C72.0538235,14.6544706 58.5361765,9.03564706 44.1441176,9.03564706 C29.775,9.03564706 16.2732353,14.6385882 6.12441176,24.8121176 L0,18.7027059 C11.7838235,6.89064706 27.4605882,0.385058824 44.1441176,0.385058824 C60.8541176,0.385058824 76.5494118,6.90917647 88.3385294,18.7538824 L82.2070588,24.8562353 Z"
          id="Fill-6" fill="#000000" mask="url(#mask-4)"></path>
      </g>
      <path
        d="M69.4258235,38.073 C62.682,31.2965294 53.7031765,27.5650588 44.1437647,27.5650588 C34.6002353,27.5650588 25.632,31.2868235 18.8917059,38.0438824 L12.7664118,31.9344706 C21.1417059,23.538 32.2858235,18.9144706 44.1437647,18.9144706 C56.022,18.9144706 67.1775882,23.5512353 75.5572941,31.9706471 L69.4258235,38.073 Z"
        id="Fill-9" fill="#000000"></path>
      <path
        d="M44.9947941,56.3598529 C45.1783235,56.7939706 45.2947941,57.2633824 45.3292059,57.7592647 C45.4986176,60.1804412 43.6739118,62.2804412 41.2527353,62.4507353 C39.8189118,62.5513235 38.4989118,61.9522059 37.6236176,60.9445588 C37.3783235,61.6539706 37.2442059,62.4145588 37.2442059,63.2077941 C37.2442059,67.0186765 40.3333235,70.1077941 44.1442059,70.1077941 C47.9550882,70.1077941 51.0442059,67.0186765 51.0442059,63.2077941 C51.0442059,59.6854412 48.4042059,56.7789706 44.9947941,56.3598529"
        id="Fill-11" fill="#000000"></path>
      <path
        d="M96.8442353,60.7487647 C97.4265882,60.4099412 97.7186471,59.7790588 97.7186471,58.857 C97.7186471,57.1867059 96.6748235,56.352 94.5871765,56.352 L92.7086471,56.352 L92.7086471,61.2578824 L94.2748235,61.2578824 C95.4051176,61.2578824 96.2618824,61.0875882 96.8442353,60.7487647 Z M92.7086471,49.3072941 L92.7086471,53.5081765 L94.3004118,53.5081765 C96.1092353,53.5081765 97.0136471,52.7775882 97.0136471,51.3164118 C97.0136471,50.5858235 96.7701176,50.0687647 96.2830588,49.7643529 C95.7968824,49.4599412 95.0221765,49.3072941 93.9607059,49.3072941 L92.7086471,49.3072941 Z M100.993059,56.1172941 C101.750118,56.7781765 102.127765,57.7699412 102.127765,59.0917059 C102.127765,61.0222941 101.436882,62.3837647 100.054235,63.1752353 C98.6707059,63.9667059 96.7357059,64.362 94.2483529,64.362 L88.4292353,64.362 L88.4292353,46.2808235 L93.5442353,46.2808235 C96.0836471,46.2808235 98.0230588,46.6417059 99.3624706,47.3634706 C100.701,48.0852353 101.371588,49.2640588 101.371588,50.8990588 C101.371588,51.9605294 101.053941,52.8164118 100.419529,53.4693529 C99.7833529,54.1214118 98.9962941,54.5608235 98.0574706,54.7867059 C99.2574706,55.0134706 100.236882,55.4564118 100.993059,56.1172941 Z"
        id="Fill-13" fill="#000000"></path>
      <path
        d="M112.486235,55.9867941 C112.450941,53.8647353 111.703588,52.8041471 110.242412,52.8041471 C109.528588,52.8041471 108.976235,53.0644412 108.585353,53.5867941 C108.194471,54.1082647 107.954471,54.9694412 107.868,56.1694412 L112.486235,56.1694412 L112.486235,55.9867941 Z M116.452412,58.6488529 L107.868,58.6488529 C108.007412,59.8135588 108.337412,60.6315 108.859765,61.1009118 C109.381235,61.5703235 110.103,61.8050294 111.025059,61.8050294 C111.581824,61.8050294 112.120941,61.7053235 112.643294,61.5050294 C113.164765,61.3056176 113.729471,60.9967941 114.339176,60.5794412 L116.034176,62.8753235 C114.416824,64.1626765 112.615941,64.8059118 110.633294,64.8059118 C108.389471,64.8059118 106.667118,64.1450294 105.468,62.8232647 C104.268,61.5015 103.667118,59.7270882 103.667118,57.5000294 C103.667118,56.0917941 103.919471,54.8256176 104.423294,53.7041471 C104.928882,52.5817941 105.666529,51.6950294 106.641529,51.0420882 C107.614765,50.3900294 108.781235,50.0644412 110.138294,50.0644412 C112.137706,50.0644412 113.703882,50.6909118 114.834176,51.9429706 C115.964471,53.1950294 116.530059,54.9350294 116.530059,57.1612059 C116.530059,57.7347353 116.504471,58.2306176 116.452412,58.6488529 Z"
        id="Fill-15" fill="#000000"></path>
      <path
        d="M126.888176,55.9867941 C126.853765,53.8647353 126.105529,52.8041471 124.644353,52.8041471 C123.930529,52.8041471 123.379059,53.0644412 122.987294,53.5867941 C122.596412,54.1082647 122.356412,54.9694412 122.270824,56.1694412 L126.888176,56.1694412 L126.888176,55.9867941 Z M130.854353,58.6488529 L122.270824,58.6488529 C122.409353,59.8135588 122.740235,60.6315 123.261706,61.1009118 C123.783176,61.5703235 124.504941,61.8050294 125.427882,61.8050294 C125.983765,61.8050294 126.522882,61.7053235 127.045235,61.5050294 C127.567588,61.3056176 128.131412,60.9967941 128.741118,60.5794412 L130.436118,62.8753235 C128.818765,64.1626765 127.018765,64.8059118 125.035235,64.8059118 C122.791412,64.8059118 121.069941,64.1450294 119.869941,62.8232647 C118.669941,61.5015 118.069941,59.7270882 118.069941,57.5000294 C118.069941,56.0917941 118.321412,54.8256176 118.826118,53.7041471 C119.330824,52.5817941 120.069353,51.6950294 121.044353,51.0420882 C122.017588,50.3900294 123.184059,50.0644412 124.540235,50.0644412 C126.539647,50.0644412 128.105824,50.6909118 129.237,51.9429706 C130.367294,53.1950294 130.932882,54.9350294 130.932882,57.1612059 C130.932882,57.7347353 130.907294,58.2306176 130.854353,58.6488529 Z"
        id="Fill-17" fill="#000000"></path>
      <path
        d="M134.128853,63.7754118 C133.458265,63.0880588 133.123853,62.1095294 133.123853,60.8398235 L133.123853,45.0024706 L137.246206,44.5586471 L137.246206,60.6836471 C137.246206,61.2571765 137.481794,61.5448235 137.951206,61.5448235 C138.193853,61.5448235 138.420618,61.5007059 138.629735,61.4142353 L139.438853,64.3365882 C138.690618,64.6498235 137.855912,64.806 136.933853,64.806 C135.732971,64.806 134.798559,64.4618824 134.128853,63.7754118"
        id="Fill-19" fill="#000000"></path>
      <mask id="mask-6" fill="white">
        <use xlink:href="#path-5"></use>
      </mask>
      <g id="Clip-22"></g>
      <path
        d="M141.004412,64.3623529 L145.126765,64.3623529 L145.126765,50.5076471 L141.004412,50.5076471 L141.004412,64.3623529 Z M144.799412,43.8670588 C145.260882,44.3108824 145.492059,44.8711765 145.492059,45.5505882 C145.492059,46.2291176 145.260882,46.7894118 144.799412,47.2332353 C144.338824,47.6770588 143.752059,47.8985294 143.038235,47.8985294 C142.325294,47.8985294 141.742941,47.6770588 141.291176,47.2332353 C140.837647,46.7894118 140.611765,46.2291176 140.611765,45.5505882 C140.611765,44.8711765 140.837647,44.3108824 141.291176,43.8670588 C141.742941,43.4232353 142.325294,43.2017647 143.038235,43.2017647 C143.752059,43.2017647 144.338824,43.4232353 144.799412,43.8670588 Z"
        id="Fill-21" fill="#000000" mask="url(#mask-6)"></path>
      <path
        d="M159.294,51.1600588 C159.972529,51.8906471 160.311353,52.9168235 160.311353,54.2385882 L160.311353,64.3618235 L156.189,64.3618235 L156.189,54.9435882 C156.189,54.2482941 156.079588,53.7647647 155.862529,53.4947647 C155.645471,53.2256471 155.319,53.0906471 154.884882,53.0906471 C154.050176,53.0906471 153.249,53.6906471 152.484,54.8915294 L152.484,64.3618235 L148.361647,64.3618235 L148.361647,50.508 L151.961647,50.508 L152.249294,52.1518235 C152.840471,51.4556471 153.479294,50.9341765 154.166647,50.5856471 C154.854,50.238 155.623412,50.0641765 156.476647,50.0641765 C157.676647,50.0641765 158.615471,50.4294706 159.294,51.1600588"
        id="Fill-23" fill="#000000" mask="url(#mask-6)"></path>
      <path
        d="M171.453088,55.9867941 C171.417794,53.8647353 170.669559,52.8041471 169.208382,52.8041471 C168.495441,52.8041471 167.943088,53.0644412 167.552206,53.5867941 C167.160441,54.1082647 166.921324,54.9694412 166.834853,56.1694412 L171.453088,56.1694412 L171.453088,55.9867941 Z M175.418382,58.6488529 L166.834853,58.6488529 C166.973382,59.8135588 167.304265,60.6315 167.826618,61.1009118 C168.347206,61.5703235 169.069853,61.8050294 169.991912,61.8050294 C170.548676,61.8050294 171.087794,61.7053235 171.609265,61.5050294 C172.131618,61.3056176 172.696324,60.9967941 173.306029,60.5794412 L175.001029,62.8753235 C173.383676,64.1626765 171.582794,64.8059118 169.600147,64.8059118 C167.356324,64.8059118 165.633971,64.1450294 164.433971,62.8232647 C163.233971,61.5015 162.633971,59.7270882 162.633971,57.5000294 C162.633971,56.0917941 162.885441,54.8256176 163.390147,53.7041471 C163.894853,52.5817941 164.633382,51.6950294 165.608382,51.0420882 C166.581618,50.3900294 167.748088,50.0644412 169.104265,50.0644412 C171.104559,50.0644412 172.669853,50.6909118 173.801029,51.9429706 C174.931324,53.1950294 175.496912,54.9350294 175.496912,57.1612059 C175.496912,57.7347353 175.471324,58.2306176 175.418382,58.6488529 Z"
        id="Fill-24" fill="#000000" mask="url(#mask-6)"></path>
      <polygon id="Fill-25" fill="#000000" mask="url(#mask-6)"
               points="110.033912 71.2827353 107.006559 89.3639118 101.4495 89.3639118 99.2065588 75.5621471 96.8312647 89.3639118 91.4047941 89.3639118 88.4295 71.2827353 92.7089118 71.2827353 94.5089118 86.1292059 97.0139118 71.2827353 101.501559 71.2827353 103.8495 86.1292059 105.963618 71.2827353"></polygon>
      <path
        d="M111.912353,89.3638235 L116.034706,89.3638235 L116.034706,75.5091176 L111.912353,75.5091176 L111.912353,89.3638235 Z M115.708235,68.8694118 C116.168824,69.3123529 116.4,69.8735294 116.4,70.5520588 C116.4,71.2305882 116.168824,71.7908824 115.708235,72.2347059 C115.246765,72.6785294 114.66,72.9 113.947941,72.9 C113.234118,72.9 112.650882,72.6785294 112.199118,72.2347059 C111.746471,71.7908824 111.520588,71.2305882 111.520588,70.5520588 C111.520588,69.8735294 111.746471,69.3123529 112.199118,68.8694118 C112.650882,68.4255882 113.234118,68.2032353 113.947941,68.2032353 C114.66,68.2032353 115.246765,68.4255882 115.708235,68.8694118 Z"
        id="Fill-26" fill="#000000" mask="url(#mask-6)"></path>
      <polygon id="Fill-27" fill="#000000" mask="url(#mask-6)"
               points="118.800882 82.7885294 127.124118 82.7885294 127.124118 79.6058824 118.800882 79.6058824"></polygon>
      <polygon id="Fill-28" fill="#000000" mask="url(#mask-6)"
               points="129.967853 89.3640882 129.967853 71.2829118 140.743147 71.2829118 140.300206 74.3349706 134.247265 74.3349706 134.247265 79.1358529 139.516676 79.1358529 139.516676 82.1887941 134.247265 82.1887941 134.247265 89.3640882"></polygon>
      <path
        d="M141.839118,89.3638235 L145.962353,89.3638235 L145.962353,75.5091176 L141.839118,75.5091176 L141.839118,89.3638235 Z M145.635882,68.8694118 C146.096471,69.3123529 146.327647,69.8735294 146.327647,70.5520588 C146.327647,71.2305882 146.096471,71.7908824 145.635882,72.2347059 C145.174412,72.6785294 144.587647,72.9 143.874706,72.9 C143.160882,72.9 142.578529,72.6785294 142.125882,72.2347059 C141.673235,71.7908824 141.448235,71.2305882 141.448235,70.5520588 C141.448235,69.8735294 141.673235,69.3123529 142.125882,68.8694118 C142.578529,68.4255882 143.160882,68.2032353 143.874706,68.2032353 C144.587647,68.2032353 145.174412,68.4255882 145.635882,68.8694118 Z"
        id="Fill-29" fill="#000000" mask="url(#mask-6)"></path>
      <polygon id="Fill-30" fill="#000000" mask="url(#mask-6)"
               points="175.588235 25.2754412 92.1008824 25.2754412 88.3385294 39.8457353 171.825882 39.8457353"></polygon>
      <path
        d="M106.497618,29.8522059 C106.778206,29.9677941 107.054382,30.1425 107.324382,30.3745588 L106.705853,31.1007353 C106.344971,30.7972059 105.9735,30.6454412 105.593206,30.6454412 C105.154676,30.6454412 104.809676,30.8422059 104.558206,31.2348529 C104.306735,31.6292647 104.180559,32.2680882 104.180559,33.1513235 C104.180559,34.0160294 104.306735,34.6477941 104.558206,35.0475 C104.809676,35.4480882 105.157324,35.6475 105.602029,35.6475 C105.834971,35.6475 106.037912,35.6042647 106.212618,35.5169118 C106.386441,35.4295588 106.580559,35.3025 106.793206,35.1348529 L107.393206,35.8504412 C107.167324,36.0833824 106.899088,36.2748529 106.589382,36.4266176 C106.280559,36.5783824 105.931147,36.6533824 105.544676,36.6533824 C105.009088,36.6533824 104.539676,36.5236765 104.137324,36.2625 C103.734088,36.0004412 103.420853,35.6069118 103.199382,35.0810294 C102.976147,34.5560294 102.864971,33.9127941 102.864971,33.1513235 C102.864971,32.4030882 102.980559,31.7677941 103.212618,31.2454412 C103.445559,30.7230882 103.760559,30.3304412 104.162029,30.0701471 C104.560853,29.8089706 105.016147,29.6775 105.524382,29.6775 C105.892324,29.6775 106.217912,29.7357353 106.497618,29.8522059"
        id="Fill-31" fill="#FFFFFF" mask="url(#mask-6)"></path>
      <polygon id="Fill-32" fill="#FFFFFF" mask="url(#mask-6)"
               points="113.178176 29.8229118 111.640235 32.8996765 113.343176 36.5085 111.988765 36.5085 110.585824 33.4899706 109.898471 33.4899706 109.898471 36.5085 108.641118 36.5085 108.641118 29.8229118 109.898471 29.8229118 109.898471 32.5317353 110.605235 32.5317353 111.949941 29.8229118"></polygon>
      <path
        d="M115.713176,31.2257647 C115.488176,31.6192941 115.375235,32.2678235 115.375235,33.1704706 C115.375235,34.0669412 115.489941,34.7128235 115.719353,35.1054706 C115.947882,35.499 116.281412,35.6957647 116.719941,35.6957647 C117.177882,35.6957647 117.518471,35.5007647 117.741706,35.1107647 C117.963176,34.7198824 118.075235,34.0704706 118.075235,33.1607647 C118.075235,32.2642941 117.963176,31.6192941 117.741706,31.2257647 C117.518471,30.8331176 117.177882,30.6363529 116.719941,30.6363529 C116.275235,30.6363529 115.939941,30.8331176 115.713176,31.2257647 M118.684059,30.5631176 C119.155235,31.1534118 119.390824,32.019 119.390824,33.1607647 C119.390824,34.2901765 119.155235,35.154 118.684059,35.754 C118.212882,36.354 117.559059,36.654 116.719941,36.654 C115.887882,36.654 115.235824,36.3575294 114.766412,35.7637059 C114.295235,35.1707647 114.058765,34.3060588 114.058765,33.1704706 C114.058765,32.0481176 114.295235,31.1860588 114.766412,30.5825294 C115.235824,29.979 115.887882,29.6781176 116.719941,29.6781176 C117.559059,29.6781176 118.212882,29.9728235 118.684059,30.5631176"
        id="Fill-33" fill="#FFFFFF" mask="url(#mask-6)"></path>
      <path
        d="M123.608647,32.943 C123.815118,32.7532941 123.918353,32.4224118 123.918353,31.9512353 C123.918353,31.5321176 123.815118,31.2259412 123.608647,31.0318235 C123.402176,30.8385882 123.081882,30.7424118 122.650412,30.7424118 L122.166882,30.7424118 L122.166882,33.2288824 L122.650412,33.2288824 C123.081882,33.2288824 123.402176,33.1335882 123.608647,32.943 M124.551882,30.3594706 C124.993059,30.7185882 125.213647,31.2488824 125.213647,31.9512353 C125.213647,32.6862353 124.993059,33.2394706 124.551882,33.6109412 C124.109824,33.9815294 123.501882,34.1668235 122.728059,34.1668235 L122.166882,34.1668235 L122.166882,36.5085882 L120.908647,36.5085882 L120.908647,29.823 L122.640706,29.823 C123.472765,29.823 124.109824,30.0021176 124.551882,30.3594706"
        id="Fill-34" fill="#FFFFFF" mask="url(#mask-6)"></path>
      <path
        d="M127.923971,31.2257647 C127.698971,31.6192941 127.585147,32.2678235 127.585147,33.1704706 C127.585147,34.0669412 127.699853,34.7128235 127.930147,35.1054706 C128.158676,35.499 128.492206,35.6957647 128.930735,35.6957647 C129.388676,35.6957647 129.728382,35.5007647 129.951618,35.1107647 C130.173971,34.7198824 130.285147,34.0704706 130.285147,33.1607647 C130.285147,32.2642941 130.173971,31.6192941 129.951618,31.2257647 C129.728382,30.8331176 129.388676,30.6363529 128.930735,30.6363529 C128.485147,30.6363529 128.149853,30.8331176 127.923971,31.2257647 M130.894853,30.5631176 C131.365147,31.1534118 131.601618,32.019 131.601618,33.1607647 C131.601618,34.2901765 131.365147,35.154 130.894853,35.754 C130.423676,36.354 129.768971,36.654 128.930735,36.654 C128.098676,36.654 127.446618,36.3575294 126.976324,35.7637059 C126.505147,35.1707647 126.269559,34.3060588 126.269559,33.1704706 C126.269559,32.0481176 126.505147,31.1860588 126.976324,30.5825294 C127.446618,29.979 128.098676,29.6781176 128.930735,29.6781176 C129.768971,29.6781176 130.423676,29.9728235 130.894853,30.5631176"
        id="Fill-35" fill="#FFFFFF" mask="url(#mask-6)"></path>
      <path
        d="M136.462235,29.8522059 C136.741941,29.9677941 137.018118,30.1425 137.289,30.3745588 L136.670471,31.1007353 C136.309588,30.7972059 135.937235,30.6454412 135.557824,30.6454412 C135.119294,30.6454412 134.774294,30.8422059 134.521941,31.2348529 C134.271353,31.6292647 134.145176,32.2680882 134.145176,33.1513235 C134.145176,34.0160294 134.271353,34.6477941 134.521941,35.0475 C134.774294,35.4480882 135.121941,35.6475 135.566647,35.6475 C135.799588,35.6475 136.002529,35.6042647 136.176353,35.5169118 C136.351059,35.4295588 136.545176,35.3025 136.757824,35.1348529 L137.357824,35.8504412 C137.131941,36.0833824 136.863706,36.2748529 136.554,36.4266176 C136.244294,36.5783824 135.895765,36.6533824 135.509294,36.6533824 C134.973706,36.6533824 134.504294,36.5236765 134.101059,36.2625 C133.697824,36.0004412 133.385471,35.6069118 133.163118,35.0810294 C132.940765,34.5560294 132.828706,33.9127941 132.828706,33.1513235 C132.828706,32.4030882 132.945176,31.7677941 133.177235,31.2454412 C133.410176,30.7230882 133.725176,30.3304412 134.126647,30.0701471 C134.525471,29.8089706 134.979882,29.6775 135.489,29.6775 C135.856941,29.6775 136.182529,29.7357353 136.462235,29.8522059"
        id="Fill-36" fill="#FFFFFF" mask="url(#mask-6)"></path>
      <polygon id="Fill-37" fill="#FFFFFF" mask="url(#mask-6)"
               points="142.456059 29.8229118 142.321059 30.8093824 140.783118 30.8093824 140.783118 36.5085 139.533706 36.5085 139.533706 30.8093824 137.927824 30.8093824 137.927824 29.8229118"></polygon>
      <polygon id="Fill-38" fill="#FFFFFF" mask="url(#mask-6)"
               points="146.907441 36.5086765 146.907441 33.5095588 144.894794 33.5095588 144.894794 36.5086765 143.637441 36.5086765 143.637441 29.8230882 144.894794 29.8230882 144.894794 32.5125 146.907441 32.5125 146.907441 29.8230882 148.164794 29.8230882 148.164794 36.5086765"></polygon>
      <path
        d="M151.347618,31.2257647 C151.121735,31.6192941 151.008794,32.2678235 151.008794,33.1704706 C151.008794,34.0669412 151.1235,34.7128235 151.352912,35.1054706 C151.581441,35.499 151.914971,35.6957647 152.3535,35.6957647 C152.811441,35.6957647 153.152029,35.5007647 153.375265,35.1107647 C153.596735,34.7198824 153.708794,34.0704706 153.708794,33.1607647 C153.708794,32.2642941 153.596735,31.6192941 153.375265,31.2257647 C153.152029,30.8331176 152.811441,30.6363529 152.3535,30.6363529 C151.908794,30.6363529 151.5735,30.8331176 151.347618,31.2257647 M154.317618,30.5631176 C154.788794,31.1534118 155.024382,32.019 155.024382,33.1607647 C155.024382,34.2901765 154.788794,35.154 154.317618,35.754 C153.846441,36.354 153.192618,36.654 152.3535,36.654 C151.521441,36.654 150.869382,36.3575294 150.399971,35.7637059 C149.928794,35.1707647 149.693206,34.3060588 149.693206,33.1704706 C149.693206,32.0481176 149.928794,31.1860588 150.399971,30.5825294 C150.869382,29.979 151.521441,29.6781176 152.3535,29.6781176 C153.192618,29.6781176 153.846441,29.9728235 154.317618,30.5631176"
        id="Fill-39" fill="#FFFFFF" mask="url(#mask-6)"></path>
      <path
        d="M157.792147,28.8552353 C157.539794,28.6231765 157.395088,28.3037647 157.356265,27.8978824 L158.043618,27.762 C158.101853,27.9684706 158.189206,28.1158235 158.309206,28.2022941 C158.428324,28.2887647 158.590676,28.3328824 158.798029,28.3328824 C159.0045,28.3328824 159.1695,28.2878824 159.291265,28.1978824 C159.413912,28.107 159.501265,27.9622941 159.552441,27.762 L160.248618,27.8978824 C160.210676,28.2975882 160.063324,28.6152353 159.809206,28.8508235 C159.554206,29.0864118 159.217147,29.2037647 158.798029,29.2037647 C158.378912,29.2037647 158.043618,29.0872941 157.792147,28.8552353 Z M161.062147,36.5087647 L159.842735,36.5087647 L159.842735,33.6349412 C159.842735,32.7702353 159.898324,31.9284706 160.006853,31.1096471 L158.071853,36.5087647 L156.543618,36.5087647 L156.543618,29.8231765 L157.763029,29.8231765 L157.763029,32.7252353 C157.763029,33.2414118 157.748029,33.6737647 157.718912,34.0222941 C157.690676,34.3699412 157.650088,34.7705294 157.598029,35.2214118 L159.552441,29.8231765 L161.062147,29.8231765 L161.062147,36.5087647 Z"
        id="Fill-40" fill="#FFFFFF" mask="url(#mask-6)"></path>
    </g>
  </g>
</svg>
