<?xml version="1.0" encoding="UTF-8"?>
<svg width="60px" height="60px" viewBox="0 0 60 60" version="1.1" xmlns="http://www.w3.org/2000/svg">
  <!-- Generator: Sketch 48.2 (47327) - http://www.bohemiancoding.com/sketch -->
  <title>Combined Shape</title>
  <desc>Created with Sketch.</desc>
  <defs>
    <linearGradient x1="50%" y1="0%" x2="50%" y2="97.6442921%" id="linearGradient-1">
      <stop stop-color="#FBCF1A" offset="0%"></stop>
      <stop stop-color="#ED8900" offset="100%"></stop>
    </linearGradient>
  </defs>
  <g id="320_landing-page-copy-2" stroke="none" stroke-width="1" fill="none" fill-rule="evenodd"
     transform="translate(-130.000000, -168.000000)">
    <path
      d="M160,228 C143.431458,228 130,214.568542 130,198 C130,181.431458 143.431458,168 160,168 C176.568542,168 190,181.431458 190,198 C190,214.568542 176.568542,228 160,228 Z M151,183 L151,191.9985 L157,198 L151,204 L151,213 L169,213 L169,204.015 L163,198 L169,192.015 L169,183 L151,183 Z M155,190.20056 L155,186 L165,186 L165,190.20056 L160,195 L155,190.20056 Z M155,205.80056 L160,201 L165,205.80056 L165,210 L155,210 L155,205.80056 Z"
      id="Combined-Shape" fill="url(#linearGradient-1)"></path>
  </g>
</svg>
