<?xml version="1.0" encoding="UTF-8"?>
<svg xmlns:xlink="http://www.w3.org/1999/xlink" width="30px" height="30px" viewBox="0 0 30 30" version="1.1"
     xmlns="http://www.w3.org/2000/svg">
  <!-- Generator: Sketch 48.2 (47327) - http://www.bohemiancoding.com/sketch -->
  <title>Whatsapp_icon</title>
  <desc>Created with Sketch.</desc>
  <defs>
    <polygon id="path-1"
             points="9.83606557e-06 0.0343278689 29.9650962 0.0343278689 29.9650962 29.9999656 9.83606557e-06 29.9999656"></polygon>
  </defs>
  <g id="375_landing-page1" stroke="none" stroke-width="1" fill="none" fill-rule="evenodd"
     transform="translate(-123.000000, -500.000000)">
    <g id="Whatsapp_icon" transform="translate(120.000000, 497.000000)">
      <g transform="translate(3.000000, 3.000000)" id="Page-1">
        <g>
          <g id="Group-3">
            <mask id="mask-2" fill="white">
              <use xlink:href="#path-1"></use>
            </mask>
            <g id="Clip-2"></g>
            <path
              d="M3.70461639,26.3775393 C3.83051803,26.3441459 3.90143607,26.3285557 3.9703377,26.3066705 C5.38973115,25.8553918 6.8098623,25.406277 8.2268459,24.9476213 C8.39115738,24.8944574 8.51450164,24.9057197 8.66056721,24.9983754 C10.1259443,25.9278344 11.7197803,26.5306377 13.4360754,26.7702934 C16.8123541,27.2417361 19.8907967,26.4796869 22.6503541,24.4652607 C24.1722885,23.3542279 25.3674689,21.9549 26.2442557,20.294277 C27.4417967,18.0260311 27.8730098,15.607982 27.5415836,13.0627033 C27.1207475,9.8311623 25.6019115,7.19327705 23.1064525,5.13522787 C21.1699279,3.53819508 18.9268131,2.61606393 16.412223,2.39735902 C13.7806328,2.16847377 11.3169934,2.69888361 9.02774754,4.02857213 C7.40627213,4.97037541 6.06782951,6.2191623 5.0098623,7.75973607 C3.99974754,9.23062131 3.34476393,10.8541623 3.05204262,12.6184574 C2.82876393,13.9643754 2.83230492,15.313982 3.06025574,16.655523 C3.36487869,18.4483918 4.03451803,20.1003098 5.08978033,21.5869328 C5.21400984,21.7619656 5.22674754,21.9087689 5.15750164,22.1051459 C4.8636,22.9386049 4.58391148,23.7771787 4.29999344,24.6141787 C4.10617377,25.1856541 3.91387869,25.7576705 3.70461639,26.3775393 M9.83606557e-06,29.9999656 C0.485419672,28.5674902 0.955337705,27.1802115 1.4256,25.7930311 C1.81702623,24.6382279 2.21238689,23.4847033 2.59407541,22.3266541 C2.62619016,22.2290803 2.59997705,22.0830148 2.54656721,21.9909492 C1.75589508,20.6268836 1.15663279,19.1840803 0.865337705,17.6345557 C-0.125301639,12.3651787 1.26979672,7.81319508 5.10915738,4.06752295 C7.51992787,1.71557213 10.4602721,0.36694918 13.8112721,0.0957688525 C19.3896984,-0.355657377 23.9133541,1.6809 27.2684361,6.17578525 C28.8882885,8.34601475 29.7925672,10.8258836 29.9376492,13.5333098 C30.2465016,19.2957197 27.9467311,23.7924738 23.1425508,26.9518672 C20.2851738,28.8309 17.0898295,29.4908508 13.6863049,29.1438836 C11.8051082,28.9521787 10.035059,28.4028836 8.36381311,27.5267361 C8.2148459,27.4486377 8.08589508,27.4380639 7.92364918,27.4899492 C5.37458361,28.3046705 2.82345246,29.1127033 0.272616393,29.9218672 C0.196534426,29.9460639 0.11917377,29.965982 9.83606557e-06,29.9999656"
              id="Fill-1" fill="#F9B301" mask="url(#mask-2)"></path>
          </g>
          <path
            d="M10.8514969,8.20205451 C10.9226198,8.20205451 10.9825261,8.20992063 11.0397162,8.2008177 C11.5585013,8.11819873 11.8294626,8.39272128 12.0100867,8.82659455 C12.3905493,9.74064728 12.7793614,10.6513359 13.1702359,11.561134 C13.3249057,11.9211449 13.1496132,12.2124881 12.9587784,12.479194 C12.7281066,12.801309 12.4554854,13.0948785 12.1948857,13.3956214 C11.9650187,13.6608926 11.9334812,13.8286536 12.1181795,14.132266 C13.3335068,16.1299135 15.0194829,17.5851452 17.2449171,18.4131159 C17.5511884,18.5270509 17.7247706,18.482031 17.9528268,18.2144841 C18.3133709,17.7915442 18.6664707,17.3624698 19.0169047,16.9313175 C19.314273,16.5655183 19.4919798,16.5007094 19.926363,16.6977087 C20.9141371,17.1456816 21.8929579,17.6127508 22.876708,18.069332 C23.1153773,18.1801007 23.1792069,18.3694318 23.1816213,18.6128361 C23.1947493,19.9400332 22.5511721,20.8459724 21.3485705,21.3932365 C20.4544031,21.8002463 19.5245736,21.9724598 18.5696449,21.6504932 C17.4316777,21.2668345 16.2818902,20.899749 15.1853694,20.4192232 C13.92764,19.8680013 12.8732196,19.0018379 11.9148202,18.0313866 C10.6300802,16.7306078 9.48527226,15.3236117 8.68813186,13.6785048 C8.13946909,12.5462292 8.0022028,11.3600285 8.44780267,10.1515653 C8.69623001,9.47789917 9.12221324,8.92257107 9.67354186,8.46039957 C10.0204046,8.16960059 10.4374848,8.15545148 10.8514969,8.20205451"
            id="Fill-4" fill="#F9B301"></path>
        </g>
      </g>
    </g>
  </g>
</svg>
