<?xml version="1.0" encoding="UTF-8"?>
<svg width="88px" height="131px" viewBox="0 0 88 131" version="1.1" xmlns="http://www.w3.org/2000/svg">
    <!-- Generator: Sketch 48.2 (47327) - http://www.bohemiancoding.com/sketch -->
    <title>4-illustration</title>
    <desc>Created with Sketch.</desc>
    <defs>
        <linearGradient x1="28.2214079%" y1="19.8918434%" x2="74.727676%" y2="84.8969005%" id="linearGradient-1">
            <stop stop-color="#000000" stop-opacity="0" offset="0%"></stop>
            <stop stop-color="#000000" stop-opacity="0.3" offset="99.64%"></stop>
        </linearGradient>
        <linearGradient x1="97.9633166%" y1="-6.27924481%" x2="-6.06180905%" y2="103.829165%" id="linearGradient-2">
            <stop stop-color="#2D2F4D" offset="0%"></stop>
            <stop stop-color="#343757" offset="15.81%"></stop>
            <stop stop-color="#53588F" offset="30.1%"></stop>
            <stop stop-color="#2F304F" offset="43.11%"></stop>
            <stop stop-color="#212238" offset="99.81%"></stop>
        </linearGradient>
        <linearGradient x1="97.4683495%" y1="0.864521744%" x2="2.39378641%" y2="99.7860651%" id="linearGradient-3">
            <stop stop-color="#57D4E6" offset="0%"></stop>
            <stop stop-color="#188DC2" offset="99.81%"></stop>
        </linearGradient>
        <radialGradient cx="50.0746126%" cy="50.0688804%" fx="50.0746126%" fy="50.0688804%" r="292.209127%"
                        gradientTransform="translate(0.500746,0.500689),scale(1.000000,0.827107),translate(-0.500746,-0.500689)"
                        id="radialGradient-4">
            <stop stop-color="#FFFFFF" stop-opacity="0.5" offset="0%"></stop>
            <stop stop-color="#FFFFFF" stop-opacity="0.2" offset="99.5%"></stop>
        </radialGradient>
        <radialGradient cx="50.0320473%" cy="49.9979156%" fx="50.0320473%" fy="49.9979156%" r="292.458076%"
                        gradientTransform="translate(0.500320,0.499979),scale(1.000000,0.824946),translate(-0.500320,-0.499979)"
                        id="radialGradient-5">
            <stop stop-color="#FFFFFF" stop-opacity="0.3" offset="0%"></stop>
            <stop stop-color="#FFFFFF" stop-opacity="0.2" offset="99.64%"></stop>
        </radialGradient>
        <radialGradient cx="50.0448661%" cy="49.998126%" fx="50.0448661%" fy="49.998126%" r="292.24099%"
                        gradientTransform="translate(0.500449,0.499981),scale(1.000000,0.826134),translate(-0.500449,-0.499981)"
                        id="radialGradient-6">
            <stop stop-color="#FFFFFF" stop-opacity="0.3" offset="0%"></stop>
            <stop stop-color="#FFFFFF" stop-opacity="0.2" offset="99.64%"></stop>
        </radialGradient>
        <linearGradient x1="0.193856655%" y1="50.0815513%" x2="99.7443686%" y2="50.0815513%" id="linearGradient-7">
            <stop stop-color="#B0C2D9" offset="0%"></stop>
            <stop stop-color="#D1DCEA" offset="40.66%"></stop>
            <stop stop-color="#F2F6F7" offset="60.43%"></stop>
            <stop stop-color="#D1DCEA" offset="71.89%"></stop>
            <stop stop-color="#B0C2D9" offset="99.81%"></stop>
        </linearGradient>
        <linearGradient x1="98.686%" y1="-2.90277333%" x2="29.905%" y2="55.5849149%" id="linearGradient-8">
            <stop stop-color="#8CA2BF" offset="0%"></stop>
            <stop stop-color="#F2F6F7" offset="60.43%"></stop>
            <stop stop-color="#D1DCEA" offset="71.89%"></stop>
            <stop stop-color="#9EB8D9" offset="99.81%"></stop>
        </linearGradient>
        <linearGradient x1="77.8746357%" y1="4.04739029%" x2="20.9287585%" y2="95.7773697%" id="linearGradient-9">
            <stop stop-color="#2ECAE6" offset="0%"></stop>
            <stop stop-color="#2E90E6" offset="99.81%"></stop>
        </linearGradient>
        <linearGradient x1="98.7358543%" y1="-11.7726766%" x2="8.74705882%" y2="90.8512142%" id="linearGradient-10">
            <stop stop-color="#E50E0E" offset="0%"></stop>
            <stop stop-color="#FF6E6E" offset="68.08%"></stop>
            <stop stop-color="#C90B0B" offset="100%"></stop>
        </linearGradient>
    </defs>
    <g id="the-confirmation" stroke="none" stroke-width="1" fill="none" fill-rule="evenodd"
       transform="translate(-44.000000, -1122.000000)">
        <g id="4-illustration" transform="translate(20.000000, 1117.000000)">
            <g id="Group">
                <g transform="translate(17.000000, 5.000000)" fill-rule="nonzero">
                    <path d="M91.5073529,46.4577114 C91.3676471,48.0597015 90.1801471,49.3830846 88.8529412,49.3830846 C87.5257353,49.3830846 86.6176471,48.1293532 86.7573529,46.5273632 C86.8970588,44.9253731 88.0845588,43.60199 89.4117647,43.60199 C90.6691176,43.5323383 91.6470588,44.8557214 91.5073529,46.4577114 Z"
                          id="Shape" fill="#FFFFFF" opacity="0.7"></path>
                    <path d="M46.8014706,17.761194 C46.5919118,19.9900498 44.9154412,21.800995 43.0992647,21.800995 C41.2830882,21.800995 39.9558824,19.9900498 40.1654412,17.761194 C40.375,15.5323383 42.0514706,13.721393 43.8676471,13.721393 C45.6838235,13.721393 47.0110294,15.5323383 46.8014706,17.761194 Z"
                          id="Shape" fill="#FFFFFF" opacity="0.7"></path>
                    <path d="M49.7352941,8.00995025 C49.5955882,8.98507463 48.8970588,9.75124378 48.1985294,9.75124378 C47.4301471,9.75124378 46.8713235,8.98507463 47.0110294,8.07960199 C47.0808824,7.17412935 47.7794118,6.4079602 48.5477941,6.4079602 C49.3161765,6.4079602 49.8051471,7.10447761 49.7352941,8.00995025 Z"
                          id="Shape" fill="#FFFFFF" opacity="0.7"></path>
                    <path d="M39.1176471,7.5920398 C39.0477941,8.07960199 38.6985294,8.4278607 38.3492647,8.4278607 C38,8.4278607 37.7205882,8.07960199 37.7205882,7.5920398 C37.7904412,7.10447761 38.1397059,6.75621891 38.4889706,6.75621891 C38.8382353,6.75621891 39.1875,7.17412935 39.1176471,7.5920398 Z"
                          id="Shape" fill="#FFFFFF" opacity="0.7"></path>
                    <path d="M94.7205882,3.97014925 C94.6507353,4.45771144 94.3014706,4.80597015 93.9522059,4.80597015 C93.6029412,4.80597015 93.3235294,4.45771144 93.3235294,3.97014925 C93.3933824,3.48258706 93.7426471,3.13432836 94.0919118,3.13432836 C94.4411765,3.06467662 94.7205882,3.48258706 94.7205882,3.97014925 Z"
                          id="Shape" fill="#FFFFFF" opacity="0.7"></path>
                    <path d="M25.6360294,41.1641791 C25.5661765,41.6517413 25.2169118,42 24.8676471,42 C24.5183824,42 24.2389706,41.6517413 24.2389706,41.1641791 C24.2389706,40.6766169 24.6580882,40.3283582 25.0073529,40.3283582 C25.4264706,40.3283582 25.7058824,40.6766169 25.6360294,41.1641791 Z"
                          id="Shape" fill="#FFFFFF" opacity="0.7"></path>
                    <path d="M94.7205882,27.6517413 C94.6507353,28.5572139 93.9522059,29.3233831 93.1838235,29.3233831 C92.4154412,29.3233831 91.8566176,28.5572139 91.9264706,27.6517413 C91.9963235,26.7462687 92.6948529,25.9800995 93.4632353,25.9800995 C94.2316176,25.9800995 94.7904412,26.6766169 94.7205882,27.6517413 Z"
                          id="Shape" fill="#FFFFFF" opacity="0.7"></path>
                    <path d="M80.2610294,50.8457711 C80.1911765,51.4726368 79.7022059,52.0298507 79.2132353,52.0298507 C78.7242647,52.0298507 78.3051471,51.4726368 78.375,50.8457711 C78.4448529,50.2189055 78.9338235,49.6616915 79.4227941,49.6616915 C79.9816176,49.6616915 80.3308824,50.2189055 80.2610294,50.8457711 Z"
                          id="Shape" fill="#FFFFFF" opacity="0.7"></path>
                    <polygon id="Shape" fill="url(#linearGradient-1)"
                             points="72.7169118 109.21393 34.9264706 86.9950249 0.279411765 107.751244 37.5110294 129.691542"></polygon>
                    <path d="M74.3933824,18.1791045 L70.0625,15.60199 C69.5735294,15.2537313 68.875,15.1144279 68.3161765,15.4626866 L33.8786765,35.5920398 C33.1801471,36.0099502 32.6911765,36.7761194 32.6911765,37.6119403 L32.6911765,125.860697 C32.6911765,126.905473 33.3897059,127.741294 34.2279412,128.089552 L38.3492647,130.597015 L39.4669118,127.044776 L39.0477941,126.208955 L69.3639706,108.517413 C70.0625,108.099502 70.5514706,107.333333 70.5514706,106.497512 L70.5514706,22.7761194 L71.3198529,22.8457711 L74.3933824,18.1791045 Z"
                          id="Shape" fill="url(#linearGradient-2)"></path>
                    <path d="M74.0441176,111.164179 L40.7941176,130.597015 C39.2573529,131.502488 37.3014706,130.38806 37.3014706,128.577114 L37.3014706,40.39801 C37.3014706,39.5621891 37.7205882,38.7960199 38.4889706,38.3781095 L72.9264706,18.2487562 C73.9742647,17.6218905 75.2316176,18.3880597 75.2316176,19.5721393 L75.2316176,109.144279 C75.2316176,109.9801 74.8125,110.746269 74.0441176,111.164179 Z"
                          id="Shape" fill="#000000"></path>
                    <path d="M72.3676471,19.9900498 L66.0110294,23.681592 L66.0110294,27.1641791 C66.0110294,27.4427861 65.8713235,27.721393 65.5919118,27.9303483 L48.7573529,37.8208955 C48.2683824,38.0995025 47.6397059,37.7512438 47.6397059,37.1940299 L47.6397059,34.4776119 L39.3970588,39.2835821 C38.6985294,39.7014925 38.2794118,40.39801 38.2794118,41.1641791 L38.2794118,127.462687 C38.2794118,128.925373 39.8860294,129.830846 41.1433824,129.064677 L73.1360294,110.39801 C73.8345588,109.9801 74.2536765,109.283582 74.2536765,108.517413 L74.2536765,21.0348259 C74.2536765,20.1293532 73.2058824,19.5024876 72.3676471,19.9900498 Z"
                          id="Shape" fill="url(#linearGradient-3)"></path>
                    <path d="M59.9338235,59.761194 L54.8345588,62.7562189 C54.1360294,63.1741294 53.2977941,62.6865672 53.2977941,61.8507463 L53.2977941,55.721393 C53.2977941,55.1641791 53.5772059,54.6766169 54.0661765,54.39801 L59.3051471,51.3333333 C60.0036765,50.9154229 60.8419118,51.4029851 60.8419118,52.238806 L60.8419118,58.2288557 C60.8419118,58.8557214 60.4926471,59.4129353 59.9338235,59.761194 Z"
                          id="Shape" fill="#FFFFFF" opacity="0.3"></path>
                    <path d="M70.2022059,36.358209 L43.5882353,51.8905473 C42.8897059,52.3084577 42.0514706,51.8208955 42.0514706,50.9850746 L42.0514706,47.2238806 C42.0514706,46.6666667 42.3308824,46.1791045 42.8198529,45.9004975 L69.5735294,30.2288557 C70.2720588,29.8109453 71.1102941,30.2985075 71.1102941,31.1343284 L71.1102941,34.7562189 C71.1102941,35.3830846 70.7610294,36.0099502 70.2022059,36.358209 Z"
                          id="Shape" fill="#FFFFFF" opacity="0.3"></path>
                    <path d="M70.8308824,53.4925373 L65.7316176,56.4179104 C65.0330882,56.8358209 64.1948529,56.3482587 64.1948529,55.5124378 L64.1948529,49.4527363 C64.1948529,48.8955224 64.4742647,48.4079602 64.9632353,48.1293532 L70.2022059,45.0646766 C70.9007353,44.6467662 71.7389706,45.1343284 71.7389706,45.9701493 L71.7389706,51.960199 C71.7389706,52.5870647 71.3897059,53.1442786 70.8308824,53.4925373 Z"
                          id="Shape" fill="#FFFFFF" opacity="0.3"></path>
                    <path d="M49.2463235,80.5870647 L44.1470588,83.5820896 C43.4485294,84 42.6102941,83.5124378 42.6102941,82.6766169 L42.6102941,76.5472637 C42.6102941,75.9900498 42.8897059,75.5024876 43.3786765,75.2238806 L48.6176471,72.159204 C49.3161765,71.7412935 50.1544118,72.2288557 50.1544118,73.0646766 L50.1544118,79.0547264 C50.1544118,79.681592 49.8051471,80.238806 49.2463235,80.5870647 Z"
                          id="Shape" fill="#FFFFFF" opacity="0.3"></path>
                    <path d="M59.9338235,74.318408 L54.8345588,77.3134328 C54.1360294,77.7313433 53.2977941,77.2437811 53.2977941,76.4079602 L53.2977941,70.278607 C53.2977941,69.721393 53.5772059,69.2338308 54.0661765,68.9552239 L59.3051471,65.8905473 C60.0036765,65.4726368 60.8419118,65.960199 60.8419118,66.7960199 L60.8419118,72.7860697 C60.8419118,73.4129353 60.4926471,73.9701493 59.9338235,74.318408 Z"
                          id="Shape" fill="#FFFFFF" opacity="0.3"></path>
                    <path d="M48.6176471,57.60199 L43.3786765,60.6666667 C42.8897059,60.9452736 42.6102941,61.4328358 42.6102941,61.9900498 L42.6102941,68.119403 C42.6102941,68.8855721 43.4485294,69.3731343 44.1470588,69.0248756 L49.2463235,66.0298507 C49.8051471,65.681592 50.1544118,65.1243781 50.1544118,64.4278607 L50.1544118,58.5074627 C50.1544118,57.6716418 49.2463235,57.1840796 48.6176471,57.60199 Z M47.9191176,63.6616915 C47.7794118,64.6368159 46.9411765,65.4726368 46.1727941,65.4726368 C45.4044118,65.4726368 44.9154412,64.7064677 45.0551471,63.6616915 C45.1948529,62.6865672 46.0330882,61.8507463 46.8014706,61.8507463 C47.6397059,61.8507463 48.1286765,62.6865672 47.9191176,63.6616915 Z"
                          id="Shape" fill="#FFFFFF" opacity="0.3"></path>
                    <path d="M70.2022059,59.6218905 L64.9632353,62.6865672 C64.4742647,62.9651741 64.1948529,63.4527363 64.1948529,64.0099502 L64.1948529,70.1393035 C64.1948529,70.9054726 65.0330882,71.3930348 65.7316176,71.0447761 L70.8308824,68.0497512 C71.3897059,67.7014925 71.7389706,67.1442786 71.7389706,66.4477612 L71.7389706,60.4577114 C71.7389706,59.6915423 70.9007353,59.2039801 70.2022059,59.6218905 Z M69.6433824,65.6119403 C69.5036765,66.5870647 68.6654412,67.4228856 67.8970588,67.4228856 C67.1286765,67.4228856 66.6397059,66.6567164 66.7794118,65.6119403 C66.9191176,64.6368159 67.7573529,63.800995 68.5257353,63.800995 C69.2941176,63.800995 69.7830882,64.5671642 69.6433824,65.6119403 Z"
                          id="Shape" fill="#FFFFFF" opacity="0.3"></path>
                    <path d="M65.4522059,110.467662 C65.3823529,110.467662 65.3125,110.467662 65.2426471,110.537313 L48.3382353,120.427861 C48.3382353,120.427861 48.3382353,120.427861 48.3382353,120.427861 C48.1985294,120.497512 48.0588235,120.706468 47.9889706,120.915423 C47.9191176,121.263682 48.0588235,121.472637 48.3382353,121.472637 C48.4080882,121.472637 48.4779412,121.472637 48.5477941,121.402985 L65.3823529,111.512438 C65.3823529,111.512438 65.3823529,111.512438 65.3823529,111.512438 C65.5220588,111.442786 65.6617647,111.233831 65.7316176,111.024876 C65.8014706,110.746269 65.6617647,110.467662 65.4522059,110.467662 Z"
                          id="Shape" fill="#FFFFFF" opacity="0.5"></path>
                    <g transform="translate(48.897059, 0.000000)" id="Shape">
                        <path d="M40.0955882,24.5174129 C37.0919118,38.1691542 25.8455882,49.3134328 14.9485294,49.3830846 C4.12132353,49.4527363 -2.23529412,38.5174129 0.768382353,24.8656716 C3.77205882,11.2139303 15.0183824,0.0696517413 25.9154412,0 C36.8125,-0.0696517413 43.1691176,10.8656716 40.0955882,24.5174129 Z"
                              fill="url(#radialGradient-4)"></path>
                        <path d="M35.9044118,24.5870647 C33.5294118,35.3134328 24.6580882,44.0895522 16.1360294,44.159204 C7.61397059,44.2288557 2.65441176,35.5920398 5.02941176,24.8656716 C7.40441176,14.1393035 16.2757353,5.36318408 24.7977941,5.29353234 C33.3198529,5.2238806 38.2794118,13.8606965 35.9044118,24.5870647 Z"
                              fill="url(#radialGradient-5)"></path>
                        <path d="M31.5036765,24.6567164 C29.8272059,32.318408 23.4705882,38.5870647 17.3933824,38.5870647 C11.3161765,38.5870647 7.75367647,32.4577114 9.43014706,24.7960199 C11.1066176,17.1343284 17.4632353,10.8656716 23.5404412,10.8656716 C29.6176471,10.7960199 33.1801471,16.9950249 31.5036765,24.6567164 Z"
                              fill="url(#radialGradient-6)"></path>
                        <g transform="translate(12.573529, 15.323383)">
                            <path d="M14.5992647,4.73631841 C14.25,3.83084577 13.8308824,3.06467662 13.2022059,2.43781095 C12.4338235,1.60199005 11.4558824,1.11442786 10.4080882,0.835820896 C9.70955882,0.696517413 9.01102941,0.626865672 8.24264706,0.696517413 C8.10294118,0.696517413 8.03308824,0.766169154 7.89338235,0.766169154 C7.82352941,0.766169154 7.82352941,0.766169154 7.82352941,0.766169154 C7.61397059,0.835820896 7.47426471,0.905472637 7.26470588,0.975124378 C5.37867647,1.81094527 3.77205882,3.2039801 2.44485294,5.15422886 C0.628676471,7.94029851 -0.0698529412,10.7263682 0.419117647,13.5820896 C0.838235294,16.159204 2.23529412,17.8308458 4.33088235,18.5970149 C5.44852941,19.0149254 6.70588235,19.0845771 8.03308824,18.7363184 C8.10294118,18.5970149 8.24264706,18.5970149 8.3125,18.5970149 C8.94117647,18.318408 9.56985294,17.9004975 10.1985294,17.4129353 C10.9669118,16.8557214 11.6654412,16.159204 12.2941176,15.3930348 C12.9926471,14.5572139 13.5514706,13.5820896 14.0404412,12.6069652 C14.5294118,11.5621891 14.8088235,10.5174129 15.0183824,9.47263682 C15.0882353,8.98507463 15.1580882,8.56716418 15.1580882,8.14925373 C15.0882353,6.89552239 14.9485294,5.78109453 14.5992647,4.73631841 Z"
                                  fill="#7EA6E8"></path>
                            <path d="M7.96323529,18.7363184 C8.03308824,18.5970149 8.17279412,18.5970149 8.24264706,18.5970149 C8.87132353,18.318408 9.5,17.9004975 10.1286765,17.4129353 C10.8970588,16.8557214 11.5955882,16.159204 12.2242647,15.3930348 C12.9227941,14.5572139 13.4816176,13.5820896 13.9705882,12.6069652 C14.4595588,11.5621891 14.7389706,10.5174129 14.9485294,9.47263682 C15.0183824,8.98507463 15.0882353,8.56716418 15.0882353,8.14925373 C15.1580882,6.96517413 14.9485294,5.85074627 14.5992647,4.87562189 C14.25,3.97014925 13.8308824,3.2039801 13.2022059,2.57711443 C12.4338235,1.74129353 11.4558824,1.25373134 10.4080882,0.975124378 C9.70955882,0.835820896 9.01102941,0.766169154 8.24264706,0.835820896 C8.10294118,0.835820896 8.03308824,0.905472637 7.89338235,0.905472637 C7.82352941,0.905472637 7.82352941,0.905472637 7.82352941,0.905472637 C8.24264706,0.696517413 8.66176471,0.626865672 9.01102941,0.55721393 C9.98897059,0.348258706 10.8970588,0.348258706 11.8051471,0.55721393 C14.1102941,1.11442786 15.6470588,2.71641791 16.2757353,5.36318408 C16.5551471,6.33830846 16.5551471,7.38308458 16.4852941,8.4278607 C16.1360294,12.39801 13.6213235,16.2288557 10.4080882,18.039801 C9.70955882,18.4577114 8.94117647,18.7363184 8.24264706,18.9452736 C8.10294118,18.7363184 8.03308824,18.7363184 7.96323529,18.7363184 Z"
                                  fill="#3A72C1"></path>
                            <path d="M4.40073529,7.03482587 C3.49264706,7.24378109 2.65441176,8.35820896 2.72426471,9.40298507 C2.72426471,10.5174129 3.49264706,11.0746269 4.40073529,10.8656716 C5.44852941,10.5870647 6.14705882,9.47263682 6.14705882,8.4278607 C6.07720588,7.31343284 5.30882353,6.75621891 4.40073529,7.03482587 Z M8.80147059,13.1641791 C7.82352941,13.4427861 7.125,14.5572139 7.05514706,15.5323383 C7.05514706,16.6467662 7.89338235,17.2736318 8.80147059,16.9950249 C9.70955882,16.7860697 10.4779412,15.6716418 10.4779412,14.6965174 C10.5477941,13.5124378 9.70955882,12.8855721 8.80147059,13.1641791 Z M13.0625,5.29353234 C13.5514706,5.2238806 13.9705882,4.52736318 13.9705882,4.039801 C13.9705882,3.41293532 13.4816176,3.06467662 13.0625,3.2039801 C12.5735294,3.34328358 12.0845588,3.97014925 12.0845588,4.52736318 C12.0845588,5.08457711 12.5735294,5.43283582 13.0625,5.29353234 Z M13.2022059,10.9353234 C12.7830882,11.0746269 12.4338235,11.5621891 12.4338235,12.0497512 C12.4338235,12.5373134 12.8529412,12.8159204 13.2022059,12.6766169 C13.6213235,12.5373134 14.0404412,12.0497512 13.9705882,11.5621891 C13.9705882,11.0746269 13.6213235,10.7960199 13.2022059,10.9353234 Z M8.52205882,8.70646766 C8.94117647,8.56716418 9.22058824,8.07960199 9.15073529,7.73134328 C9.15073529,7.38308458 8.87132353,7.10447761 8.52205882,7.17412935 C8.10294118,7.31343284 7.82352941,7.80099502 7.82352941,8.14925373 C7.89338235,8.63681592 8.17279412,8.7761194 8.52205882,8.70646766 Z M10.3382353,1.53233831 C10.0588235,1.60199005 9.91911765,1.88059701 9.91911765,2.15920398 C9.91911765,2.43781095 10.1286765,2.57711443 10.3382353,2.50746269 C10.5477941,2.43781095 10.7573529,2.15920398 10.7573529,1.95024876 C10.7573529,1.60199005 10.6176471,1.46268657 10.3382353,1.53233831 Z M6.07720588,3.69154229 C5.79779412,3.76119403 5.65808824,3.97014925 5.65808824,4.24875622 C5.65808824,4.45771144 5.86764706,4.66666667 6.07720588,4.59701493 C6.28676471,4.52736318 6.49632353,4.24875622 6.49632353,4.039801 C6.49632353,3.83084577 6.28676471,3.62189055 6.07720588,3.69154229 Z M12.7132353,8.91542289 C12.7132353,9.12437811 12.8529412,9.33333333 13.1323529,9.26368159 C13.3419118,9.19402985 13.5514706,8.91542289 13.5514706,8.70646766 C13.5514706,8.4278607 13.4117647,8.28855721 13.1323529,8.35820896 C12.9227941,8.35820896 12.7830882,8.63681592 12.7132353,8.91542289 Z M3.70220588,11.5621891 C3.42279412,11.6318408 3.28308824,11.840796 3.28308824,12.119403 C3.28308824,12.39801 3.42279412,12.5373134 3.70220588,12.4676617 C3.98161765,12.39801 4.12132353,12.1890547 4.12132353,11.9104478 C4.12132353,11.6318408 3.98161765,11.4925373 3.70220588,11.5621891 Z M6.14705882,12.5373134 C6.07720588,12.5373134 5.9375,12.7462687 5.9375,12.8159204 C5.9375,12.9552239 6.00735294,12.9552239 6.14705882,12.9552239 C6.28676471,12.8855721 6.28676471,12.8159204 6.35661765,12.6766169 C6.35661765,12.6069652 6.28676471,12.5373134 6.14705882,12.5373134 Z M11.6654412,1.60199005 C11.5257353,1.60199005 11.4558824,1.67164179 11.4558824,1.81094527 C11.4558824,1.95024876 11.5257353,2.0199005 11.6654412,1.95024876 C11.8051471,1.88059701 11.875,1.81094527 11.875,1.67164179 C11.875,1.60199005 11.8051471,1.53233831 11.6654412,1.60199005 Z M8.87132353,3.55223881 C8.94117647,3.55223881 9.01102941,3.41293532 9.01102941,3.27363184 C9.01102941,3.13432836 8.94117647,3.06467662 8.80147059,3.13432836 C8.73161765,3.2039801 8.59191176,3.27363184 8.59191176,3.41293532 C8.66176471,3.55223881 8.73161765,3.62189055 8.87132353,3.55223881 Z"
                                  fill="#3A72C1"></path>
                            <g transform="translate(3.492647, 1.393035)" fill="#12589E">
                                <path d="M2.65441176,11.1442786 C2.58455882,11.1442786 2.51470588,11.2139303 2.51470588,11.2835821 C2.51470588,11.2835821 2.58455882,11.3532338 2.58455882,11.4228856 C2.58455882,11.4925373 2.58455882,11.4925373 2.51470588,11.5621891 C2.58455882,11.5621891 2.58455882,11.6318408 2.65441176,11.5621891 C2.79411765,11.4925373 2.79411765,11.4228856 2.86397059,11.2835821 C2.86397059,11.2139303 2.79411765,11.1442786 2.65441176,11.1442786 Z"></path>
                                <path d="M0.908088235,5.64179104 C0.838235294,5.64179104 0.768382353,5.64179104 0.698529412,5.71144279 C1.53676471,5.50248756 2.30514706,6.12935323 2.30514706,7.10447761 C2.30514706,8.07960199 1.67647059,9.12437811 0.768382353,9.47263682 C0.768382353,9.47263682 0.838235294,9.47263682 0.838235294,9.47263682 C1.88602941,9.19402985 2.58455882,8.07960199 2.58455882,7.03482587 C2.58455882,5.92039801 1.81617647,5.36318408 0.908088235,5.64179104 Z"></path>
                                <path d="M5.23897059,2.0199005 C5.23897059,2.08955224 5.23897059,2.08955224 5.23897059,2.15920398 C5.23897059,2.22885572 5.30882353,2.22885572 5.37867647,2.22885572 C5.44852941,2.22885572 5.51838235,2.08955224 5.51838235,1.95024876 C5.51838235,1.81094527 5.44852941,1.74129353 5.30882353,1.81094527 C5.23897059,1.81094527 5.16911765,1.88059701 5.16911765,1.95024876 C5.23897059,1.88059701 5.23897059,1.95024876 5.23897059,2.0199005 Z"></path>
                                <path d="M5.02941176,5.78109453 C4.95955882,5.78109453 4.88970588,5.85074627 4.88970588,5.85074627 C5.16911765,5.85074627 5.44852941,6.12935323 5.37867647,6.4079602 C5.37867647,6.68656716 5.23897059,7.10447761 4.88970588,7.31343284 C4.95955882,7.31343284 4.95955882,7.31343284 5.02941176,7.31343284 C5.44852941,7.17412935 5.72794118,6.68656716 5.65808824,6.33830846 C5.72794118,6.05970149 5.44852941,5.71144279 5.02941176,5.78109453 Z"></path>
                                <path d="M10.1985294,2.71641791 C10.1985294,3.2039801 9.84926471,3.76119403 9.43014706,3.97014925 C9.5,3.97014925 9.5,3.97014925 9.56985294,3.90049751 C10.0588235,3.83084577 10.4779412,3.13432836 10.4779412,2.64676617 C10.4779412,2.0199005 9.98897059,1.67164179 9.56985294,1.81094527 C9.5,1.81094527 9.43014706,1.88059701 9.43014706,1.88059701 C9.77941176,1.81094527 10.1985294,2.15920398 10.1985294,2.71641791 Z"></path>
                                <path d="M9.5,7.87064677 C9.56985294,7.87064677 9.56985294,7.87064677 9.63970588,7.87064677 C9.84926471,7.80099502 10.0588235,7.52238806 10.0588235,7.31343284 C10.0588235,7.03482587 9.91911765,6.89552239 9.63970588,6.96517413 C9.56985294,6.96517413 9.5,7.03482587 9.5,7.03482587 C9.63970588,7.03482587 9.77941176,7.17412935 9.77941176,7.38308458 C9.77941176,7.52238806 9.70955882,7.73134328 9.5,7.87064677 Z"></path>
                                <path d="M0.209558824,10.1691542 C0.139705882,10.1691542 0.0698529412,10.238806 0.0698529412,10.238806 C0.209558824,10.238806 0.349264706,10.3781095 0.349264706,10.5870647 C0.349264706,10.7960199 0.279411765,11.0049751 0.0698529412,11.0746269 C0.139705882,11.0746269 0.139705882,11.0746269 0.209558824,11.0746269 C0.488970588,11.0049751 0.628676471,10.7960199 0.628676471,10.5174129 C0.628676471,10.238806 0.488970588,10.0995025 0.209558824,10.1691542 Z"></path>
                                <path d="M2.58455882,2.29850746 C2.51470588,2.29850746 2.51470588,2.3681592 2.44485294,2.3681592 C2.58455882,2.3681592 2.72426471,2.57711443 2.72426471,2.71641791 C2.72426471,2.92537313 2.58455882,3.13432836 2.44485294,3.2039801 C2.51470588,3.2039801 2.51470588,3.2039801 2.58455882,3.2039801 C2.79411765,3.13432836 3.00367647,2.85572139 3.00367647,2.64676617 C3.00367647,2.43781095 2.79411765,2.22885572 2.58455882,2.29850746 Z"></path>
                                <path d="M9.70955882,9.54228856 C9.63970588,9.54228856 9.63970588,9.6119403 9.56985294,9.6119403 C9.91911765,9.6119403 10.2683824,9.82089552 10.2683824,10.3084577 C10.2683824,10.7263682 9.98897059,11.2139303 9.63970588,11.3532338 C9.70955882,11.3532338 9.70955882,11.3532338 9.77941176,11.3532338 C10.1985294,11.2139303 10.6176471,10.7263682 10.5477941,10.238806 C10.4779412,9.68159204 10.1286765,9.40298507 9.70955882,9.54228856 Z"></path>
                                <path d="M6.84558824,0.139303483 C6.77573529,0.139303483 6.70588235,0.208955224 6.70588235,0.208955224 C6.84558824,0.208955224 6.98529412,0.348258706 6.98529412,0.55721393 C6.98529412,0.696517413 6.84558824,0.905472637 6.70588235,1.04477612 C6.77573529,1.04477612 6.77573529,1.04477612 6.84558824,1.04477612 C7.05514706,0.975124378 7.26470588,0.696517413 7.26470588,0.487562189 C7.26470588,0.208955224 7.125,0.0696517413 6.84558824,0.139303483 Z"></path>
                                <path d="M8.38235294,0.348258706 C8.38235294,0.208955224 8.3125,0.139303483 8.17279412,0.208955224 C8.10294118,0.208955224 8.03308824,0.278606965 8.03308824,0.278606965 C8.03308824,0.278606965 8.03308824,0.348258706 8.03308824,0.417910448 C8.03308824,0.487562189 8.03308824,0.55721393 8.03308824,0.55721393 C8.03308824,0.55721393 8.10294118,0.626865672 8.17279412,0.55721393 C8.3125,0.55721393 8.38235294,0.487562189 8.38235294,0.348258706 Z"></path>
                                <path d="M5.30882353,11.7711443 C5.23897059,11.7711443 5.16911765,11.840796 5.09926471,11.840796 C5.9375,11.7014925 6.70588235,12.2587065 6.70588235,13.3731343 C6.70588235,14.278607 6.00735294,15.3233831 5.16911765,15.60199 C5.23897059,15.60199 5.23897059,15.60199 5.30882353,15.5323383 C6.21691176,15.3233831 6.98529412,14.2089552 6.98529412,13.2338308 C7.05514706,12.119403 6.21691176,11.4925373 5.30882353,11.7711443 Z"></path>
                            </g>
                        </g>
                    </g>
                    <g transform="translate(67.058824, 75.223881)" id="Shape">
                        <path d="M17.6727941,3.06467662 C17.2536765,2.92537313 16.5551471,3.13432836 15.7867647,3.55223881 C14.25,4.45771144 12.7132353,5.36318408 11.1066176,6.19900498 C10.9669118,6.26865672 10.7573529,6.4079602 10.5477941,6.47761194 C10.6176471,5.64179104 10.7573529,4.87562189 10.8272059,4.17910448 C10.8272059,4.039801 10.8272059,3.90049751 10.8970588,3.76119403 C11.1764706,3.90049751 11.5257353,4.039801 11.5955882,3.97014925 C11.7352941,3.83084577 12.4338235,3.13432836 12.4338235,3.13432836 L12.7132353,2.50746269 L10.2683824,0.766169154 C10.1985294,0.696517413 10.1286765,0.626865672 9.98897059,0.55721393 L9.91911765,0.55721393 C9.22058824,0.208955224 8.24264706,0.55721393 7.19485294,1.46268657 C6.91544118,1.67164179 6.84558824,1.88059701 6.84558824,2.15920398 C6.91544118,2.85572139 7.05514706,3.55223881 7.05514706,4.31840796 C7.05514706,4.73631841 7.125,5.29353234 6.98529412,5.78109453 C6.00735294,8.28855721 4.95955882,10.7263682 3.98161765,13.2338308 C3.91176471,12.8855721 3.63235294,12.8159204 3.14338235,13.1641791 C2.65441176,13.4427861 2.30514706,13.721393 1.39705882,14.2089552 C0.977941176,14.4179104 0.488970588,14.9054726 0.488970588,15.5323383 C0.488970588,18.5970149 0.488970588,20.9651741 0.488970588,24.0298507 C0.488970588,24.3084577 0.558823529,24.4477612 0.698529412,24.5174129 L3.91176471,26.5373134 L4.75,25.4228856 L5.02941176,21.8706468 C5.23897059,21.800995 5.51838235,21.6616915 5.86764706,21.5223881 C8.59191176,19.9900498 11.2463235,18.4577114 13.9705882,16.9253731 C14.3198529,16.7164179 14.6691176,16.4378109 15.0183824,16.0895522 C15.9264706,15.1144279 16.2058824,14.2089552 15.9264706,13.0945274 C16.5551471,12.5373134 17.0441176,11.9800995 17.3235294,11.2139303 C17.6029412,10.4477612 17.4632353,9.89054726 17.2536765,9.6119403 C17.6727941,8.91542289 18.1617647,8.14925373 18.1617647,7.45273632 L19.3492647,7.5920398 L20.6066176,6.19900498 L20.9558824,5.29353234 L17.6727941,3.06467662 Z"
                              fill="url(#linearGradient-7)"></path>
                        <path d="M7.47426471,15.9502488 L7.125,15.0447761 L4.05147059,13.0248756 C4.05147059,13.0945274 4.05147059,13.0945274 3.98161765,13.1641791 C3.91176471,12.8159204 3.63235294,12.7462687 3.14338235,13.0945274 C2.65441176,13.3731343 2.30514706,13.6517413 1.39705882,14.1393035 C0.977941176,14.3482587 0.488970588,14.8358209 0.488970588,15.4626866 C0.488970588,18.5273632 0.488970588,20.8955224 0.488970588,23.960199 C0.488970588,24.238806 0.558823529,24.3781095 0.698529412,24.4477612 L3.91176471,26.4676617 L4.75,25.3532338 L5.02941176,21.800995 C5.23897059,21.7313433 5.51838235,21.5920398 5.86764706,21.4527363 C5.9375,21.4527363 5.9375,21.3830846 6.00735294,21.3830846 L7.47426471,16.4378109 L7.47426471,15.9502488 Z"
                              fill="url(#linearGradient-8)"></path>
                        <path d="M21.3051471,5.85074627 C21.2352941,4.80597015 20.1875,4.94527363 19,5.64179104 C17.4632353,6.54726368 15.9264706,7.45273632 14.3198529,8.28855721 C14.1801471,8.35820896 13.9705882,8.49751244 13.7610294,8.56716418 C13.8308824,7.73134328 13.9705882,6.96517413 14.0404412,6.26865672 C14.1801471,5.15422886 14.1102941,4.10945274 13.6911765,3.34328358 C13.1323529,2.15920398 11.7352941,2.29850746 10.3382353,3.55223881 C10.0588235,3.76119403 9.98897059,3.97014925 9.98897059,4.24875622 C10.0588235,4.94527363 10.1985294,5.64179104 10.1985294,6.4079602 C10.1985294,6.82587065 10.2683824,7.38308458 10.1286765,7.87064677 C9.15073529,10.3781095 8.10294118,12.8159204 7.125,15.3233831 C7.05514706,14.9751244 6.77573529,14.9054726 6.28676471,15.2537313 C5.79779412,15.5323383 5.44852941,15.8109453 4.54044118,16.2985075 C4.12132353,16.5074627 3.63235294,16.9950249 3.63235294,17.6218905 C3.63235294,20.6865672 3.63235294,23.0547264 3.63235294,26.119403 C3.63235294,26.7462687 4.19117647,26.7462687 4.61029412,26.4676617 C5.58823529,25.840796 5.58823529,25.840796 6.28676471,25.4228856 C6.91544118,25.0746269 7.125,24.7263682 7.125,24.0995025 C7.125,23.960199 7.125,23.8208955 7.125,23.681592 C7.47426471,24.0995025 8.10294118,24.0995025 9.01102941,23.5422886 C11.7352941,22.0099502 14.3897059,20.4776119 17.1139706,18.9452736 C17.4632353,18.7363184 17.8125,18.4577114 18.1617647,18.1094527 C19.0698529,17.1343284 19.3492647,16.2288557 19.0698529,15.1144279 C19.6985294,14.5572139 20.1875,14 20.4669118,13.2338308 C20.7463235,12.4676617 20.6066176,11.9104478 20.3970588,11.6318408 C20.8161765,10.9353234 21.3051471,10.1691542 21.3051471,9.47263682 C21.3051471,8.7761194 20.9558824,8.4278607 20.6066176,8.14925373 C21.0257353,7.45273632 21.375,6.61691542 21.3051471,5.85074627 Z"
                              fill="#FFFFFF"></path>
                    </g>
                    <path d="M73.3455882,99.0447761 C73.2757353,99.4626866 72.9264706,99.880597 72.5772059,99.880597 C72.2279412,99.880597 71.9485294,99.5323383 72.0183824,99.1144279 C72.0882353,98.6965174 72.4375,98.278607 72.7867647,98.278607 C73.1360294,98.2089552 73.4154412,98.5572139 73.3455882,99.0447761 Z"
                          id="Shape" fill="url(#linearGradient-9)"></path>
                    <g transform="translate(20.955882, 56.417910)" id="Shape">
                        <path d="M25.0772059,1.81094527 L22.4227941,0.417910448 C22.1433824,0.139303483 21.6544118,0.0696517413 21.2352941,0.278606965 L1.04779412,12.0497512 C0.488970588,12.39801 0.139705882,12.9552239 0.139705882,13.6517413 L0.139705882,29.6716418 C0.139705882,30.2985075 0.558823529,30.8557214 1.04779412,31.0646766 L3.63235294,32.318408 L6.28676471,31.0646766 L5.02941176,29.5323383 L21.9338235,19.7114428 C22.4926471,19.3631841 22.8419118,18.8059701 22.8419118,18.1094527 L22.8419118,3.83084577 L23.1911765,4.10945274 L25.0772059,1.81094527 Z"
                              fill="url(#linearGradient-10)"></path>
                        <path d="M24.7977941,21.2437811 L5.37867647,32.5273632 C4.33088235,33.1542289 3.00367647,32.3880597 3.00367647,31.2039801 L3.00367647,15.1840796 C3.00367647,14.5572139 3.35294118,13.9303483 3.91176471,13.5820896 L24.0992647,1.81094527 C24.7977941,1.39303483 25.6360294,1.88059701 25.6360294,2.71641791 L25.6360294,19.641791 C25.7058824,20.3383085 25.3566176,20.9651741 24.7977941,21.2437811 Z"
                              fill="#FF4343"></path>
                    </g>
                    <path d="M41.0036765,71.2537313 C41.0036765,74.1094527 38.6985294,77.3134328 35.9044118,78.4975124 C33.1102941,79.681592 30.8051471,78.2885572 30.8051471,75.5024876 C30.8051471,72.7164179 33.1102941,69.4427861 35.9742647,68.2587065 C38.6985294,67.1442786 41.0036765,68.4676617 41.0036765,71.2537313 Z M33.9485294,74.3880597 C33.9485294,74.9452736 33.9485294,75.5721393 33.9485294,76.1293532 C33.9485294,76.2686567 33.9485294,76.3383085 34.0183824,76.4776119 C34.0882353,76.6169154 34.2279412,76.6865672 34.3676471,76.6169154 C34.5073529,76.5472637 34.6470588,76.4079602 34.7867647,76.3383085 C35.7647059,75.3631841 36.8125,74.318408 37.7904412,73.3432836 C37.8602941,73.2736318 37.9301471,73.2039801 38,73.1343284 C38.2794118,72.7860697 38.2794118,72.5074627 38,72.3681592 C37.9301471,72.3681592 37.8602941,72.3681592 37.8602941,72.2985075 C36.8125,72.159204 35.8345588,71.9502488 34.7867647,71.8109453 C34.7169118,71.8109453 34.6470588,71.8109453 34.5772059,71.8109453 C34.2977941,71.8109453 34.0882353,72.0895522 34.0183824,72.3681592 C34.0183824,72.4378109 34.0183824,72.5771144 34.0183824,72.6467662 C33.9485294,73.2039801 33.9485294,73.8308458 33.9485294,74.3880597 Z"
                          id="Shape" fill="#FFFFFF" opacity="0.6"></path>
                </g>
            </g>
        </g>
    </g>
</svg>